G04 EAGLE Gerber RS-274X export*
G75*
%MOMM*%
%FSLAX34Y34*%
%LPD*%
%INTop Copper*%
%IPPOS*%
%AMOC8*
5,1,8,0,0,1.08239X$1,22.5*%
G01*
%ADD10P,1.429621X8X112.500000*%
%ADD11P,1.429621X8X292.500000*%
%ADD12C,1.320800*%
%ADD13P,1.429621X8X202.500000*%
%ADD14P,1.429621X8X22.500000*%
%ADD15C,1.524000*%
%ADD16P,1.732040X8X202.500000*%
%ADD17C,1.600200*%
%ADD18P,1.732040X8X292.500000*%
%ADD19P,1.539592X8X112.500000*%
%ADD20P,1.732040X8X22.500000*%
%ADD21C,1.208000*%
%ADD22C,0.609600*%
%ADD23R,1.006400X1.006400*%
%ADD24C,0.406400*%

G36*
X14657Y10170D02*
X14657Y10170D01*
X14750Y10169D01*
X14857Y10190D01*
X14965Y10201D01*
X15054Y10228D01*
X15145Y10246D01*
X15246Y10287D01*
X15349Y10319D01*
X15431Y10363D01*
X15518Y10399D01*
X15608Y10459D01*
X15703Y10511D01*
X15775Y10570D01*
X15853Y10622D01*
X15929Y10699D01*
X16013Y10768D01*
X16071Y10841D01*
X16137Y10907D01*
X16197Y10997D01*
X16265Y11082D01*
X16308Y11165D01*
X16360Y11242D01*
X16401Y11343D01*
X16451Y11439D01*
X16476Y11529D01*
X16512Y11615D01*
X16532Y11722D01*
X16562Y11826D01*
X16570Y11919D01*
X16587Y12011D01*
X16586Y12119D01*
X16595Y12228D01*
X16584Y12320D01*
X16583Y12413D01*
X16561Y12520D01*
X16548Y12627D01*
X16519Y12716D01*
X16500Y12807D01*
X16449Y12931D01*
X16423Y13010D01*
X16399Y13053D01*
X16374Y13114D01*
X15984Y13880D01*
X15489Y15401D01*
X15239Y16980D01*
X15239Y22861D01*
X24892Y22861D01*
X24910Y22862D01*
X24927Y22861D01*
X25110Y22882D01*
X25292Y22901D01*
X25309Y22906D01*
X25327Y22908D01*
X25405Y22933D01*
X25542Y22894D01*
X25560Y22892D01*
X25577Y22888D01*
X25908Y22861D01*
X35561Y22861D01*
X35561Y16980D01*
X35311Y15401D01*
X34816Y13880D01*
X34426Y13114D01*
X34392Y13027D01*
X34349Y12945D01*
X34319Y12840D01*
X34280Y12739D01*
X34264Y12647D01*
X34238Y12558D01*
X34229Y12449D01*
X34210Y12343D01*
X34213Y12249D01*
X34205Y12156D01*
X34218Y12049D01*
X34221Y11940D01*
X34241Y11849D01*
X34252Y11757D01*
X34286Y11653D01*
X34310Y11548D01*
X34348Y11462D01*
X34377Y11374D01*
X34430Y11279D01*
X34475Y11180D01*
X34529Y11104D01*
X34575Y11023D01*
X34646Y10941D01*
X34709Y10853D01*
X34777Y10789D01*
X34838Y10718D01*
X34924Y10652D01*
X35003Y10578D01*
X35082Y10529D01*
X35156Y10472D01*
X35253Y10423D01*
X35346Y10366D01*
X35433Y10334D01*
X35517Y10292D01*
X35621Y10264D01*
X35723Y10227D01*
X35815Y10212D01*
X35905Y10188D01*
X36039Y10177D01*
X36121Y10164D01*
X36170Y10166D01*
X36236Y10161D01*
X40468Y10161D01*
X40481Y10162D01*
X40495Y10161D01*
X40681Y10182D01*
X40869Y10201D01*
X40881Y10205D01*
X40895Y10206D01*
X41074Y10264D01*
X41254Y10319D01*
X41265Y10325D01*
X41278Y10329D01*
X41443Y10421D01*
X41608Y10511D01*
X41618Y10519D01*
X41630Y10526D01*
X41772Y10648D01*
X41917Y10768D01*
X41925Y10779D01*
X41935Y10787D01*
X42051Y10935D01*
X42169Y11082D01*
X42175Y11094D01*
X42184Y11104D01*
X42268Y11273D01*
X42355Y11439D01*
X42358Y11452D01*
X42364Y11464D01*
X42414Y11645D01*
X42466Y11826D01*
X42467Y11840D01*
X42471Y11853D01*
X42484Y12041D01*
X42499Y12228D01*
X42497Y12241D01*
X42498Y12254D01*
X42474Y12442D01*
X42452Y12627D01*
X42448Y12640D01*
X42446Y12653D01*
X42345Y12969D01*
X41147Y15860D01*
X41147Y34940D01*
X42617Y38488D01*
X45332Y41203D01*
X45481Y41265D01*
X45501Y41275D01*
X45522Y41282D01*
X45678Y41371D01*
X45836Y41455D01*
X45853Y41469D01*
X45873Y41480D01*
X46008Y41597D01*
X46147Y41712D01*
X46161Y41729D01*
X46178Y41743D01*
X46287Y41884D01*
X46400Y42024D01*
X46411Y42044D01*
X46424Y42062D01*
X46504Y42222D01*
X46587Y42381D01*
X46594Y42402D01*
X46604Y42422D01*
X46650Y42595D01*
X46700Y42767D01*
X46702Y42789D01*
X46708Y42811D01*
X46735Y43142D01*
X46735Y51609D01*
X47354Y53102D01*
X48783Y54531D01*
X48783Y54532D01*
X61198Y66946D01*
X62691Y67565D01*
X162575Y67565D01*
X162602Y67567D01*
X162628Y67565D01*
X162802Y67587D01*
X162976Y67605D01*
X163001Y67612D01*
X163028Y67616D01*
X163193Y67671D01*
X163360Y67723D01*
X163384Y67736D01*
X163409Y67744D01*
X163561Y67831D01*
X163715Y67915D01*
X163735Y67932D01*
X163758Y67945D01*
X164011Y68160D01*
X173140Y77289D01*
X173157Y77309D01*
X173178Y77327D01*
X173285Y77465D01*
X173395Y77600D01*
X173408Y77624D01*
X173424Y77645D01*
X173502Y77802D01*
X173584Y77956D01*
X173592Y77981D01*
X173604Y78006D01*
X173649Y78175D01*
X173699Y78342D01*
X173701Y78368D01*
X173708Y78394D01*
X173735Y78725D01*
X173735Y130709D01*
X173733Y130736D01*
X173735Y130763D01*
X173713Y130936D01*
X173695Y131110D01*
X173688Y131135D01*
X173684Y131162D01*
X173628Y131328D01*
X173577Y131495D01*
X173564Y131518D01*
X173556Y131544D01*
X173469Y131695D01*
X173385Y131849D01*
X173368Y131869D01*
X173355Y131893D01*
X173140Y132146D01*
X169163Y136123D01*
X169163Y143277D01*
X174223Y148337D01*
X181377Y148337D01*
X186437Y143277D01*
X186437Y136123D01*
X182460Y132146D01*
X182443Y132125D01*
X182422Y132107D01*
X182315Y131969D01*
X182205Y131834D01*
X182192Y131810D01*
X182176Y131789D01*
X182098Y131633D01*
X182016Y131478D01*
X182008Y131453D01*
X181996Y131429D01*
X181951Y131259D01*
X181901Y131092D01*
X181899Y131066D01*
X181892Y131040D01*
X181865Y130709D01*
X181865Y75391D01*
X181246Y73898D01*
X167402Y60054D01*
X165909Y59435D01*
X66025Y59435D01*
X65998Y59433D01*
X65972Y59435D01*
X65798Y59413D01*
X65624Y59395D01*
X65599Y59388D01*
X65572Y59384D01*
X65407Y59329D01*
X65240Y59277D01*
X65216Y59264D01*
X65191Y59256D01*
X65039Y59169D01*
X64885Y59085D01*
X64865Y59068D01*
X64842Y59055D01*
X64589Y58840D01*
X55460Y49711D01*
X55443Y49691D01*
X55422Y49673D01*
X55315Y49535D01*
X55205Y49400D01*
X55192Y49376D01*
X55176Y49355D01*
X55098Y49198D01*
X55016Y49044D01*
X55008Y49019D01*
X54996Y48994D01*
X54951Y48825D01*
X54901Y48658D01*
X54899Y48632D01*
X54892Y48606D01*
X54865Y48275D01*
X54865Y43142D01*
X54867Y43119D01*
X54865Y43097D01*
X54887Y42919D01*
X54905Y42741D01*
X54911Y42720D01*
X54914Y42697D01*
X54970Y42528D01*
X55023Y42356D01*
X55033Y42336D01*
X55040Y42315D01*
X55129Y42160D01*
X55215Y42002D01*
X55229Y41985D01*
X55240Y41966D01*
X55357Y41831D01*
X55472Y41693D01*
X55490Y41679D01*
X55504Y41662D01*
X55646Y41553D01*
X55786Y41440D01*
X55806Y41430D01*
X55824Y41417D01*
X56119Y41265D01*
X56268Y41203D01*
X58983Y38488D01*
X60453Y34940D01*
X60453Y15860D01*
X59255Y12969D01*
X59251Y12956D01*
X59245Y12945D01*
X59194Y12765D01*
X59139Y12584D01*
X59138Y12571D01*
X59134Y12558D01*
X59119Y12370D01*
X59101Y12183D01*
X59102Y12170D01*
X59101Y12156D01*
X59123Y11970D01*
X59142Y11783D01*
X59146Y11770D01*
X59148Y11757D01*
X59206Y11578D01*
X59262Y11398D01*
X59269Y11387D01*
X59273Y11374D01*
X59366Y11209D01*
X59456Y11045D01*
X59464Y11035D01*
X59471Y11023D01*
X59594Y10881D01*
X59715Y10737D01*
X59725Y10729D01*
X59734Y10718D01*
X59882Y10603D01*
X60030Y10486D01*
X60041Y10480D01*
X60052Y10472D01*
X60221Y10388D01*
X60388Y10302D01*
X60400Y10298D01*
X60413Y10292D01*
X60595Y10243D01*
X60775Y10192D01*
X60788Y10191D01*
X60801Y10188D01*
X61132Y10161D01*
X65868Y10161D01*
X65881Y10162D01*
X65895Y10161D01*
X66081Y10182D01*
X66269Y10201D01*
X66281Y10205D01*
X66295Y10206D01*
X66474Y10264D01*
X66654Y10319D01*
X66665Y10325D01*
X66678Y10329D01*
X66843Y10421D01*
X67008Y10511D01*
X67018Y10519D01*
X67030Y10526D01*
X67172Y10648D01*
X67317Y10768D01*
X67325Y10779D01*
X67335Y10787D01*
X67451Y10935D01*
X67569Y11082D01*
X67575Y11094D01*
X67584Y11104D01*
X67668Y11273D01*
X67755Y11439D01*
X67758Y11452D01*
X67764Y11464D01*
X67814Y11645D01*
X67866Y11826D01*
X67867Y11840D01*
X67871Y11853D01*
X67884Y12041D01*
X67899Y12228D01*
X67897Y12241D01*
X67898Y12254D01*
X67874Y12442D01*
X67852Y12627D01*
X67848Y12640D01*
X67846Y12653D01*
X67745Y12969D01*
X66547Y15860D01*
X66547Y34940D01*
X68017Y38488D01*
X70732Y41203D01*
X70881Y41265D01*
X70901Y41275D01*
X70922Y41282D01*
X71078Y41371D01*
X71236Y41455D01*
X71253Y41469D01*
X71273Y41480D01*
X71408Y41597D01*
X71547Y41712D01*
X71561Y41729D01*
X71578Y41743D01*
X71687Y41884D01*
X71800Y42024D01*
X71811Y42044D01*
X71824Y42062D01*
X71904Y42222D01*
X71987Y42381D01*
X71994Y42402D01*
X72004Y42422D01*
X72050Y42595D01*
X72100Y42767D01*
X72102Y42789D01*
X72108Y42811D01*
X72135Y43142D01*
X72135Y45259D01*
X72754Y46752D01*
X80248Y54246D01*
X81741Y54865D01*
X187975Y54865D01*
X188002Y54867D01*
X188028Y54865D01*
X188202Y54887D01*
X188376Y54905D01*
X188401Y54912D01*
X188428Y54916D01*
X188593Y54971D01*
X188760Y55023D01*
X188784Y55036D01*
X188809Y55044D01*
X188961Y55131D01*
X189115Y55215D01*
X189135Y55232D01*
X189158Y55245D01*
X189411Y55460D01*
X198540Y64589D01*
X198557Y64609D01*
X198578Y64627D01*
X198685Y64765D01*
X198795Y64900D01*
X198808Y64924D01*
X198824Y64945D01*
X198902Y65102D01*
X198984Y65256D01*
X198992Y65281D01*
X199004Y65306D01*
X199049Y65475D01*
X199099Y65642D01*
X199101Y65668D01*
X199108Y65694D01*
X199135Y66025D01*
X199135Y143409D01*
X199133Y143436D01*
X199135Y143462D01*
X199113Y143636D01*
X199095Y143810D01*
X199088Y143835D01*
X199084Y143862D01*
X199029Y144028D01*
X198977Y144195D01*
X198964Y144218D01*
X198956Y144244D01*
X198869Y144395D01*
X198785Y144549D01*
X198768Y144569D01*
X198755Y144592D01*
X198540Y144845D01*
X194563Y148823D01*
X194563Y155977D01*
X199623Y161037D01*
X206777Y161037D01*
X211837Y155977D01*
X211837Y148823D01*
X207860Y144845D01*
X207843Y144825D01*
X207822Y144807D01*
X207715Y144669D01*
X207605Y144534D01*
X207592Y144510D01*
X207576Y144489D01*
X207498Y144332D01*
X207416Y144178D01*
X207408Y144153D01*
X207396Y144129D01*
X207351Y143959D01*
X207301Y143792D01*
X207299Y143766D01*
X207292Y143740D01*
X207265Y143409D01*
X207265Y94996D01*
X207267Y94978D01*
X207265Y94960D01*
X207286Y94778D01*
X207305Y94595D01*
X207310Y94578D01*
X207312Y94561D01*
X207369Y94386D01*
X207423Y94210D01*
X207431Y94195D01*
X207437Y94178D01*
X207527Y94018D01*
X207615Y93856D01*
X207626Y93843D01*
X207635Y93827D01*
X207755Y93688D01*
X207872Y93547D01*
X207886Y93536D01*
X207898Y93522D01*
X208043Y93410D01*
X208186Y93295D01*
X208202Y93287D01*
X208216Y93276D01*
X208381Y93194D01*
X208543Y93109D01*
X208560Y93104D01*
X208576Y93096D01*
X208755Y93049D01*
X208930Y92998D01*
X208948Y92996D01*
X208965Y92992D01*
X209296Y92965D01*
X241834Y92965D01*
X241861Y92967D01*
X241887Y92965D01*
X242061Y92987D01*
X242235Y93005D01*
X242260Y93012D01*
X242287Y93016D01*
X242453Y93071D01*
X242620Y93123D01*
X242643Y93136D01*
X242669Y93144D01*
X242820Y93231D01*
X242974Y93315D01*
X242994Y93332D01*
X243017Y93345D01*
X243270Y93560D01*
X247248Y97537D01*
X254402Y97537D01*
X259462Y92477D01*
X259462Y85323D01*
X254402Y80263D01*
X247248Y80263D01*
X243270Y84240D01*
X243250Y84257D01*
X243232Y84278D01*
X243094Y84385D01*
X242959Y84495D01*
X242935Y84508D01*
X242914Y84524D01*
X242757Y84602D01*
X242603Y84684D01*
X242578Y84692D01*
X242554Y84704D01*
X242384Y84749D01*
X242217Y84799D01*
X242191Y84801D01*
X242165Y84808D01*
X241834Y84835D01*
X209296Y84835D01*
X209278Y84833D01*
X209260Y84835D01*
X209078Y84814D01*
X208895Y84795D01*
X208878Y84790D01*
X208861Y84788D01*
X208686Y84731D01*
X208510Y84677D01*
X208495Y84669D01*
X208478Y84663D01*
X208318Y84573D01*
X208156Y84485D01*
X208143Y84474D01*
X208127Y84465D01*
X207988Y84345D01*
X207847Y84228D01*
X207836Y84214D01*
X207822Y84202D01*
X207710Y84057D01*
X207595Y83914D01*
X207587Y83898D01*
X207576Y83884D01*
X207494Y83719D01*
X207409Y83557D01*
X207404Y83540D01*
X207396Y83524D01*
X207349Y83345D01*
X207298Y83170D01*
X207296Y83152D01*
X207292Y83135D01*
X207265Y82804D01*
X207265Y62691D01*
X206646Y61198D01*
X194232Y48783D01*
X194231Y48783D01*
X192802Y47354D01*
X191309Y46735D01*
X85075Y46735D01*
X85048Y46733D01*
X85022Y46735D01*
X84848Y46713D01*
X84674Y46695D01*
X84649Y46688D01*
X84622Y46684D01*
X84456Y46628D01*
X84290Y46577D01*
X84266Y46565D01*
X84241Y46556D01*
X84089Y46469D01*
X83935Y46385D01*
X83915Y46368D01*
X83892Y46355D01*
X83639Y46140D01*
X81621Y44123D01*
X81610Y44109D01*
X81596Y44097D01*
X81482Y43953D01*
X81366Y43811D01*
X81358Y43795D01*
X81347Y43781D01*
X81263Y43617D01*
X81177Y43455D01*
X81172Y43438D01*
X81164Y43422D01*
X81115Y43245D01*
X81063Y43070D01*
X81061Y43052D01*
X81056Y43035D01*
X81043Y42852D01*
X81026Y42669D01*
X81028Y42651D01*
X81027Y42633D01*
X81050Y42451D01*
X81070Y42268D01*
X81075Y42251D01*
X81077Y42234D01*
X81135Y42060D01*
X81191Y41884D01*
X81200Y41869D01*
X81205Y41852D01*
X81297Y41693D01*
X81386Y41532D01*
X81397Y41518D01*
X81406Y41503D01*
X81621Y41250D01*
X84383Y38488D01*
X85853Y34940D01*
X85853Y15860D01*
X84655Y12969D01*
X84651Y12956D01*
X84645Y12945D01*
X84594Y12765D01*
X84539Y12584D01*
X84538Y12571D01*
X84534Y12558D01*
X84519Y12370D01*
X84501Y12183D01*
X84502Y12170D01*
X84501Y12156D01*
X84523Y11970D01*
X84542Y11783D01*
X84546Y11770D01*
X84548Y11757D01*
X84606Y11578D01*
X84662Y11398D01*
X84669Y11387D01*
X84673Y11374D01*
X84766Y11209D01*
X84856Y11045D01*
X84864Y11035D01*
X84871Y11023D01*
X84994Y10881D01*
X85115Y10737D01*
X85125Y10729D01*
X85134Y10718D01*
X85282Y10603D01*
X85430Y10486D01*
X85441Y10480D01*
X85452Y10472D01*
X85621Y10388D01*
X85788Y10302D01*
X85800Y10298D01*
X85813Y10292D01*
X85995Y10243D01*
X86175Y10192D01*
X86188Y10191D01*
X86201Y10188D01*
X86532Y10161D01*
X91268Y10161D01*
X91281Y10162D01*
X91295Y10161D01*
X91481Y10182D01*
X91669Y10201D01*
X91681Y10205D01*
X91695Y10206D01*
X91874Y10264D01*
X92054Y10319D01*
X92065Y10325D01*
X92078Y10329D01*
X92243Y10421D01*
X92408Y10511D01*
X92418Y10519D01*
X92430Y10526D01*
X92572Y10648D01*
X92717Y10768D01*
X92725Y10779D01*
X92735Y10787D01*
X92851Y10935D01*
X92969Y11082D01*
X92975Y11094D01*
X92984Y11104D01*
X93068Y11273D01*
X93155Y11439D01*
X93158Y11452D01*
X93164Y11464D01*
X93214Y11645D01*
X93266Y11826D01*
X93267Y11840D01*
X93271Y11853D01*
X93284Y12041D01*
X93299Y12228D01*
X93297Y12241D01*
X93298Y12254D01*
X93274Y12442D01*
X93252Y12627D01*
X93248Y12640D01*
X93246Y12653D01*
X93145Y12969D01*
X91947Y15860D01*
X91947Y34940D01*
X93417Y38488D01*
X96132Y41203D01*
X99680Y42673D01*
X103520Y42673D01*
X107068Y41203D01*
X109783Y38488D01*
X111253Y34940D01*
X111253Y15860D01*
X110055Y12969D01*
X110051Y12956D01*
X110045Y12945D01*
X109994Y12765D01*
X109939Y12584D01*
X109938Y12571D01*
X109934Y12558D01*
X109919Y12370D01*
X109901Y12183D01*
X109902Y12170D01*
X109901Y12156D01*
X109923Y11970D01*
X109942Y11783D01*
X109946Y11770D01*
X109948Y11757D01*
X110006Y11578D01*
X110062Y11398D01*
X110069Y11387D01*
X110073Y11374D01*
X110166Y11209D01*
X110256Y11045D01*
X110264Y11035D01*
X110271Y11023D01*
X110394Y10881D01*
X110515Y10737D01*
X110525Y10729D01*
X110534Y10718D01*
X110682Y10603D01*
X110830Y10486D01*
X110841Y10480D01*
X110852Y10472D01*
X111021Y10388D01*
X111188Y10302D01*
X111200Y10298D01*
X111213Y10292D01*
X111395Y10243D01*
X111575Y10192D01*
X111588Y10191D01*
X111601Y10188D01*
X111932Y10161D01*
X116668Y10161D01*
X116681Y10162D01*
X116695Y10161D01*
X116881Y10182D01*
X117069Y10201D01*
X117081Y10205D01*
X117095Y10206D01*
X117274Y10264D01*
X117454Y10319D01*
X117465Y10325D01*
X117478Y10329D01*
X117643Y10421D01*
X117808Y10511D01*
X117818Y10519D01*
X117830Y10526D01*
X117972Y10648D01*
X118117Y10768D01*
X118125Y10779D01*
X118135Y10787D01*
X118251Y10935D01*
X118369Y11082D01*
X118375Y11094D01*
X118384Y11104D01*
X118468Y11273D01*
X118555Y11439D01*
X118558Y11452D01*
X118564Y11464D01*
X118614Y11645D01*
X118666Y11826D01*
X118667Y11840D01*
X118671Y11853D01*
X118684Y12041D01*
X118699Y12228D01*
X118697Y12241D01*
X118698Y12254D01*
X118674Y12442D01*
X118652Y12627D01*
X118648Y12640D01*
X118646Y12653D01*
X118545Y12969D01*
X117347Y15860D01*
X117347Y34940D01*
X118817Y38488D01*
X121532Y41203D01*
X125080Y42673D01*
X128920Y42673D01*
X132468Y41203D01*
X135183Y38488D01*
X136653Y34940D01*
X136653Y31496D01*
X136655Y31478D01*
X136653Y31460D01*
X136674Y31278D01*
X136693Y31095D01*
X136698Y31078D01*
X136700Y31061D01*
X136757Y30886D01*
X136811Y30710D01*
X136819Y30695D01*
X136825Y30678D01*
X136915Y30518D01*
X137003Y30356D01*
X137014Y30343D01*
X137023Y30327D01*
X137143Y30188D01*
X137260Y30047D01*
X137274Y30036D01*
X137286Y30022D01*
X137431Y29910D01*
X137574Y29795D01*
X137590Y29787D01*
X137604Y29776D01*
X137769Y29694D01*
X137931Y29609D01*
X137948Y29604D01*
X137964Y29596D01*
X138143Y29549D01*
X138318Y29498D01*
X138336Y29496D01*
X138353Y29492D01*
X138684Y29465D01*
X197659Y29465D01*
X199152Y28846D01*
X204289Y23710D01*
X204309Y23693D01*
X204327Y23672D01*
X204465Y23565D01*
X204600Y23455D01*
X204624Y23442D01*
X204645Y23426D01*
X204802Y23348D01*
X204956Y23266D01*
X204981Y23258D01*
X205006Y23246D01*
X205175Y23201D01*
X205342Y23151D01*
X205368Y23149D01*
X205394Y23142D01*
X205725Y23115D01*
X537225Y23115D01*
X537252Y23117D01*
X537278Y23115D01*
X537452Y23137D01*
X537626Y23155D01*
X537651Y23162D01*
X537678Y23166D01*
X537843Y23221D01*
X538010Y23273D01*
X538034Y23286D01*
X538059Y23294D01*
X538211Y23381D01*
X538365Y23465D01*
X538385Y23482D01*
X538408Y23495D01*
X538661Y23710D01*
X549568Y34617D01*
X549585Y34637D01*
X549606Y34655D01*
X549713Y34793D01*
X549823Y34928D01*
X549836Y34952D01*
X549852Y34973D01*
X549930Y35130D01*
X550012Y35284D01*
X550020Y35309D01*
X550032Y35334D01*
X550077Y35503D01*
X550127Y35670D01*
X550129Y35696D01*
X550136Y35722D01*
X550163Y36053D01*
X550163Y41677D01*
X555223Y46737D01*
X562377Y46737D01*
X567437Y41677D01*
X567437Y34523D01*
X562377Y29463D01*
X556753Y29463D01*
X556726Y29461D01*
X556700Y29463D01*
X556526Y29441D01*
X556352Y29423D01*
X556327Y29416D01*
X556300Y29412D01*
X556135Y29357D01*
X555968Y29305D01*
X555944Y29292D01*
X555919Y29284D01*
X555767Y29197D01*
X555613Y29113D01*
X555593Y29096D01*
X555570Y29083D01*
X555317Y28868D01*
X542052Y15604D01*
X540559Y14985D01*
X202391Y14985D01*
X200898Y15604D01*
X195761Y20740D01*
X195741Y20757D01*
X195723Y20778D01*
X195585Y20885D01*
X195450Y20995D01*
X195426Y21008D01*
X195405Y21024D01*
X195248Y21102D01*
X195094Y21184D01*
X195069Y21192D01*
X195044Y21204D01*
X194875Y21249D01*
X194708Y21299D01*
X194682Y21301D01*
X194656Y21308D01*
X194325Y21335D01*
X138684Y21335D01*
X138666Y21333D01*
X138648Y21335D01*
X138466Y21314D01*
X138283Y21295D01*
X138266Y21290D01*
X138249Y21288D01*
X138074Y21231D01*
X137898Y21177D01*
X137883Y21169D01*
X137866Y21163D01*
X137706Y21073D01*
X137544Y20985D01*
X137531Y20974D01*
X137515Y20965D01*
X137376Y20845D01*
X137235Y20728D01*
X137224Y20714D01*
X137210Y20702D01*
X137098Y20557D01*
X136983Y20414D01*
X136975Y20398D01*
X136964Y20384D01*
X136882Y20219D01*
X136797Y20057D01*
X136792Y20040D01*
X136784Y20024D01*
X136737Y19845D01*
X136686Y19670D01*
X136684Y19652D01*
X136680Y19635D01*
X136653Y19304D01*
X136653Y15860D01*
X135455Y12969D01*
X135451Y12956D01*
X135445Y12945D01*
X135394Y12765D01*
X135339Y12584D01*
X135338Y12571D01*
X135334Y12558D01*
X135319Y12370D01*
X135301Y12183D01*
X135302Y12170D01*
X135301Y12156D01*
X135323Y11970D01*
X135342Y11783D01*
X135346Y11770D01*
X135348Y11757D01*
X135406Y11578D01*
X135462Y11398D01*
X135469Y11387D01*
X135473Y11374D01*
X135566Y11209D01*
X135656Y11045D01*
X135664Y11035D01*
X135671Y11023D01*
X135794Y10881D01*
X135915Y10737D01*
X135925Y10729D01*
X135934Y10718D01*
X136082Y10603D01*
X136230Y10486D01*
X136241Y10480D01*
X136252Y10472D01*
X136421Y10388D01*
X136588Y10302D01*
X136600Y10298D01*
X136613Y10292D01*
X136795Y10243D01*
X136975Y10192D01*
X136988Y10191D01*
X137001Y10188D01*
X137332Y10161D01*
X707218Y10161D01*
X707231Y10162D01*
X707245Y10161D01*
X707431Y10182D01*
X707619Y10201D01*
X707631Y10205D01*
X707645Y10206D01*
X707824Y10264D01*
X708004Y10319D01*
X708015Y10325D01*
X708028Y10329D01*
X708193Y10421D01*
X708358Y10511D01*
X708368Y10519D01*
X708380Y10526D01*
X708522Y10648D01*
X708667Y10768D01*
X708675Y10779D01*
X708685Y10787D01*
X708801Y10935D01*
X708919Y11082D01*
X708925Y11094D01*
X708934Y11104D01*
X709018Y11273D01*
X709105Y11439D01*
X709108Y11452D01*
X709114Y11464D01*
X709164Y11645D01*
X709216Y11826D01*
X709217Y11840D01*
X709221Y11853D01*
X709234Y12041D01*
X709249Y12228D01*
X709247Y12241D01*
X709248Y12254D01*
X709224Y12442D01*
X709202Y12627D01*
X709198Y12640D01*
X709196Y12653D01*
X709095Y12969D01*
X707897Y15860D01*
X707897Y34940D01*
X709367Y38488D01*
X712082Y41203D01*
X715630Y42673D01*
X719470Y42673D01*
X723018Y41203D01*
X725733Y38488D01*
X727203Y34940D01*
X727203Y15860D01*
X726005Y12969D01*
X726001Y12956D01*
X725995Y12945D01*
X725944Y12765D01*
X725889Y12584D01*
X725888Y12571D01*
X725884Y12558D01*
X725869Y12370D01*
X725851Y12183D01*
X725852Y12170D01*
X725851Y12156D01*
X725873Y11970D01*
X725892Y11783D01*
X725896Y11770D01*
X725898Y11757D01*
X725956Y11578D01*
X726012Y11398D01*
X726019Y11387D01*
X726023Y11374D01*
X726116Y11209D01*
X726206Y11045D01*
X726214Y11035D01*
X726221Y11023D01*
X726344Y10881D01*
X726465Y10737D01*
X726475Y10729D01*
X726484Y10718D01*
X726632Y10603D01*
X726780Y10486D01*
X726791Y10480D01*
X726802Y10472D01*
X726971Y10388D01*
X727138Y10302D01*
X727150Y10298D01*
X727163Y10292D01*
X727345Y10243D01*
X727525Y10192D01*
X727538Y10191D01*
X727551Y10188D01*
X727882Y10161D01*
X732618Y10161D01*
X732631Y10162D01*
X732645Y10161D01*
X732831Y10182D01*
X733019Y10201D01*
X733031Y10205D01*
X733045Y10206D01*
X733224Y10264D01*
X733404Y10319D01*
X733415Y10325D01*
X733428Y10329D01*
X733593Y10421D01*
X733758Y10511D01*
X733768Y10519D01*
X733780Y10526D01*
X733922Y10648D01*
X734067Y10768D01*
X734075Y10779D01*
X734085Y10787D01*
X734201Y10935D01*
X734319Y11082D01*
X734325Y11094D01*
X734334Y11104D01*
X734418Y11273D01*
X734505Y11439D01*
X734508Y11452D01*
X734514Y11464D01*
X734564Y11645D01*
X734616Y11826D01*
X734617Y11840D01*
X734621Y11853D01*
X734634Y12041D01*
X734649Y12228D01*
X734647Y12241D01*
X734648Y12254D01*
X734624Y12442D01*
X734602Y12627D01*
X734598Y12640D01*
X734596Y12653D01*
X734495Y12969D01*
X733297Y15860D01*
X733297Y34940D01*
X734767Y38488D01*
X737482Y41203D01*
X741030Y42673D01*
X744870Y42673D01*
X748418Y41203D01*
X751133Y38488D01*
X752603Y34940D01*
X752603Y15860D01*
X751405Y12969D01*
X751401Y12956D01*
X751395Y12945D01*
X751344Y12765D01*
X751289Y12584D01*
X751288Y12571D01*
X751284Y12558D01*
X751269Y12370D01*
X751251Y12183D01*
X751252Y12170D01*
X751251Y12156D01*
X751273Y11970D01*
X751292Y11783D01*
X751296Y11770D01*
X751298Y11757D01*
X751356Y11578D01*
X751412Y11398D01*
X751419Y11387D01*
X751423Y11374D01*
X751516Y11209D01*
X751606Y11045D01*
X751614Y11035D01*
X751621Y11023D01*
X751744Y10881D01*
X751865Y10737D01*
X751875Y10729D01*
X751884Y10718D01*
X752032Y10603D01*
X752180Y10486D01*
X752191Y10480D01*
X752202Y10472D01*
X752371Y10388D01*
X752538Y10302D01*
X752550Y10298D01*
X752563Y10292D01*
X752745Y10243D01*
X752925Y10192D01*
X752938Y10191D01*
X752951Y10188D01*
X753282Y10161D01*
X758018Y10161D01*
X758031Y10162D01*
X758045Y10161D01*
X758231Y10182D01*
X758419Y10201D01*
X758431Y10205D01*
X758445Y10206D01*
X758624Y10264D01*
X758804Y10319D01*
X758815Y10325D01*
X758828Y10329D01*
X758993Y10421D01*
X759158Y10511D01*
X759168Y10519D01*
X759180Y10526D01*
X759322Y10648D01*
X759467Y10768D01*
X759475Y10779D01*
X759485Y10787D01*
X759601Y10935D01*
X759719Y11082D01*
X759725Y11094D01*
X759734Y11104D01*
X759818Y11273D01*
X759905Y11439D01*
X759908Y11452D01*
X759914Y11464D01*
X759964Y11645D01*
X760016Y11826D01*
X760017Y11840D01*
X760021Y11853D01*
X760034Y12041D01*
X760049Y12228D01*
X760047Y12241D01*
X760048Y12254D01*
X760024Y12442D01*
X760002Y12627D01*
X759998Y12640D01*
X759996Y12653D01*
X759895Y12969D01*
X758697Y15860D01*
X758697Y34940D01*
X760167Y38488D01*
X762882Y41203D01*
X766430Y42673D01*
X770270Y42673D01*
X773818Y41203D01*
X776533Y38488D01*
X778003Y34940D01*
X778003Y15860D01*
X776805Y12969D01*
X776801Y12956D01*
X776795Y12945D01*
X776744Y12765D01*
X776689Y12584D01*
X776688Y12571D01*
X776684Y12558D01*
X776669Y12370D01*
X776651Y12183D01*
X776652Y12170D01*
X776651Y12156D01*
X776673Y11970D01*
X776692Y11783D01*
X776696Y11770D01*
X776698Y11757D01*
X776756Y11578D01*
X776812Y11398D01*
X776819Y11387D01*
X776823Y11374D01*
X776916Y11209D01*
X777006Y11045D01*
X777014Y11035D01*
X777021Y11023D01*
X777144Y10881D01*
X777265Y10737D01*
X777275Y10729D01*
X777284Y10718D01*
X777432Y10603D01*
X777580Y10486D01*
X777591Y10480D01*
X777602Y10472D01*
X777771Y10388D01*
X777938Y10302D01*
X777950Y10298D01*
X777963Y10292D01*
X778145Y10243D01*
X778325Y10192D01*
X778338Y10191D01*
X778351Y10188D01*
X778682Y10161D01*
X783418Y10161D01*
X783431Y10162D01*
X783445Y10161D01*
X783631Y10182D01*
X783819Y10201D01*
X783831Y10205D01*
X783845Y10206D01*
X784024Y10264D01*
X784204Y10319D01*
X784215Y10325D01*
X784228Y10329D01*
X784393Y10421D01*
X784558Y10511D01*
X784568Y10519D01*
X784580Y10526D01*
X784722Y10648D01*
X784867Y10768D01*
X784875Y10779D01*
X784885Y10787D01*
X785001Y10935D01*
X785119Y11082D01*
X785125Y11094D01*
X785134Y11104D01*
X785218Y11273D01*
X785305Y11439D01*
X785308Y11452D01*
X785314Y11464D01*
X785364Y11645D01*
X785416Y11826D01*
X785417Y11840D01*
X785421Y11853D01*
X785434Y12041D01*
X785449Y12228D01*
X785447Y12241D01*
X785448Y12254D01*
X785424Y12442D01*
X785402Y12627D01*
X785398Y12640D01*
X785396Y12653D01*
X785295Y12969D01*
X784097Y15860D01*
X784097Y34940D01*
X785567Y38488D01*
X788282Y41203D01*
X788431Y41265D01*
X788451Y41275D01*
X788472Y41282D01*
X788628Y41371D01*
X788786Y41455D01*
X788803Y41469D01*
X788823Y41480D01*
X788958Y41597D01*
X789097Y41712D01*
X789111Y41729D01*
X789128Y41743D01*
X789237Y41884D01*
X789350Y42024D01*
X789361Y42044D01*
X789374Y42062D01*
X789454Y42222D01*
X789537Y42381D01*
X789544Y42402D01*
X789554Y42422D01*
X789600Y42595D01*
X789650Y42767D01*
X789652Y42789D01*
X789658Y42811D01*
X789685Y43142D01*
X789685Y45259D01*
X790304Y46752D01*
X816848Y73296D01*
X818341Y73915D01*
X867425Y73915D01*
X867452Y73917D01*
X867478Y73915D01*
X867652Y73937D01*
X867826Y73955D01*
X867851Y73962D01*
X867878Y73966D01*
X868044Y74022D01*
X868211Y74073D01*
X868234Y74086D01*
X868259Y74094D01*
X868411Y74181D01*
X868565Y74265D01*
X868585Y74282D01*
X868608Y74295D01*
X868861Y74510D01*
X884340Y89989D01*
X884357Y90009D01*
X884378Y90027D01*
X884485Y90165D01*
X884595Y90300D01*
X884608Y90324D01*
X884624Y90345D01*
X884702Y90502D01*
X884784Y90656D01*
X884792Y90681D01*
X884804Y90706D01*
X884849Y90875D01*
X884899Y91042D01*
X884901Y91068D01*
X884908Y91094D01*
X884935Y91425D01*
X884935Y124105D01*
X884933Y124132D01*
X884935Y124158D01*
X884913Y124332D01*
X884895Y124506D01*
X884888Y124531D01*
X884884Y124558D01*
X884829Y124724D01*
X884777Y124891D01*
X884764Y124914D01*
X884756Y124940D01*
X884669Y125091D01*
X884585Y125245D01*
X884568Y125265D01*
X884555Y125288D01*
X884340Y125541D01*
X881678Y128204D01*
X880363Y131378D01*
X880363Y148022D01*
X881678Y151196D01*
X884340Y153859D01*
X884357Y153879D01*
X884378Y153897D01*
X884485Y154035D01*
X884595Y154170D01*
X884608Y154194D01*
X884624Y154215D01*
X884702Y154372D01*
X884784Y154526D01*
X884792Y154551D01*
X884804Y154575D01*
X884849Y154745D01*
X884899Y154912D01*
X884901Y154938D01*
X884908Y154964D01*
X884935Y155295D01*
X884935Y165909D01*
X885554Y167402D01*
X909740Y191589D01*
X909757Y191609D01*
X909778Y191627D01*
X909885Y191765D01*
X909995Y191900D01*
X910008Y191924D01*
X910024Y191945D01*
X910102Y192101D01*
X910184Y192256D01*
X910192Y192281D01*
X910204Y192306D01*
X910249Y192475D01*
X910299Y192642D01*
X910301Y192668D01*
X910308Y192694D01*
X910335Y193025D01*
X910335Y200305D01*
X910333Y200332D01*
X910335Y200358D01*
X910313Y200532D01*
X910295Y200706D01*
X910288Y200731D01*
X910284Y200758D01*
X910229Y200924D01*
X910177Y201091D01*
X910164Y201114D01*
X910156Y201140D01*
X910069Y201291D01*
X909985Y201445D01*
X909968Y201465D01*
X909955Y201488D01*
X909740Y201741D01*
X907078Y204404D01*
X905763Y207578D01*
X905763Y224222D01*
X907078Y227396D01*
X909740Y230059D01*
X909757Y230079D01*
X909778Y230097D01*
X909885Y230235D01*
X909995Y230370D01*
X910008Y230394D01*
X910024Y230415D01*
X910102Y230572D01*
X910184Y230726D01*
X910192Y230751D01*
X910204Y230775D01*
X910249Y230945D01*
X910299Y231112D01*
X910301Y231138D01*
X910308Y231164D01*
X910335Y231495D01*
X910335Y249816D01*
X910333Y249838D01*
X910335Y249861D01*
X910313Y250038D01*
X910295Y250217D01*
X910289Y250238D01*
X910286Y250260D01*
X910230Y250430D01*
X910177Y250602D01*
X910167Y250621D01*
X910160Y250642D01*
X910071Y250798D01*
X909985Y250956D01*
X909971Y250973D01*
X909960Y250992D01*
X909842Y251128D01*
X909728Y251265D01*
X909710Y251279D01*
X909696Y251296D01*
X909553Y251405D01*
X909414Y251517D01*
X909394Y251527D01*
X909376Y251541D01*
X909081Y251693D01*
X908716Y251844D01*
X905894Y254666D01*
X904366Y258354D01*
X904366Y262346D01*
X905848Y265923D01*
X905849Y265927D01*
X905851Y265931D01*
X905906Y266116D01*
X905964Y266308D01*
X905965Y266313D01*
X905966Y266317D01*
X905984Y266515D01*
X906003Y266709D01*
X906002Y266714D01*
X906003Y266718D01*
X905981Y266916D01*
X905961Y267110D01*
X905960Y267114D01*
X905959Y267118D01*
X905899Y267308D01*
X905841Y267494D01*
X905839Y267498D01*
X905838Y267502D01*
X905743Y267674D01*
X905648Y267847D01*
X905645Y267851D01*
X905643Y267855D01*
X905517Y268002D01*
X905389Y268155D01*
X905385Y268158D01*
X905382Y268162D01*
X905229Y268283D01*
X905074Y268406D01*
X905070Y268408D01*
X905066Y268411D01*
X904891Y268500D01*
X904716Y268590D01*
X904712Y268592D01*
X904707Y268594D01*
X904516Y268647D01*
X904328Y268700D01*
X904324Y268700D01*
X904320Y268702D01*
X904118Y268716D01*
X903927Y268731D01*
X903923Y268731D01*
X903918Y268731D01*
X903721Y268706D01*
X903527Y268682D01*
X903523Y268681D01*
X903519Y268681D01*
X903335Y268619D01*
X903145Y268556D01*
X903141Y268554D01*
X903137Y268552D01*
X902966Y268454D01*
X902795Y268357D01*
X902792Y268354D01*
X902788Y268351D01*
X902535Y268137D01*
X893660Y259261D01*
X893643Y259241D01*
X893622Y259223D01*
X893515Y259085D01*
X893405Y258950D01*
X893392Y258926D01*
X893376Y258905D01*
X893298Y258748D01*
X893216Y258594D01*
X893208Y258569D01*
X893196Y258544D01*
X893151Y258375D01*
X893101Y258208D01*
X893099Y258182D01*
X893092Y258156D01*
X893065Y257825D01*
X893065Y231495D01*
X893067Y231468D01*
X893065Y231442D01*
X893087Y231268D01*
X893105Y231094D01*
X893112Y231069D01*
X893116Y231042D01*
X893171Y230876D01*
X893223Y230709D01*
X893236Y230686D01*
X893244Y230660D01*
X893331Y230509D01*
X893415Y230355D01*
X893432Y230335D01*
X893445Y230312D01*
X893660Y230059D01*
X896322Y227396D01*
X897637Y224222D01*
X897637Y207578D01*
X896322Y204404D01*
X893892Y201974D01*
X890718Y200659D01*
X887282Y200659D01*
X884108Y201974D01*
X881678Y204404D01*
X880363Y207578D01*
X880363Y224222D01*
X881678Y227396D01*
X884340Y230059D01*
X884357Y230079D01*
X884378Y230097D01*
X884485Y230235D01*
X884595Y230370D01*
X884608Y230394D01*
X884624Y230415D01*
X884702Y230572D01*
X884784Y230726D01*
X884792Y230751D01*
X884804Y230775D01*
X884849Y230945D01*
X884899Y231112D01*
X884901Y231138D01*
X884908Y231164D01*
X884935Y231495D01*
X884935Y261159D01*
X885554Y262652D01*
X937607Y314705D01*
X937621Y314722D01*
X937638Y314737D01*
X937748Y314877D01*
X937862Y315017D01*
X937872Y315036D01*
X937886Y315054D01*
X937966Y315214D01*
X938050Y315372D01*
X938057Y315394D01*
X938067Y315414D01*
X938114Y315586D01*
X938165Y315758D01*
X938167Y315780D01*
X938173Y315802D01*
X938185Y315979D01*
X938202Y316159D01*
X938199Y316181D01*
X938201Y316204D01*
X938177Y316381D01*
X938158Y316559D01*
X938151Y316581D01*
X938148Y316603D01*
X938047Y316919D01*
X936497Y320660D01*
X936497Y339740D01*
X937695Y342631D01*
X937699Y342644D01*
X937705Y342655D01*
X937756Y342835D01*
X937811Y343016D01*
X937812Y343029D01*
X937816Y343042D01*
X937831Y343230D01*
X937849Y343417D01*
X937848Y343430D01*
X937849Y343444D01*
X937827Y343630D01*
X937808Y343817D01*
X937804Y343830D01*
X937802Y343843D01*
X937744Y344022D01*
X937688Y344202D01*
X937681Y344213D01*
X937677Y344226D01*
X937584Y344391D01*
X937494Y344555D01*
X937486Y344565D01*
X937479Y344577D01*
X937356Y344719D01*
X937235Y344863D01*
X937225Y344871D01*
X937216Y344882D01*
X937068Y344997D01*
X936920Y345114D01*
X936909Y345120D01*
X936898Y345128D01*
X936729Y345212D01*
X936562Y345298D01*
X936550Y345302D01*
X936537Y345308D01*
X936355Y345357D01*
X936175Y345408D01*
X936162Y345409D01*
X936149Y345412D01*
X935818Y345439D01*
X931082Y345439D01*
X931069Y345438D01*
X931055Y345439D01*
X930869Y345418D01*
X930681Y345399D01*
X930669Y345395D01*
X930655Y345394D01*
X930476Y345336D01*
X930296Y345281D01*
X930285Y345275D01*
X930272Y345271D01*
X930107Y345179D01*
X929942Y345089D01*
X929932Y345081D01*
X929920Y345074D01*
X929778Y344952D01*
X929633Y344832D01*
X929625Y344821D01*
X929615Y344813D01*
X929499Y344665D01*
X929381Y344518D01*
X929375Y344506D01*
X929366Y344496D01*
X929282Y344327D01*
X929195Y344161D01*
X929192Y344148D01*
X929186Y344136D01*
X929136Y343955D01*
X929084Y343774D01*
X929083Y343760D01*
X929079Y343747D01*
X929066Y343559D01*
X929051Y343372D01*
X929053Y343359D01*
X929052Y343346D01*
X929076Y343158D01*
X929098Y342973D01*
X929102Y342960D01*
X929104Y342947D01*
X929205Y342631D01*
X930403Y339740D01*
X930403Y320660D01*
X928933Y317112D01*
X926218Y314397D01*
X922649Y312918D01*
X922540Y312905D01*
X922366Y312887D01*
X922341Y312880D01*
X922314Y312876D01*
X922149Y312821D01*
X921982Y312769D01*
X921958Y312756D01*
X921933Y312748D01*
X921781Y312661D01*
X921627Y312577D01*
X921607Y312560D01*
X921584Y312547D01*
X921331Y312332D01*
X853202Y244204D01*
X851709Y243585D01*
X821675Y243585D01*
X821648Y243583D01*
X821622Y243585D01*
X821448Y243563D01*
X821274Y243545D01*
X821249Y243538D01*
X821222Y243534D01*
X821057Y243479D01*
X820890Y243427D01*
X820866Y243414D01*
X820841Y243406D01*
X820689Y243319D01*
X820535Y243235D01*
X820515Y243218D01*
X820492Y243205D01*
X820239Y242990D01*
X796632Y219383D01*
X796615Y219363D01*
X796594Y219345D01*
X796487Y219207D01*
X796377Y219072D01*
X796364Y219048D01*
X796348Y219027D01*
X796270Y218870D01*
X796188Y218716D01*
X796180Y218691D01*
X796168Y218666D01*
X796123Y218497D01*
X796073Y218330D01*
X796071Y218304D01*
X796064Y218278D01*
X796037Y217947D01*
X796037Y207578D01*
X794722Y204404D01*
X792292Y201974D01*
X789118Y200659D01*
X785682Y200659D01*
X782508Y201974D01*
X780078Y204404D01*
X778763Y207578D01*
X778763Y209804D01*
X778761Y209822D01*
X778763Y209840D01*
X778742Y210022D01*
X778723Y210205D01*
X778718Y210222D01*
X778716Y210239D01*
X778659Y210414D01*
X778605Y210590D01*
X778597Y210605D01*
X778591Y210622D01*
X778501Y210782D01*
X778413Y210944D01*
X778402Y210957D01*
X778393Y210973D01*
X778273Y211112D01*
X778156Y211253D01*
X778142Y211264D01*
X778130Y211278D01*
X777985Y211390D01*
X777842Y211505D01*
X777826Y211513D01*
X777812Y211524D01*
X777647Y211606D01*
X777485Y211691D01*
X777468Y211696D01*
X777452Y211704D01*
X777273Y211751D01*
X777098Y211802D01*
X777080Y211804D01*
X777063Y211808D01*
X776732Y211835D01*
X772668Y211835D01*
X772650Y211833D01*
X772632Y211835D01*
X772450Y211814D01*
X772267Y211795D01*
X772250Y211790D01*
X772233Y211788D01*
X772058Y211731D01*
X771882Y211677D01*
X771867Y211669D01*
X771850Y211663D01*
X771690Y211573D01*
X771528Y211485D01*
X771515Y211474D01*
X771499Y211465D01*
X771360Y211345D01*
X771219Y211228D01*
X771208Y211214D01*
X771194Y211202D01*
X771082Y211057D01*
X770967Y210914D01*
X770959Y210898D01*
X770948Y210884D01*
X770866Y210719D01*
X770781Y210557D01*
X770776Y210540D01*
X770768Y210524D01*
X770721Y210345D01*
X770670Y210170D01*
X770668Y210152D01*
X770664Y210135D01*
X770637Y209804D01*
X770637Y207578D01*
X769322Y204404D01*
X766892Y201974D01*
X763718Y200659D01*
X760282Y200659D01*
X757108Y201974D01*
X754678Y204404D01*
X753363Y207578D01*
X753363Y224222D01*
X754678Y227396D01*
X757108Y229826D01*
X760282Y231141D01*
X763718Y231141D01*
X766892Y229826D01*
X769322Y227396D01*
X770637Y224222D01*
X770637Y221996D01*
X770639Y221978D01*
X770637Y221960D01*
X770658Y221778D01*
X770677Y221595D01*
X770682Y221578D01*
X770684Y221561D01*
X770741Y221386D01*
X770795Y221210D01*
X770803Y221195D01*
X770809Y221178D01*
X770899Y221018D01*
X770987Y220856D01*
X770998Y220843D01*
X771007Y220827D01*
X771127Y220688D01*
X771244Y220547D01*
X771258Y220536D01*
X771270Y220522D01*
X771415Y220410D01*
X771558Y220295D01*
X771574Y220287D01*
X771588Y220276D01*
X771753Y220194D01*
X771915Y220109D01*
X771932Y220104D01*
X771948Y220096D01*
X772127Y220049D01*
X772302Y219998D01*
X772320Y219996D01*
X772337Y219992D01*
X772668Y219965D01*
X776732Y219965D01*
X776750Y219967D01*
X776768Y219965D01*
X776950Y219986D01*
X777133Y220005D01*
X777150Y220010D01*
X777167Y220012D01*
X777342Y220069D01*
X777518Y220123D01*
X777533Y220131D01*
X777550Y220137D01*
X777710Y220227D01*
X777872Y220315D01*
X777885Y220326D01*
X777901Y220335D01*
X778040Y220455D01*
X778181Y220572D01*
X778192Y220586D01*
X778206Y220598D01*
X778318Y220743D01*
X778433Y220886D01*
X778441Y220902D01*
X778452Y220916D01*
X778534Y221081D01*
X778619Y221243D01*
X778624Y221260D01*
X778632Y221276D01*
X778679Y221455D01*
X778730Y221630D01*
X778732Y221648D01*
X778736Y221665D01*
X778763Y221996D01*
X778763Y224222D01*
X780078Y227396D01*
X782508Y229826D01*
X785682Y231141D01*
X789118Y231141D01*
X792292Y229826D01*
X792499Y229620D01*
X792512Y229608D01*
X792524Y229595D01*
X792669Y229480D01*
X792810Y229365D01*
X792826Y229356D01*
X792840Y229345D01*
X793004Y229262D01*
X793166Y229176D01*
X793183Y229171D01*
X793199Y229163D01*
X793375Y229114D01*
X793552Y229061D01*
X793569Y229059D01*
X793587Y229055D01*
X793770Y229041D01*
X793953Y229025D01*
X793970Y229027D01*
X793988Y229025D01*
X794171Y229048D01*
X794353Y229068D01*
X794370Y229073D01*
X794388Y229076D01*
X794562Y229134D01*
X794737Y229190D01*
X794752Y229198D01*
X794769Y229204D01*
X794929Y229296D01*
X795089Y229384D01*
X795103Y229396D01*
X795118Y229405D01*
X795371Y229620D01*
X816848Y251096D01*
X818341Y251715D01*
X848375Y251715D01*
X848402Y251717D01*
X848428Y251715D01*
X848602Y251737D01*
X848776Y251755D01*
X848801Y251762D01*
X848828Y251766D01*
X848993Y251821D01*
X849160Y251873D01*
X849184Y251886D01*
X849209Y251894D01*
X849361Y251981D01*
X849515Y252065D01*
X849535Y252082D01*
X849558Y252095D01*
X849811Y252310D01*
X912207Y314705D01*
X912221Y314722D01*
X912238Y314737D01*
X912348Y314877D01*
X912462Y315017D01*
X912472Y315036D01*
X912486Y315054D01*
X912566Y315214D01*
X912650Y315372D01*
X912657Y315394D01*
X912667Y315414D01*
X912714Y315586D01*
X912765Y315758D01*
X912767Y315780D01*
X912773Y315802D01*
X912785Y315979D01*
X912802Y316159D01*
X912799Y316181D01*
X912801Y316204D01*
X912777Y316381D01*
X912758Y316559D01*
X912751Y316581D01*
X912748Y316603D01*
X912647Y316919D01*
X911097Y320660D01*
X911097Y339740D01*
X912295Y342631D01*
X912299Y342644D01*
X912305Y342655D01*
X912356Y342835D01*
X912411Y343016D01*
X912412Y343029D01*
X912416Y343042D01*
X912431Y343230D01*
X912449Y343417D01*
X912448Y343430D01*
X912449Y343444D01*
X912427Y343630D01*
X912408Y343817D01*
X912404Y343830D01*
X912402Y343843D01*
X912344Y344022D01*
X912288Y344202D01*
X912281Y344213D01*
X912277Y344226D01*
X912184Y344391D01*
X912094Y344555D01*
X912086Y344565D01*
X912079Y344577D01*
X911956Y344719D01*
X911835Y344863D01*
X911825Y344871D01*
X911816Y344882D01*
X911668Y344997D01*
X911520Y345114D01*
X911509Y345120D01*
X911498Y345128D01*
X911329Y345212D01*
X911162Y345298D01*
X911150Y345302D01*
X911137Y345308D01*
X910955Y345357D01*
X910775Y345408D01*
X910762Y345409D01*
X910749Y345412D01*
X910418Y345439D01*
X905682Y345439D01*
X905669Y345438D01*
X905655Y345439D01*
X905469Y345418D01*
X905281Y345399D01*
X905269Y345395D01*
X905255Y345394D01*
X905077Y345337D01*
X904896Y345281D01*
X904885Y345275D01*
X904872Y345271D01*
X904708Y345179D01*
X904542Y345089D01*
X904532Y345081D01*
X904520Y345074D01*
X904377Y344951D01*
X904233Y344832D01*
X904225Y344821D01*
X904215Y344813D01*
X904098Y344664D01*
X903981Y344518D01*
X903975Y344506D01*
X903966Y344496D01*
X903881Y344326D01*
X903795Y344161D01*
X903792Y344148D01*
X903786Y344136D01*
X903736Y343954D01*
X903684Y343774D01*
X903683Y343760D01*
X903679Y343747D01*
X903666Y343561D01*
X903651Y343372D01*
X903653Y343359D01*
X903652Y343346D01*
X903676Y343159D01*
X903698Y342973D01*
X903702Y342960D01*
X903704Y342947D01*
X903805Y342631D01*
X905003Y339740D01*
X905003Y320660D01*
X903533Y317112D01*
X900818Y314397D01*
X897270Y312927D01*
X893430Y312927D01*
X889882Y314397D01*
X887167Y317112D01*
X885697Y320660D01*
X885697Y339740D01*
X886895Y342631D01*
X886899Y342644D01*
X886905Y342655D01*
X886957Y342836D01*
X887011Y343016D01*
X887012Y343029D01*
X887016Y343042D01*
X887032Y343231D01*
X887049Y343417D01*
X887048Y343430D01*
X887049Y343444D01*
X887027Y343630D01*
X887008Y343817D01*
X887004Y343830D01*
X887002Y343843D01*
X886944Y344021D01*
X886888Y344202D01*
X886881Y344213D01*
X886877Y344226D01*
X886785Y344390D01*
X886695Y344555D01*
X886686Y344565D01*
X886679Y344577D01*
X886556Y344719D01*
X886435Y344863D01*
X886425Y344871D01*
X886416Y344882D01*
X886268Y344996D01*
X886121Y345114D01*
X886109Y345120D01*
X886098Y345128D01*
X885930Y345212D01*
X885762Y345298D01*
X885750Y345302D01*
X885738Y345308D01*
X885555Y345357D01*
X885375Y345408D01*
X885362Y345409D01*
X885349Y345412D01*
X885018Y345439D01*
X164628Y345439D01*
X164482Y345425D01*
X164336Y345418D01*
X164282Y345405D01*
X164227Y345399D01*
X164087Y345356D01*
X163945Y345321D01*
X163895Y345298D01*
X163842Y345281D01*
X163714Y345212D01*
X163581Y345149D01*
X163537Y345116D01*
X163488Y345089D01*
X163376Y344996D01*
X163258Y344909D01*
X163221Y344867D01*
X163179Y344832D01*
X163087Y344718D01*
X162989Y344609D01*
X162961Y344561D01*
X162926Y344518D01*
X162859Y344388D01*
X162785Y344262D01*
X162766Y344210D01*
X162741Y344161D01*
X162701Y344020D01*
X162652Y343882D01*
X162645Y343827D01*
X162630Y343774D01*
X162618Y343628D01*
X162598Y343483D01*
X162601Y343428D01*
X162597Y343372D01*
X162614Y343227D01*
X162623Y343081D01*
X162637Y343028D01*
X162644Y342973D01*
X162689Y342834D01*
X162727Y342692D01*
X162754Y342635D01*
X162768Y342590D01*
X162810Y342517D01*
X162869Y342392D01*
X164078Y340298D01*
X165861Y333644D01*
X165861Y326756D01*
X164078Y320102D01*
X160634Y314137D01*
X155763Y309266D01*
X149798Y305822D01*
X143144Y304039D01*
X136256Y304039D01*
X129602Y305822D01*
X123637Y309266D01*
X118766Y314137D01*
X115322Y320102D01*
X113539Y326756D01*
X113539Y333644D01*
X115322Y340298D01*
X116531Y342392D01*
X116592Y342526D01*
X116659Y342655D01*
X116674Y342709D01*
X116697Y342759D01*
X116730Y342902D01*
X116770Y343042D01*
X116775Y343098D01*
X116787Y343152D01*
X116791Y343298D01*
X116803Y343444D01*
X116797Y343499D01*
X116798Y343554D01*
X116773Y343698D01*
X116756Y343843D01*
X116739Y343896D01*
X116730Y343951D01*
X116677Y344087D01*
X116632Y344226D01*
X116604Y344275D01*
X116584Y344326D01*
X116506Y344449D01*
X116434Y344577D01*
X116397Y344619D01*
X116368Y344666D01*
X116266Y344771D01*
X116171Y344882D01*
X116127Y344915D01*
X116088Y344956D01*
X115968Y345039D01*
X115852Y345128D01*
X115803Y345153D01*
X115757Y345185D01*
X115623Y345242D01*
X115492Y345308D01*
X115438Y345322D01*
X115387Y345344D01*
X115244Y345374D01*
X115103Y345412D01*
X115040Y345417D01*
X114993Y345427D01*
X114910Y345428D01*
X114772Y345439D01*
X12192Y345439D01*
X12174Y345437D01*
X12156Y345439D01*
X11974Y345418D01*
X11791Y345399D01*
X11774Y345394D01*
X11757Y345392D01*
X11582Y345335D01*
X11406Y345281D01*
X11391Y345273D01*
X11374Y345267D01*
X11214Y345177D01*
X11052Y345089D01*
X11039Y345078D01*
X11023Y345069D01*
X10884Y344949D01*
X10743Y344832D01*
X10732Y344818D01*
X10718Y344806D01*
X10606Y344661D01*
X10491Y344518D01*
X10483Y344502D01*
X10472Y344488D01*
X10390Y344323D01*
X10305Y344161D01*
X10300Y344144D01*
X10292Y344128D01*
X10245Y343949D01*
X10194Y343774D01*
X10192Y343756D01*
X10188Y343739D01*
X10161Y343408D01*
X10161Y12192D01*
X10163Y12174D01*
X10161Y12156D01*
X10182Y11974D01*
X10201Y11791D01*
X10206Y11774D01*
X10208Y11757D01*
X10265Y11582D01*
X10319Y11406D01*
X10327Y11391D01*
X10333Y11374D01*
X10423Y11214D01*
X10511Y11052D01*
X10522Y11039D01*
X10531Y11023D01*
X10651Y10884D01*
X10768Y10743D01*
X10782Y10732D01*
X10794Y10718D01*
X10939Y10606D01*
X11082Y10491D01*
X11098Y10483D01*
X11112Y10472D01*
X11277Y10390D01*
X11439Y10305D01*
X11456Y10300D01*
X11472Y10292D01*
X11651Y10245D01*
X11826Y10194D01*
X11844Y10192D01*
X11861Y10188D01*
X12192Y10161D01*
X14564Y10161D01*
X14657Y10170D01*
G37*
G36*
X978426Y10163D02*
X978426Y10163D01*
X978444Y10161D01*
X978626Y10182D01*
X978809Y10201D01*
X978826Y10206D01*
X978843Y10208D01*
X979018Y10265D01*
X979194Y10319D01*
X979209Y10327D01*
X979226Y10333D01*
X979386Y10423D01*
X979548Y10511D01*
X979561Y10522D01*
X979577Y10531D01*
X979716Y10651D01*
X979857Y10768D01*
X979868Y10782D01*
X979882Y10794D01*
X979994Y10939D01*
X980109Y11082D01*
X980117Y11098D01*
X980128Y11112D01*
X980210Y11277D01*
X980295Y11439D01*
X980300Y11456D01*
X980308Y11472D01*
X980355Y11651D01*
X980406Y11826D01*
X980408Y11844D01*
X980412Y11861D01*
X980439Y12192D01*
X980439Y312914D01*
X980438Y312923D01*
X980439Y312932D01*
X980418Y313124D01*
X980399Y313315D01*
X980397Y313324D01*
X980396Y313333D01*
X980337Y313517D01*
X980281Y313700D01*
X980277Y313708D01*
X980274Y313716D01*
X980181Y313885D01*
X980089Y314054D01*
X980084Y314061D01*
X980079Y314069D01*
X979954Y314217D01*
X979832Y314363D01*
X979825Y314369D01*
X979819Y314376D01*
X979667Y314496D01*
X979518Y314616D01*
X979510Y314620D01*
X979503Y314625D01*
X979331Y314713D01*
X979161Y314801D01*
X979152Y314804D01*
X979144Y314808D01*
X978960Y314859D01*
X978774Y314912D01*
X978765Y314913D01*
X978756Y314916D01*
X978566Y314929D01*
X978372Y314945D01*
X978363Y314944D01*
X978355Y314945D01*
X978164Y314921D01*
X977973Y314898D01*
X977964Y314896D01*
X977955Y314895D01*
X977772Y314833D01*
X977590Y314774D01*
X977582Y314769D01*
X977573Y314766D01*
X977407Y314670D01*
X977239Y314576D01*
X977232Y314570D01*
X977225Y314565D01*
X977034Y314403D01*
X973470Y312927D01*
X969630Y312927D01*
X966082Y314397D01*
X963367Y317112D01*
X961897Y320660D01*
X961897Y339740D01*
X963095Y342631D01*
X963099Y342644D01*
X963105Y342655D01*
X963156Y342835D01*
X963211Y343016D01*
X963212Y343029D01*
X963216Y343042D01*
X963231Y343230D01*
X963249Y343417D01*
X963248Y343430D01*
X963249Y343444D01*
X963227Y343630D01*
X963208Y343817D01*
X963204Y343830D01*
X963202Y343843D01*
X963144Y344022D01*
X963088Y344202D01*
X963081Y344213D01*
X963077Y344226D01*
X962984Y344391D01*
X962894Y344555D01*
X962886Y344565D01*
X962879Y344577D01*
X962756Y344719D01*
X962635Y344863D01*
X962625Y344871D01*
X962616Y344882D01*
X962468Y344997D01*
X962320Y345114D01*
X962309Y345120D01*
X962298Y345128D01*
X962129Y345212D01*
X961962Y345298D01*
X961950Y345302D01*
X961937Y345308D01*
X961755Y345357D01*
X961575Y345408D01*
X961562Y345409D01*
X961549Y345412D01*
X961218Y345439D01*
X956482Y345439D01*
X956469Y345438D01*
X956455Y345439D01*
X956269Y345418D01*
X956081Y345399D01*
X956069Y345395D01*
X956055Y345394D01*
X955876Y345336D01*
X955696Y345281D01*
X955685Y345275D01*
X955672Y345271D01*
X955507Y345179D01*
X955342Y345089D01*
X955332Y345081D01*
X955320Y345074D01*
X955178Y344952D01*
X955033Y344832D01*
X955025Y344821D01*
X955015Y344813D01*
X954899Y344665D01*
X954781Y344518D01*
X954775Y344506D01*
X954766Y344496D01*
X954682Y344327D01*
X954595Y344161D01*
X954592Y344148D01*
X954586Y344136D01*
X954536Y343955D01*
X954484Y343774D01*
X954483Y343760D01*
X954479Y343747D01*
X954466Y343559D01*
X954451Y343372D01*
X954453Y343359D01*
X954452Y343346D01*
X954476Y343158D01*
X954498Y342973D01*
X954502Y342960D01*
X954504Y342947D01*
X954605Y342631D01*
X955803Y339740D01*
X955803Y320660D01*
X954333Y317112D01*
X951618Y314397D01*
X948049Y312918D01*
X947940Y312905D01*
X947766Y312887D01*
X947741Y312880D01*
X947714Y312876D01*
X947549Y312821D01*
X947382Y312769D01*
X947358Y312756D01*
X947333Y312748D01*
X947181Y312661D01*
X947027Y312577D01*
X947007Y312560D01*
X946984Y312547D01*
X946731Y312332D01*
X906613Y272215D01*
X906610Y272211D01*
X906607Y272209D01*
X906482Y272055D01*
X906358Y271903D01*
X906356Y271900D01*
X906353Y271896D01*
X906259Y271717D01*
X906170Y271548D01*
X906168Y271544D01*
X906166Y271539D01*
X906110Y271348D01*
X906055Y271162D01*
X906054Y271157D01*
X906053Y271153D01*
X906037Y270961D01*
X906018Y270761D01*
X906019Y270756D01*
X906019Y270752D01*
X906040Y270560D01*
X906062Y270361D01*
X906063Y270356D01*
X906064Y270352D01*
X906122Y270169D01*
X906183Y269977D01*
X906186Y269973D01*
X906187Y269969D01*
X906284Y269795D01*
X906378Y269624D01*
X906381Y269621D01*
X906383Y269617D01*
X906512Y269467D01*
X906639Y269317D01*
X906642Y269315D01*
X906645Y269311D01*
X906801Y269189D01*
X906955Y269068D01*
X906959Y269066D01*
X906962Y269063D01*
X907139Y268974D01*
X907314Y268885D01*
X907318Y268884D01*
X907322Y268882D01*
X907513Y268830D01*
X907701Y268777D01*
X907706Y268777D01*
X907710Y268776D01*
X907906Y268762D01*
X908103Y268748D01*
X908107Y268749D01*
X908112Y268748D01*
X908308Y268774D01*
X908502Y268798D01*
X908507Y268800D01*
X908511Y268800D01*
X908827Y268902D01*
X912404Y270384D01*
X916396Y270384D01*
X920084Y268856D01*
X922906Y266034D01*
X924434Y262346D01*
X924434Y258354D01*
X922906Y254666D01*
X920084Y251844D01*
X919719Y251693D01*
X919699Y251682D01*
X919678Y251675D01*
X919522Y251587D01*
X919364Y251502D01*
X919347Y251488D01*
X919327Y251477D01*
X919192Y251360D01*
X919053Y251246D01*
X919039Y251229D01*
X919022Y251214D01*
X918913Y251073D01*
X918800Y250933D01*
X918789Y250914D01*
X918776Y250896D01*
X918696Y250736D01*
X918613Y250577D01*
X918606Y250556D01*
X918596Y250536D01*
X918550Y250363D01*
X918500Y250191D01*
X918498Y250168D01*
X918492Y250147D01*
X918465Y249816D01*
X918465Y231495D01*
X918467Y231468D01*
X918465Y231442D01*
X918487Y231268D01*
X918505Y231094D01*
X918512Y231069D01*
X918516Y231042D01*
X918571Y230876D01*
X918623Y230709D01*
X918636Y230686D01*
X918644Y230660D01*
X918731Y230509D01*
X918815Y230355D01*
X918832Y230335D01*
X918845Y230312D01*
X919060Y230059D01*
X921722Y227396D01*
X923037Y224222D01*
X923037Y207578D01*
X921722Y204404D01*
X919060Y201741D01*
X919043Y201721D01*
X919022Y201703D01*
X918915Y201565D01*
X918805Y201430D01*
X918792Y201406D01*
X918776Y201385D01*
X918698Y201228D01*
X918616Y201074D01*
X918608Y201049D01*
X918596Y201025D01*
X918551Y200855D01*
X918501Y200688D01*
X918499Y200662D01*
X918492Y200636D01*
X918465Y200305D01*
X918465Y189691D01*
X917846Y188198D01*
X893660Y164011D01*
X893643Y163991D01*
X893622Y163973D01*
X893515Y163835D01*
X893405Y163700D01*
X893392Y163676D01*
X893376Y163655D01*
X893298Y163498D01*
X893216Y163344D01*
X893208Y163319D01*
X893196Y163294D01*
X893151Y163125D01*
X893101Y162958D01*
X893099Y162932D01*
X893092Y162906D01*
X893065Y162575D01*
X893065Y155295D01*
X893067Y155268D01*
X893065Y155242D01*
X893087Y155068D01*
X893105Y154894D01*
X893112Y154869D01*
X893116Y154842D01*
X893171Y154676D01*
X893223Y154509D01*
X893236Y154486D01*
X893244Y154460D01*
X893331Y154309D01*
X893415Y154155D01*
X893432Y154135D01*
X893445Y154112D01*
X893660Y153859D01*
X896322Y151196D01*
X897637Y148022D01*
X897637Y131378D01*
X896322Y128204D01*
X893660Y125541D01*
X893643Y125521D01*
X893622Y125503D01*
X893515Y125365D01*
X893405Y125230D01*
X893392Y125206D01*
X893376Y125185D01*
X893298Y125028D01*
X893216Y124874D01*
X893208Y124849D01*
X893196Y124825D01*
X893151Y124655D01*
X893101Y124488D01*
X893099Y124462D01*
X893092Y124436D01*
X893065Y124105D01*
X893065Y88091D01*
X892446Y86598D01*
X874610Y68761D01*
X874593Y68741D01*
X874572Y68723D01*
X874465Y68585D01*
X874355Y68450D01*
X874342Y68426D01*
X874326Y68405D01*
X874248Y68248D01*
X874166Y68094D01*
X874158Y68069D01*
X874146Y68044D01*
X874101Y67875D01*
X874051Y67708D01*
X874049Y67682D01*
X874042Y67656D01*
X874015Y67325D01*
X874015Y40995D01*
X874017Y40968D01*
X874015Y40941D01*
X874037Y40767D01*
X874055Y40594D01*
X874062Y40569D01*
X874066Y40542D01*
X874122Y40376D01*
X874173Y40209D01*
X874186Y40186D01*
X874194Y40160D01*
X874281Y40009D01*
X874365Y39855D01*
X874382Y39835D01*
X874395Y39811D01*
X874610Y39558D01*
X877272Y36896D01*
X878587Y33722D01*
X878587Y17078D01*
X877272Y13904D01*
X876996Y13628D01*
X876991Y13621D01*
X876984Y13616D01*
X876863Y13466D01*
X876741Y13317D01*
X876737Y13309D01*
X876732Y13302D01*
X876643Y13132D01*
X876553Y12961D01*
X876550Y12952D01*
X876546Y12945D01*
X876493Y12761D01*
X876438Y12575D01*
X876437Y12566D01*
X876435Y12558D01*
X876419Y12367D01*
X876402Y12174D01*
X876403Y12165D01*
X876402Y12156D01*
X876424Y11967D01*
X876445Y11774D01*
X876448Y11765D01*
X876449Y11757D01*
X876508Y11574D01*
X876566Y11390D01*
X876571Y11382D01*
X876574Y11374D01*
X876669Y11205D01*
X876761Y11038D01*
X876767Y11031D01*
X876771Y11023D01*
X876897Y10878D01*
X877022Y10731D01*
X877029Y10725D01*
X877035Y10718D01*
X877186Y10601D01*
X877338Y10481D01*
X877346Y10477D01*
X877353Y10472D01*
X877525Y10386D01*
X877697Y10299D01*
X877705Y10296D01*
X877713Y10292D01*
X877901Y10242D01*
X878084Y10191D01*
X878093Y10190D01*
X878102Y10188D01*
X878433Y10161D01*
X978408Y10161D01*
X978426Y10163D01*
G37*
%LPC*%
G36*
X607882Y22859D02*
X607882Y22859D01*
X604708Y24174D01*
X602278Y26604D01*
X600963Y29778D01*
X600963Y46422D01*
X602278Y49596D01*
X604708Y52026D01*
X607882Y53341D01*
X611318Y53341D01*
X614492Y52026D01*
X616922Y49596D01*
X618237Y46422D01*
X618237Y44196D01*
X618239Y44178D01*
X618237Y44160D01*
X618258Y43978D01*
X618277Y43795D01*
X618282Y43778D01*
X618284Y43761D01*
X618341Y43586D01*
X618395Y43410D01*
X618403Y43395D01*
X618409Y43378D01*
X618499Y43218D01*
X618587Y43056D01*
X618598Y43043D01*
X618607Y43027D01*
X618727Y42888D01*
X618844Y42747D01*
X618858Y42736D01*
X618870Y42722D01*
X619015Y42610D01*
X619158Y42495D01*
X619174Y42487D01*
X619188Y42476D01*
X619353Y42394D01*
X619515Y42309D01*
X619532Y42304D01*
X619548Y42296D01*
X619727Y42249D01*
X619902Y42198D01*
X619920Y42196D01*
X619937Y42192D01*
X620268Y42165D01*
X651409Y42165D01*
X651436Y42167D01*
X651462Y42165D01*
X651636Y42187D01*
X651810Y42205D01*
X651835Y42212D01*
X651862Y42216D01*
X652028Y42271D01*
X652195Y42323D01*
X652218Y42336D01*
X652244Y42344D01*
X652395Y42431D01*
X652549Y42515D01*
X652569Y42532D01*
X652592Y42545D01*
X652845Y42760D01*
X656823Y46737D01*
X662447Y46737D01*
X662474Y46739D01*
X662500Y46737D01*
X662674Y46759D01*
X662848Y46777D01*
X662873Y46784D01*
X662900Y46788D01*
X663065Y46843D01*
X663232Y46895D01*
X663256Y46908D01*
X663281Y46916D01*
X663433Y47003D01*
X663587Y47087D01*
X663607Y47104D01*
X663630Y47117D01*
X663883Y47332D01*
X677148Y60596D01*
X678641Y61215D01*
X702717Y61215D01*
X702726Y61216D01*
X702735Y61215D01*
X702927Y61236D01*
X703118Y61255D01*
X703126Y61257D01*
X703135Y61258D01*
X703318Y61316D01*
X703503Y61373D01*
X703511Y61377D01*
X703519Y61380D01*
X703688Y61473D01*
X703857Y61565D01*
X703864Y61570D01*
X703871Y61575D01*
X704019Y61700D01*
X704166Y61822D01*
X704172Y61829D01*
X704178Y61835D01*
X704298Y61987D01*
X704418Y62136D01*
X704422Y62144D01*
X704428Y62151D01*
X704515Y62323D01*
X704604Y62493D01*
X704606Y62502D01*
X704610Y62510D01*
X704662Y62696D01*
X704715Y62880D01*
X704716Y62889D01*
X704718Y62898D01*
X704733Y63090D01*
X704748Y63282D01*
X704747Y63290D01*
X704748Y63299D01*
X704723Y63492D01*
X704701Y63681D01*
X704699Y63690D01*
X704697Y63699D01*
X704636Y63880D01*
X704576Y64064D01*
X704572Y64072D01*
X704569Y64080D01*
X704474Y64246D01*
X704379Y64415D01*
X704373Y64422D01*
X704368Y64429D01*
X704154Y64682D01*
X702563Y66273D01*
X702563Y73427D01*
X704154Y75018D01*
X704159Y75025D01*
X704166Y75030D01*
X704286Y75180D01*
X704409Y75329D01*
X704413Y75337D01*
X704418Y75344D01*
X704507Y75514D01*
X704597Y75685D01*
X704600Y75694D01*
X704604Y75701D01*
X704657Y75886D01*
X704712Y76071D01*
X704713Y76080D01*
X704715Y76088D01*
X704731Y76279D01*
X704748Y76472D01*
X704747Y76481D01*
X704748Y76490D01*
X704726Y76679D01*
X704705Y76872D01*
X704702Y76881D01*
X704701Y76889D01*
X704642Y77071D01*
X704584Y77256D01*
X704579Y77264D01*
X704576Y77272D01*
X704481Y77441D01*
X704389Y77608D01*
X704383Y77615D01*
X704379Y77623D01*
X704253Y77769D01*
X704128Y77915D01*
X704121Y77921D01*
X704115Y77928D01*
X703964Y78045D01*
X703812Y78165D01*
X703804Y78169D01*
X703797Y78174D01*
X703625Y78260D01*
X703453Y78347D01*
X703445Y78350D01*
X703437Y78354D01*
X703251Y78404D01*
X703065Y78455D01*
X703057Y78456D01*
X703048Y78458D01*
X702717Y78485D01*
X691341Y78485D01*
X689848Y79104D01*
X663883Y105068D01*
X663863Y105085D01*
X663845Y105106D01*
X663707Y105213D01*
X663572Y105323D01*
X663548Y105336D01*
X663527Y105352D01*
X663370Y105430D01*
X663216Y105512D01*
X663191Y105520D01*
X663166Y105532D01*
X662997Y105577D01*
X662830Y105627D01*
X662804Y105629D01*
X662778Y105636D01*
X662447Y105663D01*
X656823Y105663D01*
X651763Y110723D01*
X651763Y117877D01*
X655740Y121855D01*
X655757Y121875D01*
X655778Y121893D01*
X655885Y122031D01*
X655995Y122166D01*
X656008Y122190D01*
X656024Y122211D01*
X656102Y122368D01*
X656184Y122522D01*
X656192Y122547D01*
X656204Y122571D01*
X656249Y122741D01*
X656299Y122908D01*
X656301Y122934D01*
X656308Y122960D01*
X656335Y123291D01*
X656335Y124105D01*
X656333Y124132D01*
X656335Y124158D01*
X656313Y124332D01*
X656295Y124506D01*
X656288Y124531D01*
X656284Y124558D01*
X656229Y124724D01*
X656177Y124891D01*
X656164Y124914D01*
X656156Y124940D01*
X656069Y125091D01*
X655985Y125245D01*
X655968Y125265D01*
X655955Y125288D01*
X655740Y125541D01*
X653078Y128204D01*
X651763Y131378D01*
X651763Y133604D01*
X651761Y133622D01*
X651763Y133640D01*
X651742Y133822D01*
X651723Y134005D01*
X651718Y134022D01*
X651716Y134039D01*
X651659Y134214D01*
X651605Y134390D01*
X651597Y134405D01*
X651591Y134422D01*
X651501Y134582D01*
X651413Y134744D01*
X651402Y134757D01*
X651393Y134773D01*
X651273Y134912D01*
X651156Y135053D01*
X651142Y135064D01*
X651130Y135078D01*
X650985Y135190D01*
X650842Y135305D01*
X650826Y135313D01*
X650812Y135324D01*
X650647Y135406D01*
X650485Y135491D01*
X650468Y135496D01*
X650452Y135504D01*
X650273Y135551D01*
X650098Y135602D01*
X650080Y135604D01*
X650063Y135608D01*
X649732Y135635D01*
X645668Y135635D01*
X645650Y135633D01*
X645632Y135635D01*
X645450Y135614D01*
X645267Y135595D01*
X645250Y135590D01*
X645233Y135588D01*
X645058Y135531D01*
X644882Y135477D01*
X644867Y135469D01*
X644850Y135463D01*
X644690Y135373D01*
X644528Y135285D01*
X644515Y135274D01*
X644499Y135265D01*
X644360Y135145D01*
X644219Y135028D01*
X644208Y135014D01*
X644194Y135002D01*
X644082Y134857D01*
X643967Y134714D01*
X643959Y134698D01*
X643948Y134684D01*
X643866Y134519D01*
X643781Y134357D01*
X643776Y134340D01*
X643768Y134324D01*
X643721Y134145D01*
X643670Y133970D01*
X643668Y133952D01*
X643664Y133935D01*
X643637Y133604D01*
X643637Y131378D01*
X642322Y128204D01*
X639892Y125774D01*
X636718Y124459D01*
X633282Y124459D01*
X630108Y125774D01*
X629488Y126393D01*
X629478Y126402D01*
X629469Y126412D01*
X629323Y126529D01*
X629177Y126649D01*
X629165Y126655D01*
X629155Y126663D01*
X628987Y126749D01*
X628821Y126837D01*
X628808Y126841D01*
X628796Y126847D01*
X628615Y126899D01*
X628435Y126952D01*
X628422Y126953D01*
X628409Y126957D01*
X628222Y126971D01*
X628034Y126988D01*
X628021Y126987D01*
X628008Y126988D01*
X627823Y126965D01*
X627634Y126945D01*
X627621Y126941D01*
X627608Y126939D01*
X627430Y126880D01*
X627250Y126823D01*
X627238Y126817D01*
X627226Y126813D01*
X627062Y126720D01*
X626898Y126629D01*
X626888Y126620D01*
X626876Y126613D01*
X626734Y126489D01*
X626591Y126368D01*
X626583Y126358D01*
X626572Y126349D01*
X626457Y126199D01*
X626341Y126052D01*
X626335Y126040D01*
X626327Y126030D01*
X626175Y125734D01*
X625746Y124697D01*
X618832Y117783D01*
X618815Y117763D01*
X618794Y117745D01*
X618687Y117607D01*
X618577Y117472D01*
X618564Y117448D01*
X618548Y117427D01*
X618470Y117270D01*
X618388Y117116D01*
X618380Y117091D01*
X618368Y117066D01*
X618323Y116897D01*
X618273Y116730D01*
X618271Y116704D01*
X618264Y116678D01*
X618237Y116347D01*
X618237Y105978D01*
X616922Y102804D01*
X614492Y100374D01*
X611318Y99059D01*
X607882Y99059D01*
X604708Y100374D01*
X602278Y102804D01*
X600963Y105978D01*
X600963Y122622D01*
X602278Y125796D01*
X604708Y128226D01*
X607882Y129541D01*
X611318Y129541D01*
X614492Y128226D01*
X614699Y128020D01*
X614713Y128008D01*
X614724Y127994D01*
X614869Y127880D01*
X615010Y127765D01*
X615026Y127756D01*
X615040Y127745D01*
X615204Y127662D01*
X615366Y127576D01*
X615383Y127571D01*
X615399Y127563D01*
X615575Y127514D01*
X615752Y127461D01*
X615770Y127459D01*
X615787Y127455D01*
X615969Y127441D01*
X616153Y127425D01*
X616171Y127427D01*
X616189Y127425D01*
X616370Y127448D01*
X616553Y127468D01*
X616570Y127474D01*
X616588Y127476D01*
X616762Y127534D01*
X616937Y127590D01*
X616953Y127598D01*
X616970Y127604D01*
X617129Y127696D01*
X617289Y127784D01*
X617303Y127796D01*
X617319Y127805D01*
X617572Y128020D01*
X617641Y128089D01*
X617657Y128110D01*
X617678Y128127D01*
X617784Y128265D01*
X617896Y128401D01*
X617908Y128424D01*
X617924Y128445D01*
X618002Y128601D01*
X618084Y128756D01*
X618092Y128782D01*
X618104Y128806D01*
X618149Y128975D01*
X618199Y129142D01*
X618201Y129169D01*
X618208Y129194D01*
X618235Y129525D01*
X618235Y143917D01*
X618234Y143926D01*
X618235Y143935D01*
X618214Y144127D01*
X618195Y144318D01*
X618193Y144326D01*
X618192Y144335D01*
X618134Y144518D01*
X618077Y144703D01*
X618073Y144711D01*
X618070Y144719D01*
X617977Y144888D01*
X617885Y145057D01*
X617880Y145064D01*
X617875Y145071D01*
X617750Y145219D01*
X617628Y145366D01*
X617621Y145372D01*
X617615Y145378D01*
X617463Y145498D01*
X617314Y145618D01*
X617306Y145622D01*
X617299Y145628D01*
X617127Y145715D01*
X616957Y145804D01*
X616948Y145806D01*
X616940Y145810D01*
X616754Y145862D01*
X616570Y145915D01*
X616561Y145916D01*
X616552Y145918D01*
X616360Y145933D01*
X616168Y145948D01*
X616160Y145947D01*
X616151Y145948D01*
X615958Y145923D01*
X615769Y145901D01*
X615760Y145899D01*
X615751Y145897D01*
X615568Y145836D01*
X615386Y145776D01*
X615378Y145772D01*
X615370Y145769D01*
X615204Y145674D01*
X615035Y145579D01*
X615028Y145573D01*
X615021Y145568D01*
X614768Y145354D01*
X613177Y143763D01*
X606023Y143763D01*
X600963Y148823D01*
X600963Y155977D01*
X606023Y161037D01*
X613177Y161037D01*
X614768Y159446D01*
X614775Y159441D01*
X614780Y159434D01*
X614930Y159314D01*
X615079Y159191D01*
X615087Y159187D01*
X615094Y159182D01*
X615264Y159093D01*
X615435Y159003D01*
X615444Y159000D01*
X615451Y158996D01*
X615636Y158943D01*
X615821Y158888D01*
X615830Y158887D01*
X615838Y158885D01*
X616029Y158869D01*
X616222Y158852D01*
X616231Y158853D01*
X616240Y158852D01*
X616429Y158874D01*
X616622Y158895D01*
X616631Y158898D01*
X616639Y158899D01*
X616821Y158958D01*
X617006Y159016D01*
X617014Y159021D01*
X617022Y159024D01*
X617191Y159119D01*
X617358Y159211D01*
X617365Y159217D01*
X617373Y159221D01*
X617519Y159347D01*
X617665Y159472D01*
X617671Y159479D01*
X617678Y159485D01*
X617795Y159636D01*
X617915Y159788D01*
X617919Y159796D01*
X617924Y159803D01*
X618010Y159975D01*
X618097Y160147D01*
X618100Y160155D01*
X618104Y160163D01*
X618154Y160349D01*
X618205Y160535D01*
X618206Y160543D01*
X618208Y160552D01*
X618235Y160883D01*
X618235Y191309D01*
X618854Y192802D01*
X620283Y194232D01*
X627630Y201579D01*
X627642Y201593D01*
X627655Y201604D01*
X627768Y201747D01*
X627885Y201890D01*
X627894Y201906D01*
X627905Y201920D01*
X627988Y202083D01*
X628074Y202246D01*
X628079Y202263D01*
X628087Y202279D01*
X628136Y202455D01*
X628189Y202632D01*
X628191Y202650D01*
X628195Y202667D01*
X628209Y202849D01*
X628225Y203033D01*
X628223Y203051D01*
X628225Y203069D01*
X628202Y203250D01*
X628182Y203433D01*
X628176Y203450D01*
X628174Y203468D01*
X628116Y203642D01*
X628060Y203817D01*
X628052Y203833D01*
X628046Y203850D01*
X627954Y204009D01*
X627866Y204169D01*
X627854Y204183D01*
X627845Y204199D01*
X627685Y204387D01*
X626363Y207578D01*
X626363Y224222D01*
X627678Y227396D01*
X630108Y229826D01*
X633282Y231141D01*
X636718Y231141D01*
X639811Y229860D01*
X639824Y229856D01*
X639835Y229850D01*
X640015Y229798D01*
X640196Y229743D01*
X640209Y229742D01*
X640222Y229738D01*
X640410Y229723D01*
X640597Y229705D01*
X640610Y229706D01*
X640624Y229705D01*
X640810Y229727D01*
X640997Y229747D01*
X641010Y229751D01*
X641023Y229752D01*
X641202Y229810D01*
X641382Y229867D01*
X641393Y229873D01*
X641406Y229877D01*
X641570Y229969D01*
X641735Y230060D01*
X641745Y230068D01*
X641757Y230075D01*
X641899Y230197D01*
X642043Y230319D01*
X642051Y230329D01*
X642062Y230338D01*
X642176Y230486D01*
X642294Y230634D01*
X642300Y230646D01*
X642308Y230656D01*
X642392Y230825D01*
X642478Y230992D01*
X642482Y231005D01*
X642488Y231017D01*
X642537Y231200D01*
X642588Y231379D01*
X642589Y231393D01*
X642592Y231406D01*
X642619Y231736D01*
X642619Y232004D01*
X642617Y232031D01*
X642619Y232057D01*
X642597Y232231D01*
X642579Y232405D01*
X642572Y232430D01*
X642568Y232457D01*
X642513Y232623D01*
X642461Y232790D01*
X642448Y232813D01*
X642440Y232839D01*
X642353Y232990D01*
X642269Y233144D01*
X642252Y233164D01*
X642239Y233187D01*
X642024Y233440D01*
X637046Y238418D01*
X637026Y238435D01*
X637008Y238456D01*
X636870Y238563D01*
X636735Y238673D01*
X636711Y238686D01*
X636690Y238702D01*
X636533Y238780D01*
X636379Y238862D01*
X636354Y238870D01*
X636330Y238882D01*
X636160Y238927D01*
X635993Y238977D01*
X635967Y238979D01*
X635941Y238986D01*
X635610Y239013D01*
X631423Y239013D01*
X626363Y244073D01*
X626363Y251227D01*
X631423Y256287D01*
X638577Y256287D01*
X643637Y251227D01*
X643637Y247040D01*
X643639Y247013D01*
X643637Y246987D01*
X643659Y246813D01*
X643677Y246639D01*
X643684Y246614D01*
X643688Y246587D01*
X643743Y246421D01*
X643795Y246254D01*
X643808Y246231D01*
X643816Y246205D01*
X643903Y246054D01*
X643987Y245900D01*
X644004Y245880D01*
X644017Y245857D01*
X644232Y245604D01*
X646264Y243572D01*
X646278Y243560D01*
X646289Y243547D01*
X646433Y243433D01*
X646575Y243316D01*
X646591Y243308D01*
X646605Y243297D01*
X646769Y243214D01*
X646931Y243128D01*
X646948Y243123D01*
X646964Y243115D01*
X647141Y243065D01*
X647317Y243013D01*
X647335Y243011D01*
X647352Y243007D01*
X647535Y242993D01*
X647718Y242977D01*
X647736Y242979D01*
X647753Y242977D01*
X647935Y243000D01*
X648118Y243020D01*
X648135Y243025D01*
X648153Y243028D01*
X648327Y243086D01*
X648502Y243142D01*
X648518Y243150D01*
X648534Y243156D01*
X648693Y243247D01*
X648854Y243336D01*
X648868Y243348D01*
X648883Y243357D01*
X649136Y243572D01*
X651168Y245604D01*
X651185Y245624D01*
X651206Y245642D01*
X651312Y245780D01*
X651423Y245915D01*
X651436Y245939D01*
X651452Y245960D01*
X651530Y246116D01*
X651612Y246271D01*
X651620Y246296D01*
X651632Y246320D01*
X651677Y246489D01*
X651727Y246657D01*
X651729Y246683D01*
X651736Y246709D01*
X651763Y247040D01*
X651763Y251227D01*
X656823Y256287D01*
X663977Y256287D01*
X669037Y251227D01*
X669037Y244073D01*
X663977Y239013D01*
X659790Y239013D01*
X659763Y239011D01*
X659737Y239013D01*
X659563Y238991D01*
X659389Y238973D01*
X659364Y238966D01*
X659337Y238962D01*
X659171Y238907D01*
X659004Y238855D01*
X658981Y238842D01*
X658955Y238834D01*
X658804Y238747D01*
X658650Y238663D01*
X658630Y238646D01*
X658607Y238633D01*
X658354Y238418D01*
X653376Y233440D01*
X653359Y233420D01*
X653338Y233402D01*
X653231Y233264D01*
X653121Y233129D01*
X653108Y233105D01*
X653092Y233084D01*
X653014Y232927D01*
X652932Y232773D01*
X652924Y232748D01*
X652912Y232724D01*
X652867Y232554D01*
X652817Y232387D01*
X652815Y232361D01*
X652808Y232335D01*
X652781Y232004D01*
X652781Y231736D01*
X652782Y231723D01*
X652781Y231710D01*
X652802Y231523D01*
X652821Y231336D01*
X652825Y231323D01*
X652826Y231310D01*
X652884Y231130D01*
X652939Y230951D01*
X652945Y230939D01*
X652949Y230926D01*
X653041Y230762D01*
X653131Y230597D01*
X653139Y230586D01*
X653146Y230575D01*
X653268Y230432D01*
X653388Y230287D01*
X653399Y230279D01*
X653407Y230269D01*
X653556Y230153D01*
X653702Y230035D01*
X653714Y230029D01*
X653724Y230021D01*
X653894Y229936D01*
X654059Y229850D01*
X654072Y229846D01*
X654084Y229840D01*
X654267Y229790D01*
X654446Y229738D01*
X654460Y229737D01*
X654473Y229734D01*
X654661Y229721D01*
X654848Y229705D01*
X654861Y229707D01*
X654874Y229706D01*
X655062Y229731D01*
X655247Y229752D01*
X655260Y229756D01*
X655273Y229758D01*
X655589Y229860D01*
X658682Y231141D01*
X662209Y231141D01*
X662256Y231127D01*
X662279Y231124D01*
X662300Y231118D01*
X662480Y231105D01*
X662657Y231088D01*
X662679Y231091D01*
X662702Y231089D01*
X662880Y231111D01*
X663058Y231130D01*
X663079Y231137D01*
X663101Y231139D01*
X663271Y231196D01*
X663442Y231250D01*
X663462Y231260D01*
X663483Y231268D01*
X663638Y231357D01*
X663795Y231443D01*
X663812Y231457D01*
X663832Y231469D01*
X664085Y231683D01*
X676568Y244167D01*
X676585Y244187D01*
X676606Y244205D01*
X676713Y244343D01*
X676823Y244478D01*
X676836Y244502D01*
X676852Y244523D01*
X676930Y244680D01*
X677012Y244834D01*
X677020Y244859D01*
X677032Y244884D01*
X677077Y245053D01*
X677127Y245220D01*
X677129Y245246D01*
X677136Y245272D01*
X677163Y245603D01*
X677163Y249697D01*
X677161Y249724D01*
X677163Y249750D01*
X677141Y249924D01*
X677123Y250098D01*
X677116Y250123D01*
X677112Y250150D01*
X677056Y250316D01*
X677005Y250483D01*
X676992Y250506D01*
X676984Y250531D01*
X676897Y250683D01*
X676813Y250837D01*
X676796Y250857D01*
X676783Y250880D01*
X676568Y251133D01*
X656954Y270748D01*
X656335Y272241D01*
X656335Y314859D01*
X656334Y314872D01*
X656335Y314884D01*
X656333Y314897D01*
X656335Y314913D01*
X656313Y315086D01*
X656295Y315260D01*
X656288Y315285D01*
X656284Y315312D01*
X656228Y315478D01*
X656177Y315645D01*
X656164Y315668D01*
X656156Y315694D01*
X656069Y315845D01*
X655985Y315999D01*
X655968Y316019D01*
X655955Y316043D01*
X655740Y316296D01*
X651763Y320273D01*
X651763Y327427D01*
X656823Y332487D01*
X663977Y332487D01*
X669037Y327427D01*
X669037Y320273D01*
X665060Y316296D01*
X665043Y316275D01*
X665022Y316257D01*
X664915Y316119D01*
X664805Y315984D01*
X664792Y315960D01*
X664776Y315939D01*
X664698Y315783D01*
X664616Y315628D01*
X664608Y315603D01*
X664596Y315579D01*
X664551Y315409D01*
X664501Y315242D01*
X664499Y315217D01*
X664498Y315214D01*
X664498Y315212D01*
X664492Y315190D01*
X664465Y314859D01*
X664465Y275575D01*
X664467Y275548D01*
X664465Y275522D01*
X664487Y275348D01*
X664505Y275174D01*
X664512Y275149D01*
X664516Y275122D01*
X664571Y274957D01*
X664623Y274790D01*
X664636Y274766D01*
X664644Y274741D01*
X664731Y274589D01*
X664815Y274435D01*
X664832Y274415D01*
X664845Y274392D01*
X665060Y274139D01*
X682317Y256882D01*
X682337Y256865D01*
X682355Y256844D01*
X682493Y256737D01*
X682628Y256627D01*
X682652Y256614D01*
X682673Y256598D01*
X682830Y256520D01*
X682984Y256438D01*
X683009Y256430D01*
X683034Y256418D01*
X683203Y256373D01*
X683370Y256323D01*
X683396Y256321D01*
X683422Y256314D01*
X683753Y256287D01*
X689377Y256287D01*
X694437Y251227D01*
X694437Y244073D01*
X689377Y239013D01*
X683753Y239013D01*
X683726Y239011D01*
X683700Y239013D01*
X683526Y238991D01*
X683352Y238973D01*
X683327Y238966D01*
X683300Y238962D01*
X683135Y238907D01*
X682967Y238855D01*
X682944Y238842D01*
X682919Y238834D01*
X682767Y238747D01*
X682613Y238663D01*
X682593Y238646D01*
X682570Y238633D01*
X682317Y238418D01*
X669632Y225733D01*
X669615Y225713D01*
X669594Y225695D01*
X669487Y225557D01*
X669377Y225422D01*
X669364Y225398D01*
X669348Y225377D01*
X669270Y225220D01*
X669188Y225066D01*
X669180Y225041D01*
X669168Y225016D01*
X669123Y224847D01*
X669073Y224680D01*
X669071Y224654D01*
X669064Y224628D01*
X669037Y224297D01*
X669037Y207578D01*
X667722Y204404D01*
X665292Y201974D01*
X662118Y200659D01*
X658682Y200659D01*
X655589Y201940D01*
X655576Y201944D01*
X655565Y201950D01*
X655385Y202002D01*
X655204Y202057D01*
X655191Y202058D01*
X655178Y202062D01*
X654990Y202077D01*
X654803Y202095D01*
X654790Y202094D01*
X654776Y202095D01*
X654590Y202073D01*
X654403Y202053D01*
X654390Y202049D01*
X654377Y202048D01*
X654198Y201990D01*
X654018Y201933D01*
X654007Y201927D01*
X653994Y201923D01*
X653830Y201831D01*
X653665Y201740D01*
X653655Y201732D01*
X653643Y201725D01*
X653501Y201603D01*
X653357Y201481D01*
X653349Y201471D01*
X653338Y201462D01*
X653224Y201314D01*
X653106Y201166D01*
X653100Y201154D01*
X653092Y201144D01*
X653008Y200975D01*
X652922Y200808D01*
X652918Y200795D01*
X652912Y200783D01*
X652863Y200600D01*
X652812Y200421D01*
X652811Y200407D01*
X652808Y200394D01*
X652781Y200064D01*
X652781Y180149D01*
X652783Y180123D01*
X652781Y180096D01*
X652803Y179922D01*
X652821Y179749D01*
X652828Y179723D01*
X652832Y179697D01*
X652887Y179531D01*
X652939Y179364D01*
X652952Y179340D01*
X652960Y179315D01*
X653047Y179163D01*
X653131Y179010D01*
X653148Y178989D01*
X653161Y178966D01*
X653376Y178713D01*
X654765Y177324D01*
X654765Y165576D01*
X653574Y164385D01*
X641826Y164385D01*
X640635Y165576D01*
X640635Y177324D01*
X642024Y178713D01*
X642041Y178734D01*
X642062Y178751D01*
X642169Y178889D01*
X642279Y179025D01*
X642292Y179048D01*
X642308Y179069D01*
X642386Y179226D01*
X642468Y179380D01*
X642476Y179406D01*
X642488Y179430D01*
X642533Y179599D01*
X642583Y179766D01*
X642585Y179793D01*
X642592Y179819D01*
X642619Y180149D01*
X642619Y200064D01*
X642618Y200077D01*
X642619Y200090D01*
X642598Y200277D01*
X642579Y200464D01*
X642575Y200477D01*
X642574Y200490D01*
X642516Y200670D01*
X642461Y200849D01*
X642455Y200861D01*
X642451Y200874D01*
X642359Y201038D01*
X642269Y201203D01*
X642261Y201213D01*
X642254Y201225D01*
X642132Y201369D01*
X642012Y201513D01*
X642001Y201521D01*
X641993Y201531D01*
X641844Y201647D01*
X641698Y201765D01*
X641686Y201771D01*
X641676Y201779D01*
X641507Y201864D01*
X641341Y201950D01*
X641328Y201954D01*
X641316Y201960D01*
X641134Y202010D01*
X640954Y202062D01*
X640940Y202063D01*
X640928Y202066D01*
X640739Y202079D01*
X640552Y202095D01*
X640539Y202093D01*
X640526Y202094D01*
X640338Y202070D01*
X640153Y202048D01*
X640140Y202044D01*
X640127Y202042D01*
X639811Y201940D01*
X639462Y201796D01*
X639438Y201783D01*
X639413Y201775D01*
X639261Y201688D01*
X639107Y201606D01*
X639086Y201589D01*
X639063Y201575D01*
X638931Y201461D01*
X638797Y201349D01*
X638780Y201328D01*
X638760Y201311D01*
X638653Y201172D01*
X638543Y201037D01*
X638531Y201013D01*
X638514Y200992D01*
X638487Y200938D01*
X626960Y189411D01*
X626943Y189391D01*
X626922Y189373D01*
X626815Y189235D01*
X626705Y189100D01*
X626692Y189076D01*
X626676Y189055D01*
X626598Y188898D01*
X626516Y188744D01*
X626508Y188719D01*
X626496Y188694D01*
X626451Y188525D01*
X626401Y188358D01*
X626399Y188332D01*
X626392Y188306D01*
X626365Y187975D01*
X626365Y154787D01*
X626366Y154778D01*
X626365Y154769D01*
X626385Y154578D01*
X626405Y154386D01*
X626407Y154378D01*
X626408Y154369D01*
X626466Y154185D01*
X626523Y154001D01*
X626527Y153993D01*
X626530Y153985D01*
X626623Y153816D01*
X626715Y153647D01*
X626720Y153640D01*
X626725Y153632D01*
X626849Y153486D01*
X626972Y153338D01*
X626979Y153332D01*
X626985Y153326D01*
X627136Y153206D01*
X627286Y153086D01*
X627294Y153082D01*
X627301Y153076D01*
X627474Y152988D01*
X627643Y152900D01*
X627652Y152898D01*
X627660Y152894D01*
X627847Y152842D01*
X628030Y152789D01*
X628039Y152788D01*
X628048Y152786D01*
X628240Y152772D01*
X628432Y152756D01*
X628440Y152757D01*
X628449Y152756D01*
X628641Y152780D01*
X628831Y152803D01*
X628840Y152806D01*
X628849Y152807D01*
X629031Y152868D01*
X629214Y152928D01*
X629222Y152932D01*
X629230Y152935D01*
X629398Y153031D01*
X629565Y153125D01*
X629572Y153131D01*
X629579Y153136D01*
X629832Y153350D01*
X630108Y153626D01*
X633282Y154941D01*
X636718Y154941D01*
X639892Y153626D01*
X642322Y151196D01*
X643637Y148022D01*
X643637Y145796D01*
X643639Y145778D01*
X643637Y145760D01*
X643658Y145578D01*
X643677Y145395D01*
X643682Y145378D01*
X643684Y145361D01*
X643741Y145186D01*
X643795Y145010D01*
X643803Y144995D01*
X643809Y144978D01*
X643899Y144818D01*
X643987Y144656D01*
X643998Y144643D01*
X644007Y144627D01*
X644127Y144488D01*
X644244Y144347D01*
X644258Y144336D01*
X644270Y144322D01*
X644415Y144210D01*
X644558Y144095D01*
X644574Y144087D01*
X644588Y144076D01*
X644753Y143994D01*
X644915Y143909D01*
X644932Y143904D01*
X644948Y143896D01*
X645127Y143849D01*
X645302Y143798D01*
X645320Y143796D01*
X645337Y143792D01*
X645668Y143765D01*
X649732Y143765D01*
X649750Y143767D01*
X649768Y143765D01*
X649950Y143786D01*
X650133Y143805D01*
X650150Y143810D01*
X650167Y143812D01*
X650342Y143869D01*
X650518Y143923D01*
X650533Y143931D01*
X650550Y143937D01*
X650710Y144027D01*
X650872Y144115D01*
X650885Y144126D01*
X650901Y144135D01*
X651040Y144255D01*
X651181Y144372D01*
X651192Y144386D01*
X651206Y144398D01*
X651318Y144543D01*
X651433Y144686D01*
X651441Y144702D01*
X651452Y144716D01*
X651534Y144881D01*
X651619Y145043D01*
X651624Y145060D01*
X651632Y145076D01*
X651679Y145255D01*
X651730Y145430D01*
X651732Y145448D01*
X651736Y145465D01*
X651763Y145796D01*
X651763Y148022D01*
X653078Y151196D01*
X655508Y153626D01*
X658682Y154941D01*
X662118Y154941D01*
X665292Y153626D01*
X667722Y151196D01*
X669037Y148022D01*
X669037Y131378D01*
X667722Y128204D01*
X665060Y125541D01*
X665043Y125521D01*
X665022Y125503D01*
X664915Y125365D01*
X664805Y125230D01*
X664792Y125206D01*
X664776Y125185D01*
X664698Y125028D01*
X664616Y124874D01*
X664608Y124849D01*
X664596Y124825D01*
X664551Y124655D01*
X664501Y124488D01*
X664499Y124462D01*
X664492Y124436D01*
X664465Y124105D01*
X664465Y123291D01*
X664467Y123264D01*
X664465Y123238D01*
X664487Y123063D01*
X664505Y122890D01*
X664512Y122865D01*
X664516Y122838D01*
X664571Y122672D01*
X664623Y122505D01*
X664636Y122482D01*
X664644Y122456D01*
X664731Y122305D01*
X664815Y122151D01*
X664832Y122131D01*
X664845Y122108D01*
X665060Y121855D01*
X669037Y117877D01*
X669037Y112253D01*
X669039Y112226D01*
X669037Y112200D01*
X669059Y112026D01*
X669077Y111852D01*
X669084Y111827D01*
X669088Y111800D01*
X669143Y111635D01*
X669195Y111467D01*
X669208Y111444D01*
X669216Y111419D01*
X669303Y111267D01*
X669387Y111113D01*
X669404Y111093D01*
X669417Y111070D01*
X669632Y110817D01*
X693239Y87210D01*
X693259Y87193D01*
X693277Y87172D01*
X693415Y87065D01*
X693550Y86955D01*
X693574Y86942D01*
X693595Y86926D01*
X693752Y86848D01*
X693906Y86766D01*
X693931Y86758D01*
X693956Y86746D01*
X694125Y86701D01*
X694292Y86651D01*
X694318Y86649D01*
X694344Y86642D01*
X694675Y86615D01*
X721259Y86615D01*
X721286Y86617D01*
X721312Y86615D01*
X721486Y86637D01*
X721660Y86655D01*
X721685Y86662D01*
X721712Y86666D01*
X721878Y86721D01*
X722045Y86773D01*
X722068Y86786D01*
X722094Y86794D01*
X722245Y86881D01*
X722399Y86965D01*
X722419Y86982D01*
X722442Y86995D01*
X722695Y87210D01*
X726673Y91187D01*
X733827Y91187D01*
X738887Y86127D01*
X738887Y78973D01*
X737296Y77382D01*
X737291Y77375D01*
X737284Y77370D01*
X737164Y77220D01*
X737041Y77071D01*
X737037Y77063D01*
X737032Y77056D01*
X736942Y76884D01*
X736853Y76715D01*
X736850Y76706D01*
X736846Y76699D01*
X736793Y76514D01*
X736738Y76329D01*
X736737Y76320D01*
X736735Y76312D01*
X736719Y76121D01*
X736702Y75928D01*
X736703Y75919D01*
X736702Y75910D01*
X736724Y75721D01*
X736745Y75528D01*
X736748Y75519D01*
X736749Y75511D01*
X736808Y75329D01*
X736866Y75144D01*
X736871Y75136D01*
X736874Y75128D01*
X736969Y74959D01*
X737061Y74792D01*
X737067Y74785D01*
X737071Y74777D01*
X737197Y74631D01*
X737322Y74485D01*
X737329Y74479D01*
X737335Y74472D01*
X737486Y74355D01*
X737638Y74235D01*
X737646Y74231D01*
X737653Y74226D01*
X737825Y74140D01*
X737997Y74053D01*
X738005Y74050D01*
X738013Y74046D01*
X738199Y73996D01*
X738385Y73945D01*
X738393Y73944D01*
X738402Y73942D01*
X738733Y73915D01*
X746775Y73915D01*
X746802Y73917D01*
X746828Y73915D01*
X747002Y73937D01*
X747176Y73955D01*
X747201Y73962D01*
X747228Y73966D01*
X747393Y74021D01*
X747560Y74073D01*
X747584Y74086D01*
X747609Y74094D01*
X747761Y74181D01*
X747915Y74265D01*
X747935Y74282D01*
X747958Y74295D01*
X748211Y74510D01*
X757340Y83639D01*
X757357Y83659D01*
X757378Y83677D01*
X757485Y83815D01*
X757595Y83950D01*
X757608Y83974D01*
X757624Y83995D01*
X757702Y84152D01*
X757784Y84306D01*
X757792Y84331D01*
X757804Y84356D01*
X757849Y84525D01*
X757899Y84692D01*
X757901Y84718D01*
X757908Y84744D01*
X757935Y85075D01*
X757935Y98959D01*
X757933Y98986D01*
X757935Y99012D01*
X757913Y99186D01*
X757895Y99360D01*
X757888Y99385D01*
X757884Y99412D01*
X757829Y99578D01*
X757777Y99745D01*
X757764Y99768D01*
X757756Y99794D01*
X757669Y99945D01*
X757585Y100099D01*
X757568Y100119D01*
X757555Y100142D01*
X757340Y100395D01*
X753363Y104373D01*
X753363Y109997D01*
X753361Y110024D01*
X753363Y110050D01*
X753341Y110224D01*
X753323Y110398D01*
X753316Y110423D01*
X753312Y110450D01*
X753257Y110615D01*
X753205Y110782D01*
X753192Y110806D01*
X753184Y110831D01*
X753097Y110983D01*
X753013Y111137D01*
X752996Y111157D01*
X752983Y111180D01*
X752768Y111433D01*
X740285Y123917D01*
X740267Y123931D01*
X740253Y123948D01*
X740112Y124058D01*
X739973Y124172D01*
X739953Y124182D01*
X739936Y124196D01*
X739775Y124277D01*
X739618Y124360D01*
X739596Y124367D01*
X739576Y124377D01*
X739403Y124424D01*
X739232Y124475D01*
X739209Y124477D01*
X739188Y124483D01*
X739009Y124495D01*
X738831Y124512D01*
X738808Y124509D01*
X738786Y124511D01*
X738609Y124488D01*
X738431Y124468D01*
X738409Y124461D01*
X738392Y124459D01*
X734882Y124459D01*
X731708Y125774D01*
X729278Y128204D01*
X727963Y131378D01*
X727963Y148022D01*
X729278Y151196D01*
X731708Y153626D01*
X734882Y154941D01*
X738318Y154941D01*
X741492Y153626D01*
X743922Y151196D01*
X745237Y148022D01*
X745237Y131303D01*
X745239Y131276D01*
X745237Y131250D01*
X745259Y131076D01*
X745277Y130902D01*
X745284Y130877D01*
X745288Y130850D01*
X745344Y130684D01*
X745395Y130518D01*
X745408Y130494D01*
X745416Y130469D01*
X745503Y130317D01*
X745587Y130163D01*
X745604Y130143D01*
X745617Y130120D01*
X745832Y129867D01*
X758517Y117182D01*
X758537Y117165D01*
X758555Y117144D01*
X758693Y117037D01*
X758828Y116927D01*
X758852Y116914D01*
X758873Y116898D01*
X759030Y116820D01*
X759184Y116738D01*
X759209Y116730D01*
X759234Y116718D01*
X759403Y116673D01*
X759570Y116623D01*
X759596Y116621D01*
X759622Y116614D01*
X759953Y116587D01*
X765577Y116587D01*
X770637Y111527D01*
X770637Y104373D01*
X766660Y100395D01*
X766643Y100375D01*
X766622Y100357D01*
X766515Y100219D01*
X766405Y100084D01*
X766392Y100060D01*
X766376Y100039D01*
X766298Y99882D01*
X766216Y99728D01*
X766208Y99703D01*
X766196Y99679D01*
X766151Y99509D01*
X766101Y99342D01*
X766099Y99316D01*
X766092Y99290D01*
X766065Y98959D01*
X766065Y81741D01*
X765446Y80248D01*
X751602Y66404D01*
X750109Y65785D01*
X738733Y65785D01*
X738724Y65784D01*
X738715Y65785D01*
X738523Y65764D01*
X738332Y65745D01*
X738324Y65743D01*
X738315Y65742D01*
X738132Y65684D01*
X737947Y65627D01*
X737939Y65623D01*
X737931Y65620D01*
X737762Y65527D01*
X737593Y65435D01*
X737586Y65430D01*
X737579Y65425D01*
X737431Y65300D01*
X737284Y65178D01*
X737278Y65171D01*
X737272Y65165D01*
X737152Y65013D01*
X737032Y64864D01*
X737028Y64856D01*
X737022Y64849D01*
X736935Y64677D01*
X736846Y64507D01*
X736844Y64498D01*
X736840Y64490D01*
X736788Y64304D01*
X736735Y64120D01*
X736734Y64111D01*
X736732Y64102D01*
X736717Y63910D01*
X736702Y63718D01*
X736703Y63710D01*
X736702Y63701D01*
X736727Y63508D01*
X736749Y63319D01*
X736751Y63310D01*
X736753Y63301D01*
X736814Y63118D01*
X736874Y62936D01*
X736878Y62928D01*
X736881Y62920D01*
X736977Y62752D01*
X737071Y62585D01*
X737077Y62578D01*
X737082Y62571D01*
X737296Y62318D01*
X738887Y60727D01*
X738887Y53573D01*
X733827Y48513D01*
X726673Y48513D01*
X722695Y52490D01*
X722675Y52507D01*
X722657Y52528D01*
X722519Y52635D01*
X722384Y52745D01*
X722360Y52758D01*
X722339Y52774D01*
X722182Y52852D01*
X722028Y52934D01*
X722003Y52942D01*
X721979Y52954D01*
X721809Y52999D01*
X721642Y53049D01*
X721616Y53051D01*
X721590Y53058D01*
X721259Y53085D01*
X681975Y53085D01*
X681948Y53083D01*
X681922Y53085D01*
X681748Y53063D01*
X681574Y53045D01*
X681549Y53038D01*
X681522Y53034D01*
X681357Y52979D01*
X681190Y52927D01*
X681166Y52914D01*
X681141Y52906D01*
X680989Y52819D01*
X680835Y52735D01*
X680815Y52718D01*
X680792Y52705D01*
X680539Y52490D01*
X669632Y41583D01*
X669615Y41563D01*
X669594Y41545D01*
X669487Y41407D01*
X669377Y41272D01*
X669364Y41248D01*
X669348Y41227D01*
X669270Y41070D01*
X669188Y40916D01*
X669180Y40891D01*
X669168Y40866D01*
X669123Y40697D01*
X669073Y40530D01*
X669071Y40504D01*
X669064Y40478D01*
X669037Y40147D01*
X669037Y34523D01*
X663977Y29463D01*
X656823Y29463D01*
X652845Y33440D01*
X652825Y33457D01*
X652807Y33478D01*
X652669Y33585D01*
X652534Y33695D01*
X652510Y33708D01*
X652489Y33724D01*
X652332Y33802D01*
X652178Y33884D01*
X652153Y33892D01*
X652129Y33904D01*
X651959Y33949D01*
X651792Y33999D01*
X651766Y34001D01*
X651740Y34008D01*
X651409Y34035D01*
X620268Y34035D01*
X620250Y34033D01*
X620232Y34035D01*
X620050Y34014D01*
X619867Y33995D01*
X619850Y33990D01*
X619833Y33988D01*
X619658Y33931D01*
X619482Y33877D01*
X619467Y33869D01*
X619450Y33863D01*
X619290Y33773D01*
X619128Y33685D01*
X619115Y33674D01*
X619099Y33665D01*
X618960Y33545D01*
X618819Y33428D01*
X618808Y33414D01*
X618794Y33402D01*
X618682Y33257D01*
X618567Y33114D01*
X618559Y33098D01*
X618548Y33084D01*
X618466Y32919D01*
X618381Y32757D01*
X618376Y32740D01*
X618368Y32724D01*
X618321Y32545D01*
X618270Y32370D01*
X618268Y32352D01*
X618264Y32335D01*
X618237Y32004D01*
X618237Y29778D01*
X616922Y26604D01*
X614492Y24174D01*
X611318Y22859D01*
X607882Y22859D01*
G37*
%LPD*%
%LPC*%
G36*
X580623Y29463D02*
X580623Y29463D01*
X575563Y34523D01*
X575563Y41677D01*
X579540Y45655D01*
X579557Y45675D01*
X579578Y45693D01*
X579685Y45831D01*
X579795Y45966D01*
X579808Y45990D01*
X579824Y46011D01*
X579902Y46168D01*
X579984Y46322D01*
X579992Y46347D01*
X580004Y46371D01*
X580049Y46541D01*
X580099Y46708D01*
X580101Y46734D01*
X580108Y46760D01*
X580135Y47091D01*
X580135Y60975D01*
X580133Y61002D01*
X580135Y61028D01*
X580113Y61202D01*
X580095Y61376D01*
X580088Y61401D01*
X580084Y61428D01*
X580029Y61593D01*
X579977Y61760D01*
X579964Y61784D01*
X579956Y61809D01*
X579869Y61961D01*
X579785Y62115D01*
X579768Y62135D01*
X579755Y62158D01*
X579540Y62411D01*
X536883Y105068D01*
X536863Y105085D01*
X536845Y105106D01*
X536707Y105213D01*
X536572Y105323D01*
X536548Y105336D01*
X536527Y105352D01*
X536370Y105430D01*
X536216Y105512D01*
X536191Y105520D01*
X536166Y105532D01*
X535997Y105577D01*
X535830Y105627D01*
X535804Y105629D01*
X535778Y105636D01*
X535447Y105663D01*
X529823Y105663D01*
X528232Y107254D01*
X528225Y107259D01*
X528220Y107266D01*
X528070Y107386D01*
X527921Y107509D01*
X527913Y107513D01*
X527906Y107518D01*
X527736Y107607D01*
X527565Y107697D01*
X527556Y107700D01*
X527549Y107704D01*
X527364Y107757D01*
X527179Y107812D01*
X527170Y107813D01*
X527162Y107815D01*
X526971Y107831D01*
X526778Y107848D01*
X526769Y107847D01*
X526760Y107848D01*
X526571Y107826D01*
X526378Y107805D01*
X526369Y107802D01*
X526361Y107801D01*
X526179Y107742D01*
X525994Y107684D01*
X525986Y107679D01*
X525978Y107676D01*
X525809Y107581D01*
X525642Y107489D01*
X525635Y107483D01*
X525627Y107479D01*
X525481Y107353D01*
X525335Y107228D01*
X525329Y107221D01*
X525322Y107215D01*
X525205Y107064D01*
X525085Y106912D01*
X525081Y106904D01*
X525076Y106897D01*
X524990Y106725D01*
X524903Y106553D01*
X524900Y106545D01*
X524896Y106537D01*
X524846Y106351D01*
X524795Y106165D01*
X524794Y106157D01*
X524792Y106148D01*
X524765Y105817D01*
X524765Y91646D01*
X524767Y91628D01*
X524765Y91610D01*
X524786Y91428D01*
X524805Y91245D01*
X524810Y91228D01*
X524812Y91211D01*
X524869Y91036D01*
X524923Y90860D01*
X524931Y90845D01*
X524937Y90828D01*
X525027Y90668D01*
X525115Y90506D01*
X525126Y90493D01*
X525135Y90477D01*
X525255Y90338D01*
X525372Y90197D01*
X525386Y90186D01*
X525398Y90172D01*
X525543Y90060D01*
X525686Y89945D01*
X525702Y89937D01*
X525716Y89926D01*
X525881Y89844D01*
X526043Y89759D01*
X526060Y89754D01*
X526076Y89746D01*
X526255Y89699D01*
X526430Y89648D01*
X526448Y89646D01*
X526465Y89642D01*
X526554Y89635D01*
X527765Y88424D01*
X527765Y76676D01*
X526574Y75485D01*
X514826Y75485D01*
X513635Y76676D01*
X513635Y88424D01*
X514851Y89639D01*
X515005Y89655D01*
X515022Y89660D01*
X515039Y89662D01*
X515214Y89719D01*
X515390Y89773D01*
X515405Y89781D01*
X515422Y89787D01*
X515582Y89877D01*
X515744Y89965D01*
X515757Y89976D01*
X515773Y89985D01*
X515912Y90105D01*
X516053Y90222D01*
X516064Y90236D01*
X516078Y90248D01*
X516190Y90393D01*
X516305Y90536D01*
X516313Y90552D01*
X516324Y90566D01*
X516406Y90731D01*
X516491Y90893D01*
X516496Y90910D01*
X516504Y90926D01*
X516551Y91105D01*
X516602Y91280D01*
X516604Y91298D01*
X516608Y91315D01*
X516635Y91646D01*
X516635Y105817D01*
X516634Y105826D01*
X516635Y105835D01*
X516614Y106027D01*
X516595Y106218D01*
X516593Y106226D01*
X516592Y106235D01*
X516534Y106418D01*
X516477Y106603D01*
X516473Y106611D01*
X516470Y106619D01*
X516377Y106788D01*
X516285Y106957D01*
X516280Y106964D01*
X516275Y106971D01*
X516151Y107118D01*
X516028Y107266D01*
X516021Y107272D01*
X516015Y107278D01*
X515863Y107398D01*
X515714Y107518D01*
X515706Y107522D01*
X515699Y107528D01*
X515527Y107615D01*
X515357Y107704D01*
X515348Y107706D01*
X515340Y107710D01*
X515154Y107762D01*
X514970Y107815D01*
X514961Y107816D01*
X514952Y107818D01*
X514760Y107833D01*
X514568Y107848D01*
X514560Y107847D01*
X514551Y107848D01*
X514358Y107823D01*
X514169Y107801D01*
X514160Y107799D01*
X514151Y107797D01*
X513968Y107736D01*
X513786Y107676D01*
X513778Y107672D01*
X513770Y107669D01*
X513604Y107574D01*
X513435Y107479D01*
X513428Y107473D01*
X513421Y107468D01*
X513168Y107254D01*
X511577Y105663D01*
X505953Y105663D01*
X505926Y105661D01*
X505900Y105663D01*
X505726Y105641D01*
X505552Y105623D01*
X505527Y105616D01*
X505500Y105612D01*
X505335Y105557D01*
X505168Y105505D01*
X505144Y105492D01*
X505119Y105484D01*
X504967Y105397D01*
X504813Y105313D01*
X504793Y105296D01*
X504770Y105283D01*
X504517Y105068D01*
X497602Y98154D01*
X496109Y97535D01*
X491591Y97535D01*
X491564Y97533D01*
X491537Y97535D01*
X491364Y97513D01*
X491190Y97495D01*
X491165Y97488D01*
X491138Y97484D01*
X490972Y97428D01*
X490805Y97377D01*
X490782Y97364D01*
X490756Y97356D01*
X490605Y97269D01*
X490451Y97185D01*
X490431Y97168D01*
X490407Y97155D01*
X490154Y96940D01*
X486177Y92963D01*
X479023Y92963D01*
X473963Y98023D01*
X473963Y105177D01*
X479023Y110237D01*
X486177Y110237D01*
X490154Y106260D01*
X490175Y106243D01*
X490193Y106222D01*
X490331Y106115D01*
X490466Y106005D01*
X490490Y105992D01*
X490511Y105976D01*
X490667Y105898D01*
X490822Y105816D01*
X490847Y105808D01*
X490871Y105796D01*
X491041Y105751D01*
X491208Y105701D01*
X491234Y105699D01*
X491260Y105692D01*
X491591Y105665D01*
X492775Y105665D01*
X492802Y105667D01*
X492828Y105665D01*
X493002Y105687D01*
X493176Y105705D01*
X493201Y105712D01*
X493228Y105716D01*
X493393Y105771D01*
X493560Y105823D01*
X493584Y105836D01*
X493609Y105844D01*
X493761Y105931D01*
X493915Y106015D01*
X493935Y106032D01*
X493958Y106045D01*
X494211Y106260D01*
X498768Y110817D01*
X498785Y110837D01*
X498806Y110855D01*
X498913Y110993D01*
X499023Y111128D01*
X499036Y111152D01*
X499052Y111173D01*
X499130Y111330D01*
X499212Y111484D01*
X499220Y111509D01*
X499232Y111534D01*
X499277Y111703D01*
X499327Y111870D01*
X499329Y111896D01*
X499336Y111922D01*
X499363Y112253D01*
X499363Y117877D01*
X503340Y121855D01*
X503357Y121875D01*
X503378Y121893D01*
X503485Y122031D01*
X503595Y122166D01*
X503608Y122190D01*
X503624Y122211D01*
X503702Y122368D01*
X503784Y122522D01*
X503792Y122547D01*
X503804Y122571D01*
X503849Y122741D01*
X503899Y122908D01*
X503901Y122934D01*
X503908Y122960D01*
X503935Y123291D01*
X503935Y124105D01*
X503933Y124132D01*
X503935Y124158D01*
X503913Y124332D01*
X503895Y124506D01*
X503888Y124531D01*
X503884Y124558D01*
X503829Y124724D01*
X503777Y124891D01*
X503764Y124914D01*
X503756Y124940D01*
X503669Y125091D01*
X503585Y125245D01*
X503568Y125265D01*
X503555Y125288D01*
X503340Y125541D01*
X500678Y128204D01*
X499363Y131378D01*
X499363Y148022D01*
X500678Y151196D01*
X503108Y153626D01*
X506282Y154941D01*
X509718Y154941D01*
X512892Y153626D01*
X513168Y153350D01*
X513175Y153345D01*
X513180Y153338D01*
X513330Y153217D01*
X513479Y153095D01*
X513487Y153091D01*
X513494Y153086D01*
X513664Y152997D01*
X513835Y152907D01*
X513844Y152904D01*
X513851Y152900D01*
X514035Y152847D01*
X514221Y152792D01*
X514230Y152791D01*
X514238Y152789D01*
X514429Y152773D01*
X514622Y152756D01*
X514631Y152757D01*
X514640Y152756D01*
X514829Y152778D01*
X515022Y152799D01*
X515031Y152802D01*
X515039Y152803D01*
X515222Y152862D01*
X515406Y152920D01*
X515414Y152925D01*
X515422Y152928D01*
X515591Y153023D01*
X515758Y153115D01*
X515765Y153121D01*
X515773Y153125D01*
X515918Y153251D01*
X516065Y153376D01*
X516071Y153383D01*
X516078Y153389D01*
X516194Y153539D01*
X516315Y153692D01*
X516319Y153700D01*
X516324Y153707D01*
X516410Y153879D01*
X516497Y154051D01*
X516500Y154059D01*
X516504Y154067D01*
X516554Y154255D01*
X516605Y154438D01*
X516606Y154447D01*
X516608Y154456D01*
X516635Y154787D01*
X516635Y159559D01*
X517254Y161052D01*
X554140Y197939D01*
X554157Y197959D01*
X554178Y197977D01*
X554285Y198115D01*
X554395Y198250D01*
X554408Y198274D01*
X554424Y198295D01*
X554502Y198452D01*
X554584Y198606D01*
X554592Y198631D01*
X554604Y198656D01*
X554649Y198825D01*
X554699Y198992D01*
X554701Y199018D01*
X554708Y199044D01*
X554735Y199375D01*
X554735Y200305D01*
X554733Y200332D01*
X554735Y200358D01*
X554713Y200532D01*
X554695Y200706D01*
X554688Y200731D01*
X554684Y200758D01*
X554629Y200924D01*
X554577Y201091D01*
X554564Y201114D01*
X554556Y201140D01*
X554469Y201291D01*
X554385Y201445D01*
X554368Y201465D01*
X554355Y201488D01*
X554140Y201741D01*
X551478Y204404D01*
X550163Y207578D01*
X550163Y224222D01*
X551478Y227396D01*
X553908Y229826D01*
X557082Y231141D01*
X560518Y231141D01*
X563692Y229826D01*
X566122Y227396D01*
X567437Y224222D01*
X567437Y207578D01*
X566122Y204404D01*
X563460Y201741D01*
X563443Y201721D01*
X563422Y201703D01*
X563315Y201565D01*
X563205Y201430D01*
X563192Y201406D01*
X563176Y201385D01*
X563098Y201228D01*
X563016Y201074D01*
X563008Y201049D01*
X562996Y201025D01*
X562951Y200855D01*
X562901Y200688D01*
X562899Y200662D01*
X562892Y200636D01*
X562865Y200305D01*
X562865Y196041D01*
X562246Y194548D01*
X525360Y157661D01*
X525343Y157641D01*
X525322Y157623D01*
X525215Y157485D01*
X525105Y157350D01*
X525092Y157326D01*
X525076Y157305D01*
X524998Y157148D01*
X524916Y156994D01*
X524908Y156969D01*
X524896Y156944D01*
X524851Y156775D01*
X524801Y156608D01*
X524799Y156582D01*
X524792Y156556D01*
X524765Y156225D01*
X524765Y154787D01*
X524766Y154778D01*
X524765Y154769D01*
X524785Y154578D01*
X524805Y154386D01*
X524807Y154378D01*
X524808Y154369D01*
X524866Y154185D01*
X524923Y154001D01*
X524927Y153993D01*
X524930Y153985D01*
X525023Y153816D01*
X525115Y153647D01*
X525120Y153640D01*
X525125Y153632D01*
X525249Y153486D01*
X525372Y153338D01*
X525379Y153332D01*
X525385Y153326D01*
X525536Y153206D01*
X525686Y153086D01*
X525694Y153082D01*
X525701Y153076D01*
X525874Y152988D01*
X526043Y152900D01*
X526052Y152898D01*
X526060Y152894D01*
X526247Y152842D01*
X526430Y152789D01*
X526439Y152788D01*
X526448Y152786D01*
X526640Y152772D01*
X526832Y152756D01*
X526840Y152757D01*
X526849Y152756D01*
X527041Y152780D01*
X527231Y152803D01*
X527240Y152806D01*
X527249Y152807D01*
X527431Y152868D01*
X527614Y152928D01*
X527622Y152932D01*
X527630Y152935D01*
X527798Y153031D01*
X527965Y153125D01*
X527972Y153131D01*
X527979Y153136D01*
X528232Y153350D01*
X528508Y153626D01*
X531682Y154941D01*
X535118Y154941D01*
X538292Y153626D01*
X540722Y151196D01*
X542037Y148022D01*
X542037Y131378D01*
X540722Y128204D01*
X538060Y125541D01*
X538043Y125521D01*
X538022Y125503D01*
X537915Y125365D01*
X537805Y125230D01*
X537792Y125206D01*
X537776Y125185D01*
X537698Y125028D01*
X537616Y124874D01*
X537608Y124849D01*
X537596Y124825D01*
X537551Y124655D01*
X537501Y124488D01*
X537499Y124462D01*
X537492Y124436D01*
X537465Y124105D01*
X537465Y123291D01*
X537467Y123264D01*
X537465Y123238D01*
X537487Y123063D01*
X537505Y122890D01*
X537512Y122865D01*
X537516Y122838D01*
X537571Y122672D01*
X537623Y122505D01*
X537636Y122482D01*
X537644Y122456D01*
X537731Y122305D01*
X537815Y122151D01*
X537832Y122131D01*
X537845Y122108D01*
X538060Y121855D01*
X542037Y117877D01*
X542037Y112253D01*
X542039Y112226D01*
X542037Y112200D01*
X542059Y112026D01*
X542077Y111852D01*
X542084Y111827D01*
X542088Y111800D01*
X542143Y111635D01*
X542195Y111468D01*
X542208Y111444D01*
X542216Y111419D01*
X542303Y111267D01*
X542387Y111113D01*
X542404Y111093D01*
X542417Y111070D01*
X542632Y110817D01*
X587646Y65802D01*
X588265Y64309D01*
X588265Y47091D01*
X588267Y47064D01*
X588265Y47038D01*
X588287Y46863D01*
X588305Y46690D01*
X588312Y46665D01*
X588316Y46638D01*
X588371Y46472D01*
X588423Y46305D01*
X588436Y46282D01*
X588444Y46256D01*
X588531Y46105D01*
X588615Y45951D01*
X588632Y45931D01*
X588645Y45908D01*
X588860Y45655D01*
X592837Y41677D01*
X592837Y34523D01*
X587777Y29463D01*
X580623Y29463D01*
G37*
%LPD*%
%LPC*%
G36*
X377423Y29463D02*
X377423Y29463D01*
X372363Y34523D01*
X372363Y41677D01*
X377423Y46737D01*
X384577Y46737D01*
X388555Y42760D01*
X388575Y42743D01*
X388593Y42722D01*
X388731Y42615D01*
X388866Y42505D01*
X388890Y42492D01*
X388911Y42476D01*
X389068Y42398D01*
X389222Y42316D01*
X389247Y42308D01*
X389271Y42296D01*
X389441Y42251D01*
X389608Y42201D01*
X389634Y42199D01*
X389660Y42192D01*
X389991Y42165D01*
X397409Y42165D01*
X397436Y42167D01*
X397462Y42165D01*
X397636Y42187D01*
X397810Y42205D01*
X397835Y42212D01*
X397862Y42216D01*
X398028Y42271D01*
X398195Y42323D01*
X398218Y42336D01*
X398244Y42344D01*
X398395Y42431D01*
X398549Y42515D01*
X398569Y42532D01*
X398592Y42545D01*
X398845Y42760D01*
X402823Y46737D01*
X408447Y46737D01*
X408474Y46739D01*
X408500Y46737D01*
X408674Y46759D01*
X408848Y46777D01*
X408873Y46784D01*
X408900Y46788D01*
X409065Y46843D01*
X409232Y46895D01*
X409256Y46908D01*
X409281Y46916D01*
X409433Y47003D01*
X409587Y47087D01*
X409607Y47104D01*
X409630Y47117D01*
X409883Y47332D01*
X414440Y51889D01*
X414457Y51909D01*
X414478Y51927D01*
X414584Y52064D01*
X414695Y52200D01*
X414708Y52224D01*
X414724Y52245D01*
X414802Y52401D01*
X414884Y52556D01*
X414892Y52581D01*
X414904Y52606D01*
X414949Y52775D01*
X414999Y52942D01*
X415001Y52968D01*
X415008Y52994D01*
X415035Y53325D01*
X415035Y105817D01*
X415034Y105826D01*
X415035Y105835D01*
X415014Y106027D01*
X414995Y106218D01*
X414993Y106226D01*
X414992Y106235D01*
X414934Y106418D01*
X414877Y106603D01*
X414873Y106611D01*
X414870Y106619D01*
X414777Y106788D01*
X414685Y106957D01*
X414680Y106964D01*
X414675Y106971D01*
X414551Y107118D01*
X414428Y107266D01*
X414421Y107272D01*
X414415Y107278D01*
X414263Y107398D01*
X414114Y107518D01*
X414106Y107522D01*
X414099Y107528D01*
X413927Y107615D01*
X413757Y107704D01*
X413748Y107706D01*
X413740Y107710D01*
X413554Y107762D01*
X413370Y107815D01*
X413361Y107816D01*
X413352Y107818D01*
X413160Y107833D01*
X412968Y107848D01*
X412960Y107847D01*
X412951Y107848D01*
X412758Y107823D01*
X412569Y107801D01*
X412560Y107799D01*
X412551Y107797D01*
X412368Y107736D01*
X412186Y107676D01*
X412178Y107672D01*
X412170Y107669D01*
X412004Y107574D01*
X411835Y107479D01*
X411828Y107473D01*
X411821Y107468D01*
X411568Y107254D01*
X409977Y105663D01*
X402823Y105663D01*
X397763Y110723D01*
X397763Y117877D01*
X402294Y122408D01*
X402303Y122419D01*
X402313Y122427D01*
X402430Y122574D01*
X402549Y122720D01*
X402556Y122732D01*
X402564Y122742D01*
X402649Y122908D01*
X402738Y123076D01*
X402742Y123088D01*
X402748Y123100D01*
X402799Y123280D01*
X402853Y123461D01*
X402854Y123475D01*
X402858Y123488D01*
X402872Y123674D01*
X402889Y123862D01*
X402888Y123876D01*
X402889Y123889D01*
X402866Y124074D01*
X402846Y124263D01*
X402842Y124276D01*
X402840Y124289D01*
X402781Y124466D01*
X402724Y124647D01*
X402718Y124658D01*
X402713Y124671D01*
X402620Y124834D01*
X402529Y124999D01*
X402521Y125009D01*
X402514Y125021D01*
X402390Y125163D01*
X402269Y125306D01*
X402258Y125314D01*
X402250Y125324D01*
X402100Y125439D01*
X401953Y125555D01*
X401941Y125562D01*
X401930Y125570D01*
X401635Y125721D01*
X401508Y125774D01*
X399078Y128204D01*
X397763Y131378D01*
X397763Y148022D01*
X399078Y151196D01*
X401508Y153626D01*
X404682Y154941D01*
X408118Y154941D01*
X411292Y153626D01*
X413722Y151196D01*
X415037Y148022D01*
X415037Y137653D01*
X415039Y137626D01*
X415037Y137600D01*
X415059Y137426D01*
X415077Y137252D01*
X415084Y137227D01*
X415088Y137200D01*
X415143Y137035D01*
X415195Y136867D01*
X415208Y136844D01*
X415216Y136819D01*
X415303Y136667D01*
X415387Y136513D01*
X415404Y136493D01*
X415417Y136470D01*
X415632Y136217D01*
X419696Y132153D01*
X419703Y132147D01*
X419708Y132140D01*
X419858Y132020D01*
X420007Y131898D01*
X420015Y131893D01*
X420022Y131888D01*
X420193Y131799D01*
X420363Y131709D01*
X420371Y131706D01*
X420379Y131702D01*
X420565Y131649D01*
X420749Y131594D01*
X420758Y131593D01*
X420766Y131591D01*
X420958Y131575D01*
X421150Y131558D01*
X421159Y131559D01*
X421168Y131558D01*
X421357Y131580D01*
X421550Y131601D01*
X421559Y131604D01*
X421567Y131605D01*
X421749Y131664D01*
X421934Y131723D01*
X421942Y131727D01*
X421950Y131730D01*
X422118Y131825D01*
X422286Y131918D01*
X422293Y131923D01*
X422301Y131928D01*
X422447Y132054D01*
X422593Y132178D01*
X422599Y132185D01*
X422606Y132191D01*
X422723Y132342D01*
X422843Y132494D01*
X422847Y132502D01*
X422852Y132509D01*
X422938Y132681D01*
X423025Y132853D01*
X423028Y132861D01*
X423032Y132869D01*
X423082Y133056D01*
X423133Y133241D01*
X423134Y133250D01*
X423136Y133258D01*
X423163Y133589D01*
X423163Y148022D01*
X424478Y151196D01*
X426908Y153626D01*
X430082Y154941D01*
X433518Y154941D01*
X436692Y153626D01*
X439122Y151196D01*
X440437Y148022D01*
X440437Y131378D01*
X439122Y128204D01*
X436692Y125774D01*
X436565Y125721D01*
X436553Y125715D01*
X436540Y125711D01*
X436376Y125620D01*
X436210Y125531D01*
X436200Y125523D01*
X436188Y125516D01*
X436045Y125395D01*
X435900Y125275D01*
X435891Y125264D01*
X435881Y125256D01*
X435765Y125109D01*
X435646Y124962D01*
X435640Y124950D01*
X435631Y124940D01*
X435546Y124772D01*
X435459Y124606D01*
X435455Y124593D01*
X435449Y124581D01*
X435398Y124399D01*
X435346Y124219D01*
X435345Y124206D01*
X435341Y124193D01*
X435327Y124004D01*
X435311Y123818D01*
X435313Y123805D01*
X435312Y123791D01*
X435335Y123604D01*
X435356Y123418D01*
X435360Y123405D01*
X435362Y123392D01*
X435422Y123214D01*
X435479Y123035D01*
X435486Y123023D01*
X435490Y123010D01*
X435584Y122847D01*
X435676Y122683D01*
X435684Y122673D01*
X435691Y122661D01*
X435906Y122408D01*
X440437Y117877D01*
X440437Y110723D01*
X435377Y105663D01*
X428223Y105663D01*
X426632Y107254D01*
X426625Y107259D01*
X426620Y107266D01*
X426470Y107386D01*
X426321Y107509D01*
X426313Y107513D01*
X426306Y107518D01*
X426136Y107607D01*
X425965Y107697D01*
X425956Y107700D01*
X425949Y107704D01*
X425764Y107757D01*
X425579Y107812D01*
X425570Y107813D01*
X425562Y107815D01*
X425371Y107831D01*
X425178Y107848D01*
X425169Y107847D01*
X425160Y107848D01*
X424971Y107826D01*
X424778Y107805D01*
X424769Y107802D01*
X424761Y107801D01*
X424579Y107742D01*
X424394Y107684D01*
X424386Y107679D01*
X424378Y107676D01*
X424209Y107581D01*
X424042Y107489D01*
X424035Y107483D01*
X424027Y107479D01*
X423881Y107353D01*
X423735Y107228D01*
X423729Y107221D01*
X423722Y107215D01*
X423605Y107064D01*
X423485Y106912D01*
X423481Y106904D01*
X423476Y106897D01*
X423390Y106725D01*
X423303Y106553D01*
X423300Y106545D01*
X423296Y106537D01*
X423246Y106351D01*
X423195Y106165D01*
X423194Y106157D01*
X423192Y106148D01*
X423165Y105817D01*
X423165Y75946D01*
X423167Y75928D01*
X423165Y75910D01*
X423186Y75728D01*
X423205Y75545D01*
X423210Y75528D01*
X423212Y75511D01*
X423269Y75336D01*
X423323Y75160D01*
X423331Y75145D01*
X423337Y75128D01*
X423427Y74968D01*
X423515Y74806D01*
X423526Y74793D01*
X423535Y74777D01*
X423655Y74638D01*
X423772Y74497D01*
X423786Y74486D01*
X423798Y74472D01*
X423943Y74360D01*
X424086Y74245D01*
X424102Y74237D01*
X424116Y74226D01*
X424281Y74144D01*
X424443Y74059D01*
X424460Y74054D01*
X424476Y74046D01*
X424655Y73999D01*
X424830Y73948D01*
X424848Y73946D01*
X424865Y73942D01*
X425196Y73915D01*
X496109Y73915D01*
X497602Y73296D01*
X511446Y59452D01*
X512065Y57959D01*
X512065Y47091D01*
X512067Y47064D01*
X512065Y47038D01*
X512087Y46863D01*
X512105Y46690D01*
X512112Y46665D01*
X512116Y46638D01*
X512171Y46472D01*
X512223Y46305D01*
X512236Y46282D01*
X512244Y46256D01*
X512331Y46105D01*
X512415Y45951D01*
X512432Y45931D01*
X512445Y45908D01*
X512660Y45655D01*
X516637Y41677D01*
X516637Y34523D01*
X511577Y29463D01*
X504423Y29463D01*
X499363Y34523D01*
X499363Y41677D01*
X503340Y45655D01*
X503357Y45675D01*
X503378Y45693D01*
X503485Y45831D01*
X503595Y45966D01*
X503608Y45990D01*
X503624Y46011D01*
X503702Y46168D01*
X503784Y46322D01*
X503792Y46347D01*
X503804Y46371D01*
X503849Y46541D01*
X503899Y46708D01*
X503901Y46734D01*
X503908Y46760D01*
X503935Y47091D01*
X503935Y54625D01*
X503933Y54652D01*
X503935Y54678D01*
X503913Y54852D01*
X503895Y55026D01*
X503888Y55051D01*
X503884Y55078D01*
X503829Y55243D01*
X503777Y55410D01*
X503764Y55434D01*
X503756Y55459D01*
X503669Y55611D01*
X503585Y55765D01*
X503568Y55785D01*
X503555Y55808D01*
X503340Y56061D01*
X494211Y65190D01*
X494191Y65207D01*
X494173Y65228D01*
X494035Y65335D01*
X493900Y65445D01*
X493876Y65458D01*
X493855Y65474D01*
X493698Y65552D01*
X493544Y65634D01*
X493519Y65642D01*
X493494Y65654D01*
X493325Y65699D01*
X493158Y65749D01*
X493132Y65751D01*
X493106Y65758D01*
X492775Y65785D01*
X425196Y65785D01*
X425178Y65783D01*
X425160Y65785D01*
X424978Y65764D01*
X424795Y65745D01*
X424778Y65740D01*
X424761Y65738D01*
X424586Y65681D01*
X424410Y65627D01*
X424395Y65619D01*
X424378Y65613D01*
X424218Y65523D01*
X424056Y65435D01*
X424043Y65424D01*
X424027Y65415D01*
X423887Y65294D01*
X423747Y65178D01*
X423736Y65164D01*
X423722Y65152D01*
X423610Y65007D01*
X423495Y64864D01*
X423487Y64848D01*
X423476Y64834D01*
X423394Y64669D01*
X423309Y64507D01*
X423304Y64490D01*
X423296Y64474D01*
X423249Y64295D01*
X423198Y64120D01*
X423196Y64102D01*
X423192Y64085D01*
X423165Y63754D01*
X423165Y49991D01*
X422546Y48498D01*
X415632Y41583D01*
X415615Y41563D01*
X415594Y41545D01*
X415487Y41407D01*
X415377Y41272D01*
X415364Y41248D01*
X415348Y41227D01*
X415270Y41070D01*
X415188Y40916D01*
X415180Y40891D01*
X415168Y40866D01*
X415123Y40697D01*
X415073Y40530D01*
X415071Y40504D01*
X415064Y40478D01*
X415037Y40147D01*
X415037Y34523D01*
X409977Y29463D01*
X402823Y29463D01*
X398845Y33440D01*
X398825Y33457D01*
X398807Y33478D01*
X398669Y33585D01*
X398534Y33695D01*
X398510Y33708D01*
X398489Y33724D01*
X398332Y33802D01*
X398178Y33884D01*
X398153Y33892D01*
X398129Y33904D01*
X397959Y33949D01*
X397792Y33999D01*
X397766Y34001D01*
X397740Y34008D01*
X397409Y34035D01*
X389991Y34035D01*
X389964Y34033D01*
X389938Y34035D01*
X389764Y34013D01*
X389590Y33995D01*
X389565Y33988D01*
X389538Y33984D01*
X389372Y33929D01*
X389205Y33877D01*
X389182Y33864D01*
X389156Y33856D01*
X389005Y33769D01*
X388851Y33685D01*
X388831Y33668D01*
X388808Y33655D01*
X388555Y33440D01*
X384577Y29463D01*
X377423Y29463D01*
G37*
%LPD*%
%LPC*%
G36*
X298048Y80263D02*
X298048Y80263D01*
X292988Y85323D01*
X292988Y92477D01*
X298048Y97537D01*
X305202Y97537D01*
X309180Y93560D01*
X309200Y93543D01*
X309218Y93522D01*
X309356Y93415D01*
X309491Y93305D01*
X309515Y93292D01*
X309536Y93276D01*
X309693Y93198D01*
X309847Y93116D01*
X309872Y93108D01*
X309896Y93096D01*
X310066Y93051D01*
X310233Y93001D01*
X310259Y92999D01*
X310285Y92992D01*
X310616Y92965D01*
X314975Y92965D01*
X315002Y92967D01*
X315028Y92965D01*
X315202Y92987D01*
X315376Y93005D01*
X315401Y93012D01*
X315428Y93016D01*
X315593Y93071D01*
X315760Y93123D01*
X315784Y93136D01*
X315809Y93144D01*
X315961Y93231D01*
X316115Y93315D01*
X316135Y93332D01*
X316158Y93345D01*
X316411Y93560D01*
X363640Y140789D01*
X363657Y140809D01*
X363678Y140827D01*
X363785Y140965D01*
X363895Y141100D01*
X363908Y141124D01*
X363924Y141145D01*
X364002Y141302D01*
X364084Y141456D01*
X364092Y141481D01*
X364104Y141506D01*
X364149Y141675D01*
X364199Y141842D01*
X364201Y141868D01*
X364208Y141894D01*
X364235Y142225D01*
X364235Y143199D01*
X364234Y143208D01*
X364235Y143217D01*
X364214Y143408D01*
X364195Y143599D01*
X364193Y143608D01*
X364192Y143617D01*
X364134Y143798D01*
X364077Y143984D01*
X364073Y143992D01*
X364070Y144001D01*
X363977Y144169D01*
X363885Y144338D01*
X363880Y144345D01*
X363875Y144353D01*
X363750Y144501D01*
X363628Y144648D01*
X363621Y144653D01*
X363615Y144660D01*
X363463Y144780D01*
X363314Y144900D01*
X363306Y144904D01*
X363299Y144910D01*
X363127Y144997D01*
X362957Y145085D01*
X362948Y145088D01*
X362940Y145092D01*
X362754Y145144D01*
X362570Y145197D01*
X362561Y145198D01*
X362552Y145200D01*
X362360Y145214D01*
X362168Y145230D01*
X362160Y145229D01*
X362151Y145229D01*
X361958Y145205D01*
X361769Y145183D01*
X361760Y145180D01*
X361751Y145179D01*
X361568Y145118D01*
X361386Y145058D01*
X361378Y145054D01*
X361370Y145051D01*
X361204Y144955D01*
X361035Y144860D01*
X361028Y144854D01*
X361021Y144850D01*
X360768Y144635D01*
X359388Y143255D01*
X357631Y143255D01*
X357631Y152400D01*
X357631Y161545D01*
X359388Y161545D01*
X360768Y160165D01*
X360775Y160159D01*
X360780Y160152D01*
X360930Y160032D01*
X361079Y159910D01*
X361087Y159906D01*
X361094Y159900D01*
X361264Y159812D01*
X361435Y159721D01*
X361444Y159719D01*
X361451Y159715D01*
X361636Y159661D01*
X361821Y159606D01*
X361830Y159606D01*
X361838Y159603D01*
X362029Y159587D01*
X362222Y159570D01*
X362231Y159571D01*
X362240Y159570D01*
X362429Y159592D01*
X362622Y159613D01*
X362631Y159616D01*
X362639Y159617D01*
X362821Y159677D01*
X363006Y159735D01*
X363014Y159739D01*
X363022Y159742D01*
X363189Y159836D01*
X363358Y159930D01*
X363365Y159936D01*
X363373Y159940D01*
X363518Y160065D01*
X363665Y160190D01*
X363671Y160197D01*
X363678Y160203D01*
X363794Y160353D01*
X363915Y160506D01*
X363919Y160514D01*
X363924Y160521D01*
X364010Y160693D01*
X364097Y160865D01*
X364100Y160874D01*
X364104Y160882D01*
X364154Y161068D01*
X364205Y161253D01*
X364206Y161262D01*
X364208Y161270D01*
X364235Y161601D01*
X364235Y165909D01*
X364854Y167402D01*
X366283Y168831D01*
X366283Y168832D01*
X377268Y179817D01*
X377269Y179817D01*
X378698Y181246D01*
X380191Y181865D01*
X518175Y181865D01*
X518202Y181867D01*
X518228Y181865D01*
X518402Y181887D01*
X518576Y181905D01*
X518601Y181912D01*
X518628Y181916D01*
X518793Y181971D01*
X518960Y182023D01*
X518984Y182036D01*
X519009Y182044D01*
X519161Y182131D01*
X519315Y182215D01*
X519335Y182232D01*
X519358Y182245D01*
X519611Y182460D01*
X528740Y191589D01*
X528757Y191609D01*
X528778Y191627D01*
X528885Y191765D01*
X528995Y191900D01*
X529008Y191924D01*
X529024Y191945D01*
X529102Y192101D01*
X529184Y192256D01*
X529192Y192281D01*
X529204Y192306D01*
X529249Y192475D01*
X529299Y192642D01*
X529301Y192668D01*
X529308Y192694D01*
X529335Y193025D01*
X529335Y200305D01*
X529333Y200332D01*
X529335Y200358D01*
X529313Y200532D01*
X529295Y200706D01*
X529288Y200731D01*
X529284Y200758D01*
X529229Y200924D01*
X529177Y201091D01*
X529164Y201114D01*
X529156Y201140D01*
X529069Y201291D01*
X528985Y201445D01*
X528968Y201465D01*
X528955Y201488D01*
X528740Y201741D01*
X526078Y204404D01*
X524763Y207578D01*
X524763Y224222D01*
X526078Y227396D01*
X528740Y230059D01*
X528757Y230079D01*
X528778Y230097D01*
X528885Y230235D01*
X528995Y230370D01*
X529008Y230394D01*
X529024Y230415D01*
X529102Y230572D01*
X529184Y230726D01*
X529192Y230751D01*
X529204Y230775D01*
X529249Y230945D01*
X529299Y231112D01*
X529301Y231138D01*
X529308Y231164D01*
X529335Y231495D01*
X529335Y238659D01*
X529333Y238686D01*
X529335Y238712D01*
X529313Y238886D01*
X529295Y239060D01*
X529288Y239085D01*
X529284Y239112D01*
X529229Y239278D01*
X529177Y239445D01*
X529164Y239468D01*
X529156Y239494D01*
X529069Y239645D01*
X528985Y239799D01*
X528968Y239819D01*
X528955Y239842D01*
X528740Y240095D01*
X524763Y244073D01*
X524763Y251227D01*
X529823Y256287D01*
X536977Y256287D01*
X542037Y251227D01*
X542037Y244073D01*
X538060Y240095D01*
X538043Y240075D01*
X538022Y240057D01*
X537915Y239919D01*
X537805Y239784D01*
X537792Y239760D01*
X537776Y239739D01*
X537698Y239582D01*
X537616Y239428D01*
X537608Y239403D01*
X537596Y239379D01*
X537551Y239209D01*
X537501Y239042D01*
X537499Y239016D01*
X537492Y238990D01*
X537465Y238659D01*
X537465Y231495D01*
X537467Y231468D01*
X537465Y231442D01*
X537487Y231268D01*
X537505Y231094D01*
X537512Y231069D01*
X537516Y231042D01*
X537571Y230876D01*
X537623Y230709D01*
X537636Y230686D01*
X537644Y230660D01*
X537731Y230509D01*
X537815Y230355D01*
X537832Y230335D01*
X537845Y230312D01*
X538060Y230059D01*
X540722Y227396D01*
X542037Y224222D01*
X542037Y207578D01*
X540722Y204404D01*
X538060Y201741D01*
X538043Y201721D01*
X538022Y201703D01*
X537915Y201565D01*
X537805Y201430D01*
X537792Y201406D01*
X537776Y201385D01*
X537698Y201228D01*
X537616Y201074D01*
X537608Y201049D01*
X537596Y201025D01*
X537551Y200855D01*
X537501Y200688D01*
X537499Y200662D01*
X537492Y200636D01*
X537465Y200305D01*
X537465Y189691D01*
X536846Y188198D01*
X535417Y186769D01*
X535417Y186768D01*
X523002Y174354D01*
X521509Y173735D01*
X383525Y173735D01*
X383498Y173733D01*
X383472Y173735D01*
X383298Y173713D01*
X383124Y173695D01*
X383099Y173688D01*
X383072Y173684D01*
X382907Y173629D01*
X382739Y173577D01*
X382716Y173564D01*
X382691Y173556D01*
X382539Y173469D01*
X382385Y173385D01*
X382365Y173368D01*
X382342Y173355D01*
X382089Y173140D01*
X372960Y164011D01*
X372943Y163991D01*
X372922Y163973D01*
X372815Y163835D01*
X372705Y163700D01*
X372692Y163676D01*
X372676Y163655D01*
X372598Y163498D01*
X372516Y163344D01*
X372508Y163319D01*
X372496Y163294D01*
X372451Y163125D01*
X372401Y162958D01*
X372399Y162932D01*
X372392Y162906D01*
X372365Y162575D01*
X372365Y160883D01*
X372366Y160874D01*
X372365Y160865D01*
X372386Y160673D01*
X372405Y160482D01*
X372407Y160474D01*
X372408Y160465D01*
X372466Y160282D01*
X372523Y160097D01*
X372527Y160089D01*
X372530Y160081D01*
X372623Y159912D01*
X372715Y159743D01*
X372720Y159736D01*
X372725Y159729D01*
X372850Y159581D01*
X372972Y159434D01*
X372979Y159428D01*
X372985Y159422D01*
X373137Y159302D01*
X373286Y159182D01*
X373294Y159178D01*
X373301Y159172D01*
X373473Y159085D01*
X373643Y158996D01*
X373652Y158994D01*
X373660Y158990D01*
X373846Y158938D01*
X374030Y158885D01*
X374039Y158884D01*
X374048Y158882D01*
X374240Y158867D01*
X374432Y158852D01*
X374440Y158853D01*
X374449Y158852D01*
X374642Y158877D01*
X374831Y158899D01*
X374840Y158901D01*
X374849Y158903D01*
X375032Y158964D01*
X375214Y159024D01*
X375222Y159028D01*
X375230Y159031D01*
X375396Y159126D01*
X375565Y159221D01*
X375572Y159227D01*
X375579Y159232D01*
X375832Y159446D01*
X377423Y161037D01*
X384577Y161037D01*
X389637Y155977D01*
X389637Y148823D01*
X384577Y143763D01*
X377423Y143763D01*
X375832Y145354D01*
X375825Y145359D01*
X375820Y145366D01*
X375670Y145486D01*
X375521Y145609D01*
X375513Y145613D01*
X375506Y145618D01*
X375336Y145707D01*
X375165Y145797D01*
X375156Y145800D01*
X375149Y145804D01*
X374964Y145857D01*
X374779Y145912D01*
X374770Y145913D01*
X374762Y145915D01*
X374571Y145931D01*
X374378Y145948D01*
X374369Y145947D01*
X374360Y145948D01*
X374171Y145926D01*
X373978Y145905D01*
X373969Y145902D01*
X373961Y145901D01*
X373779Y145842D01*
X373594Y145784D01*
X373586Y145779D01*
X373578Y145776D01*
X373409Y145681D01*
X373242Y145589D01*
X373235Y145583D01*
X373227Y145579D01*
X373081Y145453D01*
X372935Y145328D01*
X372929Y145321D01*
X372922Y145315D01*
X372805Y145164D01*
X372685Y145012D01*
X372681Y145004D01*
X372676Y144997D01*
X372590Y144825D01*
X372503Y144653D01*
X372500Y144645D01*
X372496Y144637D01*
X372446Y144451D01*
X372395Y144265D01*
X372394Y144257D01*
X372392Y144248D01*
X372365Y143917D01*
X372365Y138891D01*
X371746Y137398D01*
X319802Y85454D01*
X318309Y84835D01*
X310616Y84835D01*
X310589Y84833D01*
X310563Y84835D01*
X310389Y84813D01*
X310215Y84795D01*
X310190Y84788D01*
X310163Y84784D01*
X309997Y84729D01*
X309830Y84677D01*
X309807Y84664D01*
X309781Y84656D01*
X309630Y84569D01*
X309476Y84485D01*
X309456Y84468D01*
X309433Y84455D01*
X309180Y84240D01*
X305202Y80263D01*
X298048Y80263D01*
G37*
%LPD*%
G36*
X808831Y10162D02*
X808831Y10162D01*
X808845Y10161D01*
X809031Y10182D01*
X809219Y10201D01*
X809231Y10205D01*
X809245Y10206D01*
X809424Y10264D01*
X809604Y10319D01*
X809615Y10325D01*
X809628Y10329D01*
X809793Y10421D01*
X809958Y10511D01*
X809968Y10519D01*
X809980Y10526D01*
X810122Y10648D01*
X810267Y10768D01*
X810275Y10779D01*
X810285Y10787D01*
X810401Y10935D01*
X810519Y11082D01*
X810525Y11094D01*
X810534Y11104D01*
X810618Y11273D01*
X810705Y11439D01*
X810708Y11452D01*
X810714Y11464D01*
X810764Y11645D01*
X810816Y11826D01*
X810817Y11840D01*
X810821Y11853D01*
X810834Y12041D01*
X810849Y12228D01*
X810847Y12241D01*
X810848Y12254D01*
X810824Y12442D01*
X810802Y12627D01*
X810798Y12640D01*
X810796Y12653D01*
X810695Y12969D01*
X809497Y15860D01*
X809497Y34940D01*
X810967Y38488D01*
X813682Y41203D01*
X817230Y42673D01*
X821070Y42673D01*
X824618Y41203D01*
X827333Y38488D01*
X828803Y34940D01*
X828803Y15860D01*
X827605Y12969D01*
X827601Y12956D01*
X827595Y12945D01*
X827544Y12765D01*
X827489Y12584D01*
X827488Y12571D01*
X827484Y12558D01*
X827469Y12370D01*
X827451Y12183D01*
X827452Y12170D01*
X827451Y12156D01*
X827473Y11970D01*
X827492Y11783D01*
X827496Y11770D01*
X827498Y11757D01*
X827556Y11578D01*
X827612Y11398D01*
X827619Y11387D01*
X827623Y11374D01*
X827716Y11209D01*
X827806Y11045D01*
X827814Y11035D01*
X827821Y11023D01*
X827944Y10881D01*
X828065Y10737D01*
X828075Y10729D01*
X828084Y10718D01*
X828232Y10603D01*
X828380Y10486D01*
X828391Y10480D01*
X828402Y10472D01*
X828571Y10388D01*
X828738Y10302D01*
X828750Y10298D01*
X828763Y10292D01*
X828945Y10243D01*
X829125Y10192D01*
X829138Y10191D01*
X829151Y10188D01*
X829482Y10161D01*
X836067Y10161D01*
X836076Y10162D01*
X836085Y10161D01*
X836276Y10181D01*
X836468Y10201D01*
X836476Y10203D01*
X836485Y10204D01*
X836669Y10262D01*
X836853Y10319D01*
X836861Y10323D01*
X836869Y10326D01*
X837038Y10419D01*
X837207Y10511D01*
X837214Y10516D01*
X837222Y10521D01*
X837368Y10645D01*
X837516Y10768D01*
X837522Y10775D01*
X837528Y10781D01*
X837648Y10932D01*
X837768Y11082D01*
X837772Y11090D01*
X837778Y11097D01*
X837866Y11270D01*
X837954Y11439D01*
X837956Y11448D01*
X837960Y11456D01*
X838012Y11643D01*
X838065Y11826D01*
X838066Y11835D01*
X838068Y11844D01*
X838082Y12036D01*
X838098Y12228D01*
X838097Y12236D01*
X838098Y12245D01*
X838074Y12437D01*
X838051Y12627D01*
X838048Y12636D01*
X838047Y12645D01*
X837986Y12827D01*
X837926Y13010D01*
X837922Y13018D01*
X837919Y13026D01*
X837823Y13194D01*
X837729Y13361D01*
X837723Y13368D01*
X837718Y13375D01*
X837504Y13628D01*
X837228Y13904D01*
X835913Y17078D01*
X835913Y33722D01*
X837228Y36896D01*
X839658Y39326D01*
X842832Y40641D01*
X846268Y40641D01*
X849442Y39326D01*
X851872Y36896D01*
X853187Y33722D01*
X853187Y17078D01*
X851872Y13904D01*
X851596Y13628D01*
X851591Y13621D01*
X851584Y13616D01*
X851463Y13466D01*
X851341Y13317D01*
X851337Y13309D01*
X851332Y13302D01*
X851243Y13132D01*
X851153Y12961D01*
X851150Y12952D01*
X851146Y12945D01*
X851093Y12761D01*
X851038Y12575D01*
X851037Y12566D01*
X851035Y12558D01*
X851019Y12367D01*
X851002Y12174D01*
X851003Y12165D01*
X851002Y12156D01*
X851024Y11967D01*
X851045Y11774D01*
X851048Y11765D01*
X851049Y11757D01*
X851108Y11574D01*
X851166Y11390D01*
X851171Y11382D01*
X851174Y11374D01*
X851269Y11205D01*
X851361Y11038D01*
X851367Y11031D01*
X851371Y11023D01*
X851497Y10878D01*
X851622Y10731D01*
X851629Y10725D01*
X851635Y10718D01*
X851786Y10601D01*
X851938Y10481D01*
X851946Y10477D01*
X851953Y10472D01*
X852125Y10386D01*
X852297Y10299D01*
X852305Y10296D01*
X852313Y10292D01*
X852501Y10242D01*
X852684Y10191D01*
X852693Y10190D01*
X852702Y10188D01*
X853033Y10161D01*
X861467Y10161D01*
X861476Y10162D01*
X861485Y10161D01*
X861676Y10181D01*
X861868Y10201D01*
X861876Y10203D01*
X861885Y10204D01*
X862069Y10262D01*
X862253Y10319D01*
X862261Y10323D01*
X862269Y10326D01*
X862438Y10419D01*
X862607Y10511D01*
X862614Y10516D01*
X862622Y10521D01*
X862768Y10645D01*
X862916Y10768D01*
X862922Y10775D01*
X862928Y10781D01*
X863048Y10932D01*
X863168Y11082D01*
X863172Y11090D01*
X863178Y11097D01*
X863266Y11270D01*
X863354Y11439D01*
X863356Y11448D01*
X863360Y11456D01*
X863412Y11643D01*
X863465Y11826D01*
X863466Y11835D01*
X863468Y11844D01*
X863482Y12036D01*
X863498Y12228D01*
X863497Y12236D01*
X863498Y12245D01*
X863474Y12437D01*
X863451Y12627D01*
X863448Y12636D01*
X863447Y12645D01*
X863386Y12827D01*
X863326Y13010D01*
X863322Y13018D01*
X863319Y13026D01*
X863223Y13194D01*
X863129Y13361D01*
X863123Y13368D01*
X863118Y13375D01*
X862904Y13628D01*
X862628Y13904D01*
X861313Y17078D01*
X861313Y33722D01*
X862628Y36896D01*
X865290Y39558D01*
X865307Y39579D01*
X865328Y39597D01*
X865435Y39735D01*
X865545Y39870D01*
X865558Y39894D01*
X865574Y39915D01*
X865652Y40071D01*
X865734Y40226D01*
X865742Y40251D01*
X865754Y40275D01*
X865799Y40444D01*
X865849Y40612D01*
X865851Y40638D01*
X865858Y40664D01*
X865885Y40995D01*
X865885Y63754D01*
X865883Y63772D01*
X865885Y63790D01*
X865864Y63972D01*
X865845Y64155D01*
X865840Y64172D01*
X865838Y64189D01*
X865781Y64364D01*
X865727Y64540D01*
X865719Y64555D01*
X865713Y64572D01*
X865623Y64732D01*
X865535Y64894D01*
X865524Y64907D01*
X865515Y64923D01*
X865395Y65062D01*
X865278Y65203D01*
X865264Y65214D01*
X865252Y65228D01*
X865107Y65340D01*
X864964Y65455D01*
X864948Y65463D01*
X864934Y65474D01*
X864769Y65556D01*
X864607Y65641D01*
X864590Y65646D01*
X864574Y65654D01*
X864395Y65701D01*
X864220Y65752D01*
X864202Y65754D01*
X864185Y65758D01*
X863854Y65785D01*
X821675Y65785D01*
X821648Y65783D01*
X821622Y65785D01*
X821448Y65763D01*
X821274Y65745D01*
X821249Y65738D01*
X821222Y65734D01*
X821057Y65679D01*
X820890Y65627D01*
X820866Y65614D01*
X820841Y65606D01*
X820689Y65519D01*
X820535Y65435D01*
X820515Y65418D01*
X820492Y65405D01*
X820239Y65190D01*
X799171Y44123D01*
X799160Y44109D01*
X799146Y44097D01*
X799032Y43953D01*
X798916Y43811D01*
X798908Y43795D01*
X798897Y43781D01*
X798813Y43617D01*
X798727Y43455D01*
X798722Y43438D01*
X798714Y43422D01*
X798665Y43245D01*
X798613Y43070D01*
X798611Y43052D01*
X798606Y43035D01*
X798593Y42851D01*
X798576Y42669D01*
X798578Y42651D01*
X798577Y42633D01*
X798600Y42451D01*
X798620Y42268D01*
X798625Y42251D01*
X798627Y42234D01*
X798685Y42060D01*
X798741Y41884D01*
X798750Y41869D01*
X798755Y41852D01*
X798847Y41692D01*
X798936Y41532D01*
X798947Y41519D01*
X798956Y41503D01*
X799171Y41250D01*
X801933Y38488D01*
X803403Y34940D01*
X803403Y15860D01*
X802205Y12969D01*
X802201Y12956D01*
X802195Y12945D01*
X802144Y12765D01*
X802089Y12584D01*
X802088Y12571D01*
X802084Y12558D01*
X802069Y12370D01*
X802051Y12183D01*
X802052Y12170D01*
X802051Y12156D01*
X802073Y11970D01*
X802092Y11783D01*
X802096Y11770D01*
X802098Y11757D01*
X802156Y11578D01*
X802212Y11398D01*
X802219Y11387D01*
X802223Y11374D01*
X802316Y11209D01*
X802406Y11045D01*
X802414Y11035D01*
X802421Y11023D01*
X802544Y10881D01*
X802665Y10737D01*
X802675Y10729D01*
X802684Y10718D01*
X802832Y10603D01*
X802980Y10486D01*
X802991Y10480D01*
X803002Y10472D01*
X803171Y10388D01*
X803338Y10302D01*
X803350Y10298D01*
X803363Y10292D01*
X803545Y10243D01*
X803725Y10192D01*
X803738Y10191D01*
X803751Y10188D01*
X804082Y10161D01*
X808818Y10161D01*
X808831Y10162D01*
G37*
%LPC*%
G36*
X328594Y201787D02*
X328594Y201787D01*
X325627Y203016D01*
X323356Y205287D01*
X322127Y208254D01*
X322127Y223546D01*
X323356Y226513D01*
X325540Y228697D01*
X325557Y228718D01*
X325578Y228735D01*
X325685Y228873D01*
X325795Y229008D01*
X325808Y229032D01*
X325824Y229053D01*
X325902Y229210D01*
X325984Y229364D01*
X325992Y229390D01*
X326004Y229414D01*
X326049Y229583D01*
X326099Y229750D01*
X326101Y229777D01*
X326108Y229802D01*
X326135Y230133D01*
X326135Y238659D01*
X326133Y238686D01*
X326135Y238713D01*
X326113Y238886D01*
X326095Y239060D01*
X326088Y239085D01*
X326084Y239112D01*
X326029Y239278D01*
X325977Y239445D01*
X325964Y239468D01*
X325956Y239494D01*
X325869Y239645D01*
X325785Y239799D01*
X325768Y239819D01*
X325755Y239843D01*
X325540Y240096D01*
X322646Y242990D01*
X322625Y243007D01*
X322607Y243028D01*
X322469Y243135D01*
X322334Y243245D01*
X322310Y243258D01*
X322289Y243274D01*
X322132Y243352D01*
X321978Y243434D01*
X321953Y243442D01*
X321929Y243454D01*
X321759Y243499D01*
X321592Y243549D01*
X321566Y243551D01*
X321540Y243558D01*
X321209Y243585D01*
X212075Y243585D01*
X212048Y243583D01*
X212022Y243585D01*
X211848Y243563D01*
X211674Y243545D01*
X211649Y243538D01*
X211622Y243534D01*
X211457Y243479D01*
X211290Y243427D01*
X211266Y243414D01*
X211241Y243406D01*
X211089Y243319D01*
X210935Y243235D01*
X210915Y243218D01*
X210892Y243205D01*
X210639Y242990D01*
X187032Y219383D01*
X187015Y219363D01*
X186994Y219345D01*
X186887Y219207D01*
X186777Y219072D01*
X186764Y219048D01*
X186748Y219027D01*
X186670Y218870D01*
X186588Y218716D01*
X186580Y218691D01*
X186568Y218666D01*
X186523Y218497D01*
X186473Y218330D01*
X186471Y218304D01*
X186464Y218278D01*
X186437Y217947D01*
X186437Y212323D01*
X181377Y207263D01*
X174223Y207263D01*
X169163Y212323D01*
X169163Y219477D01*
X174223Y224537D01*
X179847Y224537D01*
X179874Y224539D01*
X179900Y224537D01*
X180074Y224559D01*
X180248Y224577D01*
X180273Y224584D01*
X180300Y224588D01*
X180465Y224643D01*
X180632Y224695D01*
X180656Y224708D01*
X180681Y224716D01*
X180833Y224803D01*
X180987Y224887D01*
X181007Y224904D01*
X181030Y224917D01*
X181283Y225132D01*
X207248Y251096D01*
X208741Y251715D01*
X321209Y251715D01*
X321236Y251717D01*
X321263Y251715D01*
X321436Y251737D01*
X321610Y251755D01*
X321635Y251762D01*
X321662Y251766D01*
X321828Y251822D01*
X321995Y251873D01*
X322018Y251886D01*
X322044Y251894D01*
X322195Y251981D01*
X322349Y252065D01*
X322369Y252082D01*
X322393Y252095D01*
X322646Y252310D01*
X326623Y256287D01*
X333777Y256287D01*
X338837Y251227D01*
X338837Y244073D01*
X334860Y240096D01*
X334843Y240075D01*
X334822Y240057D01*
X334715Y239919D01*
X334605Y239784D01*
X334592Y239760D01*
X334576Y239739D01*
X334498Y239583D01*
X334416Y239428D01*
X334408Y239403D01*
X334396Y239379D01*
X334351Y239209D01*
X334301Y239042D01*
X334299Y239016D01*
X334292Y238990D01*
X334265Y238659D01*
X334265Y230133D01*
X334267Y230107D01*
X334265Y230080D01*
X334287Y229906D01*
X334305Y229733D01*
X334312Y229707D01*
X334316Y229680D01*
X334371Y229515D01*
X334423Y229348D01*
X334436Y229324D01*
X334444Y229299D01*
X334531Y229147D01*
X334615Y228994D01*
X334632Y228973D01*
X334645Y228950D01*
X334860Y228697D01*
X337044Y226513D01*
X338273Y223546D01*
X338273Y208254D01*
X337044Y205287D01*
X334773Y203016D01*
X331806Y201787D01*
X328594Y201787D01*
G37*
%LPD*%
%LPC*%
G36*
X404682Y200659D02*
X404682Y200659D01*
X401508Y201974D01*
X399078Y204404D01*
X397763Y207578D01*
X397763Y224222D01*
X399078Y227396D01*
X401740Y230058D01*
X401757Y230079D01*
X401778Y230097D01*
X401885Y230235D01*
X401995Y230370D01*
X402008Y230394D01*
X402024Y230415D01*
X402102Y230571D01*
X402184Y230726D01*
X402192Y230751D01*
X402204Y230775D01*
X402249Y230944D01*
X402299Y231112D01*
X402301Y231138D01*
X402308Y231164D01*
X402335Y231495D01*
X402335Y232425D01*
X402333Y232452D01*
X402335Y232478D01*
X402313Y232652D01*
X402295Y232826D01*
X402288Y232851D01*
X402284Y232878D01*
X402229Y233043D01*
X402177Y233210D01*
X402164Y233234D01*
X402156Y233259D01*
X402069Y233411D01*
X401985Y233565D01*
X401968Y233585D01*
X401955Y233608D01*
X401740Y233861D01*
X384483Y251118D01*
X384463Y251135D01*
X384445Y251156D01*
X384307Y251263D01*
X384172Y251373D01*
X384148Y251386D01*
X384127Y251402D01*
X383970Y251480D01*
X383816Y251562D01*
X383791Y251570D01*
X383766Y251582D01*
X383597Y251627D01*
X383430Y251677D01*
X383404Y251679D01*
X383378Y251686D01*
X383047Y251713D01*
X377423Y251713D01*
X372363Y256773D01*
X372363Y263927D01*
X376340Y267905D01*
X376357Y267925D01*
X376378Y267943D01*
X376485Y268081D01*
X376595Y268216D01*
X376608Y268240D01*
X376624Y268261D01*
X376702Y268418D01*
X376784Y268572D01*
X376792Y268597D01*
X376804Y268621D01*
X376849Y268791D01*
X376899Y268958D01*
X376901Y268984D01*
X376908Y269010D01*
X376935Y269341D01*
X376935Y273859D01*
X377554Y275352D01*
X401740Y299539D01*
X401757Y299559D01*
X401778Y299577D01*
X401885Y299715D01*
X401995Y299850D01*
X402008Y299874D01*
X402024Y299895D01*
X402102Y300052D01*
X402184Y300206D01*
X402192Y300231D01*
X402204Y300256D01*
X402249Y300425D01*
X402299Y300592D01*
X402301Y300618D01*
X402308Y300644D01*
X402335Y300975D01*
X402335Y302159D01*
X402333Y302186D01*
X402335Y302213D01*
X402313Y302386D01*
X402295Y302560D01*
X402288Y302585D01*
X402284Y302612D01*
X402228Y302778D01*
X402177Y302945D01*
X402164Y302968D01*
X402156Y302994D01*
X402069Y303145D01*
X401985Y303299D01*
X401968Y303319D01*
X401955Y303343D01*
X401740Y303596D01*
X397763Y307573D01*
X397763Y314727D01*
X402823Y319787D01*
X408447Y319787D01*
X408474Y319789D01*
X408500Y319787D01*
X408674Y319809D01*
X408848Y319827D01*
X408873Y319834D01*
X408900Y319838D01*
X409065Y319893D01*
X409232Y319945D01*
X409256Y319958D01*
X409281Y319966D01*
X409433Y320053D01*
X409587Y320137D01*
X409607Y320154D01*
X409630Y320167D01*
X409883Y320382D01*
X416798Y327296D01*
X418291Y327915D01*
X422809Y327915D01*
X422836Y327917D01*
X422863Y327915D01*
X423036Y327937D01*
X423210Y327955D01*
X423235Y327962D01*
X423262Y327966D01*
X423428Y328022D01*
X423595Y328073D01*
X423618Y328086D01*
X423644Y328094D01*
X423795Y328181D01*
X423949Y328265D01*
X423969Y328282D01*
X423993Y328295D01*
X424246Y328510D01*
X428223Y332487D01*
X435377Y332487D01*
X440437Y327427D01*
X440437Y320273D01*
X435377Y315213D01*
X428223Y315213D01*
X424246Y319190D01*
X424225Y319207D01*
X424207Y319228D01*
X424069Y319335D01*
X423934Y319445D01*
X423910Y319458D01*
X423889Y319474D01*
X423733Y319552D01*
X423578Y319634D01*
X423553Y319642D01*
X423529Y319654D01*
X423359Y319699D01*
X423192Y319749D01*
X423166Y319751D01*
X423140Y319758D01*
X422809Y319785D01*
X421625Y319785D01*
X421598Y319783D01*
X421572Y319785D01*
X421398Y319763D01*
X421224Y319745D01*
X421199Y319738D01*
X421172Y319734D01*
X421007Y319679D01*
X420840Y319627D01*
X420816Y319614D01*
X420791Y319606D01*
X420639Y319519D01*
X420485Y319435D01*
X420465Y319418D01*
X420442Y319405D01*
X420189Y319190D01*
X415632Y314633D01*
X415615Y314613D01*
X415594Y314595D01*
X415487Y314457D01*
X415377Y314322D01*
X415364Y314298D01*
X415348Y314277D01*
X415270Y314120D01*
X415188Y313966D01*
X415180Y313941D01*
X415168Y313916D01*
X415123Y313747D01*
X415073Y313580D01*
X415071Y313554D01*
X415064Y313528D01*
X415037Y313197D01*
X415037Y307573D01*
X411060Y303596D01*
X411043Y303575D01*
X411022Y303557D01*
X410915Y303419D01*
X410805Y303284D01*
X410792Y303260D01*
X410776Y303239D01*
X410698Y303083D01*
X410616Y302928D01*
X410608Y302903D01*
X410596Y302879D01*
X410551Y302709D01*
X410501Y302542D01*
X410499Y302516D01*
X410492Y302490D01*
X410465Y302159D01*
X410465Y297641D01*
X409846Y296148D01*
X385660Y271961D01*
X385643Y271941D01*
X385622Y271923D01*
X385515Y271785D01*
X385405Y271650D01*
X385392Y271626D01*
X385376Y271605D01*
X385298Y271448D01*
X385216Y271294D01*
X385208Y271269D01*
X385196Y271244D01*
X385151Y271075D01*
X385101Y270908D01*
X385099Y270882D01*
X385092Y270856D01*
X385065Y270525D01*
X385065Y269341D01*
X385067Y269314D01*
X385065Y269288D01*
X385087Y269114D01*
X385105Y268940D01*
X385112Y268915D01*
X385116Y268888D01*
X385171Y268722D01*
X385223Y268555D01*
X385236Y268532D01*
X385244Y268506D01*
X385331Y268355D01*
X385415Y268201D01*
X385432Y268181D01*
X385445Y268158D01*
X385660Y267905D01*
X389637Y263927D01*
X389637Y258303D01*
X389639Y258276D01*
X389637Y258250D01*
X389659Y258076D01*
X389677Y257902D01*
X389684Y257877D01*
X389688Y257850D01*
X389743Y257685D01*
X389795Y257518D01*
X389808Y257494D01*
X389816Y257469D01*
X389903Y257317D01*
X389987Y257163D01*
X390004Y257143D01*
X390017Y257120D01*
X390232Y256867D01*
X409846Y237252D01*
X410465Y235759D01*
X410465Y231495D01*
X410467Y231468D01*
X410465Y231441D01*
X410487Y231268D01*
X410505Y231094D01*
X410512Y231069D01*
X410516Y231042D01*
X410572Y230876D01*
X410623Y230709D01*
X410636Y230686D01*
X410644Y230660D01*
X410731Y230509D01*
X410815Y230355D01*
X410832Y230335D01*
X410845Y230311D01*
X411060Y230058D01*
X413722Y227396D01*
X415037Y224222D01*
X415037Y207578D01*
X413722Y204404D01*
X411292Y201974D01*
X408118Y200659D01*
X404682Y200659D01*
G37*
%LPD*%
%LPC*%
G36*
X606023Y239013D02*
X606023Y239013D01*
X600963Y244073D01*
X600963Y249697D01*
X600961Y249724D01*
X600963Y249750D01*
X600941Y249924D01*
X600923Y250098D01*
X600916Y250123D01*
X600912Y250150D01*
X600857Y250315D01*
X600805Y250482D01*
X600792Y250506D01*
X600784Y250531D01*
X600697Y250683D01*
X600613Y250837D01*
X600596Y250857D01*
X600583Y250880D01*
X600368Y251133D01*
X595811Y255690D01*
X595791Y255707D01*
X595773Y255728D01*
X595635Y255835D01*
X595500Y255945D01*
X595476Y255958D01*
X595455Y255974D01*
X595298Y256052D01*
X595144Y256134D01*
X595119Y256142D01*
X595094Y256154D01*
X594925Y256199D01*
X594758Y256249D01*
X594732Y256251D01*
X594706Y256258D01*
X594375Y256285D01*
X593445Y256285D01*
X593418Y256283D01*
X593391Y256285D01*
X593218Y256263D01*
X593044Y256245D01*
X593019Y256238D01*
X592992Y256234D01*
X592826Y256178D01*
X592659Y256127D01*
X592636Y256114D01*
X592610Y256106D01*
X592459Y256019D01*
X592305Y255935D01*
X592285Y255918D01*
X592261Y255905D01*
X592008Y255690D01*
X589346Y253028D01*
X586172Y251713D01*
X569528Y251713D01*
X566354Y253028D01*
X563692Y255690D01*
X563671Y255707D01*
X563653Y255728D01*
X563515Y255835D01*
X563380Y255945D01*
X563356Y255958D01*
X563335Y255974D01*
X563179Y256052D01*
X563024Y256134D01*
X562999Y256142D01*
X562975Y256154D01*
X562806Y256199D01*
X562638Y256249D01*
X562612Y256251D01*
X562586Y256258D01*
X562255Y256285D01*
X545291Y256285D01*
X543798Y256904D01*
X494211Y306490D01*
X494191Y306507D01*
X494173Y306528D01*
X494035Y306635D01*
X493900Y306745D01*
X493876Y306758D01*
X493855Y306774D01*
X493698Y306852D01*
X493544Y306934D01*
X493519Y306942D01*
X493494Y306954D01*
X493325Y306999D01*
X493158Y307049D01*
X493132Y307051D01*
X493106Y307058D01*
X492775Y307085D01*
X491591Y307085D01*
X491564Y307083D01*
X491537Y307085D01*
X491364Y307063D01*
X491190Y307045D01*
X491165Y307038D01*
X491138Y307034D01*
X490972Y306978D01*
X490805Y306927D01*
X490782Y306914D01*
X490756Y306906D01*
X490605Y306819D01*
X490451Y306735D01*
X490431Y306718D01*
X490407Y306705D01*
X490154Y306490D01*
X486177Y302513D01*
X479023Y302513D01*
X473963Y307573D01*
X473963Y314727D01*
X479023Y319787D01*
X486177Y319787D01*
X490154Y315810D01*
X490175Y315793D01*
X490193Y315772D01*
X490331Y315665D01*
X490466Y315555D01*
X490490Y315542D01*
X490511Y315526D01*
X490667Y315448D01*
X490822Y315366D01*
X490847Y315358D01*
X490871Y315346D01*
X491041Y315301D01*
X491208Y315251D01*
X491234Y315249D01*
X491260Y315242D01*
X491591Y315215D01*
X496109Y315215D01*
X497602Y314596D01*
X547189Y265010D01*
X547209Y264993D01*
X547227Y264972D01*
X547365Y264865D01*
X547500Y264755D01*
X547524Y264742D01*
X547545Y264726D01*
X547702Y264648D01*
X547856Y264566D01*
X547881Y264558D01*
X547906Y264546D01*
X548075Y264501D01*
X548242Y264451D01*
X548268Y264449D01*
X548294Y264442D01*
X548625Y264415D01*
X562255Y264415D01*
X562282Y264417D01*
X562309Y264415D01*
X562482Y264437D01*
X562656Y264455D01*
X562681Y264462D01*
X562708Y264466D01*
X562874Y264522D01*
X563041Y264573D01*
X563064Y264586D01*
X563090Y264594D01*
X563241Y264681D01*
X563395Y264765D01*
X563415Y264782D01*
X563439Y264795D01*
X563692Y265010D01*
X566354Y267672D01*
X567840Y268287D01*
X567840Y268288D01*
X569528Y268987D01*
X586172Y268987D01*
X589346Y267672D01*
X592008Y265010D01*
X592029Y264993D01*
X592047Y264972D01*
X592185Y264865D01*
X592320Y264755D01*
X592344Y264742D01*
X592365Y264726D01*
X592521Y264648D01*
X592676Y264566D01*
X592701Y264558D01*
X592725Y264546D01*
X592894Y264501D01*
X593062Y264451D01*
X593088Y264449D01*
X593114Y264442D01*
X593445Y264415D01*
X597709Y264415D01*
X599202Y263796D01*
X606117Y256882D01*
X606137Y256865D01*
X606155Y256844D01*
X606293Y256737D01*
X606428Y256627D01*
X606452Y256614D01*
X606473Y256598D01*
X606630Y256520D01*
X606784Y256438D01*
X606809Y256430D01*
X606834Y256418D01*
X607003Y256373D01*
X607170Y256323D01*
X607196Y256321D01*
X607222Y256314D01*
X607553Y256287D01*
X613177Y256287D01*
X618237Y251227D01*
X618237Y244073D01*
X613177Y239013D01*
X606023Y239013D01*
G37*
%LPD*%
%LPC*%
G36*
X734882Y200659D02*
X734882Y200659D01*
X731708Y201974D01*
X729278Y204404D01*
X727963Y207578D01*
X727963Y224222D01*
X729278Y227396D01*
X731708Y229826D01*
X734882Y231141D01*
X738409Y231141D01*
X738456Y231127D01*
X738479Y231124D01*
X738500Y231118D01*
X738680Y231105D01*
X738857Y231088D01*
X738879Y231091D01*
X738902Y231089D01*
X739080Y231111D01*
X739258Y231130D01*
X739279Y231137D01*
X739301Y231139D01*
X739471Y231196D01*
X739642Y231250D01*
X739662Y231260D01*
X739683Y231268D01*
X739838Y231357D01*
X739995Y231443D01*
X740012Y231457D01*
X740032Y231469D01*
X740285Y231683D01*
X757340Y248739D01*
X757357Y248759D01*
X757378Y248777D01*
X757485Y248915D01*
X757595Y249050D01*
X757608Y249074D01*
X757624Y249095D01*
X757702Y249251D01*
X757784Y249406D01*
X757792Y249431D01*
X757804Y249456D01*
X757849Y249625D01*
X757899Y249792D01*
X757901Y249818D01*
X757908Y249844D01*
X757935Y250175D01*
X757935Y251359D01*
X757933Y251386D01*
X757935Y251413D01*
X757913Y251586D01*
X757895Y251760D01*
X757888Y251785D01*
X757884Y251812D01*
X757828Y251978D01*
X757777Y252145D01*
X757764Y252168D01*
X757756Y252194D01*
X757669Y252345D01*
X757585Y252499D01*
X757568Y252519D01*
X757555Y252543D01*
X757340Y252796D01*
X753363Y256773D01*
X753363Y263927D01*
X758423Y268987D01*
X765577Y268987D01*
X770637Y263927D01*
X770637Y256773D01*
X769046Y255182D01*
X769041Y255175D01*
X769034Y255170D01*
X768914Y255020D01*
X768791Y254871D01*
X768787Y254863D01*
X768782Y254856D01*
X768693Y254686D01*
X768603Y254515D01*
X768600Y254506D01*
X768596Y254499D01*
X768543Y254314D01*
X768488Y254129D01*
X768487Y254120D01*
X768485Y254112D01*
X768469Y253921D01*
X768452Y253728D01*
X768453Y253719D01*
X768452Y253710D01*
X768474Y253521D01*
X768495Y253328D01*
X768498Y253319D01*
X768499Y253311D01*
X768558Y253129D01*
X768616Y252944D01*
X768621Y252936D01*
X768624Y252928D01*
X768719Y252759D01*
X768811Y252592D01*
X768817Y252585D01*
X768821Y252577D01*
X768948Y252431D01*
X769072Y252285D01*
X769079Y252279D01*
X769085Y252272D01*
X769236Y252155D01*
X769388Y252035D01*
X769396Y252031D01*
X769403Y252026D01*
X769575Y251940D01*
X769747Y251853D01*
X769755Y251850D01*
X769763Y251846D01*
X769949Y251796D01*
X770135Y251745D01*
X770143Y251744D01*
X770152Y251742D01*
X770483Y251715D01*
X778409Y251715D01*
X778436Y251717D01*
X778462Y251715D01*
X778636Y251737D01*
X778810Y251755D01*
X778835Y251762D01*
X778862Y251766D01*
X779028Y251821D01*
X779195Y251873D01*
X779218Y251886D01*
X779244Y251894D01*
X779395Y251981D01*
X779549Y252065D01*
X779569Y252082D01*
X779592Y252095D01*
X779845Y252310D01*
X783823Y256287D01*
X790977Y256287D01*
X796037Y251227D01*
X796037Y244073D01*
X790977Y239013D01*
X783823Y239013D01*
X779845Y242990D01*
X779825Y243007D01*
X779807Y243028D01*
X779669Y243135D01*
X779534Y243245D01*
X779510Y243258D01*
X779489Y243274D01*
X779332Y243352D01*
X779178Y243434D01*
X779153Y243442D01*
X779129Y243454D01*
X778959Y243499D01*
X778792Y243549D01*
X778766Y243551D01*
X778740Y243558D01*
X778409Y243585D01*
X764525Y243585D01*
X764498Y243583D01*
X764472Y243585D01*
X764298Y243563D01*
X764124Y243545D01*
X764099Y243538D01*
X764072Y243534D01*
X763907Y243479D01*
X763740Y243427D01*
X763716Y243414D01*
X763691Y243406D01*
X763539Y243319D01*
X763385Y243235D01*
X763365Y243218D01*
X763342Y243205D01*
X763089Y242990D01*
X745832Y225733D01*
X745815Y225713D01*
X745794Y225695D01*
X745687Y225557D01*
X745577Y225422D01*
X745564Y225398D01*
X745548Y225377D01*
X745470Y225220D01*
X745388Y225066D01*
X745380Y225041D01*
X745368Y225016D01*
X745323Y224847D01*
X745273Y224680D01*
X745271Y224654D01*
X745264Y224628D01*
X745237Y224297D01*
X745237Y207578D01*
X743922Y204404D01*
X741492Y201974D01*
X738318Y200659D01*
X734882Y200659D01*
G37*
%LPD*%
%LPC*%
G36*
X684082Y200659D02*
X684082Y200659D01*
X680908Y201974D01*
X678478Y204404D01*
X677163Y207578D01*
X677163Y224222D01*
X678478Y227396D01*
X680908Y229826D01*
X684082Y231141D01*
X687609Y231141D01*
X687656Y231127D01*
X687679Y231124D01*
X687700Y231118D01*
X687880Y231105D01*
X688057Y231088D01*
X688079Y231091D01*
X688102Y231089D01*
X688280Y231111D01*
X688458Y231130D01*
X688479Y231137D01*
X688501Y231139D01*
X688671Y231196D01*
X688842Y231250D01*
X688862Y231260D01*
X688883Y231268D01*
X689038Y231357D01*
X689195Y231443D01*
X689212Y231457D01*
X689232Y231469D01*
X689485Y231683D01*
X701968Y244167D01*
X701985Y244187D01*
X702006Y244205D01*
X702113Y244343D01*
X702223Y244478D01*
X702236Y244502D01*
X702252Y244523D01*
X702330Y244680D01*
X702412Y244834D01*
X702420Y244859D01*
X702432Y244884D01*
X702477Y245053D01*
X702527Y245220D01*
X702529Y245246D01*
X702536Y245272D01*
X702563Y245603D01*
X702563Y251227D01*
X707623Y256287D01*
X713247Y256287D01*
X713274Y256289D01*
X713300Y256287D01*
X713474Y256309D01*
X713648Y256327D01*
X713673Y256334D01*
X713700Y256338D01*
X713865Y256393D01*
X714032Y256445D01*
X714056Y256458D01*
X714081Y256466D01*
X714233Y256553D01*
X714387Y256637D01*
X714407Y256654D01*
X714430Y256667D01*
X714683Y256882D01*
X721598Y263796D01*
X723091Y264415D01*
X727609Y264415D01*
X727636Y264417D01*
X727663Y264415D01*
X727836Y264437D01*
X728010Y264455D01*
X728035Y264462D01*
X728062Y264466D01*
X728228Y264522D01*
X728395Y264573D01*
X728418Y264586D01*
X728444Y264594D01*
X728595Y264681D01*
X728749Y264765D01*
X728769Y264782D01*
X728793Y264795D01*
X729046Y265010D01*
X733023Y268987D01*
X740177Y268987D01*
X745237Y263927D01*
X745237Y256773D01*
X740177Y251713D01*
X733023Y251713D01*
X729046Y255690D01*
X729025Y255707D01*
X729007Y255728D01*
X728869Y255835D01*
X728734Y255945D01*
X728710Y255958D01*
X728689Y255974D01*
X728533Y256052D01*
X728378Y256134D01*
X728353Y256142D01*
X728329Y256154D01*
X728159Y256199D01*
X727992Y256249D01*
X727966Y256251D01*
X727940Y256258D01*
X727609Y256285D01*
X726425Y256285D01*
X726398Y256283D01*
X726372Y256285D01*
X726198Y256263D01*
X726024Y256245D01*
X725999Y256238D01*
X725972Y256234D01*
X725807Y256179D01*
X725640Y256127D01*
X725616Y256114D01*
X725591Y256106D01*
X725439Y256019D01*
X725285Y255935D01*
X725265Y255918D01*
X725242Y255905D01*
X724989Y255690D01*
X720432Y251133D01*
X720415Y251113D01*
X720394Y251095D01*
X720287Y250957D01*
X720177Y250822D01*
X720164Y250798D01*
X720148Y250777D01*
X720070Y250620D01*
X719988Y250466D01*
X719980Y250441D01*
X719968Y250416D01*
X719923Y250247D01*
X719873Y250080D01*
X719871Y250054D01*
X719864Y250028D01*
X719837Y249697D01*
X719837Y244073D01*
X714777Y239013D01*
X709153Y239013D01*
X709126Y239011D01*
X709100Y239013D01*
X708926Y238991D01*
X708752Y238973D01*
X708727Y238966D01*
X708700Y238962D01*
X708535Y238907D01*
X708368Y238855D01*
X708344Y238842D01*
X708319Y238834D01*
X708167Y238747D01*
X708013Y238663D01*
X707993Y238646D01*
X707970Y238633D01*
X707717Y238418D01*
X695032Y225733D01*
X695015Y225713D01*
X694994Y225695D01*
X694887Y225557D01*
X694777Y225422D01*
X694764Y225398D01*
X694748Y225377D01*
X694670Y225220D01*
X694588Y225066D01*
X694580Y225041D01*
X694568Y225016D01*
X694523Y224847D01*
X694473Y224680D01*
X694471Y224654D01*
X694464Y224628D01*
X694437Y224297D01*
X694437Y207578D01*
X693122Y204404D01*
X690692Y201974D01*
X687518Y200659D01*
X684082Y200659D01*
G37*
%LPD*%
%LPC*%
G36*
X569528Y277113D02*
X569528Y277113D01*
X566354Y278428D01*
X563692Y281090D01*
X563671Y281107D01*
X563653Y281128D01*
X563515Y281235D01*
X563380Y281345D01*
X563356Y281358D01*
X563335Y281374D01*
X563179Y281452D01*
X563024Y281534D01*
X562999Y281542D01*
X562975Y281554D01*
X562806Y281599D01*
X562638Y281649D01*
X562612Y281651D01*
X562586Y281658D01*
X562255Y281685D01*
X545291Y281685D01*
X543798Y282304D01*
X511483Y314618D01*
X511463Y314635D01*
X511445Y314656D01*
X511307Y314763D01*
X511172Y314873D01*
X511148Y314886D01*
X511127Y314902D01*
X510970Y314980D01*
X510816Y315062D01*
X510791Y315070D01*
X510766Y315082D01*
X510597Y315127D01*
X510430Y315177D01*
X510404Y315179D01*
X510378Y315186D01*
X510047Y315213D01*
X504423Y315213D01*
X499363Y320273D01*
X499363Y327427D01*
X504423Y332487D01*
X511577Y332487D01*
X516637Y327427D01*
X516637Y321803D01*
X516639Y321776D01*
X516637Y321750D01*
X516659Y321576D01*
X516677Y321402D01*
X516684Y321377D01*
X516688Y321350D01*
X516743Y321185D01*
X516795Y321018D01*
X516808Y320994D01*
X516816Y320969D01*
X516903Y320817D01*
X516987Y320663D01*
X517004Y320643D01*
X517017Y320620D01*
X517232Y320367D01*
X547189Y290410D01*
X547209Y290393D01*
X547227Y290372D01*
X547365Y290265D01*
X547500Y290155D01*
X547524Y290142D01*
X547545Y290126D01*
X547702Y290048D01*
X547856Y289966D01*
X547881Y289958D01*
X547906Y289946D01*
X548075Y289901D01*
X548242Y289851D01*
X548268Y289849D01*
X548294Y289842D01*
X548625Y289815D01*
X562255Y289815D01*
X562282Y289817D01*
X562309Y289815D01*
X562482Y289837D01*
X562656Y289855D01*
X562681Y289862D01*
X562708Y289866D01*
X562874Y289922D01*
X563041Y289973D01*
X563064Y289986D01*
X563090Y289994D01*
X563241Y290081D01*
X563395Y290165D01*
X563415Y290182D01*
X563439Y290195D01*
X563692Y290410D01*
X566354Y293072D01*
X569528Y294387D01*
X586172Y294387D01*
X589346Y293072D01*
X591776Y290642D01*
X593091Y287468D01*
X593091Y284032D01*
X591776Y280858D01*
X589346Y278428D01*
X588621Y278128D01*
X586172Y277113D01*
X569528Y277113D01*
G37*
%LPD*%
%LPC*%
G36*
X455482Y200659D02*
X455482Y200659D01*
X452308Y201974D01*
X449878Y204404D01*
X448563Y207578D01*
X448563Y224222D01*
X449878Y227396D01*
X452540Y230059D01*
X452557Y230079D01*
X452578Y230097D01*
X452685Y230235D01*
X452795Y230370D01*
X452808Y230394D01*
X452824Y230415D01*
X452902Y230572D01*
X452984Y230726D01*
X452992Y230751D01*
X453004Y230775D01*
X453049Y230945D01*
X453099Y231112D01*
X453101Y231138D01*
X453108Y231164D01*
X453135Y231495D01*
X453135Y238659D01*
X453133Y238686D01*
X453135Y238713D01*
X453113Y238886D01*
X453095Y239060D01*
X453088Y239085D01*
X453084Y239112D01*
X453028Y239278D01*
X452977Y239445D01*
X452964Y239468D01*
X452956Y239494D01*
X452869Y239645D01*
X452785Y239799D01*
X452768Y239819D01*
X452755Y239843D01*
X452540Y240096D01*
X448563Y244073D01*
X448563Y251227D01*
X453623Y256287D01*
X460777Y256287D01*
X464754Y252310D01*
X464775Y252293D01*
X464793Y252272D01*
X464931Y252165D01*
X465066Y252055D01*
X465090Y252042D01*
X465111Y252026D01*
X465267Y251948D01*
X465422Y251866D01*
X465447Y251858D01*
X465471Y251846D01*
X465641Y251801D01*
X465808Y251751D01*
X465834Y251749D01*
X465860Y251742D01*
X466191Y251715D01*
X467375Y251715D01*
X467402Y251717D01*
X467428Y251715D01*
X467602Y251737D01*
X467776Y251755D01*
X467801Y251762D01*
X467828Y251766D01*
X467993Y251821D01*
X468160Y251873D01*
X468184Y251886D01*
X468209Y251894D01*
X468361Y251981D01*
X468515Y252065D01*
X468535Y252082D01*
X468558Y252095D01*
X468811Y252310D01*
X473368Y256867D01*
X473385Y256887D01*
X473406Y256905D01*
X473513Y257043D01*
X473623Y257178D01*
X473636Y257202D01*
X473652Y257223D01*
X473730Y257380D01*
X473812Y257534D01*
X473820Y257559D01*
X473832Y257584D01*
X473877Y257753D01*
X473927Y257920D01*
X473929Y257946D01*
X473936Y257972D01*
X473963Y258303D01*
X473963Y263927D01*
X479023Y268987D01*
X486177Y268987D01*
X491237Y263927D01*
X491237Y256773D01*
X486177Y251713D01*
X480553Y251713D01*
X480526Y251711D01*
X480500Y251713D01*
X480326Y251691D01*
X480152Y251673D01*
X480127Y251666D01*
X480100Y251662D01*
X479935Y251607D01*
X479768Y251555D01*
X479744Y251542D01*
X479719Y251534D01*
X479567Y251447D01*
X479413Y251363D01*
X479393Y251346D01*
X479370Y251333D01*
X479117Y251118D01*
X472202Y244204D01*
X470709Y243585D01*
X466191Y243585D01*
X466164Y243583D01*
X466137Y243585D01*
X465964Y243563D01*
X465790Y243545D01*
X465765Y243538D01*
X465738Y243534D01*
X465572Y243479D01*
X465405Y243427D01*
X465382Y243414D01*
X465356Y243406D01*
X465205Y243319D01*
X465051Y243235D01*
X465031Y243218D01*
X465007Y243205D01*
X464754Y242990D01*
X461860Y240096D01*
X461843Y240075D01*
X461822Y240057D01*
X461715Y239919D01*
X461605Y239784D01*
X461592Y239760D01*
X461576Y239739D01*
X461498Y239582D01*
X461416Y239428D01*
X461408Y239403D01*
X461396Y239379D01*
X461351Y239209D01*
X461301Y239042D01*
X461299Y239016D01*
X461292Y238990D01*
X461265Y238659D01*
X461265Y231495D01*
X461267Y231468D01*
X461265Y231442D01*
X461287Y231268D01*
X461305Y231094D01*
X461312Y231069D01*
X461316Y231042D01*
X461371Y230876D01*
X461423Y230709D01*
X461436Y230686D01*
X461444Y230660D01*
X461531Y230509D01*
X461615Y230355D01*
X461632Y230335D01*
X461645Y230312D01*
X461860Y230059D01*
X464522Y227396D01*
X465837Y224222D01*
X465837Y207578D01*
X464522Y204404D01*
X462092Y201974D01*
X458918Y200659D01*
X455482Y200659D01*
G37*
%LPD*%
%LPC*%
G36*
X555223Y105663D02*
X555223Y105663D01*
X550163Y110723D01*
X550163Y117877D01*
X554140Y121854D01*
X554157Y121875D01*
X554178Y121893D01*
X554285Y122031D01*
X554395Y122166D01*
X554408Y122190D01*
X554424Y122211D01*
X554502Y122367D01*
X554584Y122522D01*
X554592Y122547D01*
X554604Y122571D01*
X554649Y122741D01*
X554699Y122908D01*
X554701Y122934D01*
X554708Y122960D01*
X554735Y123291D01*
X554735Y124105D01*
X554733Y124132D01*
X554735Y124158D01*
X554713Y124332D01*
X554695Y124506D01*
X554688Y124531D01*
X554684Y124558D01*
X554629Y124724D01*
X554577Y124891D01*
X554564Y124914D01*
X554556Y124940D01*
X554469Y125091D01*
X554385Y125245D01*
X554368Y125265D01*
X554355Y125288D01*
X554140Y125541D01*
X551478Y128204D01*
X550163Y131378D01*
X550163Y148022D01*
X551478Y151196D01*
X553908Y153626D01*
X557082Y154941D01*
X560518Y154941D01*
X563692Y153626D01*
X566122Y151196D01*
X567437Y148022D01*
X567437Y131378D01*
X566122Y128204D01*
X563460Y125541D01*
X563443Y125521D01*
X563422Y125503D01*
X563315Y125365D01*
X563205Y125230D01*
X563192Y125206D01*
X563176Y125185D01*
X563098Y125028D01*
X563016Y124874D01*
X563008Y124849D01*
X562996Y124825D01*
X562951Y124655D01*
X562901Y124488D01*
X562899Y124462D01*
X562892Y124436D01*
X562865Y124105D01*
X562865Y123291D01*
X562867Y123264D01*
X562865Y123237D01*
X562887Y123063D01*
X562905Y122890D01*
X562912Y122865D01*
X562916Y122838D01*
X562971Y122672D01*
X563023Y122505D01*
X563036Y122482D01*
X563044Y122456D01*
X563131Y122305D01*
X563215Y122151D01*
X563232Y122131D01*
X563245Y122107D01*
X563460Y121854D01*
X566354Y118960D01*
X566375Y118943D01*
X566393Y118922D01*
X566531Y118815D01*
X566666Y118705D01*
X566690Y118692D01*
X566711Y118676D01*
X566868Y118598D01*
X567022Y118516D01*
X567047Y118508D01*
X567071Y118496D01*
X567241Y118451D01*
X567408Y118401D01*
X567434Y118399D01*
X567460Y118392D01*
X567791Y118365D01*
X575209Y118365D01*
X575236Y118367D01*
X575262Y118365D01*
X575436Y118387D01*
X575610Y118405D01*
X575635Y118412D01*
X575662Y118416D01*
X575828Y118471D01*
X575995Y118523D01*
X576018Y118536D01*
X576044Y118544D01*
X576195Y118631D01*
X576349Y118715D01*
X576369Y118732D01*
X576392Y118745D01*
X576645Y118960D01*
X580623Y122937D01*
X587777Y122937D01*
X592837Y117877D01*
X592837Y110723D01*
X587777Y105663D01*
X580623Y105663D01*
X576645Y109640D01*
X576625Y109657D01*
X576607Y109678D01*
X576469Y109785D01*
X576334Y109895D01*
X576310Y109908D01*
X576289Y109924D01*
X576132Y110002D01*
X575978Y110084D01*
X575953Y110092D01*
X575929Y110104D01*
X575759Y110149D01*
X575592Y110199D01*
X575566Y110201D01*
X575540Y110208D01*
X575209Y110235D01*
X567791Y110235D01*
X567764Y110233D01*
X567737Y110235D01*
X567564Y110213D01*
X567390Y110195D01*
X567365Y110188D01*
X567338Y110184D01*
X567172Y110128D01*
X567005Y110077D01*
X566982Y110064D01*
X566956Y110056D01*
X566805Y109969D01*
X566651Y109885D01*
X566631Y109868D01*
X566607Y109855D01*
X566354Y109640D01*
X562377Y105663D01*
X555223Y105663D01*
G37*
%LPD*%
%LPC*%
G36*
X861882Y124459D02*
X861882Y124459D01*
X858708Y125774D01*
X856278Y128204D01*
X854963Y131378D01*
X854963Y133604D01*
X854961Y133622D01*
X854963Y133640D01*
X854942Y133822D01*
X854923Y134005D01*
X854918Y134022D01*
X854916Y134039D01*
X854859Y134214D01*
X854805Y134390D01*
X854797Y134405D01*
X854791Y134422D01*
X854701Y134582D01*
X854613Y134744D01*
X854602Y134757D01*
X854593Y134773D01*
X854473Y134912D01*
X854356Y135053D01*
X854342Y135064D01*
X854330Y135078D01*
X854185Y135190D01*
X854042Y135305D01*
X854026Y135313D01*
X854012Y135324D01*
X853847Y135406D01*
X853685Y135491D01*
X853668Y135496D01*
X853652Y135504D01*
X853473Y135551D01*
X853298Y135602D01*
X853280Y135604D01*
X853263Y135608D01*
X852932Y135635D01*
X850091Y135635D01*
X848598Y136254D01*
X847169Y137683D01*
X847168Y137683D01*
X841683Y143168D01*
X841663Y143185D01*
X841645Y143206D01*
X841507Y143313D01*
X841372Y143423D01*
X841348Y143436D01*
X841327Y143452D01*
X841170Y143530D01*
X841016Y143612D01*
X840991Y143620D01*
X840966Y143632D01*
X840797Y143677D01*
X840630Y143727D01*
X840604Y143729D01*
X840578Y143736D01*
X840247Y143763D01*
X834623Y143763D01*
X829563Y148823D01*
X829563Y155977D01*
X834623Y161037D01*
X841777Y161037D01*
X846837Y155977D01*
X846837Y150353D01*
X846839Y150326D01*
X846837Y150300D01*
X846859Y150126D01*
X846877Y149952D01*
X846884Y149927D01*
X846888Y149900D01*
X846943Y149735D01*
X846995Y149568D01*
X847008Y149544D01*
X847016Y149519D01*
X847103Y149367D01*
X847187Y149213D01*
X847204Y149193D01*
X847217Y149170D01*
X847432Y148917D01*
X851496Y144853D01*
X851503Y144847D01*
X851508Y144840D01*
X851658Y144720D01*
X851807Y144598D01*
X851815Y144593D01*
X851822Y144588D01*
X851992Y144499D01*
X852163Y144409D01*
X852172Y144406D01*
X852179Y144402D01*
X852364Y144349D01*
X852549Y144294D01*
X852558Y144293D01*
X852566Y144291D01*
X852758Y144275D01*
X852950Y144258D01*
X852959Y144259D01*
X852968Y144258D01*
X853157Y144280D01*
X853350Y144301D01*
X853359Y144304D01*
X853367Y144305D01*
X853549Y144364D01*
X853734Y144423D01*
X853742Y144427D01*
X853750Y144430D01*
X853919Y144525D01*
X854086Y144618D01*
X854093Y144623D01*
X854101Y144628D01*
X854247Y144754D01*
X854393Y144878D01*
X854399Y144885D01*
X854406Y144891D01*
X854522Y145041D01*
X854643Y145194D01*
X854647Y145202D01*
X854652Y145209D01*
X854738Y145381D01*
X854825Y145553D01*
X854828Y145561D01*
X854832Y145569D01*
X854881Y145753D01*
X854933Y145941D01*
X854934Y145950D01*
X854936Y145958D01*
X854963Y146289D01*
X854963Y148022D01*
X856278Y151196D01*
X858708Y153626D01*
X861882Y154941D01*
X865318Y154941D01*
X868492Y153626D01*
X870922Y151196D01*
X872237Y148022D01*
X872237Y131378D01*
X870922Y128204D01*
X868492Y125774D01*
X865318Y124459D01*
X861882Y124459D01*
G37*
%LPD*%
%LPC*%
G36*
X453623Y105663D02*
X453623Y105663D01*
X448563Y110723D01*
X448563Y117877D01*
X453094Y122408D01*
X453103Y122419D01*
X453113Y122427D01*
X453230Y122574D01*
X453349Y122720D01*
X453356Y122732D01*
X453364Y122742D01*
X453449Y122908D01*
X453538Y123076D01*
X453542Y123088D01*
X453548Y123100D01*
X453599Y123280D01*
X453653Y123461D01*
X453654Y123475D01*
X453658Y123488D01*
X453672Y123674D01*
X453689Y123862D01*
X453688Y123876D01*
X453689Y123889D01*
X453666Y124074D01*
X453646Y124263D01*
X453642Y124276D01*
X453640Y124289D01*
X453581Y124466D01*
X453524Y124647D01*
X453518Y124658D01*
X453513Y124671D01*
X453420Y124834D01*
X453329Y124999D01*
X453321Y125009D01*
X453314Y125021D01*
X453190Y125163D01*
X453069Y125306D01*
X453058Y125314D01*
X453050Y125324D01*
X452900Y125439D01*
X452753Y125555D01*
X452741Y125562D01*
X452730Y125570D01*
X452435Y125721D01*
X452308Y125774D01*
X449878Y128204D01*
X448563Y131378D01*
X448563Y148022D01*
X449878Y151196D01*
X452308Y153626D01*
X455482Y154941D01*
X458918Y154941D01*
X462092Y153626D01*
X464522Y151196D01*
X465837Y148022D01*
X465837Y131378D01*
X464522Y128204D01*
X462092Y125774D01*
X461965Y125721D01*
X461953Y125715D01*
X461940Y125711D01*
X461776Y125620D01*
X461610Y125531D01*
X461600Y125523D01*
X461588Y125516D01*
X461445Y125395D01*
X461300Y125275D01*
X461291Y125264D01*
X461281Y125256D01*
X461165Y125109D01*
X461046Y124962D01*
X461040Y124950D01*
X461031Y124940D01*
X460946Y124772D01*
X460859Y124606D01*
X460855Y124593D01*
X460849Y124581D01*
X460798Y124399D01*
X460746Y124219D01*
X460745Y124206D01*
X460741Y124193D01*
X460727Y124004D01*
X460711Y123818D01*
X460713Y123805D01*
X460712Y123791D01*
X460735Y123604D01*
X460756Y123418D01*
X460760Y123405D01*
X460762Y123392D01*
X460822Y123214D01*
X460879Y123035D01*
X460886Y123023D01*
X460890Y123010D01*
X460984Y122847D01*
X461076Y122683D01*
X461084Y122673D01*
X461091Y122661D01*
X461306Y122408D01*
X465837Y117877D01*
X465837Y110723D01*
X460777Y105663D01*
X453623Y105663D01*
G37*
%LPD*%
%LPC*%
G36*
X682223Y105663D02*
X682223Y105663D01*
X677163Y110723D01*
X677163Y117877D01*
X681694Y122408D01*
X681703Y122419D01*
X681713Y122427D01*
X681830Y122574D01*
X681949Y122720D01*
X681956Y122732D01*
X681964Y122742D01*
X682049Y122908D01*
X682138Y123076D01*
X682142Y123088D01*
X682148Y123100D01*
X682199Y123280D01*
X682253Y123461D01*
X682254Y123475D01*
X682258Y123488D01*
X682272Y123674D01*
X682289Y123862D01*
X682288Y123876D01*
X682289Y123889D01*
X682266Y124074D01*
X682246Y124263D01*
X682242Y124276D01*
X682240Y124289D01*
X682181Y124466D01*
X682124Y124647D01*
X682118Y124658D01*
X682113Y124671D01*
X682020Y124834D01*
X681929Y124999D01*
X681921Y125009D01*
X681914Y125021D01*
X681790Y125163D01*
X681669Y125306D01*
X681658Y125314D01*
X681650Y125324D01*
X681500Y125439D01*
X681353Y125555D01*
X681341Y125562D01*
X681330Y125570D01*
X681035Y125721D01*
X680908Y125774D01*
X678478Y128204D01*
X677163Y131378D01*
X677163Y148022D01*
X678478Y151196D01*
X680908Y153626D01*
X684082Y154941D01*
X687518Y154941D01*
X690692Y153626D01*
X693122Y151196D01*
X694437Y148022D01*
X694437Y131378D01*
X693122Y128204D01*
X690692Y125774D01*
X690565Y125721D01*
X690553Y125715D01*
X690540Y125711D01*
X690376Y125620D01*
X690210Y125531D01*
X690200Y125523D01*
X690188Y125516D01*
X690045Y125395D01*
X689900Y125275D01*
X689891Y125264D01*
X689881Y125256D01*
X689765Y125109D01*
X689646Y124962D01*
X689640Y124950D01*
X689631Y124940D01*
X689546Y124772D01*
X689459Y124606D01*
X689455Y124593D01*
X689449Y124581D01*
X689398Y124399D01*
X689346Y124219D01*
X689345Y124206D01*
X689341Y124193D01*
X689327Y124004D01*
X689311Y123818D01*
X689313Y123805D01*
X689312Y123791D01*
X689335Y123604D01*
X689356Y123418D01*
X689360Y123405D01*
X689362Y123392D01*
X689422Y123214D01*
X689479Y123035D01*
X689486Y123023D01*
X689490Y123010D01*
X689584Y122847D01*
X689676Y122683D01*
X689684Y122673D01*
X689691Y122661D01*
X689906Y122408D01*
X694437Y117877D01*
X694437Y110723D01*
X689377Y105663D01*
X682223Y105663D01*
G37*
%LPD*%
%LPC*%
G36*
X709482Y124459D02*
X709482Y124459D01*
X706308Y125774D01*
X703878Y128204D01*
X702563Y131378D01*
X702563Y148022D01*
X703878Y151196D01*
X706308Y153626D01*
X709482Y154941D01*
X712918Y154941D01*
X716092Y153626D01*
X718522Y151196D01*
X719837Y148022D01*
X719837Y131378D01*
X718522Y128204D01*
X716092Y125774D01*
X712918Y124459D01*
X709482Y124459D01*
G37*
%LPD*%
%LPC*%
G36*
X430082Y200659D02*
X430082Y200659D01*
X426908Y201974D01*
X424478Y204404D01*
X423163Y207578D01*
X423163Y224222D01*
X424478Y227396D01*
X426908Y229826D01*
X430082Y231141D01*
X433518Y231141D01*
X436692Y229826D01*
X439122Y227396D01*
X440437Y224222D01*
X440437Y207578D01*
X439122Y204404D01*
X436692Y201974D01*
X433518Y200659D01*
X430082Y200659D01*
G37*
%LPD*%
%LPC*%
G36*
X480882Y200659D02*
X480882Y200659D01*
X477708Y201974D01*
X475278Y204404D01*
X473963Y207578D01*
X473963Y224222D01*
X475278Y227396D01*
X477708Y229826D01*
X480882Y231141D01*
X484318Y231141D01*
X487492Y229826D01*
X489922Y227396D01*
X491237Y224222D01*
X491237Y207578D01*
X489922Y204404D01*
X487492Y201974D01*
X484318Y200659D01*
X480882Y200659D01*
G37*
%LPD*%
%LPC*%
G36*
X760282Y124459D02*
X760282Y124459D01*
X757108Y125774D01*
X754678Y128204D01*
X753363Y131378D01*
X753363Y148022D01*
X754678Y151196D01*
X757108Y153626D01*
X760282Y154941D01*
X763718Y154941D01*
X766892Y153626D01*
X769322Y151196D01*
X770637Y148022D01*
X770637Y131378D01*
X769322Y128204D01*
X766892Y125774D01*
X763718Y124459D01*
X760282Y124459D01*
G37*
%LPD*%
%LPC*%
G36*
X785682Y124459D02*
X785682Y124459D01*
X782508Y125774D01*
X780078Y128204D01*
X778763Y131378D01*
X778763Y148022D01*
X780078Y151196D01*
X782508Y153626D01*
X785682Y154941D01*
X789118Y154941D01*
X792292Y153626D01*
X794722Y151196D01*
X796037Y148022D01*
X796037Y131378D01*
X794722Y128204D01*
X792292Y125774D01*
X789118Y124459D01*
X785682Y124459D01*
G37*
%LPD*%
%LPC*%
G36*
X709482Y200659D02*
X709482Y200659D01*
X706308Y201974D01*
X703878Y204404D01*
X702563Y207578D01*
X702563Y224222D01*
X703878Y227396D01*
X706308Y229826D01*
X709482Y231141D01*
X712918Y231141D01*
X716092Y229826D01*
X718522Y227396D01*
X719837Y224222D01*
X719837Y207578D01*
X718522Y204404D01*
X716092Y201974D01*
X712918Y200659D01*
X709482Y200659D01*
G37*
%LPD*%
%LPC*%
G36*
X912682Y124459D02*
X912682Y124459D01*
X909508Y125774D01*
X907078Y128204D01*
X905763Y131378D01*
X905763Y148022D01*
X907078Y151196D01*
X909508Y153626D01*
X912682Y154941D01*
X916118Y154941D01*
X919292Y153626D01*
X921722Y151196D01*
X923037Y148022D01*
X923037Y131378D01*
X921722Y128204D01*
X919292Y125774D01*
X916118Y124459D01*
X912682Y124459D01*
G37*
%LPD*%
%LPC*%
G36*
X480882Y124459D02*
X480882Y124459D01*
X477708Y125774D01*
X475278Y128204D01*
X473963Y131378D01*
X473963Y148022D01*
X475278Y151196D01*
X477708Y153626D01*
X480882Y154941D01*
X484318Y154941D01*
X487492Y153626D01*
X489922Y151196D01*
X491237Y148022D01*
X491237Y131378D01*
X489922Y128204D01*
X487492Y125774D01*
X484318Y124459D01*
X480882Y124459D01*
G37*
%LPD*%
%LPC*%
G36*
X861882Y200659D02*
X861882Y200659D01*
X858708Y201974D01*
X856278Y204404D01*
X854963Y207578D01*
X854963Y224222D01*
X856278Y227396D01*
X858708Y229826D01*
X861882Y231141D01*
X865318Y231141D01*
X868492Y229826D01*
X870922Y227396D01*
X872237Y224222D01*
X872237Y207578D01*
X870922Y204404D01*
X868492Y201974D01*
X865318Y200659D01*
X861882Y200659D01*
G37*
%LPD*%
%LPC*%
G36*
X569528Y302513D02*
X569528Y302513D01*
X566354Y303828D01*
X563924Y306258D01*
X562609Y309432D01*
X562609Y312868D01*
X563924Y316042D01*
X566354Y318472D01*
X569528Y319787D01*
X586172Y319787D01*
X589346Y318472D01*
X591776Y316042D01*
X593091Y312868D01*
X593091Y309432D01*
X591776Y306258D01*
X589346Y303828D01*
X586172Y302513D01*
X569528Y302513D01*
G37*
%LPD*%
%LPC*%
G36*
X938082Y124459D02*
X938082Y124459D01*
X934908Y125774D01*
X932478Y128204D01*
X931163Y131378D01*
X931163Y148022D01*
X932478Y151196D01*
X934908Y153626D01*
X938082Y154941D01*
X941518Y154941D01*
X944692Y153626D01*
X947122Y151196D01*
X948437Y148022D01*
X948437Y131378D01*
X947122Y128204D01*
X944692Y125774D01*
X941518Y124459D01*
X938082Y124459D01*
G37*
%LPD*%
%LPC*%
G36*
X842832Y86359D02*
X842832Y86359D01*
X839658Y87674D01*
X837228Y90104D01*
X835913Y93278D01*
X835913Y109922D01*
X837228Y113096D01*
X839658Y115526D01*
X840666Y115944D01*
X840667Y115944D01*
X842832Y116841D01*
X846268Y116841D01*
X849442Y115526D01*
X851872Y113096D01*
X853187Y109922D01*
X853187Y93278D01*
X851872Y90104D01*
X849442Y87674D01*
X846268Y86359D01*
X842832Y86359D01*
G37*
%LPD*%
%LPC*%
G36*
X868232Y86359D02*
X868232Y86359D01*
X865058Y87674D01*
X862628Y90104D01*
X861313Y93278D01*
X861313Y109922D01*
X862628Y113096D01*
X865058Y115526D01*
X866066Y115944D01*
X866067Y115944D01*
X868232Y116841D01*
X871668Y116841D01*
X874842Y115526D01*
X877272Y113096D01*
X878587Y109922D01*
X878587Y93278D01*
X877272Y90104D01*
X874842Y87674D01*
X871668Y86359D01*
X868232Y86359D01*
G37*
%LPD*%
%LPC*%
G36*
X252394Y125587D02*
X252394Y125587D01*
X249427Y126816D01*
X247156Y129087D01*
X245927Y132054D01*
X245927Y147346D01*
X247156Y150313D01*
X249427Y152584D01*
X252394Y153813D01*
X255606Y153813D01*
X258573Y152584D01*
X260844Y150313D01*
X262073Y147346D01*
X262073Y132054D01*
X260844Y129087D01*
X258573Y126816D01*
X255606Y125587D01*
X252394Y125587D01*
G37*
%LPD*%
%LPC*%
G36*
X328594Y125587D02*
X328594Y125587D01*
X325627Y126816D01*
X323356Y129087D01*
X322127Y132054D01*
X322127Y147346D01*
X323356Y150313D01*
X325627Y152584D01*
X328594Y153813D01*
X331806Y153813D01*
X334773Y152584D01*
X337044Y150313D01*
X338273Y147346D01*
X338273Y132054D01*
X337044Y129087D01*
X334773Y126816D01*
X331806Y125587D01*
X328594Y125587D01*
G37*
%LPD*%
%LPC*%
G36*
X277794Y201787D02*
X277794Y201787D01*
X274827Y203016D01*
X272556Y205287D01*
X271327Y208254D01*
X271327Y223546D01*
X272556Y226513D01*
X274827Y228784D01*
X277794Y230013D01*
X281006Y230013D01*
X283973Y228784D01*
X286244Y226513D01*
X287473Y223546D01*
X287473Y208254D01*
X286244Y205287D01*
X283973Y203016D01*
X281006Y201787D01*
X277794Y201787D01*
G37*
%LPD*%
%LPC*%
G36*
X252394Y201787D02*
X252394Y201787D01*
X249427Y203016D01*
X247156Y205287D01*
X245927Y208254D01*
X245927Y223546D01*
X247156Y226513D01*
X249427Y228784D01*
X252394Y230013D01*
X255606Y230013D01*
X258573Y228784D01*
X260844Y226513D01*
X262073Y223546D01*
X262073Y208254D01*
X260844Y205287D01*
X258573Y203016D01*
X255606Y201787D01*
X252394Y201787D01*
G37*
%LPD*%
%LPC*%
G36*
X303194Y201787D02*
X303194Y201787D01*
X300227Y203016D01*
X297956Y205287D01*
X296727Y208254D01*
X296727Y223546D01*
X297956Y226513D01*
X300227Y228784D01*
X303194Y230013D01*
X306406Y230013D01*
X309373Y228784D01*
X311644Y226513D01*
X312873Y223546D01*
X312873Y208254D01*
X311644Y205287D01*
X309373Y203016D01*
X306406Y201787D01*
X303194Y201787D01*
G37*
%LPD*%
%LPC*%
G36*
X277794Y125587D02*
X277794Y125587D01*
X274827Y126816D01*
X272556Y129087D01*
X271327Y132054D01*
X271327Y147346D01*
X272556Y150313D01*
X274827Y152584D01*
X277794Y153813D01*
X281006Y153813D01*
X283973Y152584D01*
X286244Y150313D01*
X287473Y147346D01*
X287473Y132054D01*
X286244Y129087D01*
X283973Y126816D01*
X281006Y125587D01*
X277794Y125587D01*
G37*
%LPD*%
%LPC*%
G36*
X303194Y125587D02*
X303194Y125587D01*
X300227Y126816D01*
X297956Y129087D01*
X296727Y132054D01*
X296727Y147346D01*
X297956Y150313D01*
X300227Y152584D01*
X303194Y153813D01*
X306406Y153813D01*
X309373Y152584D01*
X311644Y150313D01*
X312873Y147346D01*
X312873Y132054D01*
X311644Y129087D01*
X309373Y126816D01*
X306406Y125587D01*
X303194Y125587D01*
G37*
%LPD*%
%LPC*%
G36*
X141894Y243966D02*
X141894Y243966D01*
X136016Y249844D01*
X136016Y258156D01*
X141894Y264034D01*
X150206Y264034D01*
X156084Y258156D01*
X156084Y249844D01*
X150206Y243966D01*
X141894Y243966D01*
G37*
%LPD*%
%LPC*%
G36*
X137704Y110616D02*
X137704Y110616D01*
X134016Y112144D01*
X131194Y114966D01*
X129666Y118654D01*
X129666Y122646D01*
X131194Y126334D01*
X134016Y129156D01*
X137704Y130684D01*
X141696Y130684D01*
X145384Y129156D01*
X148206Y126334D01*
X149734Y122646D01*
X149734Y118654D01*
X148206Y114966D01*
X145384Y112144D01*
X141696Y110616D01*
X137704Y110616D01*
G37*
%LPD*%
%LPC*%
G36*
X817154Y269366D02*
X817154Y269366D01*
X813466Y270894D01*
X810644Y273716D01*
X809116Y277404D01*
X809116Y281396D01*
X810644Y285084D01*
X813466Y287906D01*
X817154Y289434D01*
X821146Y289434D01*
X824834Y287906D01*
X827656Y285084D01*
X829184Y281396D01*
X829184Y277404D01*
X827656Y273716D01*
X824834Y270894D01*
X821146Y269366D01*
X817154Y269366D01*
G37*
%LPD*%
%LPC*%
G36*
X47012Y175005D02*
X47012Y175005D01*
X41655Y180362D01*
X41655Y187938D01*
X47012Y193295D01*
X54588Y193295D01*
X59945Y187938D01*
X59945Y180362D01*
X54588Y175005D01*
X47012Y175005D01*
G37*
%LPD*%
%LPC*%
G36*
X72412Y175005D02*
X72412Y175005D01*
X67055Y180362D01*
X67055Y187938D01*
X72412Y193295D01*
X79988Y193295D01*
X85345Y187938D01*
X85345Y180362D01*
X79988Y175005D01*
X72412Y175005D01*
G37*
%LPD*%
%LPC*%
G36*
X47012Y276605D02*
X47012Y276605D01*
X41655Y281962D01*
X41655Y289538D01*
X47012Y294895D01*
X54588Y294895D01*
X59945Y289538D01*
X59945Y281962D01*
X54588Y276605D01*
X47012Y276605D01*
G37*
%LPD*%
%LPC*%
G36*
X72412Y276605D02*
X72412Y276605D01*
X67055Y281962D01*
X67055Y289538D01*
X72412Y294895D01*
X79988Y294895D01*
X85345Y289538D01*
X85345Y281962D01*
X79988Y276605D01*
X72412Y276605D01*
G37*
%LPD*%
%LPC*%
G36*
X783823Y315213D02*
X783823Y315213D01*
X778763Y320273D01*
X778763Y327427D01*
X783823Y332487D01*
X790977Y332487D01*
X796037Y327427D01*
X796037Y320273D01*
X790977Y315213D01*
X783823Y315213D01*
G37*
%LPD*%
%LPC*%
G36*
X288523Y277113D02*
X288523Y277113D01*
X283463Y282173D01*
X283463Y289327D01*
X288523Y294387D01*
X295677Y294387D01*
X300737Y289327D01*
X300737Y282173D01*
X295677Y277113D01*
X288523Y277113D01*
G37*
%LPD*%
%LPC*%
G36*
X631423Y315213D02*
X631423Y315213D01*
X626363Y320273D01*
X626363Y327427D01*
X631423Y332487D01*
X638577Y332487D01*
X643637Y327427D01*
X643637Y320273D01*
X638577Y315213D01*
X631423Y315213D01*
G37*
%LPD*%
%LPC*%
G36*
X225023Y143763D02*
X225023Y143763D01*
X219963Y148823D01*
X219963Y155977D01*
X225023Y161037D01*
X232177Y161037D01*
X237237Y155977D01*
X237237Y148823D01*
X232177Y143763D01*
X225023Y143763D01*
G37*
%LPD*%
%LPC*%
G36*
X961623Y61213D02*
X961623Y61213D01*
X956563Y66273D01*
X956563Y73427D01*
X961623Y78487D01*
X968777Y78487D01*
X973837Y73427D01*
X973837Y66273D01*
X968777Y61213D01*
X961623Y61213D01*
G37*
%LPD*%
%LPC*%
G36*
X961623Y143763D02*
X961623Y143763D01*
X956563Y148823D01*
X956563Y155977D01*
X961623Y161037D01*
X968777Y161037D01*
X973837Y155977D01*
X973837Y148823D01*
X968777Y143763D01*
X961623Y143763D01*
G37*
%LPD*%
%LPC*%
G36*
X326623Y315213D02*
X326623Y315213D01*
X321563Y320273D01*
X321563Y327427D01*
X326623Y332487D01*
X333777Y332487D01*
X338837Y327427D01*
X338837Y320273D01*
X333777Y315213D01*
X326623Y315213D01*
G37*
%LPD*%
%LPC*%
G36*
X606023Y315213D02*
X606023Y315213D01*
X600963Y320273D01*
X600963Y327427D01*
X606023Y332487D01*
X613177Y332487D01*
X618237Y327427D01*
X618237Y320273D01*
X613177Y315213D01*
X606023Y315213D01*
G37*
%LPD*%
%LPC*%
G36*
X580623Y194563D02*
X580623Y194563D01*
X575563Y199623D01*
X575563Y206777D01*
X580623Y211837D01*
X587777Y211837D01*
X592837Y206777D01*
X592837Y199623D01*
X587777Y194563D01*
X580623Y194563D01*
G37*
%LPD*%
%LPC*%
G36*
X809223Y194563D02*
X809223Y194563D01*
X804163Y199623D01*
X804163Y206777D01*
X809223Y211837D01*
X816377Y211837D01*
X821437Y206777D01*
X821437Y199623D01*
X816377Y194563D01*
X809223Y194563D01*
G37*
%LPD*%
%LPC*%
G36*
X352023Y194563D02*
X352023Y194563D01*
X346963Y199623D01*
X346963Y206777D01*
X352023Y211837D01*
X359177Y211837D01*
X364237Y206777D01*
X364237Y199623D01*
X359177Y194563D01*
X352023Y194563D01*
G37*
%LPD*%
%LPC*%
G36*
X199623Y194563D02*
X199623Y194563D01*
X194563Y199623D01*
X194563Y206777D01*
X199623Y211837D01*
X206777Y211837D01*
X211837Y206777D01*
X211837Y199623D01*
X206777Y194563D01*
X199623Y194563D01*
G37*
%LPD*%
%LPC*%
G36*
X936223Y61213D02*
X936223Y61213D01*
X931163Y66273D01*
X931163Y73427D01*
X936223Y78487D01*
X943377Y78487D01*
X948437Y73427D01*
X948437Y66273D01*
X943377Y61213D01*
X936223Y61213D01*
G37*
%LPD*%
%LPC*%
G36*
X402823Y251713D02*
X402823Y251713D01*
X397763Y256773D01*
X397763Y263927D01*
X402823Y268987D01*
X409977Y268987D01*
X415037Y263927D01*
X415037Y256773D01*
X409977Y251713D01*
X402823Y251713D01*
G37*
%LPD*%
%LPC*%
G36*
X272648Y54863D02*
X272648Y54863D01*
X267588Y59923D01*
X267588Y67077D01*
X272648Y72137D01*
X279802Y72137D01*
X284862Y67077D01*
X284862Y59923D01*
X279802Y54863D01*
X272648Y54863D01*
G37*
%LPD*%
%LPC*%
G36*
X936223Y35813D02*
X936223Y35813D01*
X931163Y40873D01*
X931163Y48027D01*
X936223Y53087D01*
X943377Y53087D01*
X948437Y48027D01*
X948437Y40873D01*
X943377Y35813D01*
X936223Y35813D01*
G37*
%LPD*%
%LPC*%
G36*
X272648Y80263D02*
X272648Y80263D01*
X267588Y85323D01*
X267588Y92477D01*
X272648Y97537D01*
X279802Y97537D01*
X284862Y92477D01*
X284862Y85323D01*
X279802Y80263D01*
X272648Y80263D01*
G37*
%LPD*%
%LPC*%
G36*
X529823Y315213D02*
X529823Y315213D01*
X524763Y320273D01*
X524763Y327427D01*
X529823Y332487D01*
X536977Y332487D01*
X542037Y327427D01*
X542037Y320273D01*
X536977Y315213D01*
X529823Y315213D01*
G37*
%LPD*%
%LPC*%
G36*
X733023Y302513D02*
X733023Y302513D01*
X727963Y307573D01*
X727963Y314727D01*
X733023Y319787D01*
X740177Y319787D01*
X745237Y314727D01*
X745237Y307573D01*
X740177Y302513D01*
X733023Y302513D01*
G37*
%LPD*%
%LPC*%
G36*
X288523Y302513D02*
X288523Y302513D01*
X283463Y307573D01*
X283463Y314727D01*
X288523Y319787D01*
X295677Y319787D01*
X300737Y314727D01*
X300737Y307573D01*
X295677Y302513D01*
X288523Y302513D01*
G37*
%LPD*%
%LPC*%
G36*
X377423Y302513D02*
X377423Y302513D01*
X372363Y307573D01*
X372363Y314727D01*
X377423Y319787D01*
X384577Y319787D01*
X389637Y314727D01*
X389637Y307573D01*
X384577Y302513D01*
X377423Y302513D01*
G37*
%LPD*%
%LPC*%
G36*
X377423Y105663D02*
X377423Y105663D01*
X372363Y110723D01*
X372363Y117877D01*
X377423Y122937D01*
X384577Y122937D01*
X389637Y117877D01*
X389637Y110723D01*
X384577Y105663D01*
X377423Y105663D01*
G37*
%LPD*%
%LPC*%
G36*
X453623Y29463D02*
X453623Y29463D01*
X448563Y34523D01*
X448563Y41677D01*
X453623Y46737D01*
X460777Y46737D01*
X465837Y41677D01*
X465837Y34523D01*
X460777Y29463D01*
X453623Y29463D01*
G37*
%LPD*%
%LPC*%
G36*
X352023Y92963D02*
X352023Y92963D01*
X346963Y98023D01*
X346963Y105177D01*
X352023Y110237D01*
X359177Y110237D01*
X364237Y105177D01*
X364237Y98023D01*
X359177Y92963D01*
X352023Y92963D01*
G37*
%LPD*%
%LPC*%
G36*
X936223Y86613D02*
X936223Y86613D01*
X931163Y91673D01*
X931163Y98827D01*
X936223Y103887D01*
X943377Y103887D01*
X948437Y98827D01*
X948437Y91673D01*
X943377Y86613D01*
X936223Y86613D01*
G37*
%LPD*%
%LPC*%
G36*
X428223Y239013D02*
X428223Y239013D01*
X423163Y244073D01*
X423163Y251227D01*
X428223Y256287D01*
X435377Y256287D01*
X440437Y251227D01*
X440437Y244073D01*
X435377Y239013D01*
X428223Y239013D01*
G37*
%LPD*%
%LPC*%
G36*
X504423Y239013D02*
X504423Y239013D01*
X499363Y244073D01*
X499363Y251227D01*
X504423Y256287D01*
X511577Y256287D01*
X516637Y251227D01*
X516637Y244073D01*
X511577Y239013D01*
X504423Y239013D01*
G37*
%LPD*%
%LPC*%
G36*
X352023Y239013D02*
X352023Y239013D01*
X346963Y244073D01*
X346963Y251227D01*
X352023Y256287D01*
X359177Y256287D01*
X364237Y251227D01*
X364237Y244073D01*
X359177Y239013D01*
X352023Y239013D01*
G37*
%LPD*%
%LPC*%
G36*
X27939Y27939D02*
X27939Y27939D01*
X27939Y42879D01*
X29300Y42436D01*
X30725Y41710D01*
X32019Y40770D01*
X33150Y39639D01*
X34090Y38345D01*
X34816Y36920D01*
X35311Y35399D01*
X35561Y33820D01*
X35561Y27939D01*
X27939Y27939D01*
G37*
%LPD*%
%LPC*%
G36*
X15239Y27939D02*
X15239Y27939D01*
X15239Y33820D01*
X15489Y35399D01*
X15984Y36920D01*
X16710Y38345D01*
X17650Y39639D01*
X18781Y40770D01*
X20075Y41710D01*
X21500Y42436D01*
X22861Y42879D01*
X22861Y27939D01*
X15239Y27939D01*
G37*
%LPD*%
%LPC*%
G36*
X510031Y217931D02*
X510031Y217931D01*
X510031Y231441D01*
X510141Y231424D01*
X511510Y230979D01*
X512793Y230325D01*
X513957Y229479D01*
X514975Y228461D01*
X515821Y227297D01*
X516475Y226014D01*
X516920Y224645D01*
X517145Y223224D01*
X517145Y217931D01*
X510031Y217931D01*
G37*
%LPD*%
%LPC*%
G36*
X941831Y217931D02*
X941831Y217931D01*
X941831Y231441D01*
X941941Y231424D01*
X943310Y230979D01*
X944593Y230325D01*
X945757Y229479D01*
X946775Y228461D01*
X947621Y227297D01*
X948275Y226014D01*
X948720Y224645D01*
X948945Y223224D01*
X948945Y217931D01*
X941831Y217931D01*
G37*
%LPD*%
%LPC*%
G36*
X941831Y213869D02*
X941831Y213869D01*
X948945Y213869D01*
X948945Y208576D01*
X948720Y207155D01*
X948275Y205786D01*
X947621Y204503D01*
X946775Y203339D01*
X945757Y202321D01*
X944593Y201475D01*
X943310Y200821D01*
X941941Y200376D01*
X941831Y200359D01*
X941831Y213869D01*
G37*
%LPD*%
%LPC*%
G36*
X510031Y213869D02*
X510031Y213869D01*
X517145Y213869D01*
X517145Y208576D01*
X516920Y207155D01*
X516475Y205786D01*
X515821Y204503D01*
X514975Y203339D01*
X513957Y202321D01*
X512793Y201475D01*
X511510Y200821D01*
X510141Y200376D01*
X510031Y200359D01*
X510031Y213869D01*
G37*
%LPD*%
%LPC*%
G36*
X930655Y217931D02*
X930655Y217931D01*
X930655Y223224D01*
X930880Y224645D01*
X931325Y226014D01*
X931979Y227297D01*
X932825Y228461D01*
X933843Y229479D01*
X935007Y230325D01*
X936290Y230979D01*
X937659Y231424D01*
X937769Y231441D01*
X937769Y217931D01*
X930655Y217931D01*
G37*
%LPD*%
%LPC*%
G36*
X498855Y217931D02*
X498855Y217931D01*
X498855Y223224D01*
X499080Y224645D01*
X499525Y226014D01*
X500179Y227297D01*
X501025Y228461D01*
X502043Y229479D01*
X503207Y230325D01*
X504490Y230979D01*
X505859Y231424D01*
X505969Y231441D01*
X505969Y217931D01*
X498855Y217931D01*
G37*
%LPD*%
%LPC*%
G36*
X505859Y200376D02*
X505859Y200376D01*
X504490Y200821D01*
X503207Y201475D01*
X502043Y202321D01*
X501025Y203339D01*
X500179Y204503D01*
X499525Y205786D01*
X499080Y207155D01*
X498855Y208576D01*
X498855Y213869D01*
X505969Y213869D01*
X505969Y200359D01*
X505859Y200376D01*
G37*
%LPD*%
%LPC*%
G36*
X937659Y200376D02*
X937659Y200376D01*
X936290Y200821D01*
X935007Y201475D01*
X933843Y202321D01*
X932825Y203339D01*
X931979Y204503D01*
X931325Y205786D01*
X930880Y207155D01*
X930655Y208576D01*
X930655Y213869D01*
X937769Y213869D01*
X937769Y200359D01*
X937659Y200376D01*
G37*
%LPD*%
%LPC*%
G36*
X141731Y97281D02*
X141731Y97281D01*
X141731Y105792D01*
X144067Y105792D01*
X150242Y99617D01*
X150242Y97281D01*
X141731Y97281D01*
G37*
%LPD*%
%LPC*%
G36*
X846581Y281431D02*
X846581Y281431D01*
X846581Y289942D01*
X848917Y289942D01*
X855092Y283767D01*
X855092Y281431D01*
X846581Y281431D01*
G37*
%LPD*%
%LPC*%
G36*
X941831Y262381D02*
X941831Y262381D01*
X941831Y270892D01*
X944167Y270892D01*
X950342Y264717D01*
X950342Y262381D01*
X941831Y262381D01*
G37*
%LPD*%
%LPC*%
G36*
X834008Y281431D02*
X834008Y281431D01*
X834008Y283767D01*
X840183Y289942D01*
X842519Y289942D01*
X842519Y281431D01*
X834008Y281431D01*
G37*
%LPD*%
%LPC*%
G36*
X129158Y97281D02*
X129158Y97281D01*
X129158Y99617D01*
X135333Y105792D01*
X137669Y105792D01*
X137669Y97281D01*
X129158Y97281D01*
G37*
%LPD*%
%LPC*%
G36*
X846581Y268858D02*
X846581Y268858D01*
X846581Y277369D01*
X855092Y277369D01*
X855092Y275033D01*
X848917Y268858D01*
X846581Y268858D01*
G37*
%LPD*%
%LPC*%
G36*
X941831Y249808D02*
X941831Y249808D01*
X941831Y258319D01*
X950342Y258319D01*
X950342Y255983D01*
X944167Y249808D01*
X941831Y249808D01*
G37*
%LPD*%
%LPC*%
G36*
X929258Y262381D02*
X929258Y262381D01*
X929258Y264717D01*
X935433Y270892D01*
X937769Y270892D01*
X937769Y262381D01*
X929258Y262381D01*
G37*
%LPD*%
%LPC*%
G36*
X141731Y84708D02*
X141731Y84708D01*
X141731Y93219D01*
X150242Y93219D01*
X150242Y90883D01*
X144067Y84708D01*
X141731Y84708D01*
G37*
%LPD*%
%LPC*%
G36*
X935433Y249808D02*
X935433Y249808D01*
X929258Y255983D01*
X929258Y258319D01*
X937769Y258319D01*
X937769Y249808D01*
X935433Y249808D01*
G37*
%LPD*%
%LPC*%
G36*
X135333Y84708D02*
X135333Y84708D01*
X129158Y90883D01*
X129158Y93219D01*
X137669Y93219D01*
X137669Y84708D01*
X135333Y84708D01*
G37*
%LPD*%
%LPC*%
G36*
X840183Y268858D02*
X840183Y268858D01*
X834008Y275033D01*
X834008Y277369D01*
X842519Y277369D01*
X842519Y268858D01*
X840183Y268858D01*
G37*
%LPD*%
%LPC*%
G36*
X173481Y256031D02*
X173481Y256031D01*
X173481Y264351D01*
X173919Y264282D01*
X175497Y263769D01*
X176975Y263016D01*
X178317Y262041D01*
X179491Y260867D01*
X180466Y259525D01*
X181219Y258047D01*
X181732Y256469D01*
X181801Y256031D01*
X173481Y256031D01*
G37*
%LPD*%
%LPC*%
G36*
X161099Y256031D02*
X161099Y256031D01*
X161168Y256469D01*
X161681Y258047D01*
X162434Y259525D01*
X163409Y260867D01*
X164583Y262041D01*
X165925Y263016D01*
X167403Y263769D01*
X168981Y264282D01*
X169419Y264351D01*
X169419Y256031D01*
X161099Y256031D01*
G37*
%LPD*%
%LPC*%
G36*
X173481Y251969D02*
X173481Y251969D01*
X181801Y251969D01*
X181732Y251531D01*
X181219Y249953D01*
X180466Y248475D01*
X179491Y247133D01*
X178317Y245959D01*
X176975Y244984D01*
X175497Y244231D01*
X173919Y243718D01*
X173481Y243649D01*
X173481Y251969D01*
G37*
%LPD*%
%LPC*%
G36*
X168981Y243718D02*
X168981Y243718D01*
X167403Y244231D01*
X165925Y244984D01*
X164583Y245959D01*
X163409Y247133D01*
X162434Y248475D01*
X161681Y249953D01*
X161168Y251531D01*
X161099Y251969D01*
X169419Y251969D01*
X169419Y243649D01*
X168981Y243718D01*
G37*
%LPD*%
%LPC*%
G36*
X53085Y211835D02*
X53085Y211835D01*
X53085Y219203D01*
X54798Y219203D01*
X60453Y213548D01*
X60453Y211835D01*
X53085Y211835D01*
G37*
%LPD*%
%LPC*%
G36*
X53085Y237235D02*
X53085Y237235D01*
X53085Y244603D01*
X54798Y244603D01*
X60453Y238948D01*
X60453Y237235D01*
X53085Y237235D01*
G37*
%LPD*%
%LPC*%
G36*
X53085Y262635D02*
X53085Y262635D01*
X53085Y270003D01*
X54798Y270003D01*
X60453Y264348D01*
X60453Y262635D01*
X53085Y262635D01*
G37*
%LPD*%
%LPC*%
G36*
X78485Y237235D02*
X78485Y237235D01*
X78485Y244603D01*
X80198Y244603D01*
X85853Y238948D01*
X85853Y237235D01*
X78485Y237235D01*
G37*
%LPD*%
%LPC*%
G36*
X78485Y211835D02*
X78485Y211835D01*
X78485Y219203D01*
X80198Y219203D01*
X85853Y213548D01*
X85853Y211835D01*
X78485Y211835D01*
G37*
%LPD*%
%LPC*%
G36*
X78485Y262635D02*
X78485Y262635D01*
X78485Y270003D01*
X80198Y270003D01*
X85853Y264348D01*
X85853Y262635D01*
X78485Y262635D01*
G37*
%LPD*%
%LPC*%
G36*
X66547Y237235D02*
X66547Y237235D01*
X66547Y238948D01*
X72202Y244603D01*
X73915Y244603D01*
X73915Y237235D01*
X66547Y237235D01*
G37*
%LPD*%
%LPC*%
G36*
X41147Y237235D02*
X41147Y237235D01*
X41147Y238948D01*
X46802Y244603D01*
X48515Y244603D01*
X48515Y237235D01*
X41147Y237235D01*
G37*
%LPD*%
%LPC*%
G36*
X53085Y225297D02*
X53085Y225297D01*
X53085Y232665D01*
X60453Y232665D01*
X60453Y230952D01*
X54798Y225297D01*
X53085Y225297D01*
G37*
%LPD*%
%LPC*%
G36*
X53085Y199897D02*
X53085Y199897D01*
X53085Y207265D01*
X60453Y207265D01*
X60453Y205552D01*
X54798Y199897D01*
X53085Y199897D01*
G37*
%LPD*%
%LPC*%
G36*
X78485Y225297D02*
X78485Y225297D01*
X78485Y232665D01*
X85853Y232665D01*
X85853Y230952D01*
X80198Y225297D01*
X78485Y225297D01*
G37*
%LPD*%
%LPC*%
G36*
X78485Y199897D02*
X78485Y199897D01*
X78485Y207265D01*
X85853Y207265D01*
X85853Y205552D01*
X80198Y199897D01*
X78485Y199897D01*
G37*
%LPD*%
%LPC*%
G36*
X66547Y211835D02*
X66547Y211835D01*
X66547Y213548D01*
X72202Y219203D01*
X73915Y219203D01*
X73915Y211835D01*
X66547Y211835D01*
G37*
%LPD*%
%LPC*%
G36*
X41147Y262635D02*
X41147Y262635D01*
X41147Y264348D01*
X46802Y270003D01*
X48515Y270003D01*
X48515Y262635D01*
X41147Y262635D01*
G37*
%LPD*%
%LPC*%
G36*
X41147Y211835D02*
X41147Y211835D01*
X41147Y213548D01*
X46802Y219203D01*
X48515Y219203D01*
X48515Y211835D01*
X41147Y211835D01*
G37*
%LPD*%
%LPC*%
G36*
X53085Y250697D02*
X53085Y250697D01*
X53085Y258065D01*
X60453Y258065D01*
X60453Y256352D01*
X54798Y250697D01*
X53085Y250697D01*
G37*
%LPD*%
%LPC*%
G36*
X78485Y250697D02*
X78485Y250697D01*
X78485Y258065D01*
X85853Y258065D01*
X85853Y256352D01*
X80198Y250697D01*
X78485Y250697D01*
G37*
%LPD*%
%LPC*%
G36*
X66547Y262635D02*
X66547Y262635D01*
X66547Y264348D01*
X72202Y270003D01*
X73915Y270003D01*
X73915Y262635D01*
X66547Y262635D01*
G37*
%LPD*%
%LPC*%
G36*
X72202Y250697D02*
X72202Y250697D01*
X66547Y256352D01*
X66547Y258065D01*
X73915Y258065D01*
X73915Y250697D01*
X72202Y250697D01*
G37*
%LPD*%
%LPC*%
G36*
X46802Y250697D02*
X46802Y250697D01*
X41147Y256352D01*
X41147Y258065D01*
X48515Y258065D01*
X48515Y250697D01*
X46802Y250697D01*
G37*
%LPD*%
%LPC*%
G36*
X46802Y225297D02*
X46802Y225297D01*
X41147Y230952D01*
X41147Y232665D01*
X48515Y232665D01*
X48515Y225297D01*
X46802Y225297D01*
G37*
%LPD*%
%LPC*%
G36*
X46802Y199897D02*
X46802Y199897D01*
X41147Y205552D01*
X41147Y207265D01*
X48515Y207265D01*
X48515Y199897D01*
X46802Y199897D01*
G37*
%LPD*%
%LPC*%
G36*
X72202Y199897D02*
X72202Y199897D01*
X66547Y205552D01*
X66547Y207265D01*
X73915Y207265D01*
X73915Y199897D01*
X72202Y199897D01*
G37*
%LPD*%
%LPC*%
G36*
X72202Y225297D02*
X72202Y225297D01*
X66547Y230952D01*
X66547Y232665D01*
X73915Y232665D01*
X73915Y225297D01*
X72202Y225297D01*
G37*
%LPD*%
%LPC*%
G36*
X764031Y313181D02*
X764031Y313181D01*
X764031Y320295D01*
X765788Y320295D01*
X771145Y314938D01*
X771145Y313181D01*
X764031Y313181D01*
G37*
%LPD*%
%LPC*%
G36*
X217931Y313181D02*
X217931Y313181D01*
X217931Y320295D01*
X219688Y320295D01*
X225045Y314938D01*
X225045Y313181D01*
X217931Y313181D01*
G37*
%LPD*%
%LPC*%
G36*
X357631Y52831D02*
X357631Y52831D01*
X357631Y59945D01*
X359388Y59945D01*
X364745Y54588D01*
X364745Y52831D01*
X357631Y52831D01*
G37*
%LPD*%
%LPC*%
G36*
X484631Y52831D02*
X484631Y52831D01*
X484631Y59945D01*
X486388Y59945D01*
X491745Y54588D01*
X491745Y52831D01*
X484631Y52831D01*
G37*
%LPD*%
%LPC*%
G36*
X764031Y59181D02*
X764031Y59181D01*
X764031Y66295D01*
X765788Y66295D01*
X771145Y60938D01*
X771145Y59181D01*
X764031Y59181D01*
G37*
%LPD*%
%LPC*%
G36*
X687831Y325881D02*
X687831Y325881D01*
X687831Y332995D01*
X689588Y332995D01*
X694945Y327638D01*
X694945Y325881D01*
X687831Y325881D01*
G37*
%LPD*%
%LPC*%
G36*
X713231Y325881D02*
X713231Y325881D01*
X713231Y332995D01*
X714988Y332995D01*
X720345Y327638D01*
X720345Y325881D01*
X713231Y325881D01*
G37*
%LPD*%
%LPC*%
G36*
X840231Y205231D02*
X840231Y205231D01*
X840231Y212345D01*
X841988Y212345D01*
X847345Y206988D01*
X847345Y205231D01*
X840231Y205231D01*
G37*
%LPD*%
%LPC*%
G36*
X611631Y205231D02*
X611631Y205231D01*
X611631Y212345D01*
X613388Y212345D01*
X618745Y206988D01*
X618745Y205231D01*
X611631Y205231D01*
G37*
%LPD*%
%LPC*%
G36*
X357631Y325881D02*
X357631Y325881D01*
X357631Y332995D01*
X359388Y332995D01*
X364745Y327638D01*
X364745Y325881D01*
X357631Y325881D01*
G37*
%LPD*%
%LPC*%
G36*
X967231Y205231D02*
X967231Y205231D01*
X967231Y212345D01*
X968988Y212345D01*
X974345Y206988D01*
X974345Y205231D01*
X967231Y205231D01*
G37*
%LPD*%
%LPC*%
G36*
X459231Y325881D02*
X459231Y325881D01*
X459231Y332995D01*
X460988Y332995D01*
X466345Y327638D01*
X466345Y325881D01*
X459231Y325881D01*
G37*
%LPD*%
%LPC*%
G36*
X814831Y154431D02*
X814831Y154431D01*
X814831Y161545D01*
X816588Y161545D01*
X821945Y156188D01*
X821945Y154431D01*
X814831Y154431D01*
G37*
%LPD*%
%LPC*%
G36*
X687831Y40131D02*
X687831Y40131D01*
X687831Y47245D01*
X689588Y47245D01*
X694945Y41888D01*
X694945Y40131D01*
X687831Y40131D01*
G37*
%LPD*%
%LPC*%
G36*
X586231Y154431D02*
X586231Y154431D01*
X586231Y161545D01*
X587988Y161545D01*
X593345Y156188D01*
X593345Y154431D01*
X586231Y154431D01*
G37*
%LPD*%
%LPC*%
G36*
X535431Y40131D02*
X535431Y40131D01*
X535431Y47245D01*
X537188Y47245D01*
X542545Y41888D01*
X542545Y40131D01*
X535431Y40131D01*
G37*
%LPD*%
%LPC*%
G36*
X383031Y205231D02*
X383031Y205231D01*
X383031Y212345D01*
X384788Y212345D01*
X390145Y206988D01*
X390145Y205231D01*
X383031Y205231D01*
G37*
%LPD*%
%LPC*%
G36*
X230631Y205231D02*
X230631Y205231D01*
X230631Y212345D01*
X232388Y212345D01*
X237745Y206988D01*
X237745Y205231D01*
X230631Y205231D01*
G37*
%LPD*%
%LPC*%
G36*
X433831Y40131D02*
X433831Y40131D01*
X433831Y47245D01*
X435588Y47245D01*
X440945Y41888D01*
X440945Y40131D01*
X433831Y40131D01*
G37*
%LPD*%
%LPC*%
G36*
X217931Y287781D02*
X217931Y287781D01*
X217931Y294895D01*
X219688Y294895D01*
X225045Y289538D01*
X225045Y287781D01*
X217931Y287781D01*
G37*
%LPD*%
%LPC*%
G36*
X206755Y287781D02*
X206755Y287781D01*
X206755Y289538D01*
X212112Y294895D01*
X213869Y294895D01*
X213869Y287781D01*
X206755Y287781D01*
G37*
%LPD*%
%LPC*%
G36*
X206755Y313181D02*
X206755Y313181D01*
X206755Y314938D01*
X212112Y320295D01*
X213869Y320295D01*
X213869Y313181D01*
X206755Y313181D01*
G37*
%LPD*%
%LPC*%
G36*
X600455Y205231D02*
X600455Y205231D01*
X600455Y206988D01*
X605812Y212345D01*
X607569Y212345D01*
X607569Y205231D01*
X600455Y205231D01*
G37*
%LPD*%
%LPC*%
G36*
X448055Y325881D02*
X448055Y325881D01*
X448055Y327638D01*
X453412Y332995D01*
X455169Y332995D01*
X455169Y325881D01*
X448055Y325881D01*
G37*
%LPD*%
%LPC*%
G36*
X217931Y276605D02*
X217931Y276605D01*
X217931Y283719D01*
X225045Y283719D01*
X225045Y281962D01*
X219688Y276605D01*
X217931Y276605D01*
G37*
%LPD*%
%LPC*%
G36*
X956055Y205231D02*
X956055Y205231D01*
X956055Y206988D01*
X961412Y212345D01*
X963169Y212345D01*
X963169Y205231D01*
X956055Y205231D01*
G37*
%LPD*%
%LPC*%
G36*
X217931Y302005D02*
X217931Y302005D01*
X217931Y309119D01*
X225045Y309119D01*
X225045Y307362D01*
X219688Y302005D01*
X217931Y302005D01*
G37*
%LPD*%
%LPC*%
G36*
X764031Y302005D02*
X764031Y302005D01*
X764031Y309119D01*
X771145Y309119D01*
X771145Y307362D01*
X765788Y302005D01*
X764031Y302005D01*
G37*
%LPD*%
%LPC*%
G36*
X524255Y40131D02*
X524255Y40131D01*
X524255Y41888D01*
X529612Y47245D01*
X531369Y47245D01*
X531369Y40131D01*
X524255Y40131D01*
G37*
%LPD*%
%LPC*%
G36*
X383031Y194055D02*
X383031Y194055D01*
X383031Y201169D01*
X390145Y201169D01*
X390145Y199412D01*
X384788Y194055D01*
X383031Y194055D01*
G37*
%LPD*%
%LPC*%
G36*
X752855Y313181D02*
X752855Y313181D01*
X752855Y314938D01*
X758212Y320295D01*
X759969Y320295D01*
X759969Y313181D01*
X752855Y313181D01*
G37*
%LPD*%
%LPC*%
G36*
X535431Y28955D02*
X535431Y28955D01*
X535431Y36069D01*
X542545Y36069D01*
X542545Y34312D01*
X537188Y28955D01*
X535431Y28955D01*
G37*
%LPD*%
%LPC*%
G36*
X346455Y154431D02*
X346455Y154431D01*
X346455Y156188D01*
X351812Y161545D01*
X353569Y161545D01*
X353569Y154431D01*
X346455Y154431D01*
G37*
%LPD*%
%LPC*%
G36*
X676655Y40131D02*
X676655Y40131D01*
X676655Y41888D01*
X682012Y47245D01*
X683769Y47245D01*
X683769Y40131D01*
X676655Y40131D01*
G37*
%LPD*%
%LPC*%
G36*
X575055Y154431D02*
X575055Y154431D01*
X575055Y156188D01*
X580412Y161545D01*
X582169Y161545D01*
X582169Y154431D01*
X575055Y154431D01*
G37*
%LPD*%
%LPC*%
G36*
X803655Y154431D02*
X803655Y154431D01*
X803655Y156188D01*
X809012Y161545D01*
X810769Y161545D01*
X810769Y154431D01*
X803655Y154431D01*
G37*
%LPD*%
%LPC*%
G36*
X586231Y143255D02*
X586231Y143255D01*
X586231Y150369D01*
X593345Y150369D01*
X593345Y148612D01*
X587988Y143255D01*
X586231Y143255D01*
G37*
%LPD*%
%LPC*%
G36*
X422655Y40131D02*
X422655Y40131D01*
X422655Y41888D01*
X428012Y47245D01*
X429769Y47245D01*
X429769Y40131D01*
X422655Y40131D01*
G37*
%LPD*%
%LPC*%
G36*
X814831Y143255D02*
X814831Y143255D01*
X814831Y150369D01*
X821945Y150369D01*
X821945Y148612D01*
X816588Y143255D01*
X814831Y143255D01*
G37*
%LPD*%
%LPC*%
G36*
X484631Y41655D02*
X484631Y41655D01*
X484631Y48769D01*
X491745Y48769D01*
X491745Y47012D01*
X486388Y41655D01*
X484631Y41655D01*
G37*
%LPD*%
%LPC*%
G36*
X459231Y314705D02*
X459231Y314705D01*
X459231Y321819D01*
X466345Y321819D01*
X466345Y320062D01*
X460988Y314705D01*
X459231Y314705D01*
G37*
%LPD*%
%LPC*%
G36*
X357631Y41655D02*
X357631Y41655D01*
X357631Y48769D01*
X364745Y48769D01*
X364745Y47012D01*
X359388Y41655D01*
X357631Y41655D01*
G37*
%LPD*%
%LPC*%
G36*
X687831Y314705D02*
X687831Y314705D01*
X687831Y321819D01*
X694945Y321819D01*
X694945Y320062D01*
X689588Y314705D01*
X687831Y314705D01*
G37*
%LPD*%
%LPC*%
G36*
X219455Y205231D02*
X219455Y205231D01*
X219455Y206988D01*
X224812Y212345D01*
X226569Y212345D01*
X226569Y205231D01*
X219455Y205231D01*
G37*
%LPD*%
%LPC*%
G36*
X230631Y194055D02*
X230631Y194055D01*
X230631Y201169D01*
X237745Y201169D01*
X237745Y199412D01*
X232388Y194055D01*
X230631Y194055D01*
G37*
%LPD*%
%LPC*%
G36*
X829055Y205231D02*
X829055Y205231D01*
X829055Y206988D01*
X834412Y212345D01*
X836169Y212345D01*
X836169Y205231D01*
X829055Y205231D01*
G37*
%LPD*%
%LPC*%
G36*
X713231Y314705D02*
X713231Y314705D01*
X713231Y321819D01*
X720345Y321819D01*
X720345Y320062D01*
X714988Y314705D01*
X713231Y314705D01*
G37*
%LPD*%
%LPC*%
G36*
X357631Y314705D02*
X357631Y314705D01*
X357631Y321819D01*
X364745Y321819D01*
X364745Y320062D01*
X359388Y314705D01*
X357631Y314705D01*
G37*
%LPD*%
%LPC*%
G36*
X346455Y325881D02*
X346455Y325881D01*
X346455Y327638D01*
X351812Y332995D01*
X353569Y332995D01*
X353569Y325881D01*
X346455Y325881D01*
G37*
%LPD*%
%LPC*%
G36*
X371855Y205231D02*
X371855Y205231D01*
X371855Y206988D01*
X377212Y212345D01*
X378969Y212345D01*
X378969Y205231D01*
X371855Y205231D01*
G37*
%LPD*%
%LPC*%
G36*
X967231Y194055D02*
X967231Y194055D01*
X967231Y201169D01*
X974345Y201169D01*
X974345Y199412D01*
X968988Y194055D01*
X967231Y194055D01*
G37*
%LPD*%
%LPC*%
G36*
X702055Y325881D02*
X702055Y325881D01*
X702055Y327638D01*
X707412Y332995D01*
X709169Y332995D01*
X709169Y325881D01*
X702055Y325881D01*
G37*
%LPD*%
%LPC*%
G36*
X433831Y28955D02*
X433831Y28955D01*
X433831Y36069D01*
X440945Y36069D01*
X440945Y34312D01*
X435588Y28955D01*
X433831Y28955D01*
G37*
%LPD*%
%LPC*%
G36*
X752855Y59181D02*
X752855Y59181D01*
X752855Y60938D01*
X758212Y66295D01*
X759969Y66295D01*
X759969Y59181D01*
X752855Y59181D01*
G37*
%LPD*%
%LPC*%
G36*
X840231Y194055D02*
X840231Y194055D01*
X840231Y201169D01*
X847345Y201169D01*
X847345Y199412D01*
X841988Y194055D01*
X840231Y194055D01*
G37*
%LPD*%
%LPC*%
G36*
X676655Y325881D02*
X676655Y325881D01*
X676655Y327638D01*
X682012Y332995D01*
X683769Y332995D01*
X683769Y325881D01*
X676655Y325881D01*
G37*
%LPD*%
%LPC*%
G36*
X346455Y52831D02*
X346455Y52831D01*
X346455Y54588D01*
X351812Y59945D01*
X353569Y59945D01*
X353569Y52831D01*
X346455Y52831D01*
G37*
%LPD*%
%LPC*%
G36*
X687831Y28955D02*
X687831Y28955D01*
X687831Y36069D01*
X694945Y36069D01*
X694945Y34312D01*
X689588Y28955D01*
X687831Y28955D01*
G37*
%LPD*%
%LPC*%
G36*
X473455Y52831D02*
X473455Y52831D01*
X473455Y54588D01*
X478812Y59945D01*
X480569Y59945D01*
X480569Y52831D01*
X473455Y52831D01*
G37*
%LPD*%
%LPC*%
G36*
X611631Y194055D02*
X611631Y194055D01*
X611631Y201169D01*
X618745Y201169D01*
X618745Y199412D01*
X613388Y194055D01*
X611631Y194055D01*
G37*
%LPD*%
%LPC*%
G36*
X764031Y48005D02*
X764031Y48005D01*
X764031Y55119D01*
X771145Y55119D01*
X771145Y53362D01*
X765788Y48005D01*
X764031Y48005D01*
G37*
%LPD*%
%LPC*%
G36*
X758212Y48005D02*
X758212Y48005D01*
X752855Y53362D01*
X752855Y55119D01*
X759969Y55119D01*
X759969Y48005D01*
X758212Y48005D01*
G37*
%LPD*%
%LPC*%
G36*
X707412Y314705D02*
X707412Y314705D01*
X702055Y320062D01*
X702055Y321819D01*
X709169Y321819D01*
X709169Y314705D01*
X707412Y314705D01*
G37*
%LPD*%
%LPC*%
G36*
X682012Y314705D02*
X682012Y314705D01*
X676655Y320062D01*
X676655Y321819D01*
X683769Y321819D01*
X683769Y314705D01*
X682012Y314705D01*
G37*
%LPD*%
%LPC*%
G36*
X478812Y41655D02*
X478812Y41655D01*
X473455Y47012D01*
X473455Y48769D01*
X480569Y48769D01*
X480569Y41655D01*
X478812Y41655D01*
G37*
%LPD*%
%LPC*%
G36*
X453412Y314705D02*
X453412Y314705D01*
X448055Y320062D01*
X448055Y321819D01*
X455169Y321819D01*
X455169Y314705D01*
X453412Y314705D01*
G37*
%LPD*%
%LPC*%
G36*
X351812Y41655D02*
X351812Y41655D01*
X346455Y47012D01*
X346455Y48769D01*
X353569Y48769D01*
X353569Y41655D01*
X351812Y41655D01*
G37*
%LPD*%
%LPC*%
G36*
X580412Y143255D02*
X580412Y143255D01*
X575055Y148612D01*
X575055Y150369D01*
X582169Y150369D01*
X582169Y143255D01*
X580412Y143255D01*
G37*
%LPD*%
%LPC*%
G36*
X809012Y143255D02*
X809012Y143255D01*
X803655Y148612D01*
X803655Y150369D01*
X810769Y150369D01*
X810769Y143255D01*
X809012Y143255D01*
G37*
%LPD*%
%LPC*%
G36*
X351812Y143255D02*
X351812Y143255D01*
X346455Y148612D01*
X346455Y150369D01*
X353569Y150369D01*
X353569Y143255D01*
X351812Y143255D01*
G37*
%LPD*%
%LPC*%
G36*
X351812Y314705D02*
X351812Y314705D01*
X346455Y320062D01*
X346455Y321819D01*
X353569Y321819D01*
X353569Y314705D01*
X351812Y314705D01*
G37*
%LPD*%
%LPC*%
G36*
X758212Y302005D02*
X758212Y302005D01*
X752855Y307362D01*
X752855Y309119D01*
X759969Y309119D01*
X759969Y302005D01*
X758212Y302005D01*
G37*
%LPD*%
%LPC*%
G36*
X529612Y28955D02*
X529612Y28955D01*
X524255Y34312D01*
X524255Y36069D01*
X531369Y36069D01*
X531369Y28955D01*
X529612Y28955D01*
G37*
%LPD*%
%LPC*%
G36*
X605812Y194055D02*
X605812Y194055D01*
X600455Y199412D01*
X600455Y201169D01*
X607569Y201169D01*
X607569Y194055D01*
X605812Y194055D01*
G37*
%LPD*%
%LPC*%
G36*
X224812Y194055D02*
X224812Y194055D01*
X219455Y199412D01*
X219455Y201169D01*
X226569Y201169D01*
X226569Y194055D01*
X224812Y194055D01*
G37*
%LPD*%
%LPC*%
G36*
X377212Y194055D02*
X377212Y194055D01*
X371855Y199412D01*
X371855Y201169D01*
X378969Y201169D01*
X378969Y194055D01*
X377212Y194055D01*
G37*
%LPD*%
%LPC*%
G36*
X961412Y194055D02*
X961412Y194055D01*
X956055Y199412D01*
X956055Y201169D01*
X963169Y201169D01*
X963169Y194055D01*
X961412Y194055D01*
G37*
%LPD*%
%LPC*%
G36*
X428012Y28955D02*
X428012Y28955D01*
X422655Y34312D01*
X422655Y36069D01*
X429769Y36069D01*
X429769Y28955D01*
X428012Y28955D01*
G37*
%LPD*%
%LPC*%
G36*
X834412Y194055D02*
X834412Y194055D01*
X829055Y199412D01*
X829055Y201169D01*
X836169Y201169D01*
X836169Y194055D01*
X834412Y194055D01*
G37*
%LPD*%
%LPC*%
G36*
X682012Y28955D02*
X682012Y28955D01*
X676655Y34312D01*
X676655Y36069D01*
X683769Y36069D01*
X683769Y28955D01*
X682012Y28955D01*
G37*
%LPD*%
%LPC*%
G36*
X212112Y276605D02*
X212112Y276605D01*
X206755Y281962D01*
X206755Y283719D01*
X213869Y283719D01*
X213869Y276605D01*
X212112Y276605D01*
G37*
%LPD*%
%LPC*%
G36*
X212112Y302005D02*
X212112Y302005D01*
X206755Y307362D01*
X206755Y309119D01*
X213869Y309119D01*
X213869Y302005D01*
X212112Y302005D01*
G37*
%LPD*%
D10*
X406400Y260350D03*
X406400Y311150D03*
X355600Y50800D03*
X355600Y101600D03*
X482600Y50800D03*
X482600Y101600D03*
D11*
X203200Y203200D03*
X203200Y152400D03*
D12*
X406400Y146304D02*
X406400Y133096D01*
X431800Y133096D02*
X431800Y146304D01*
X558800Y146304D02*
X558800Y133096D01*
X558800Y209296D02*
X558800Y222504D01*
X457200Y146304D02*
X457200Y133096D01*
X482600Y133096D02*
X482600Y146304D01*
X533400Y146304D02*
X533400Y133096D01*
X508000Y133096D02*
X508000Y146304D01*
X533400Y209296D02*
X533400Y222504D01*
X508000Y222504D02*
X508000Y209296D01*
X482600Y209296D02*
X482600Y222504D01*
X457200Y222504D02*
X457200Y209296D01*
X431800Y209296D02*
X431800Y222504D01*
X406400Y222504D02*
X406400Y209296D01*
X635000Y146304D02*
X635000Y133096D01*
X660400Y133096D02*
X660400Y146304D01*
X787400Y146304D02*
X787400Y133096D01*
X787400Y209296D02*
X787400Y222504D01*
X685800Y146304D02*
X685800Y133096D01*
X711200Y133096D02*
X711200Y146304D01*
X762000Y146304D02*
X762000Y133096D01*
X736600Y133096D02*
X736600Y146304D01*
X762000Y209296D02*
X762000Y222504D01*
X736600Y222504D02*
X736600Y209296D01*
X711200Y209296D02*
X711200Y222504D01*
X685800Y222504D02*
X685800Y209296D01*
X660400Y209296D02*
X660400Y222504D01*
X635000Y222504D02*
X635000Y209296D01*
D11*
X635000Y323850D03*
X635000Y247650D03*
X431800Y114300D03*
X431800Y38100D03*
X381000Y114300D03*
X381000Y38100D03*
X533400Y114300D03*
X533400Y38100D03*
X584200Y114300D03*
X584200Y38100D03*
X508000Y114300D03*
X508000Y38100D03*
D10*
X558800Y38100D03*
X558800Y114300D03*
D13*
X292100Y311150D03*
X215900Y311150D03*
D10*
X330200Y247650D03*
X330200Y323850D03*
D14*
X215900Y285750D03*
X292100Y285750D03*
D10*
X177800Y139700D03*
X177800Y215900D03*
D11*
X457200Y114300D03*
X457200Y38100D03*
D10*
X406400Y38100D03*
X406400Y114300D03*
X730250Y57150D03*
X711200Y69850D03*
X730250Y82550D03*
X762000Y57150D03*
X762000Y107950D03*
X685800Y247650D03*
X685800Y323850D03*
X660400Y247650D03*
X660400Y323850D03*
X736600Y260350D03*
X736600Y311150D03*
D11*
X711200Y323850D03*
X711200Y247650D03*
D12*
X609600Y120904D02*
X609600Y107696D01*
X609600Y44704D02*
X609600Y31496D01*
D11*
X762000Y311150D03*
X762000Y260350D03*
D12*
X939800Y222504D02*
X939800Y209296D01*
X914400Y209296D02*
X914400Y222504D01*
X914400Y146304D02*
X914400Y133096D01*
X939800Y133096D02*
X939800Y146304D01*
X889000Y209296D02*
X889000Y222504D01*
X863600Y222504D02*
X863600Y209296D01*
X889000Y146304D02*
X889000Y133096D01*
X863600Y133096D02*
X863600Y146304D01*
D11*
X838200Y203200D03*
X838200Y152400D03*
D12*
X844550Y108204D02*
X844550Y94996D01*
X844550Y32004D02*
X844550Y18796D01*
X869950Y18796D02*
X869950Y32004D01*
X869950Y94996D02*
X869950Y108204D01*
D15*
X25400Y33020D02*
X25400Y17780D01*
X50800Y17780D02*
X50800Y33020D01*
X76200Y33020D02*
X76200Y17780D01*
X101600Y17780D02*
X101600Y33020D01*
X127000Y33020D02*
X127000Y17780D01*
D16*
X146050Y254000D03*
D17*
X171450Y254000D03*
D18*
X139700Y95250D03*
D17*
X139700Y120650D03*
D19*
X76200Y184150D03*
X50800Y184150D03*
X76200Y209550D03*
X50800Y209550D03*
X76200Y234950D03*
X50800Y234950D03*
X76200Y260350D03*
X50800Y260350D03*
X76200Y285750D03*
X50800Y285750D03*
D10*
X812800Y152400D03*
X812800Y203200D03*
X584200Y152400D03*
X584200Y203200D03*
D11*
X381000Y203200D03*
X381000Y152400D03*
X609600Y203200D03*
X609600Y152400D03*
D20*
X939800Y260350D03*
D17*
X914400Y260350D03*
D10*
X939800Y95250D03*
X939800Y44450D03*
X965200Y69850D03*
X939800Y69850D03*
X660400Y38100D03*
X660400Y114300D03*
X685800Y38100D03*
X685800Y114300D03*
X787400Y247650D03*
X787400Y323850D03*
D20*
X844550Y279400D03*
D17*
X819150Y279400D03*
D10*
X609600Y247650D03*
X609600Y323850D03*
D11*
X482600Y311150D03*
X482600Y260350D03*
D10*
X508000Y247650D03*
X508000Y323850D03*
D12*
X571246Y311150D02*
X584454Y311150D01*
X584454Y260350D02*
X571246Y260350D01*
X571246Y285750D02*
X584454Y285750D01*
D11*
X457200Y323850D03*
X457200Y247650D03*
X355600Y323850D03*
X355600Y247650D03*
X431800Y323850D03*
X431800Y247650D03*
D10*
X381000Y260350D03*
X381000Y311150D03*
X533400Y247650D03*
X533400Y323850D03*
D14*
X301625Y88900D03*
X250825Y88900D03*
X276225Y63500D03*
X276225Y88900D03*
D21*
X330200Y209860D02*
X330200Y221940D01*
X304800Y221940D02*
X304800Y209860D01*
X279400Y209860D02*
X279400Y221940D01*
X254000Y221940D02*
X254000Y209860D01*
X254000Y145740D02*
X254000Y133660D01*
X279400Y133660D02*
X279400Y145740D01*
X304800Y145740D02*
X304800Y133660D01*
X330200Y133660D02*
X330200Y145740D01*
D15*
X895350Y322580D02*
X895350Y337820D01*
X920750Y337820D02*
X920750Y322580D01*
X946150Y322580D02*
X946150Y337820D01*
X971550Y337820D02*
X971550Y322580D01*
X819150Y33020D02*
X819150Y17780D01*
X793750Y17780D02*
X793750Y33020D01*
X768350Y33020D02*
X768350Y17780D01*
X742950Y17780D02*
X742950Y33020D01*
X717550Y33020D02*
X717550Y17780D01*
D10*
X355600Y152400D03*
X355600Y203200D03*
D11*
X228600Y203200D03*
X228600Y152400D03*
D10*
X965200Y152400D03*
X965200Y203200D03*
D22*
X660400Y247650D02*
X647700Y234950D01*
X647700Y171450D01*
D23*
X647700Y171450D03*
D22*
X647700Y234950D02*
X635000Y247650D01*
D23*
X184150Y311150D03*
X101600Y101600D03*
X228600Y133350D03*
X825500Y127000D03*
X831850Y57150D03*
D24*
X250825Y88900D02*
X203200Y88900D01*
X203200Y63500D01*
X190500Y50800D01*
X82550Y50800D01*
X76200Y44450D01*
X76200Y25400D01*
X203200Y88900D02*
X203200Y152400D01*
X558800Y196850D02*
X558800Y215900D01*
X558800Y196850D02*
X520700Y158750D01*
X520700Y82550D01*
D23*
X520700Y82550D03*
D24*
X419100Y127000D02*
X406400Y139700D01*
X419100Y127000D02*
X419100Y69850D01*
X419100Y50800D01*
X406400Y38100D01*
X508000Y38100D02*
X508000Y57150D01*
X495300Y69850D01*
X419100Y69850D01*
X406400Y38100D02*
X381000Y38100D01*
X533400Y114300D02*
X533400Y139700D01*
X533400Y114300D02*
X584200Y63500D01*
X584200Y38100D01*
X558800Y114300D02*
X558800Y139700D01*
X558800Y114300D02*
X584200Y114300D01*
X508000Y114300D02*
X508000Y139700D01*
X508000Y114300D02*
X495300Y101600D01*
X482600Y101600D01*
X196850Y25400D02*
X127000Y25400D01*
X196850Y25400D02*
X203200Y19050D01*
X539750Y19050D01*
X558800Y38100D01*
X209550Y247650D02*
X177800Y215900D01*
X209550Y247650D02*
X330200Y247650D01*
X330200Y215900D01*
X177800Y139700D02*
X177800Y76200D01*
X165100Y63500D01*
X63500Y63500D01*
X50800Y50800D01*
X50800Y25400D01*
X660400Y114300D02*
X660400Y139700D01*
X635000Y139700D01*
X692150Y82550D02*
X730250Y82550D01*
X692150Y82550D02*
X660400Y114300D01*
X660400Y215900D02*
X660400Y222250D01*
X685800Y247650D01*
X660400Y273050D02*
X660400Y323850D01*
X660400Y273050D02*
X685800Y247650D01*
X685800Y222250D02*
X685800Y215900D01*
X685800Y222250D02*
X711200Y247650D01*
X723900Y260350D01*
X736600Y260350D01*
X635000Y215900D02*
X635000Y203200D01*
X622300Y190500D01*
X622300Y127000D01*
X609600Y114300D01*
X679450Y57150D02*
X660400Y38100D01*
X679450Y57150D02*
X730250Y57150D01*
X660400Y38100D02*
X609600Y38100D01*
X736600Y133350D02*
X736600Y139700D01*
X736600Y133350D02*
X762000Y107950D01*
X749300Y69850D02*
X711200Y69850D01*
X749300Y69850D02*
X762000Y82550D01*
X762000Y107950D01*
X736600Y215900D02*
X736600Y222250D01*
X762000Y247650D01*
X762000Y260350D01*
X762000Y247650D02*
X787400Y247650D01*
X787400Y215900D02*
X762000Y215900D01*
X920750Y317500D02*
X920750Y330200D01*
X920750Y317500D02*
X850900Y247650D01*
X819150Y247650D01*
X787400Y215900D01*
X838200Y152400D02*
X850900Y139700D01*
X863600Y139700D01*
X889000Y139700D02*
X889000Y165100D01*
X914400Y190500D01*
X914400Y215900D01*
X914400Y260350D01*
X889000Y139700D02*
X889000Y88900D01*
X869950Y69850D01*
X869950Y25400D01*
X793750Y25400D02*
X793750Y44450D01*
X819150Y69850D01*
X869950Y69850D01*
X946150Y317500D02*
X946150Y330200D01*
X946150Y317500D02*
X889000Y260350D01*
X889000Y215900D01*
X609600Y247650D02*
X596900Y260350D01*
X577850Y260350D01*
X495300Y311150D02*
X482600Y311150D01*
X495300Y311150D02*
X546100Y260350D01*
X577850Y260350D01*
X546100Y285750D02*
X508000Y323850D01*
X546100Y285750D02*
X577850Y285750D01*
X457200Y247650D02*
X457200Y215900D01*
X469900Y247650D02*
X482600Y260350D01*
X469900Y247650D02*
X457200Y247650D01*
X406400Y234950D02*
X406400Y215900D01*
X406400Y234950D02*
X381000Y260350D01*
X381000Y273050D01*
X406400Y298450D01*
X406400Y311150D01*
X419100Y323850D01*
X431800Y323850D01*
X533400Y247650D02*
X533400Y215900D01*
X317500Y88900D02*
X301625Y88900D01*
X317500Y88900D02*
X368300Y139700D01*
X368300Y165100D01*
X381000Y177800D01*
X520700Y177800D01*
X533400Y190500D01*
X533400Y215900D01*
M02*
