M48
;GenerationSoftware,Autodesk,EAGLE,9.6.2*%
;CreationDate,2022-05-04T20:48:13Z*%
FMAT,2
ICI,OFF
METRIC,TZ,000.000
T6C0.600
T5C0.700
T4C0.813
T3C0.914
T2C1.016
T1C3.200
%
G90
M71
T1
X13970Y33020
T2
X71755Y2540
X74295Y2540
X76835Y2540
X79375Y2540
X81915Y2540
X97155Y33020
X94615Y33020
X92075Y33020
X89535Y33020
X12700Y2540
X10160Y2540
X7620Y2540
X5080Y2540
X2540Y2540
T3
X5080Y28575
X7620Y28575
X5080Y26035
X7620Y26035
X5080Y23495
X7620Y23495
X5080Y20955
X7620Y20955
X5080Y18415
X7620Y18415
T4
X50800Y21590
X48260Y21590
X45720Y21590
X43180Y21590
X40640Y21590
X63500Y13970
X66040Y13970
X78740Y13970
X78740Y21590
X68580Y13970
X71120Y13970
X76200Y13970
X73660Y13970
X76200Y21590
X73660Y21590
X71120Y21590
X68580Y21590
X66040Y21590
X63500Y21590
X63500Y32385
X63500Y24765
X43180Y11430
X43180Y3810
X38100Y11430
X38100Y3810
X53340Y11430
X53340Y3810
X58420Y11430
X58420Y3810
X50800Y11430
X50800Y3810
X55880Y3810
X55880Y11430
X29210Y31115
X21590Y31115
X33020Y24765
X33020Y32385
X21590Y28575
X29210Y28575
X17780Y13970
X17780Y21590
X45720Y11430
X45720Y3810
X40640Y3810
X40640Y11430
X73025Y5715
X71120Y6985
X73025Y8255
X76200Y5715
X76200Y10795
X68580Y24765
X68580Y32385
X66040Y24765
X66040Y32385
X73660Y26035
X73660Y31115
X71120Y32385
X71120Y24765
X60960Y11430
X60960Y3810
X76200Y31115
X76200Y26035
X93980Y21590
X91440Y21590
X91440Y13970
X93980Y13970
X88900Y21590
X86360Y21590
X88900Y13970
X96520Y20320
X83820Y20320
X83820Y15240
X84455Y10160
X84455Y2540
X86995Y2540
X86995Y10160
X53340Y21590
X50800Y13970
X53340Y13970
X48260Y13970
X45720Y13970
X14605Y25400
X17145Y25400
X13970Y9525
X13970Y12065
X55880Y21590
X55880Y13970
X43180Y13970
X40640Y13970
X20320Y15240
X20320Y20320
X48260Y10160
X48260Y5080
X35560Y10160
X35560Y5080
X81280Y15240
X81280Y20320
X58420Y15240
X58420Y20320
X38100Y20320
X38100Y15240
X60960Y20320
X60960Y15240
X93980Y26035
X91440Y26035
X93980Y9525
X93980Y4445
X96520Y6985
X93980Y6985
X66040Y3810
X66040Y11430
X68580Y3810
X68580Y11430
X78740Y24765
X78740Y32385
X84455Y27940
X81915Y27940
X60960Y24765
X60960Y32385
X48260Y31115
X48260Y26035
X50800Y24765
X50800Y32385
X57785Y31115
X57785Y26035
X57785Y28575
X45720Y32385
X45720Y24765
X35560Y32385
X35560Y24765
X43180Y32385
X43180Y24765
X38100Y26035
X38100Y31115
X53340Y24765
X53340Y32385
X30162Y8890
X25082Y8890
X27622Y6350
X27622Y8890
X96520Y15240
X22860Y15240
X22860Y20320
X35560Y20320
X35560Y15240
X86360Y13970
X40640Y26035
X40640Y31115
T5
X33020Y13970
X30480Y13970
X27940Y13970
X25400Y13970
X25400Y21590
X27940Y21590
X30480Y21590
X33020Y21590
T6
X52070Y8255
X83185Y5715
X82550Y12700
X22860Y13335
X10160Y10160
X18415Y31115
X64770Y17145
M30