G04 EAGLE Gerber RS-274X export*
G75*
%MOMM*%
%FSLAX34Y34*%
%LPD*%
%IN*%
%IPPOS*%
%AMOC8*
5,1,8,0,0,1.08239X$1,22.5*%
G01*
%ADD10C,0.254000*%


D10*
X0Y0D02*
X990600Y0D01*
X990600Y355600D01*
X0Y355600D01*
X0Y0D01*
X155700Y329676D02*
X155632Y328631D01*
X155495Y327592D01*
X155290Y326565D01*
X155019Y325553D01*
X154683Y324561D01*
X154282Y323593D01*
X153818Y322654D01*
X153295Y321746D01*
X152713Y320875D01*
X152075Y320044D01*
X151384Y319257D01*
X150643Y318516D01*
X149856Y317825D01*
X149025Y317188D01*
X148154Y316606D01*
X147246Y316082D01*
X146307Y315618D01*
X145339Y315217D01*
X144347Y314881D01*
X143335Y314610D01*
X142308Y314405D01*
X141269Y314269D01*
X140224Y314200D01*
X139176Y314200D01*
X138131Y314269D01*
X137092Y314405D01*
X136065Y314610D01*
X135053Y314881D01*
X134061Y315217D01*
X133093Y315618D01*
X132154Y316082D01*
X131246Y316606D01*
X130375Y317188D01*
X129544Y317825D01*
X128757Y318516D01*
X128016Y319257D01*
X127325Y320044D01*
X126688Y320875D01*
X126106Y321746D01*
X125582Y322654D01*
X125118Y323593D01*
X124717Y324561D01*
X124381Y325553D01*
X124110Y326565D01*
X123905Y327592D01*
X123769Y328631D01*
X123700Y329676D01*
X123700Y330724D01*
X123769Y331769D01*
X123905Y332808D01*
X124110Y333835D01*
X124381Y334847D01*
X124717Y335839D01*
X125118Y336807D01*
X125582Y337746D01*
X126106Y338654D01*
X126688Y339525D01*
X127325Y340356D01*
X128016Y341143D01*
X128757Y341884D01*
X129544Y342575D01*
X130375Y343213D01*
X131246Y343795D01*
X132154Y344318D01*
X133093Y344782D01*
X134061Y345183D01*
X135053Y345519D01*
X136065Y345790D01*
X137092Y345995D01*
X138131Y346132D01*
X139176Y346200D01*
X140224Y346200D01*
X141269Y346132D01*
X142308Y345995D01*
X143335Y345790D01*
X144347Y345519D01*
X145339Y345183D01*
X146307Y344782D01*
X147246Y344318D01*
X148154Y343795D01*
X149025Y343213D01*
X149856Y342575D01*
X150643Y341884D01*
X151384Y341143D01*
X152075Y340356D01*
X152713Y339525D01*
X153295Y338654D01*
X153818Y337746D01*
X154282Y336807D01*
X154683Y335839D01*
X155019Y334847D01*
X155290Y333835D01*
X155495Y332808D01*
X155632Y331769D01*
X155700Y330724D01*
X155700Y329676D01*
M02*
