G04 EAGLE Gerber RS-274X export*
G75*
%MOMM*%
%FSLAX34Y34*%
%LPD*%
%INSoldermask Top*%
%IPPOS*%
%AMOC8*
5,1,8,0,0,1.08239X$1,22.5*%
G01*
%ADD10C,3.403200*%
%ADD11P,1.649562X8X112.500000*%
%ADD12P,1.649562X8X292.500000*%
%ADD13C,1.524000*%
%ADD14P,1.649562X8X202.500000*%
%ADD15P,1.649562X8X22.500000*%
%ADD16C,1.727200*%
%ADD17P,1.951982X8X202.500000*%
%ADD18C,1.803400*%
%ADD19P,1.951982X8X292.500000*%
%ADD20P,1.759533X8X112.500000*%
%ADD21P,1.951982X8X22.500000*%
%ADD22C,1.411200*%
%ADD23R,1.209600X1.209600*%


D10*
X139700Y330200D03*
D11*
X406400Y260350D03*
X406400Y311150D03*
X355600Y50800D03*
X355600Y101600D03*
X482600Y50800D03*
X482600Y101600D03*
D12*
X203200Y203200D03*
X203200Y152400D03*
D13*
X406400Y146304D02*
X406400Y133096D01*
X431800Y133096D02*
X431800Y146304D01*
X558800Y146304D02*
X558800Y133096D01*
X558800Y209296D02*
X558800Y222504D01*
X457200Y146304D02*
X457200Y133096D01*
X482600Y133096D02*
X482600Y146304D01*
X533400Y146304D02*
X533400Y133096D01*
X508000Y133096D02*
X508000Y146304D01*
X533400Y209296D02*
X533400Y222504D01*
X508000Y222504D02*
X508000Y209296D01*
X482600Y209296D02*
X482600Y222504D01*
X457200Y222504D02*
X457200Y209296D01*
X431800Y209296D02*
X431800Y222504D01*
X406400Y222504D02*
X406400Y209296D01*
X635000Y146304D02*
X635000Y133096D01*
X660400Y133096D02*
X660400Y146304D01*
X787400Y146304D02*
X787400Y133096D01*
X787400Y209296D02*
X787400Y222504D01*
X685800Y146304D02*
X685800Y133096D01*
X711200Y133096D02*
X711200Y146304D01*
X762000Y146304D02*
X762000Y133096D01*
X736600Y133096D02*
X736600Y146304D01*
X762000Y209296D02*
X762000Y222504D01*
X736600Y222504D02*
X736600Y209296D01*
X711200Y209296D02*
X711200Y222504D01*
X685800Y222504D02*
X685800Y209296D01*
X660400Y209296D02*
X660400Y222504D01*
X635000Y222504D02*
X635000Y209296D01*
D12*
X635000Y323850D03*
X635000Y247650D03*
X431800Y114300D03*
X431800Y38100D03*
X381000Y114300D03*
X381000Y38100D03*
X533400Y114300D03*
X533400Y38100D03*
X584200Y114300D03*
X584200Y38100D03*
X508000Y114300D03*
X508000Y38100D03*
D11*
X558800Y38100D03*
X558800Y114300D03*
D14*
X292100Y311150D03*
X215900Y311150D03*
D11*
X330200Y247650D03*
X330200Y323850D03*
D15*
X215900Y285750D03*
X292100Y285750D03*
D11*
X177800Y139700D03*
X177800Y215900D03*
D12*
X457200Y114300D03*
X457200Y38100D03*
D11*
X406400Y38100D03*
X406400Y114300D03*
X730250Y57150D03*
X711200Y69850D03*
X730250Y82550D03*
X762000Y57150D03*
X762000Y107950D03*
X685800Y247650D03*
X685800Y323850D03*
X660400Y247650D03*
X660400Y323850D03*
X736600Y260350D03*
X736600Y311150D03*
D12*
X711200Y323850D03*
X711200Y247650D03*
D13*
X609600Y120904D02*
X609600Y107696D01*
X609600Y44704D02*
X609600Y31496D01*
D12*
X762000Y311150D03*
X762000Y260350D03*
D13*
X939800Y222504D02*
X939800Y209296D01*
X914400Y209296D02*
X914400Y222504D01*
X914400Y146304D02*
X914400Y133096D01*
X939800Y133096D02*
X939800Y146304D01*
X889000Y209296D02*
X889000Y222504D01*
X863600Y222504D02*
X863600Y209296D01*
X889000Y146304D02*
X889000Y133096D01*
X863600Y133096D02*
X863600Y146304D01*
D12*
X838200Y203200D03*
X838200Y152400D03*
D13*
X844550Y108204D02*
X844550Y94996D01*
X844550Y32004D02*
X844550Y18796D01*
X869950Y18796D02*
X869950Y32004D01*
X869950Y94996D02*
X869950Y108204D01*
D16*
X25400Y33020D02*
X25400Y17780D01*
X50800Y17780D02*
X50800Y33020D01*
X76200Y33020D02*
X76200Y17780D01*
X101600Y17780D02*
X101600Y33020D01*
X127000Y33020D02*
X127000Y17780D01*
D17*
X146050Y254000D03*
D18*
X171450Y254000D03*
D19*
X139700Y95250D03*
D18*
X139700Y120650D03*
D20*
X76200Y184150D03*
X50800Y184150D03*
X76200Y209550D03*
X50800Y209550D03*
X76200Y234950D03*
X50800Y234950D03*
X76200Y260350D03*
X50800Y260350D03*
X76200Y285750D03*
X50800Y285750D03*
D11*
X812800Y152400D03*
X812800Y203200D03*
X584200Y152400D03*
X584200Y203200D03*
D12*
X381000Y203200D03*
X381000Y152400D03*
X609600Y203200D03*
X609600Y152400D03*
D21*
X939800Y260350D03*
D18*
X914400Y260350D03*
D11*
X939800Y95250D03*
X939800Y44450D03*
X965200Y69850D03*
X939800Y69850D03*
X660400Y38100D03*
X660400Y114300D03*
X685800Y38100D03*
X685800Y114300D03*
X787400Y247650D03*
X787400Y323850D03*
D21*
X844550Y279400D03*
D18*
X819150Y279400D03*
D11*
X609600Y247650D03*
X609600Y323850D03*
D12*
X482600Y311150D03*
X482600Y260350D03*
D11*
X508000Y247650D03*
X508000Y323850D03*
D13*
X571246Y311150D02*
X584454Y311150D01*
X584454Y260350D02*
X571246Y260350D01*
X571246Y285750D02*
X584454Y285750D01*
D12*
X457200Y323850D03*
X457200Y247650D03*
X355600Y323850D03*
X355600Y247650D03*
X431800Y323850D03*
X431800Y247650D03*
D11*
X381000Y260350D03*
X381000Y311150D03*
X533400Y247650D03*
X533400Y323850D03*
D15*
X301625Y88900D03*
X250825Y88900D03*
X276225Y63500D03*
X276225Y88900D03*
D22*
X330200Y209860D02*
X330200Y221940D01*
X304800Y221940D02*
X304800Y209860D01*
X279400Y209860D02*
X279400Y221940D01*
X254000Y221940D02*
X254000Y209860D01*
X254000Y145740D02*
X254000Y133660D01*
X279400Y133660D02*
X279400Y145740D01*
X304800Y145740D02*
X304800Y133660D01*
X330200Y133660D02*
X330200Y145740D01*
D16*
X895350Y322580D02*
X895350Y337820D01*
X920750Y337820D02*
X920750Y322580D01*
X946150Y322580D02*
X946150Y337820D01*
X971550Y337820D02*
X971550Y322580D01*
X819150Y33020D02*
X819150Y17780D01*
X793750Y17780D02*
X793750Y33020D01*
X768350Y33020D02*
X768350Y17780D01*
X742950Y17780D02*
X742950Y33020D01*
X717550Y33020D02*
X717550Y17780D01*
D11*
X355600Y152400D03*
X355600Y203200D03*
D12*
X228600Y203200D03*
X228600Y152400D03*
D11*
X965200Y152400D03*
X965200Y203200D03*
D23*
X647700Y171450D03*
X184150Y311150D03*
X101600Y101600D03*
X228600Y133350D03*
X825500Y127000D03*
X831850Y57150D03*
X520700Y82550D03*
M02*
