G04 EAGLE Gerber RS-274X export*
G75*
%MOMM*%
%FSLAX34Y34*%
%LPD*%
%INBottom Copper*%
%IPPOS*%
%AMOC8*
5,1,8,0,0,1.08239X$1,22.5*%
G01*
%ADD10C,1.650000*%
%ADD11R,1.676400X1.676400*%
%ADD12P,1.814519X8X202.500000*%
%ADD13R,3.116000X3.116000*%
%ADD14C,1.524000*%
%ADD15C,1.320800*%
%ADD16P,1.429621X8X22.500000*%
%ADD17P,1.429621X8X202.500000*%
%ADD18R,1.006400X1.006400*%
%ADD19C,0.406400*%

G36*
X114918Y10175D02*
X114918Y10175D01*
X115064Y10182D01*
X115118Y10195D01*
X115173Y10201D01*
X115313Y10244D01*
X115455Y10279D01*
X115505Y10302D01*
X115558Y10319D01*
X115686Y10388D01*
X115819Y10451D01*
X115863Y10484D01*
X115912Y10511D01*
X116024Y10604D01*
X116142Y10691D01*
X116179Y10733D01*
X116221Y10768D01*
X116313Y10882D01*
X116411Y10991D01*
X116439Y11039D01*
X116474Y11082D01*
X116541Y11212D01*
X116615Y11338D01*
X116634Y11390D01*
X116659Y11439D01*
X116699Y11580D01*
X116748Y11718D01*
X116755Y11773D01*
X116770Y11826D01*
X116782Y11972D01*
X116802Y12117D01*
X116799Y12172D01*
X116803Y12228D01*
X116786Y12373D01*
X116777Y12519D01*
X116763Y12572D01*
X116756Y12627D01*
X116711Y12766D01*
X116673Y12908D01*
X116646Y12965D01*
X116632Y13010D01*
X116590Y13083D01*
X116531Y13208D01*
X115322Y15302D01*
X113539Y21956D01*
X113539Y28844D01*
X115322Y35498D01*
X118766Y41463D01*
X123637Y46334D01*
X129602Y49778D01*
X133571Y50841D01*
X133708Y50893D01*
X133847Y50937D01*
X133896Y50964D01*
X133948Y50984D01*
X134072Y51061D01*
X134200Y51132D01*
X134242Y51168D01*
X134289Y51197D01*
X134395Y51298D01*
X134507Y51392D01*
X134541Y51436D01*
X134581Y51474D01*
X134666Y51594D01*
X134756Y51708D01*
X134781Y51758D01*
X134813Y51803D01*
X134872Y51937D01*
X134939Y52067D01*
X134953Y52121D01*
X134976Y52172D01*
X135007Y52314D01*
X135047Y52455D01*
X135051Y52510D01*
X135063Y52565D01*
X135065Y52711D01*
X135076Y52857D01*
X135069Y52912D01*
X135070Y52967D01*
X135044Y53111D01*
X135026Y53256D01*
X135008Y53309D01*
X134998Y53363D01*
X134944Y53499D01*
X134897Y53638D01*
X134870Y53686D01*
X134849Y53737D01*
X134769Y53860D01*
X134696Y53987D01*
X134655Y54035D01*
X134629Y54075D01*
X134571Y54135D01*
X134482Y54240D01*
X129135Y59586D01*
X129135Y68214D01*
X135236Y74315D01*
X143864Y74315D01*
X149965Y68214D01*
X149965Y59586D01*
X144682Y54303D01*
X144589Y54190D01*
X144490Y54082D01*
X144462Y54034D01*
X144427Y53992D01*
X144358Y53863D01*
X144283Y53737D01*
X144264Y53685D01*
X144238Y53636D01*
X144196Y53496D01*
X144147Y53358D01*
X144139Y53303D01*
X144123Y53250D01*
X144110Y53104D01*
X144089Y52960D01*
X144092Y52904D01*
X144087Y52849D01*
X144103Y52703D01*
X144110Y52558D01*
X144124Y52504D01*
X144130Y52449D01*
X144174Y52309D01*
X144211Y52168D01*
X144235Y52118D01*
X144252Y52065D01*
X144323Y51937D01*
X144386Y51805D01*
X144420Y51761D01*
X144447Y51713D01*
X144541Y51601D01*
X144630Y51485D01*
X144671Y51448D01*
X144707Y51406D01*
X144822Y51315D01*
X144931Y51218D01*
X144980Y51190D01*
X145023Y51156D01*
X145153Y51090D01*
X145280Y51016D01*
X145339Y50995D01*
X145382Y50974D01*
X145463Y50951D01*
X145592Y50905D01*
X149798Y49778D01*
X155763Y46334D01*
X160634Y41463D01*
X164078Y35498D01*
X165861Y28844D01*
X165861Y21956D01*
X164078Y15302D01*
X162869Y13208D01*
X162808Y13074D01*
X162741Y12945D01*
X162726Y12891D01*
X162703Y12841D01*
X162670Y12698D01*
X162630Y12558D01*
X162625Y12502D01*
X162613Y12448D01*
X162609Y12302D01*
X162597Y12156D01*
X162603Y12101D01*
X162602Y12046D01*
X162627Y11902D01*
X162644Y11757D01*
X162661Y11704D01*
X162670Y11649D01*
X162723Y11513D01*
X162768Y11374D01*
X162796Y11325D01*
X162816Y11274D01*
X162894Y11151D01*
X162966Y11023D01*
X163003Y10981D01*
X163032Y10934D01*
X163134Y10829D01*
X163229Y10718D01*
X163273Y10685D01*
X163312Y10644D01*
X163432Y10561D01*
X163548Y10472D01*
X163597Y10447D01*
X163643Y10415D01*
X163777Y10358D01*
X163908Y10292D01*
X163962Y10278D01*
X164013Y10256D01*
X164156Y10226D01*
X164297Y10188D01*
X164360Y10183D01*
X164407Y10173D01*
X164490Y10172D01*
X164628Y10161D01*
X885018Y10161D01*
X885031Y10162D01*
X885045Y10161D01*
X885231Y10182D01*
X885419Y10201D01*
X885431Y10205D01*
X885445Y10206D01*
X885624Y10264D01*
X885804Y10319D01*
X885815Y10325D01*
X885828Y10329D01*
X885993Y10421D01*
X886158Y10511D01*
X886168Y10519D01*
X886180Y10526D01*
X886322Y10648D01*
X886467Y10768D01*
X886475Y10779D01*
X886485Y10787D01*
X886601Y10935D01*
X886719Y11082D01*
X886725Y11094D01*
X886734Y11104D01*
X886818Y11273D01*
X886905Y11439D01*
X886908Y11452D01*
X886914Y11464D01*
X886964Y11645D01*
X887016Y11826D01*
X887017Y11840D01*
X887021Y11853D01*
X887034Y12041D01*
X887049Y12228D01*
X887047Y12241D01*
X887048Y12254D01*
X887024Y12442D01*
X887002Y12627D01*
X886998Y12640D01*
X886996Y12653D01*
X886895Y12969D01*
X885697Y15860D01*
X885697Y19304D01*
X885695Y19322D01*
X885697Y19340D01*
X885676Y19522D01*
X885657Y19705D01*
X885652Y19722D01*
X885650Y19739D01*
X885593Y19914D01*
X885539Y20090D01*
X885531Y20105D01*
X885525Y20122D01*
X885435Y20282D01*
X885347Y20444D01*
X885336Y20457D01*
X885327Y20473D01*
X885207Y20612D01*
X885090Y20753D01*
X885076Y20764D01*
X885064Y20778D01*
X884919Y20890D01*
X884776Y21005D01*
X884760Y21013D01*
X884746Y21024D01*
X884581Y21106D01*
X884419Y21191D01*
X884402Y21196D01*
X884386Y21204D01*
X884207Y21251D01*
X884032Y21302D01*
X884014Y21304D01*
X883997Y21308D01*
X883666Y21335D01*
X278591Y21335D01*
X277098Y21954D01*
X202111Y96940D01*
X202105Y96946D01*
X202104Y96947D01*
X202096Y96953D01*
X202091Y96957D01*
X202073Y96978D01*
X201935Y97085D01*
X201800Y97195D01*
X201776Y97208D01*
X201755Y97224D01*
X201598Y97302D01*
X201444Y97384D01*
X201419Y97392D01*
X201394Y97404D01*
X201225Y97449D01*
X201058Y97499D01*
X201032Y97501D01*
X201006Y97508D01*
X200675Y97535D01*
X150547Y97535D01*
X150538Y97534D01*
X150529Y97535D01*
X150338Y97514D01*
X150147Y97495D01*
X150138Y97493D01*
X150129Y97492D01*
X149947Y97434D01*
X149762Y97377D01*
X149754Y97373D01*
X149745Y97370D01*
X149576Y97277D01*
X149408Y97185D01*
X149401Y97180D01*
X149393Y97175D01*
X149245Y97050D01*
X149098Y96928D01*
X149093Y96921D01*
X149086Y96915D01*
X148966Y96763D01*
X148846Y96614D01*
X148842Y96606D01*
X148836Y96599D01*
X148749Y96427D01*
X148661Y96257D01*
X148658Y96248D01*
X148654Y96240D01*
X148602Y96053D01*
X148549Y95870D01*
X148548Y95861D01*
X148546Y95852D01*
X148532Y95660D01*
X148516Y95468D01*
X148517Y95460D01*
X148517Y95451D01*
X148541Y95258D01*
X148563Y95069D01*
X148566Y95060D01*
X148567Y95051D01*
X148628Y94868D01*
X148688Y94686D01*
X148692Y94678D01*
X148695Y94670D01*
X148791Y94504D01*
X148886Y94335D01*
X148892Y94328D01*
X148896Y94321D01*
X149111Y94068D01*
X149965Y93214D01*
X149965Y84586D01*
X143864Y78485D01*
X135236Y78485D01*
X129135Y84586D01*
X129135Y93214D01*
X134890Y98969D01*
X134907Y98990D01*
X134928Y99007D01*
X135035Y99145D01*
X135145Y99280D01*
X135158Y99304D01*
X135174Y99325D01*
X135252Y99482D01*
X135334Y99636D01*
X135342Y99662D01*
X135354Y99686D01*
X135399Y99855D01*
X135449Y100022D01*
X135451Y100049D01*
X135458Y100075D01*
X135485Y100405D01*
X135485Y101454D01*
X135483Y101472D01*
X135485Y101490D01*
X135464Y101672D01*
X135445Y101855D01*
X135440Y101872D01*
X135438Y101889D01*
X135381Y102064D01*
X135327Y102240D01*
X135319Y102255D01*
X135313Y102272D01*
X135223Y102432D01*
X135135Y102594D01*
X135124Y102607D01*
X135115Y102623D01*
X134995Y102762D01*
X134878Y102903D01*
X134864Y102914D01*
X134852Y102928D01*
X134707Y103040D01*
X134564Y103155D01*
X134548Y103163D01*
X134534Y103174D01*
X134369Y103256D01*
X134207Y103341D01*
X134190Y103346D01*
X134174Y103354D01*
X133995Y103401D01*
X133820Y103452D01*
X133802Y103454D01*
X133785Y103458D01*
X133454Y103485D01*
X130326Y103485D01*
X129135Y104676D01*
X129135Y123124D01*
X130326Y124315D01*
X148774Y124315D01*
X149965Y123124D01*
X149965Y107696D01*
X149967Y107678D01*
X149965Y107660D01*
X149986Y107478D01*
X150005Y107295D01*
X150010Y107278D01*
X150012Y107261D01*
X150069Y107086D01*
X150123Y106910D01*
X150131Y106895D01*
X150137Y106878D01*
X150227Y106718D01*
X150315Y106556D01*
X150326Y106543D01*
X150335Y106527D01*
X150455Y106388D01*
X150572Y106247D01*
X150586Y106236D01*
X150598Y106222D01*
X150743Y106110D01*
X150886Y105995D01*
X150902Y105987D01*
X150916Y105976D01*
X151081Y105894D01*
X151243Y105809D01*
X151260Y105804D01*
X151276Y105796D01*
X151455Y105749D01*
X151630Y105698D01*
X151648Y105696D01*
X151665Y105692D01*
X151996Y105665D01*
X204009Y105665D01*
X205502Y105046D01*
X280489Y30060D01*
X280509Y30043D01*
X280527Y30022D01*
X280665Y29915D01*
X280800Y29805D01*
X280824Y29792D01*
X280845Y29776D01*
X281002Y29698D01*
X281156Y29616D01*
X281181Y29608D01*
X281206Y29596D01*
X281375Y29551D01*
X281542Y29501D01*
X281568Y29499D01*
X281594Y29492D01*
X281925Y29465D01*
X883666Y29465D01*
X883684Y29467D01*
X883702Y29465D01*
X883884Y29486D01*
X884067Y29505D01*
X884084Y29510D01*
X884101Y29512D01*
X884276Y29569D01*
X884452Y29623D01*
X884467Y29631D01*
X884484Y29637D01*
X884644Y29727D01*
X884806Y29815D01*
X884819Y29826D01*
X884835Y29835D01*
X884974Y29955D01*
X885115Y30072D01*
X885126Y30086D01*
X885140Y30098D01*
X885252Y30243D01*
X885367Y30386D01*
X885375Y30402D01*
X885386Y30416D01*
X885468Y30581D01*
X885553Y30743D01*
X885558Y30760D01*
X885566Y30776D01*
X885613Y30955D01*
X885664Y31130D01*
X885666Y31148D01*
X885670Y31165D01*
X885697Y31496D01*
X885697Y34940D01*
X887167Y38488D01*
X889882Y41203D01*
X893430Y42673D01*
X897270Y42673D01*
X900818Y41203D01*
X903533Y38488D01*
X905003Y34940D01*
X905003Y15860D01*
X903805Y12969D01*
X903801Y12956D01*
X903795Y12945D01*
X903744Y12765D01*
X903689Y12584D01*
X903688Y12571D01*
X903684Y12558D01*
X903669Y12370D01*
X903651Y12183D01*
X903652Y12170D01*
X903651Y12156D01*
X903673Y11970D01*
X903692Y11783D01*
X903696Y11770D01*
X903698Y11757D01*
X903756Y11578D01*
X903812Y11398D01*
X903819Y11387D01*
X903823Y11374D01*
X903916Y11209D01*
X904006Y11045D01*
X904014Y11035D01*
X904021Y11023D01*
X904144Y10881D01*
X904265Y10737D01*
X904275Y10729D01*
X904284Y10718D01*
X904432Y10603D01*
X904580Y10486D01*
X904591Y10480D01*
X904602Y10472D01*
X904771Y10388D01*
X904938Y10302D01*
X904950Y10298D01*
X904963Y10292D01*
X905145Y10243D01*
X905325Y10192D01*
X905338Y10191D01*
X905351Y10188D01*
X905682Y10161D01*
X910418Y10161D01*
X910431Y10162D01*
X910445Y10161D01*
X910631Y10182D01*
X910819Y10201D01*
X910831Y10205D01*
X910845Y10206D01*
X911024Y10264D01*
X911204Y10319D01*
X911215Y10325D01*
X911228Y10329D01*
X911393Y10421D01*
X911558Y10511D01*
X911568Y10519D01*
X911580Y10526D01*
X911722Y10648D01*
X911867Y10768D01*
X911875Y10779D01*
X911885Y10787D01*
X912001Y10935D01*
X912119Y11082D01*
X912125Y11094D01*
X912134Y11104D01*
X912218Y11273D01*
X912305Y11439D01*
X912308Y11452D01*
X912314Y11464D01*
X912364Y11645D01*
X912416Y11826D01*
X912417Y11840D01*
X912421Y11853D01*
X912434Y12041D01*
X912449Y12228D01*
X912447Y12241D01*
X912448Y12254D01*
X912424Y12442D01*
X912402Y12627D01*
X912398Y12640D01*
X912396Y12653D01*
X912295Y12969D01*
X911097Y15860D01*
X911097Y34940D01*
X912647Y38681D01*
X912653Y38703D01*
X912664Y38723D01*
X912712Y38895D01*
X912763Y39067D01*
X912766Y39089D01*
X912772Y39110D01*
X912785Y39290D01*
X912802Y39468D01*
X912799Y39490D01*
X912801Y39512D01*
X912778Y39691D01*
X912760Y39868D01*
X912753Y39889D01*
X912750Y39911D01*
X912693Y40082D01*
X912640Y40252D01*
X912629Y40272D01*
X912622Y40293D01*
X912533Y40449D01*
X912447Y40606D01*
X912433Y40623D01*
X912421Y40642D01*
X912207Y40895D01*
X906961Y46140D01*
X906946Y46153D01*
X906935Y46165D01*
X906930Y46169D01*
X906923Y46178D01*
X906785Y46285D01*
X906650Y46395D01*
X906626Y46408D01*
X906605Y46424D01*
X906448Y46502D01*
X906294Y46584D01*
X906269Y46592D01*
X906244Y46604D01*
X906075Y46649D01*
X905908Y46699D01*
X905882Y46701D01*
X905856Y46708D01*
X905525Y46735D01*
X288496Y46735D01*
X288478Y46733D01*
X288460Y46735D01*
X288278Y46714D01*
X288095Y46695D01*
X288078Y46690D01*
X288061Y46688D01*
X287886Y46631D01*
X287710Y46577D01*
X287695Y46569D01*
X287678Y46563D01*
X287518Y46473D01*
X287356Y46385D01*
X287343Y46374D01*
X287327Y46365D01*
X287188Y46245D01*
X287047Y46128D01*
X287036Y46114D01*
X287022Y46102D01*
X286910Y45957D01*
X286795Y45814D01*
X286787Y45798D01*
X286776Y45784D01*
X286694Y45619D01*
X286609Y45457D01*
X286604Y45440D01*
X286596Y45424D01*
X286549Y45245D01*
X286498Y45070D01*
X286496Y45052D01*
X286492Y45035D01*
X286485Y44946D01*
X285274Y43735D01*
X273526Y43735D01*
X272335Y44926D01*
X272335Y56674D01*
X273526Y57865D01*
X285274Y57865D01*
X286489Y56649D01*
X286505Y56495D01*
X286510Y56478D01*
X286512Y56461D01*
X286569Y56286D01*
X286623Y56110D01*
X286631Y56095D01*
X286637Y56078D01*
X286727Y55918D01*
X286815Y55756D01*
X286826Y55743D01*
X286835Y55727D01*
X286955Y55588D01*
X287072Y55447D01*
X287086Y55436D01*
X287098Y55422D01*
X287243Y55310D01*
X287386Y55195D01*
X287402Y55187D01*
X287416Y55176D01*
X287581Y55094D01*
X287743Y55009D01*
X287760Y55004D01*
X287776Y54996D01*
X287955Y54949D01*
X288130Y54898D01*
X288148Y54896D01*
X288165Y54892D01*
X288496Y54865D01*
X908859Y54865D01*
X910352Y54246D01*
X921331Y43268D01*
X921351Y43251D01*
X921369Y43230D01*
X921507Y43123D01*
X921642Y43013D01*
X921666Y43000D01*
X921687Y42984D01*
X921844Y42906D01*
X921998Y42824D01*
X922023Y42816D01*
X922048Y42804D01*
X922217Y42759D01*
X922384Y42709D01*
X922410Y42707D01*
X922436Y42700D01*
X922646Y42683D01*
X926218Y41203D01*
X928933Y38488D01*
X930403Y34940D01*
X930403Y15860D01*
X929205Y12969D01*
X929201Y12956D01*
X929195Y12945D01*
X929144Y12765D01*
X929089Y12584D01*
X929088Y12571D01*
X929084Y12558D01*
X929069Y12370D01*
X929051Y12183D01*
X929052Y12170D01*
X929051Y12156D01*
X929073Y11970D01*
X929092Y11783D01*
X929096Y11770D01*
X929098Y11757D01*
X929156Y11578D01*
X929212Y11398D01*
X929219Y11387D01*
X929223Y11374D01*
X929316Y11209D01*
X929406Y11045D01*
X929414Y11035D01*
X929421Y11023D01*
X929544Y10881D01*
X929665Y10737D01*
X929675Y10729D01*
X929684Y10718D01*
X929832Y10603D01*
X929980Y10486D01*
X929991Y10480D01*
X930002Y10472D01*
X930171Y10388D01*
X930338Y10302D01*
X930350Y10298D01*
X930363Y10292D01*
X930545Y10243D01*
X930725Y10192D01*
X930738Y10191D01*
X930751Y10188D01*
X931082Y10161D01*
X935818Y10161D01*
X935831Y10162D01*
X935845Y10161D01*
X936031Y10182D01*
X936219Y10201D01*
X936231Y10205D01*
X936245Y10206D01*
X936424Y10264D01*
X936604Y10319D01*
X936615Y10325D01*
X936628Y10329D01*
X936793Y10421D01*
X936958Y10511D01*
X936968Y10519D01*
X936980Y10526D01*
X937122Y10648D01*
X937267Y10768D01*
X937275Y10779D01*
X937285Y10787D01*
X937401Y10935D01*
X937519Y11082D01*
X937525Y11094D01*
X937534Y11104D01*
X937618Y11273D01*
X937705Y11439D01*
X937708Y11452D01*
X937714Y11464D01*
X937764Y11645D01*
X937816Y11826D01*
X937817Y11840D01*
X937821Y11853D01*
X937834Y12041D01*
X937849Y12228D01*
X937847Y12241D01*
X937848Y12254D01*
X937824Y12442D01*
X937802Y12627D01*
X937798Y12640D01*
X937796Y12653D01*
X937695Y12969D01*
X936497Y15860D01*
X936497Y34940D01*
X937967Y38488D01*
X940682Y41203D01*
X944230Y42673D01*
X948070Y42673D01*
X951618Y41203D01*
X954333Y38488D01*
X955803Y34940D01*
X955803Y15860D01*
X954605Y12969D01*
X954601Y12956D01*
X954595Y12945D01*
X954544Y12765D01*
X954489Y12584D01*
X954488Y12571D01*
X954484Y12558D01*
X954469Y12370D01*
X954451Y12183D01*
X954452Y12170D01*
X954451Y12156D01*
X954473Y11970D01*
X954492Y11783D01*
X954496Y11770D01*
X954498Y11757D01*
X954556Y11578D01*
X954612Y11398D01*
X954619Y11387D01*
X954623Y11374D01*
X954716Y11209D01*
X954806Y11045D01*
X954814Y11035D01*
X954821Y11023D01*
X954944Y10881D01*
X955065Y10737D01*
X955075Y10729D01*
X955084Y10718D01*
X955232Y10603D01*
X955380Y10486D01*
X955391Y10480D01*
X955402Y10472D01*
X955571Y10388D01*
X955738Y10302D01*
X955750Y10298D01*
X955763Y10292D01*
X955945Y10243D01*
X956125Y10192D01*
X956138Y10191D01*
X956151Y10188D01*
X956482Y10161D01*
X961218Y10161D01*
X961231Y10162D01*
X961245Y10161D01*
X961431Y10182D01*
X961619Y10201D01*
X961631Y10205D01*
X961645Y10206D01*
X961824Y10264D01*
X962004Y10319D01*
X962015Y10325D01*
X962028Y10329D01*
X962193Y10421D01*
X962358Y10511D01*
X962368Y10519D01*
X962380Y10526D01*
X962522Y10648D01*
X962667Y10768D01*
X962675Y10779D01*
X962685Y10787D01*
X962801Y10935D01*
X962919Y11082D01*
X962925Y11094D01*
X962934Y11104D01*
X963018Y11273D01*
X963105Y11439D01*
X963108Y11452D01*
X963114Y11464D01*
X963164Y11645D01*
X963216Y11826D01*
X963217Y11840D01*
X963221Y11853D01*
X963234Y12041D01*
X963249Y12228D01*
X963247Y12241D01*
X963248Y12254D01*
X963224Y12442D01*
X963202Y12627D01*
X963198Y12640D01*
X963196Y12653D01*
X963095Y12969D01*
X961897Y15860D01*
X961897Y34940D01*
X963367Y38488D01*
X966082Y41203D01*
X966231Y41265D01*
X966251Y41275D01*
X966272Y41282D01*
X966428Y41371D01*
X966586Y41455D01*
X966603Y41469D01*
X966623Y41480D01*
X966758Y41597D01*
X966897Y41712D01*
X966911Y41729D01*
X966928Y41743D01*
X967037Y41885D01*
X967150Y42024D01*
X967161Y42044D01*
X967174Y42062D01*
X967254Y42222D01*
X967337Y42381D01*
X967344Y42402D01*
X967354Y42422D01*
X967400Y42595D01*
X967450Y42767D01*
X967452Y42789D01*
X967458Y42811D01*
X967485Y43142D01*
X967485Y48275D01*
X967483Y48302D01*
X967485Y48328D01*
X967463Y48502D01*
X967445Y48676D01*
X967438Y48701D01*
X967434Y48728D01*
X967379Y48893D01*
X967327Y49060D01*
X967314Y49084D01*
X967306Y49109D01*
X967219Y49261D01*
X967135Y49415D01*
X967118Y49435D01*
X967105Y49458D01*
X966890Y49711D01*
X951411Y65190D01*
X951391Y65207D01*
X951373Y65228D01*
X951235Y65335D01*
X951100Y65445D01*
X951076Y65458D01*
X951055Y65474D01*
X950898Y65552D01*
X950744Y65634D01*
X950719Y65642D01*
X950694Y65654D01*
X950525Y65699D01*
X950358Y65749D01*
X950332Y65751D01*
X950306Y65758D01*
X949975Y65785D01*
X450041Y65785D01*
X448548Y66404D01*
X430711Y84240D01*
X430691Y84257D01*
X430673Y84278D01*
X430535Y84385D01*
X430400Y84495D01*
X430376Y84508D01*
X430355Y84524D01*
X430198Y84602D01*
X430044Y84684D01*
X430019Y84692D01*
X429994Y84704D01*
X429825Y84749D01*
X429658Y84799D01*
X429632Y84801D01*
X429606Y84808D01*
X429275Y84835D01*
X422754Y84835D01*
X422731Y84833D01*
X422709Y84835D01*
X422532Y84813D01*
X422353Y84795D01*
X422332Y84789D01*
X422309Y84786D01*
X422140Y84730D01*
X421968Y84677D01*
X421948Y84667D01*
X421927Y84660D01*
X421772Y84571D01*
X421614Y84485D01*
X421597Y84471D01*
X421577Y84460D01*
X421442Y84342D01*
X421305Y84228D01*
X421291Y84210D01*
X421274Y84196D01*
X421164Y84053D01*
X421052Y83914D01*
X421042Y83894D01*
X421028Y83876D01*
X420877Y83581D01*
X420667Y83075D01*
X417775Y80183D01*
X413995Y78617D01*
X409905Y78617D01*
X406125Y80183D01*
X403233Y83075D01*
X401667Y86855D01*
X401667Y90945D01*
X403233Y94725D01*
X406125Y97617D01*
X409905Y99183D01*
X413995Y99183D01*
X417775Y97617D01*
X420667Y94725D01*
X420877Y94219D01*
X420887Y94199D01*
X420894Y94178D01*
X420983Y94022D01*
X421067Y93864D01*
X421081Y93847D01*
X421092Y93827D01*
X421209Y93691D01*
X421323Y93553D01*
X421341Y93539D01*
X421355Y93522D01*
X421496Y93413D01*
X421636Y93300D01*
X421656Y93289D01*
X421673Y93276D01*
X421834Y93196D01*
X421993Y93113D01*
X422014Y93106D01*
X422034Y93096D01*
X422207Y93050D01*
X422379Y93000D01*
X422401Y92998D01*
X422423Y92992D01*
X422754Y92965D01*
X432609Y92965D01*
X434102Y92346D01*
X451939Y74510D01*
X451959Y74493D01*
X451977Y74472D01*
X452115Y74365D01*
X452250Y74255D01*
X452274Y74242D01*
X452295Y74226D01*
X452452Y74148D01*
X452606Y74066D01*
X452631Y74058D01*
X452656Y74046D01*
X452825Y74001D01*
X452992Y73951D01*
X453018Y73949D01*
X453044Y73942D01*
X453375Y73915D01*
X953309Y73915D01*
X954802Y73296D01*
X974996Y53102D01*
X975615Y51609D01*
X975615Y43142D01*
X975617Y43119D01*
X975615Y43097D01*
X975637Y42920D01*
X975655Y42741D01*
X975661Y42720D01*
X975664Y42697D01*
X975720Y42528D01*
X975773Y42356D01*
X975783Y42336D01*
X975790Y42315D01*
X975879Y42160D01*
X975965Y42002D01*
X975979Y41985D01*
X975990Y41966D01*
X976107Y41831D01*
X976222Y41693D01*
X976240Y41679D01*
X976254Y41662D01*
X976396Y41553D01*
X976536Y41440D01*
X976556Y41430D01*
X976574Y41417D01*
X976869Y41265D01*
X977127Y41158D01*
X977293Y41072D01*
X977463Y40982D01*
X977471Y40979D01*
X977478Y40975D01*
X977665Y40922D01*
X977849Y40867D01*
X977857Y40866D01*
X977865Y40864D01*
X978057Y40848D01*
X978250Y40830D01*
X978258Y40831D01*
X978267Y40831D01*
X978457Y40853D01*
X978650Y40874D01*
X978658Y40876D01*
X978666Y40877D01*
X978849Y40937D01*
X979034Y40995D01*
X979041Y40999D01*
X979049Y41002D01*
X979217Y41097D01*
X979386Y41190D01*
X979393Y41195D01*
X979400Y41200D01*
X979546Y41325D01*
X979693Y41451D01*
X979699Y41457D01*
X979705Y41463D01*
X979823Y41615D01*
X979943Y41766D01*
X979947Y41774D01*
X979952Y41781D01*
X980038Y41954D01*
X980125Y42125D01*
X980128Y42133D01*
X980131Y42141D01*
X980182Y42328D01*
X980233Y42513D01*
X980234Y42522D01*
X980236Y42530D01*
X980263Y42860D01*
X980291Y91694D01*
X980290Y91703D01*
X980291Y91713D01*
X980270Y91906D01*
X980251Y92094D01*
X980248Y92103D01*
X980247Y92113D01*
X980189Y92298D01*
X980133Y92479D01*
X980129Y92488D01*
X980126Y92497D01*
X980033Y92664D01*
X979942Y92834D01*
X979936Y92841D01*
X979931Y92849D01*
X979808Y92995D01*
X979684Y93143D01*
X979677Y93149D01*
X979671Y93156D01*
X979519Y93276D01*
X979371Y93396D01*
X979362Y93400D01*
X979355Y93406D01*
X979184Y93492D01*
X979013Y93581D01*
X979004Y93584D01*
X978996Y93588D01*
X978810Y93640D01*
X978626Y93693D01*
X978617Y93694D01*
X978608Y93696D01*
X978416Y93710D01*
X978225Y93726D01*
X978216Y93725D01*
X978206Y93726D01*
X978016Y93701D01*
X977825Y93679D01*
X977816Y93676D01*
X977807Y93675D01*
X977625Y93614D01*
X977442Y93555D01*
X977434Y93550D01*
X977425Y93547D01*
X977258Y93451D01*
X977092Y93357D01*
X977085Y93351D01*
X977076Y93346D01*
X976823Y93131D01*
X976575Y92883D01*
X972795Y91317D01*
X968705Y91317D01*
X964925Y92883D01*
X962033Y95775D01*
X960467Y99555D01*
X960467Y103645D01*
X962033Y107425D01*
X964925Y110317D01*
X966231Y110858D01*
X966251Y110869D01*
X966272Y110876D01*
X966428Y110964D01*
X966586Y111048D01*
X966603Y111063D01*
X966623Y111074D01*
X966758Y111191D01*
X966897Y111305D01*
X966911Y111322D01*
X966928Y111337D01*
X967037Y111478D01*
X967150Y111617D01*
X967161Y111637D01*
X967174Y111655D01*
X967254Y111816D01*
X967337Y111974D01*
X967344Y111995D01*
X967354Y112015D01*
X967400Y112189D01*
X967450Y112360D01*
X967452Y112383D01*
X967458Y112404D01*
X967485Y112735D01*
X967485Y137065D01*
X967480Y137123D01*
X967482Y137180D01*
X967460Y137323D01*
X967445Y137466D01*
X967428Y137521D01*
X967419Y137578D01*
X967369Y137713D01*
X967327Y137851D01*
X967300Y137902D01*
X967280Y137956D01*
X967204Y138078D01*
X967135Y138205D01*
X967098Y138249D01*
X967068Y138298D01*
X966929Y138453D01*
X966878Y138514D01*
X966862Y138526D01*
X966846Y138545D01*
X957025Y147783D01*
X956867Y147905D01*
X956713Y148024D01*
X956709Y148026D01*
X956706Y148029D01*
X956528Y148117D01*
X956353Y148204D01*
X956349Y148205D01*
X956345Y148207D01*
X956156Y148256D01*
X955964Y148308D01*
X955959Y148309D01*
X955955Y148310D01*
X955925Y148311D01*
X955633Y148335D01*
X907241Y148335D01*
X905748Y148954D01*
X868861Y185840D01*
X868841Y185857D01*
X868823Y185878D01*
X868685Y185985D01*
X868550Y186095D01*
X868526Y186108D01*
X868505Y186124D01*
X868348Y186202D01*
X868194Y186284D01*
X868169Y186292D01*
X868144Y186304D01*
X867975Y186349D01*
X867808Y186399D01*
X867782Y186401D01*
X867756Y186408D01*
X867425Y186435D01*
X847296Y186435D01*
X847278Y186433D01*
X847260Y186435D01*
X847078Y186414D01*
X846895Y186395D01*
X846878Y186390D01*
X846861Y186388D01*
X846686Y186331D01*
X846510Y186277D01*
X846495Y186269D01*
X846478Y186263D01*
X846318Y186173D01*
X846156Y186085D01*
X846143Y186074D01*
X846127Y186065D01*
X845988Y185945D01*
X845847Y185828D01*
X845836Y185814D01*
X845822Y185802D01*
X845710Y185657D01*
X845595Y185514D01*
X845587Y185498D01*
X845576Y185484D01*
X845494Y185319D01*
X845409Y185157D01*
X845404Y185140D01*
X845396Y185124D01*
X845349Y184945D01*
X845298Y184770D01*
X845296Y184752D01*
X845292Y184735D01*
X845265Y184404D01*
X845265Y171196D01*
X845267Y171178D01*
X845265Y171160D01*
X845286Y170978D01*
X845305Y170795D01*
X845310Y170778D01*
X845312Y170761D01*
X845369Y170586D01*
X845423Y170410D01*
X845431Y170395D01*
X845437Y170378D01*
X845527Y170218D01*
X845615Y170056D01*
X845626Y170043D01*
X845635Y170027D01*
X845755Y169888D01*
X845872Y169747D01*
X845886Y169736D01*
X845898Y169722D01*
X846043Y169610D01*
X846186Y169495D01*
X846202Y169487D01*
X846216Y169476D01*
X846381Y169394D01*
X846543Y169309D01*
X846560Y169304D01*
X846576Y169296D01*
X846755Y169249D01*
X846930Y169198D01*
X846948Y169196D01*
X846965Y169192D01*
X847296Y169165D01*
X860854Y169165D01*
X860872Y169167D01*
X860890Y169165D01*
X861072Y169186D01*
X861255Y169205D01*
X861272Y169210D01*
X861289Y169212D01*
X861464Y169269D01*
X861640Y169323D01*
X861655Y169331D01*
X861672Y169337D01*
X861832Y169427D01*
X861994Y169515D01*
X862007Y169526D01*
X862023Y169535D01*
X862162Y169655D01*
X862303Y169772D01*
X862314Y169786D01*
X862328Y169798D01*
X862440Y169943D01*
X862555Y170086D01*
X862563Y170102D01*
X862574Y170116D01*
X862656Y170281D01*
X862741Y170443D01*
X862746Y170460D01*
X862754Y170476D01*
X862801Y170655D01*
X862852Y170830D01*
X862854Y170848D01*
X862858Y170865D01*
X862865Y170954D01*
X864076Y172165D01*
X875824Y172165D01*
X877015Y170974D01*
X877015Y159226D01*
X875824Y158035D01*
X864076Y158035D01*
X862861Y159251D01*
X862845Y159405D01*
X862840Y159422D01*
X862838Y159439D01*
X862781Y159614D01*
X862727Y159790D01*
X862719Y159805D01*
X862713Y159822D01*
X862623Y159982D01*
X862535Y160144D01*
X862524Y160157D01*
X862515Y160173D01*
X862395Y160312D01*
X862278Y160453D01*
X862264Y160464D01*
X862252Y160478D01*
X862107Y160590D01*
X861964Y160705D01*
X861948Y160713D01*
X861934Y160724D01*
X861769Y160806D01*
X861607Y160891D01*
X861590Y160896D01*
X861574Y160904D01*
X861395Y160951D01*
X861220Y161002D01*
X861202Y161004D01*
X861185Y161008D01*
X860854Y161035D01*
X675487Y161035D01*
X675478Y161034D01*
X675469Y161035D01*
X675278Y161015D01*
X675086Y160995D01*
X675078Y160993D01*
X675069Y160992D01*
X674885Y160934D01*
X674701Y160877D01*
X674693Y160873D01*
X674685Y160870D01*
X674516Y160777D01*
X674347Y160685D01*
X674340Y160680D01*
X674332Y160675D01*
X674186Y160551D01*
X674038Y160428D01*
X674032Y160421D01*
X674026Y160415D01*
X673906Y160264D01*
X673786Y160114D01*
X673782Y160106D01*
X673776Y160099D01*
X673688Y159926D01*
X673600Y159757D01*
X673598Y159748D01*
X673594Y159740D01*
X673541Y159552D01*
X673489Y159370D01*
X673488Y159361D01*
X673486Y159352D01*
X673472Y159160D01*
X673456Y158968D01*
X673457Y158960D01*
X673456Y158951D01*
X673481Y158756D01*
X673503Y158569D01*
X673506Y158560D01*
X673507Y158551D01*
X673568Y158369D01*
X673628Y158186D01*
X673632Y158178D01*
X673635Y158170D01*
X673731Y158002D01*
X673825Y157835D01*
X673831Y157828D01*
X673836Y157821D01*
X674050Y157568D01*
X674326Y157292D01*
X675641Y154118D01*
X675641Y150682D01*
X674326Y147508D01*
X674050Y147232D01*
X674045Y147225D01*
X674038Y147220D01*
X673917Y147070D01*
X673795Y146921D01*
X673791Y146913D01*
X673786Y146906D01*
X673697Y146736D01*
X673607Y146565D01*
X673604Y146556D01*
X673600Y146549D01*
X673547Y146365D01*
X673492Y146179D01*
X673491Y146170D01*
X673489Y146162D01*
X673473Y145971D01*
X673456Y145778D01*
X673457Y145769D01*
X673456Y145760D01*
X673478Y145571D01*
X673499Y145378D01*
X673502Y145369D01*
X673503Y145361D01*
X673562Y145178D01*
X673620Y144994D01*
X673625Y144986D01*
X673628Y144978D01*
X673723Y144809D01*
X673815Y144642D01*
X673821Y144635D01*
X673825Y144627D01*
X673951Y144482D01*
X674076Y144335D01*
X674083Y144329D01*
X674089Y144322D01*
X674240Y144205D01*
X674392Y144085D01*
X674400Y144081D01*
X674407Y144076D01*
X674579Y143990D01*
X674751Y143903D01*
X674759Y143900D01*
X674767Y143896D01*
X674955Y143846D01*
X675138Y143795D01*
X675147Y143794D01*
X675156Y143792D01*
X675487Y143765D01*
X810054Y143765D01*
X810072Y143767D01*
X810090Y143765D01*
X810272Y143786D01*
X810455Y143805D01*
X810472Y143810D01*
X810489Y143812D01*
X810664Y143869D01*
X810840Y143923D01*
X810855Y143931D01*
X810872Y143937D01*
X811032Y144027D01*
X811194Y144115D01*
X811207Y144126D01*
X811223Y144135D01*
X811362Y144255D01*
X811503Y144372D01*
X811514Y144386D01*
X811528Y144398D01*
X811640Y144543D01*
X811755Y144686D01*
X811763Y144702D01*
X811774Y144716D01*
X811856Y144880D01*
X811941Y145043D01*
X811946Y145060D01*
X811954Y145076D01*
X812001Y145255D01*
X812052Y145430D01*
X812054Y145448D01*
X812058Y145465D01*
X812065Y145554D01*
X813276Y146765D01*
X825024Y146765D01*
X826215Y145574D01*
X826215Y133826D01*
X825024Y132635D01*
X813276Y132635D01*
X812061Y133851D01*
X812045Y134005D01*
X812040Y134022D01*
X812038Y134039D01*
X811981Y134214D01*
X811927Y134390D01*
X811919Y134405D01*
X811913Y134422D01*
X811823Y134582D01*
X811735Y134744D01*
X811724Y134757D01*
X811715Y134773D01*
X811595Y134912D01*
X811478Y135053D01*
X811464Y135064D01*
X811452Y135078D01*
X811307Y135190D01*
X811164Y135305D01*
X811148Y135313D01*
X811134Y135324D01*
X810969Y135406D01*
X810807Y135491D01*
X810790Y135496D01*
X810774Y135504D01*
X810595Y135551D01*
X810420Y135602D01*
X810402Y135604D01*
X810385Y135608D01*
X810054Y135635D01*
X443691Y135635D01*
X442198Y136254D01*
X398961Y179490D01*
X398941Y179507D01*
X398923Y179528D01*
X398785Y179635D01*
X398650Y179745D01*
X398626Y179758D01*
X398605Y179774D01*
X398448Y179852D01*
X398294Y179934D01*
X398269Y179942D01*
X398244Y179954D01*
X398075Y179999D01*
X397908Y180049D01*
X397882Y180051D01*
X397856Y180058D01*
X397525Y180085D01*
X151591Y180085D01*
X150097Y180704D01*
X148836Y181966D01*
X148706Y182072D01*
X148579Y182183D01*
X148550Y182200D01*
X148524Y182221D01*
X148376Y182300D01*
X148230Y182383D01*
X148198Y182394D01*
X148169Y182410D01*
X148007Y182457D01*
X147848Y182511D01*
X147815Y182515D01*
X147783Y182524D01*
X147615Y182540D01*
X147448Y182560D01*
X147415Y182558D01*
X147382Y182561D01*
X147214Y182543D01*
X147047Y182530D01*
X147015Y182521D01*
X146981Y182517D01*
X146820Y182466D01*
X146659Y182421D01*
X146630Y182406D01*
X146598Y182396D01*
X146450Y182314D01*
X146301Y182238D01*
X146275Y182217D01*
X146245Y182201D01*
X146117Y182092D01*
X145985Y181987D01*
X145964Y181962D01*
X145938Y181940D01*
X145834Y181808D01*
X145725Y181680D01*
X145709Y181651D01*
X145689Y181625D01*
X145612Y181474D01*
X145531Y181327D01*
X145521Y181295D01*
X145506Y181266D01*
X145461Y181103D01*
X145411Y180943D01*
X145407Y180910D01*
X145398Y180878D01*
X145386Y180710D01*
X145369Y180549D01*
X137599Y180549D01*
X137599Y188319D01*
X137631Y188322D01*
X137664Y188320D01*
X137830Y188343D01*
X137998Y188362D01*
X138029Y188372D01*
X138062Y188376D01*
X138221Y188432D01*
X138381Y188483D01*
X138411Y188499D01*
X138442Y188510D01*
X138587Y188597D01*
X138734Y188678D01*
X138759Y188700D01*
X138788Y188717D01*
X138912Y188830D01*
X139041Y188939D01*
X139061Y188965D01*
X139086Y188987D01*
X139186Y189122D01*
X139290Y189254D01*
X139305Y189284D01*
X139325Y189311D01*
X139397Y189463D01*
X139473Y189613D01*
X139482Y189645D01*
X139496Y189676D01*
X139536Y189839D01*
X139581Y190001D01*
X139583Y190034D01*
X139591Y190067D01*
X139598Y190235D01*
X139610Y190403D01*
X139606Y190436D01*
X139607Y190469D01*
X139581Y190635D01*
X139560Y190802D01*
X139549Y190834D01*
X139544Y190867D01*
X139485Y191024D01*
X139431Y191184D01*
X139415Y191213D01*
X139403Y191244D01*
X139314Y191387D01*
X139231Y191533D01*
X139206Y191561D01*
X139191Y191586D01*
X139132Y191649D01*
X139016Y191786D01*
X47354Y283448D01*
X46735Y284941D01*
X46735Y312458D01*
X46733Y312481D01*
X46735Y312503D01*
X46713Y312680D01*
X46695Y312859D01*
X46689Y312880D01*
X46686Y312903D01*
X46630Y313072D01*
X46577Y313244D01*
X46567Y313264D01*
X46560Y313285D01*
X46471Y313440D01*
X46385Y313598D01*
X46371Y313615D01*
X46360Y313634D01*
X46243Y313769D01*
X46128Y313907D01*
X46110Y313921D01*
X46096Y313938D01*
X45954Y314047D01*
X45814Y314160D01*
X45794Y314170D01*
X45776Y314183D01*
X45481Y314335D01*
X45332Y314397D01*
X42617Y317112D01*
X41147Y320660D01*
X41147Y339740D01*
X42345Y342631D01*
X42349Y342644D01*
X42355Y342655D01*
X42406Y342835D01*
X42461Y343016D01*
X42462Y343029D01*
X42466Y343042D01*
X42481Y343230D01*
X42499Y343417D01*
X42498Y343430D01*
X42499Y343444D01*
X42477Y343630D01*
X42458Y343817D01*
X42454Y343830D01*
X42452Y343843D01*
X42394Y344022D01*
X42338Y344202D01*
X42331Y344213D01*
X42327Y344226D01*
X42234Y344391D01*
X42144Y344555D01*
X42136Y344565D01*
X42129Y344577D01*
X42006Y344719D01*
X41885Y344863D01*
X41875Y344871D01*
X41866Y344882D01*
X41718Y344997D01*
X41570Y345114D01*
X41559Y345120D01*
X41548Y345128D01*
X41379Y345212D01*
X41212Y345298D01*
X41200Y345302D01*
X41187Y345308D01*
X41005Y345357D01*
X40825Y345408D01*
X40812Y345409D01*
X40799Y345412D01*
X40468Y345439D01*
X36236Y345439D01*
X36143Y345430D01*
X36050Y345431D01*
X35943Y345410D01*
X35835Y345399D01*
X35746Y345372D01*
X35655Y345354D01*
X35554Y345313D01*
X35451Y345281D01*
X35369Y345237D01*
X35282Y345201D01*
X35192Y345141D01*
X35097Y345089D01*
X35025Y345030D01*
X34947Y344978D01*
X34871Y344901D01*
X34787Y344832D01*
X34729Y344759D01*
X34663Y344693D01*
X34603Y344603D01*
X34535Y344518D01*
X34492Y344435D01*
X34440Y344358D01*
X34399Y344257D01*
X34349Y344161D01*
X34324Y344071D01*
X34288Y343985D01*
X34268Y343878D01*
X34238Y343774D01*
X34230Y343681D01*
X34213Y343589D01*
X34214Y343481D01*
X34205Y343372D01*
X34216Y343280D01*
X34217Y343187D01*
X34239Y343080D01*
X34252Y342973D01*
X34281Y342884D01*
X34300Y342793D01*
X34351Y342669D01*
X34377Y342590D01*
X34401Y342547D01*
X34426Y342486D01*
X34816Y341720D01*
X35311Y340199D01*
X35561Y338620D01*
X35561Y332739D01*
X25908Y332739D01*
X25890Y332737D01*
X25873Y332739D01*
X25690Y332718D01*
X25508Y332699D01*
X25491Y332694D01*
X25473Y332692D01*
X25395Y332667D01*
X25258Y332706D01*
X25240Y332708D01*
X25223Y332712D01*
X24892Y332739D01*
X15239Y332739D01*
X15239Y338620D01*
X15489Y340199D01*
X15984Y341720D01*
X16374Y342486D01*
X16408Y342573D01*
X16451Y342655D01*
X16481Y342760D01*
X16520Y342861D01*
X16536Y342953D01*
X16562Y343042D01*
X16571Y343151D01*
X16590Y343257D01*
X16587Y343351D01*
X16595Y343444D01*
X16582Y343551D01*
X16579Y343660D01*
X16559Y343751D01*
X16548Y343843D01*
X16514Y343947D01*
X16490Y344053D01*
X16452Y344138D01*
X16423Y344226D01*
X16370Y344321D01*
X16325Y344420D01*
X16271Y344496D01*
X16225Y344577D01*
X16154Y344659D01*
X16091Y344747D01*
X16023Y344811D01*
X15962Y344882D01*
X15876Y344948D01*
X15797Y345022D01*
X15717Y345071D01*
X15644Y345128D01*
X15547Y345177D01*
X15454Y345234D01*
X15367Y345266D01*
X15283Y345308D01*
X15178Y345336D01*
X15077Y345373D01*
X14985Y345388D01*
X14895Y345412D01*
X14761Y345423D01*
X14679Y345436D01*
X14629Y345434D01*
X14564Y345439D01*
X12192Y345439D01*
X12174Y345437D01*
X12156Y345439D01*
X11974Y345418D01*
X11791Y345399D01*
X11774Y345394D01*
X11757Y345392D01*
X11582Y345335D01*
X11406Y345281D01*
X11391Y345273D01*
X11374Y345267D01*
X11214Y345177D01*
X11052Y345089D01*
X11039Y345078D01*
X11023Y345069D01*
X10884Y344949D01*
X10743Y344832D01*
X10732Y344818D01*
X10718Y344806D01*
X10606Y344661D01*
X10491Y344518D01*
X10483Y344502D01*
X10472Y344488D01*
X10390Y344323D01*
X10305Y344161D01*
X10300Y344144D01*
X10292Y344128D01*
X10245Y343949D01*
X10194Y343774D01*
X10192Y343756D01*
X10188Y343739D01*
X10161Y343408D01*
X10161Y187557D01*
X10162Y187548D01*
X10161Y187539D01*
X10181Y187348D01*
X10201Y187156D01*
X10203Y187147D01*
X10204Y187138D01*
X10262Y186955D01*
X10319Y186771D01*
X10323Y186763D01*
X10326Y186755D01*
X10419Y186586D01*
X10511Y186417D01*
X10516Y186410D01*
X10521Y186402D01*
X10646Y186255D01*
X10768Y186108D01*
X10775Y186102D01*
X10781Y186095D01*
X10933Y185975D01*
X11082Y185855D01*
X11090Y185851D01*
X11097Y185846D01*
X11270Y185758D01*
X11439Y185670D01*
X11448Y185667D01*
X11456Y185663D01*
X11641Y185612D01*
X11826Y185559D01*
X11835Y185558D01*
X11844Y185555D01*
X12036Y185541D01*
X12228Y185526D01*
X12236Y185527D01*
X12245Y185526D01*
X12437Y185550D01*
X12627Y185573D01*
X12636Y185575D01*
X12645Y185576D01*
X12827Y185638D01*
X13010Y185697D01*
X13018Y185702D01*
X13026Y185705D01*
X13194Y185801D01*
X13361Y185895D01*
X13368Y185901D01*
X13375Y185906D01*
X13628Y186120D01*
X14025Y186517D01*
X17805Y188083D01*
X21895Y188083D01*
X25675Y186517D01*
X28567Y183625D01*
X30133Y179845D01*
X30133Y175755D01*
X29689Y174683D01*
X29682Y174662D01*
X29672Y174642D01*
X29624Y174468D01*
X29572Y174298D01*
X29570Y174275D01*
X29564Y174254D01*
X29551Y174074D01*
X29534Y173897D01*
X29536Y173875D01*
X29535Y173852D01*
X29557Y173674D01*
X29576Y173496D01*
X29582Y173475D01*
X29585Y173453D01*
X29642Y173283D01*
X29696Y173112D01*
X29706Y173092D01*
X29713Y173071D01*
X29803Y172916D01*
X29889Y172759D01*
X29903Y172742D01*
X29914Y172722D01*
X30129Y172469D01*
X39189Y163410D01*
X39209Y163393D01*
X39227Y163372D01*
X39365Y163265D01*
X39500Y163155D01*
X39524Y163142D01*
X39545Y163126D01*
X39702Y163048D01*
X39856Y162966D01*
X39881Y162958D01*
X39906Y162946D01*
X40075Y162901D01*
X40242Y162851D01*
X40268Y162849D01*
X40294Y162842D01*
X40625Y162815D01*
X270304Y162815D01*
X270322Y162817D01*
X270340Y162815D01*
X270522Y162836D01*
X270705Y162855D01*
X270722Y162860D01*
X270739Y162862D01*
X270914Y162919D01*
X271090Y162973D01*
X271105Y162981D01*
X271122Y162987D01*
X271282Y163077D01*
X271444Y163165D01*
X271457Y163176D01*
X271473Y163185D01*
X271612Y163305D01*
X271753Y163422D01*
X271764Y163436D01*
X271778Y163448D01*
X271890Y163593D01*
X272005Y163736D01*
X272013Y163752D01*
X272024Y163766D01*
X272106Y163931D01*
X272191Y164093D01*
X272196Y164110D01*
X272204Y164126D01*
X272251Y164304D01*
X272302Y164480D01*
X272304Y164498D01*
X272308Y164515D01*
X272315Y164604D01*
X273526Y165815D01*
X285274Y165815D01*
X286465Y164624D01*
X286465Y152876D01*
X285274Y151685D01*
X273526Y151685D01*
X272311Y152901D01*
X272295Y153055D01*
X272290Y153072D01*
X272288Y153089D01*
X272231Y153263D01*
X272177Y153440D01*
X272169Y153455D01*
X272163Y153472D01*
X272073Y153632D01*
X271985Y153794D01*
X271974Y153807D01*
X271965Y153823D01*
X271845Y153962D01*
X271728Y154103D01*
X271714Y154114D01*
X271702Y154128D01*
X271557Y154240D01*
X271414Y154355D01*
X271398Y154363D01*
X271384Y154374D01*
X271219Y154456D01*
X271057Y154541D01*
X271040Y154546D01*
X271024Y154554D01*
X270845Y154601D01*
X270670Y154652D01*
X270652Y154654D01*
X270635Y154658D01*
X270304Y154685D01*
X227703Y154685D01*
X227694Y154684D01*
X227686Y154685D01*
X227494Y154664D01*
X227303Y154645D01*
X227294Y154643D01*
X227285Y154642D01*
X227103Y154584D01*
X226918Y154527D01*
X226910Y154523D01*
X226901Y154520D01*
X226733Y154427D01*
X226564Y154335D01*
X226557Y154330D01*
X226549Y154325D01*
X226401Y154200D01*
X226254Y154078D01*
X226249Y154071D01*
X226242Y154065D01*
X226122Y153913D01*
X226002Y153764D01*
X225998Y153756D01*
X225992Y153749D01*
X225905Y153577D01*
X225817Y153407D01*
X225814Y153398D01*
X225810Y153390D01*
X225758Y153204D01*
X225705Y153020D01*
X225705Y153011D01*
X225702Y153002D01*
X225688Y152810D01*
X225672Y152618D01*
X225673Y152610D01*
X225673Y152601D01*
X225697Y152406D01*
X225719Y152219D01*
X225722Y152210D01*
X225723Y152201D01*
X225785Y152018D01*
X225844Y151836D01*
X225849Y151828D01*
X225851Y151820D01*
X225947Y151654D01*
X226042Y151485D01*
X226048Y151478D01*
X226052Y151471D01*
X226267Y151218D01*
X227163Y150322D01*
X227163Y117478D01*
X225972Y116287D01*
X193128Y116287D01*
X191937Y117478D01*
X191937Y150322D01*
X192833Y151218D01*
X192839Y151225D01*
X192846Y151230D01*
X192967Y151381D01*
X193088Y151529D01*
X193092Y151537D01*
X193098Y151544D01*
X193186Y151714D01*
X193277Y151885D01*
X193279Y151894D01*
X193283Y151901D01*
X193336Y152086D01*
X193391Y152271D01*
X193392Y152280D01*
X193395Y152288D01*
X193410Y152479D01*
X193428Y152672D01*
X193427Y152681D01*
X193428Y152690D01*
X193405Y152879D01*
X193384Y153072D01*
X193382Y153081D01*
X193381Y153089D01*
X193322Y153270D01*
X193263Y153456D01*
X193259Y153464D01*
X193256Y153472D01*
X193162Y153639D01*
X193068Y153808D01*
X193062Y153815D01*
X193058Y153823D01*
X192933Y153968D01*
X192808Y154115D01*
X192801Y154121D01*
X192795Y154128D01*
X192644Y154244D01*
X192492Y154365D01*
X192484Y154369D01*
X192477Y154374D01*
X192306Y154459D01*
X192133Y154547D01*
X192124Y154550D01*
X192116Y154554D01*
X191931Y154603D01*
X191745Y154655D01*
X191736Y154656D01*
X191727Y154658D01*
X191397Y154685D01*
X37291Y154685D01*
X35798Y155304D01*
X34368Y156733D01*
X24049Y167052D01*
X24032Y167066D01*
X24017Y167083D01*
X23876Y167194D01*
X23738Y167307D01*
X23718Y167318D01*
X23700Y167332D01*
X23540Y167412D01*
X23382Y167496D01*
X23361Y167502D01*
X23341Y167512D01*
X23168Y167560D01*
X22996Y167611D01*
X22974Y167613D01*
X22952Y167619D01*
X22774Y167631D01*
X22595Y167647D01*
X22573Y167645D01*
X22551Y167646D01*
X22374Y167623D01*
X22195Y167604D01*
X22174Y167597D01*
X22151Y167594D01*
X21913Y167517D01*
X17805Y167517D01*
X14025Y169083D01*
X13628Y169480D01*
X13621Y169485D01*
X13616Y169492D01*
X13467Y169612D01*
X13317Y169735D01*
X13309Y169739D01*
X13302Y169745D01*
X13133Y169832D01*
X12961Y169923D01*
X12952Y169926D01*
X12945Y169930D01*
X12761Y169983D01*
X12575Y170038D01*
X12566Y170039D01*
X12558Y170041D01*
X12367Y170057D01*
X12174Y170075D01*
X12165Y170074D01*
X12156Y170074D01*
X11967Y170052D01*
X11774Y170031D01*
X11765Y170028D01*
X11757Y170027D01*
X11574Y169968D01*
X11390Y169910D01*
X11382Y169905D01*
X11374Y169903D01*
X11205Y169808D01*
X11038Y169715D01*
X11031Y169709D01*
X11023Y169705D01*
X10878Y169579D01*
X10731Y169454D01*
X10725Y169447D01*
X10718Y169442D01*
X10601Y169290D01*
X10481Y169138D01*
X10477Y169131D01*
X10472Y169123D01*
X10385Y168950D01*
X10299Y168780D01*
X10296Y168771D01*
X10292Y168763D01*
X10242Y168575D01*
X10191Y168392D01*
X10190Y168383D01*
X10188Y168374D01*
X10161Y168043D01*
X10161Y12192D01*
X10163Y12174D01*
X10161Y12156D01*
X10182Y11974D01*
X10201Y11791D01*
X10206Y11774D01*
X10208Y11757D01*
X10265Y11582D01*
X10319Y11406D01*
X10327Y11391D01*
X10333Y11374D01*
X10423Y11214D01*
X10511Y11052D01*
X10522Y11039D01*
X10531Y11023D01*
X10651Y10884D01*
X10768Y10743D01*
X10782Y10732D01*
X10794Y10718D01*
X10939Y10606D01*
X11082Y10491D01*
X11098Y10483D01*
X11112Y10472D01*
X11277Y10390D01*
X11439Y10305D01*
X11456Y10300D01*
X11472Y10292D01*
X11651Y10244D01*
X11826Y10194D01*
X11844Y10192D01*
X11861Y10188D01*
X12192Y10161D01*
X114772Y10161D01*
X114918Y10175D01*
G37*
G36*
X978297Y109464D02*
X978297Y109464D01*
X978305Y109463D01*
X978497Y109485D01*
X978689Y109506D01*
X978697Y109509D01*
X978705Y109510D01*
X978888Y109569D01*
X979073Y109628D01*
X979080Y109632D01*
X979088Y109634D01*
X979256Y109729D01*
X979425Y109822D01*
X979431Y109828D01*
X979439Y109832D01*
X979584Y109957D01*
X979732Y110083D01*
X979737Y110089D01*
X979743Y110095D01*
X979861Y110246D01*
X979982Y110399D01*
X979985Y110406D01*
X979990Y110413D01*
X980077Y110586D01*
X980164Y110758D01*
X980166Y110766D01*
X980170Y110773D01*
X980221Y110962D01*
X980272Y111146D01*
X980272Y111154D01*
X980275Y111162D01*
X980302Y111493D01*
X980377Y244180D01*
X980376Y244189D01*
X980377Y244199D01*
X980356Y244389D01*
X980337Y244580D01*
X980334Y244589D01*
X980333Y244599D01*
X980275Y244782D01*
X980219Y244965D01*
X980214Y244974D01*
X980212Y244983D01*
X980119Y245150D01*
X980027Y245319D01*
X980021Y245327D01*
X980017Y245335D01*
X979894Y245480D01*
X979770Y245629D01*
X979762Y245635D01*
X979756Y245642D01*
X979607Y245760D01*
X979456Y245881D01*
X979448Y245886D01*
X979440Y245892D01*
X979269Y245979D01*
X979099Y246067D01*
X979090Y246070D01*
X979081Y246074D01*
X978897Y246125D01*
X978712Y246179D01*
X978703Y246179D01*
X978694Y246182D01*
X978502Y246196D01*
X978311Y246212D01*
X978302Y246211D01*
X978292Y246211D01*
X978102Y246187D01*
X977911Y246165D01*
X977902Y246162D01*
X977893Y246161D01*
X977711Y246100D01*
X977528Y246040D01*
X977520Y246036D01*
X977511Y246033D01*
X977344Y245936D01*
X977177Y245843D01*
X977170Y245837D01*
X977162Y245832D01*
X976909Y245617D01*
X976575Y245283D01*
X972795Y243717D01*
X968705Y243717D01*
X964925Y245283D01*
X962033Y248175D01*
X960467Y251955D01*
X960467Y256045D01*
X962033Y259825D01*
X964925Y262717D01*
X968565Y264225D01*
X968705Y264283D01*
X972795Y264283D01*
X976575Y262717D01*
X976920Y262372D01*
X976927Y262367D01*
X976932Y262360D01*
X977082Y262239D01*
X977232Y262117D01*
X977239Y262113D01*
X977245Y262108D01*
X977415Y262020D01*
X977587Y261928D01*
X977595Y261926D01*
X977603Y261922D01*
X977787Y261869D01*
X977973Y261813D01*
X977982Y261813D01*
X977990Y261810D01*
X978180Y261795D01*
X978374Y261777D01*
X978382Y261778D01*
X978391Y261777D01*
X978582Y261800D01*
X978774Y261820D01*
X978782Y261823D01*
X978791Y261824D01*
X978974Y261884D01*
X979158Y261942D01*
X979166Y261946D01*
X979174Y261949D01*
X979342Y262043D01*
X979511Y262137D01*
X979517Y262142D01*
X979524Y262146D01*
X979670Y262272D01*
X979818Y262397D01*
X979823Y262404D01*
X979829Y262409D01*
X979948Y262562D01*
X980067Y262713D01*
X980071Y262721D01*
X980076Y262727D01*
X980163Y262902D01*
X980250Y263072D01*
X980252Y263080D01*
X980256Y263088D01*
X980306Y263276D01*
X980358Y263460D01*
X980358Y263468D01*
X980360Y263476D01*
X980388Y263807D01*
X980432Y343407D01*
X980431Y343425D01*
X980432Y343444D01*
X980411Y343626D01*
X980393Y343808D01*
X980387Y343825D01*
X980385Y343843D01*
X980328Y344018D01*
X980275Y344192D01*
X980266Y344209D01*
X980260Y344226D01*
X980170Y344386D01*
X980083Y344547D01*
X980071Y344561D01*
X980062Y344577D01*
X979943Y344715D01*
X979826Y344856D01*
X979811Y344868D01*
X979799Y344882D01*
X979655Y344994D01*
X979512Y345109D01*
X979496Y345117D01*
X979481Y345128D01*
X979317Y345210D01*
X979155Y345294D01*
X979137Y345299D01*
X979121Y345308D01*
X978943Y345355D01*
X978768Y345406D01*
X978750Y345407D01*
X978732Y345412D01*
X978401Y345439D01*
X829482Y345439D01*
X829469Y345438D01*
X829455Y345439D01*
X829269Y345418D01*
X829081Y345399D01*
X829069Y345395D01*
X829055Y345394D01*
X828876Y345336D01*
X828696Y345281D01*
X828685Y345275D01*
X828672Y345271D01*
X828507Y345179D01*
X828342Y345089D01*
X828332Y345081D01*
X828320Y345074D01*
X828178Y344952D01*
X828033Y344832D01*
X828025Y344821D01*
X828015Y344813D01*
X827899Y344665D01*
X827781Y344518D01*
X827775Y344506D01*
X827766Y344496D01*
X827682Y344327D01*
X827595Y344161D01*
X827592Y344148D01*
X827586Y344136D01*
X827536Y343955D01*
X827484Y343774D01*
X827483Y343760D01*
X827479Y343747D01*
X827466Y343559D01*
X827451Y343372D01*
X827453Y343359D01*
X827452Y343346D01*
X827476Y343158D01*
X827498Y342973D01*
X827502Y342960D01*
X827504Y342947D01*
X827605Y342631D01*
X828803Y339740D01*
X828803Y320660D01*
X827333Y317112D01*
X824618Y314397D01*
X821070Y312927D01*
X817230Y312927D01*
X813682Y314397D01*
X810967Y317112D01*
X809497Y320660D01*
X809497Y339740D01*
X810695Y342631D01*
X810699Y342644D01*
X810705Y342655D01*
X810756Y342835D01*
X810811Y343016D01*
X810812Y343029D01*
X810816Y343042D01*
X810831Y343230D01*
X810849Y343417D01*
X810848Y343430D01*
X810849Y343444D01*
X810827Y343630D01*
X810808Y343817D01*
X810804Y343830D01*
X810802Y343843D01*
X810744Y344022D01*
X810688Y344202D01*
X810681Y344213D01*
X810677Y344226D01*
X810584Y344391D01*
X810494Y344555D01*
X810486Y344565D01*
X810479Y344577D01*
X810356Y344719D01*
X810235Y344863D01*
X810225Y344871D01*
X810216Y344882D01*
X810068Y344997D01*
X809920Y345114D01*
X809909Y345120D01*
X809898Y345128D01*
X809729Y345212D01*
X809562Y345298D01*
X809550Y345302D01*
X809537Y345308D01*
X809355Y345357D01*
X809175Y345408D01*
X809162Y345409D01*
X809149Y345412D01*
X808818Y345439D01*
X804082Y345439D01*
X804069Y345438D01*
X804055Y345439D01*
X803869Y345418D01*
X803681Y345399D01*
X803669Y345395D01*
X803655Y345394D01*
X803476Y345336D01*
X803296Y345281D01*
X803285Y345275D01*
X803272Y345271D01*
X803107Y345179D01*
X802942Y345089D01*
X802932Y345081D01*
X802920Y345074D01*
X802778Y344952D01*
X802633Y344832D01*
X802625Y344821D01*
X802615Y344813D01*
X802499Y344665D01*
X802381Y344518D01*
X802375Y344506D01*
X802366Y344496D01*
X802282Y344327D01*
X802195Y344161D01*
X802192Y344148D01*
X802186Y344136D01*
X802136Y343955D01*
X802084Y343774D01*
X802083Y343760D01*
X802079Y343747D01*
X802066Y343559D01*
X802051Y343372D01*
X802053Y343359D01*
X802052Y343346D01*
X802076Y343158D01*
X802098Y342973D01*
X802102Y342960D01*
X802104Y342947D01*
X802205Y342631D01*
X803403Y339740D01*
X803403Y320660D01*
X801933Y317112D01*
X799218Y314397D01*
X795670Y312927D01*
X791830Y312927D01*
X788282Y314397D01*
X785567Y317112D01*
X784097Y320660D01*
X784097Y339740D01*
X785295Y342631D01*
X785299Y342644D01*
X785305Y342655D01*
X785356Y342835D01*
X785411Y343016D01*
X785412Y343029D01*
X785416Y343042D01*
X785431Y343230D01*
X785449Y343417D01*
X785448Y343430D01*
X785449Y343444D01*
X785427Y343630D01*
X785408Y343817D01*
X785404Y343830D01*
X785402Y343843D01*
X785344Y344022D01*
X785288Y344202D01*
X785281Y344213D01*
X785277Y344226D01*
X785184Y344391D01*
X785094Y344555D01*
X785086Y344565D01*
X785079Y344577D01*
X784956Y344719D01*
X784835Y344863D01*
X784825Y344871D01*
X784816Y344882D01*
X784668Y344997D01*
X784520Y345114D01*
X784509Y345120D01*
X784498Y345128D01*
X784329Y345212D01*
X784162Y345298D01*
X784150Y345302D01*
X784137Y345308D01*
X783955Y345357D01*
X783775Y345408D01*
X783762Y345409D01*
X783749Y345412D01*
X783418Y345439D01*
X778682Y345439D01*
X778669Y345438D01*
X778655Y345439D01*
X778469Y345418D01*
X778281Y345399D01*
X778269Y345395D01*
X778255Y345394D01*
X778076Y345336D01*
X777896Y345281D01*
X777885Y345275D01*
X777872Y345271D01*
X777707Y345179D01*
X777542Y345089D01*
X777532Y345081D01*
X777520Y345074D01*
X777378Y344952D01*
X777233Y344832D01*
X777225Y344821D01*
X777215Y344813D01*
X777099Y344665D01*
X776981Y344518D01*
X776975Y344506D01*
X776966Y344496D01*
X776882Y344327D01*
X776795Y344161D01*
X776792Y344148D01*
X776786Y344136D01*
X776736Y343955D01*
X776684Y343774D01*
X776683Y343760D01*
X776679Y343747D01*
X776666Y343559D01*
X776651Y343372D01*
X776653Y343359D01*
X776652Y343346D01*
X776676Y343158D01*
X776698Y342973D01*
X776702Y342960D01*
X776704Y342947D01*
X776805Y342631D01*
X778003Y339740D01*
X778003Y320660D01*
X776533Y317112D01*
X773818Y314397D01*
X770270Y312927D01*
X766430Y312927D01*
X762882Y314397D01*
X760167Y317112D01*
X758697Y320660D01*
X758697Y339740D01*
X759895Y342631D01*
X759899Y342644D01*
X759905Y342655D01*
X759956Y342835D01*
X760011Y343016D01*
X760012Y343029D01*
X760016Y343042D01*
X760031Y343230D01*
X760049Y343417D01*
X760048Y343430D01*
X760049Y343444D01*
X760027Y343630D01*
X760008Y343817D01*
X760004Y343830D01*
X760002Y343843D01*
X759944Y344022D01*
X759888Y344202D01*
X759881Y344213D01*
X759877Y344226D01*
X759784Y344391D01*
X759694Y344555D01*
X759686Y344565D01*
X759679Y344577D01*
X759556Y344719D01*
X759435Y344863D01*
X759425Y344871D01*
X759416Y344882D01*
X759268Y344997D01*
X759120Y345114D01*
X759109Y345120D01*
X759098Y345128D01*
X758929Y345212D01*
X758762Y345298D01*
X758750Y345302D01*
X758737Y345308D01*
X758555Y345357D01*
X758375Y345408D01*
X758362Y345409D01*
X758349Y345412D01*
X758018Y345439D01*
X753282Y345439D01*
X753269Y345438D01*
X753255Y345439D01*
X753069Y345418D01*
X752881Y345399D01*
X752869Y345395D01*
X752855Y345394D01*
X752676Y345336D01*
X752496Y345281D01*
X752485Y345275D01*
X752472Y345271D01*
X752307Y345179D01*
X752142Y345089D01*
X752132Y345081D01*
X752120Y345074D01*
X751978Y344952D01*
X751833Y344832D01*
X751825Y344821D01*
X751815Y344813D01*
X751699Y344665D01*
X751581Y344518D01*
X751575Y344506D01*
X751566Y344496D01*
X751482Y344327D01*
X751395Y344161D01*
X751392Y344148D01*
X751386Y344136D01*
X751336Y343955D01*
X751284Y343774D01*
X751283Y343760D01*
X751279Y343747D01*
X751266Y343559D01*
X751251Y343372D01*
X751253Y343359D01*
X751252Y343346D01*
X751276Y343158D01*
X751298Y342973D01*
X751302Y342960D01*
X751304Y342947D01*
X751405Y342631D01*
X752603Y339740D01*
X752603Y320660D01*
X751133Y317112D01*
X748418Y314397D01*
X748269Y314335D01*
X748249Y314325D01*
X748228Y314318D01*
X748072Y314229D01*
X747914Y314145D01*
X747897Y314131D01*
X747877Y314120D01*
X747742Y314003D01*
X747603Y313888D01*
X747589Y313871D01*
X747572Y313857D01*
X747463Y313715D01*
X747350Y313576D01*
X747339Y313556D01*
X747326Y313538D01*
X747246Y313378D01*
X747163Y313219D01*
X747156Y313198D01*
X747146Y313178D01*
X747100Y313005D01*
X747050Y312833D01*
X747048Y312811D01*
X747042Y312789D01*
X747015Y312458D01*
X747015Y303991D01*
X746396Y302498D01*
X713502Y269604D01*
X712009Y268985D01*
X688546Y268985D01*
X688528Y268983D01*
X688510Y268985D01*
X688328Y268964D01*
X688145Y268945D01*
X688128Y268940D01*
X688111Y268938D01*
X687936Y268881D01*
X687760Y268827D01*
X687745Y268819D01*
X687728Y268813D01*
X687568Y268723D01*
X687406Y268635D01*
X687393Y268624D01*
X687377Y268615D01*
X687238Y268495D01*
X687097Y268378D01*
X687086Y268364D01*
X687072Y268352D01*
X686960Y268207D01*
X686845Y268064D01*
X686837Y268048D01*
X686826Y268034D01*
X686743Y267868D01*
X686659Y267707D01*
X686654Y267690D01*
X686646Y267674D01*
X686599Y267495D01*
X686548Y267320D01*
X686546Y267302D01*
X686542Y267285D01*
X686535Y267196D01*
X685324Y265985D01*
X673576Y265985D01*
X672385Y267176D01*
X672385Y278924D01*
X673576Y280115D01*
X685324Y280115D01*
X686539Y278899D01*
X686555Y278745D01*
X686560Y278728D01*
X686562Y278711D01*
X686619Y278536D01*
X686673Y278360D01*
X686681Y278345D01*
X686687Y278328D01*
X686777Y278168D01*
X686865Y278006D01*
X686876Y277993D01*
X686885Y277977D01*
X687005Y277838D01*
X687122Y277697D01*
X687136Y277686D01*
X687148Y277672D01*
X687293Y277560D01*
X687436Y277445D01*
X687452Y277437D01*
X687466Y277426D01*
X687631Y277344D01*
X687793Y277259D01*
X687810Y277254D01*
X687826Y277246D01*
X688005Y277199D01*
X688180Y277148D01*
X688198Y277146D01*
X688215Y277142D01*
X688546Y277115D01*
X708675Y277115D01*
X708702Y277117D01*
X708728Y277115D01*
X708902Y277137D01*
X709076Y277155D01*
X709101Y277162D01*
X709128Y277166D01*
X709293Y277221D01*
X709460Y277273D01*
X709484Y277286D01*
X709509Y277294D01*
X709661Y277381D01*
X709815Y277465D01*
X709835Y277482D01*
X709858Y277495D01*
X710111Y277710D01*
X738290Y305889D01*
X738307Y305909D01*
X738328Y305927D01*
X738435Y306065D01*
X738545Y306200D01*
X738558Y306224D01*
X738574Y306245D01*
X738652Y306402D01*
X738734Y306556D01*
X738742Y306581D01*
X738754Y306606D01*
X738799Y306775D01*
X738849Y306942D01*
X738851Y306968D01*
X738858Y306994D01*
X738885Y307325D01*
X738885Y312458D01*
X738883Y312481D01*
X738885Y312503D01*
X738863Y312680D01*
X738845Y312859D01*
X738839Y312880D01*
X738836Y312903D01*
X738780Y313072D01*
X738727Y313244D01*
X738717Y313264D01*
X738710Y313285D01*
X738621Y313440D01*
X738535Y313598D01*
X738521Y313615D01*
X738510Y313634D01*
X738393Y313769D01*
X738278Y313907D01*
X738260Y313921D01*
X738246Y313938D01*
X738104Y314047D01*
X737964Y314160D01*
X737944Y314170D01*
X737926Y314183D01*
X737631Y314335D01*
X737482Y314397D01*
X734767Y317112D01*
X733297Y320660D01*
X733297Y339740D01*
X734495Y342631D01*
X734499Y342644D01*
X734505Y342655D01*
X734556Y342835D01*
X734611Y343016D01*
X734612Y343029D01*
X734616Y343042D01*
X734631Y343230D01*
X734649Y343417D01*
X734648Y343430D01*
X734649Y343444D01*
X734627Y343630D01*
X734608Y343817D01*
X734604Y343830D01*
X734602Y343843D01*
X734544Y344022D01*
X734488Y344202D01*
X734481Y344213D01*
X734477Y344226D01*
X734384Y344391D01*
X734294Y344555D01*
X734286Y344565D01*
X734279Y344577D01*
X734156Y344719D01*
X734035Y344863D01*
X734025Y344871D01*
X734016Y344882D01*
X733868Y344997D01*
X733720Y345114D01*
X733709Y345120D01*
X733698Y345128D01*
X733529Y345212D01*
X733362Y345298D01*
X733350Y345302D01*
X733337Y345308D01*
X733155Y345357D01*
X732975Y345408D01*
X732962Y345409D01*
X732949Y345412D01*
X732618Y345439D01*
X727882Y345439D01*
X727869Y345438D01*
X727855Y345439D01*
X727669Y345418D01*
X727481Y345399D01*
X727469Y345395D01*
X727455Y345394D01*
X727276Y345336D01*
X727096Y345281D01*
X727085Y345275D01*
X727072Y345271D01*
X726907Y345179D01*
X726742Y345089D01*
X726732Y345081D01*
X726720Y345074D01*
X726578Y344952D01*
X726433Y344832D01*
X726425Y344821D01*
X726415Y344813D01*
X726299Y344665D01*
X726181Y344518D01*
X726175Y344506D01*
X726166Y344496D01*
X726082Y344327D01*
X725995Y344161D01*
X725992Y344148D01*
X725986Y344136D01*
X725936Y343955D01*
X725884Y343774D01*
X725883Y343760D01*
X725879Y343747D01*
X725866Y343559D01*
X725851Y343372D01*
X725853Y343359D01*
X725852Y343346D01*
X725876Y343158D01*
X725898Y342973D01*
X725902Y342960D01*
X725904Y342947D01*
X726005Y342631D01*
X727203Y339740D01*
X727203Y320660D01*
X725733Y317112D01*
X723018Y314397D01*
X719470Y312927D01*
X715630Y312927D01*
X712082Y314397D01*
X709367Y317112D01*
X707897Y320660D01*
X707897Y339740D01*
X709095Y342631D01*
X709099Y342644D01*
X709105Y342655D01*
X709156Y342835D01*
X709211Y343016D01*
X709212Y343029D01*
X709216Y343042D01*
X709231Y343230D01*
X709249Y343417D01*
X709248Y343430D01*
X709249Y343444D01*
X709227Y343630D01*
X709208Y343817D01*
X709204Y343830D01*
X709202Y343843D01*
X709144Y344022D01*
X709088Y344202D01*
X709081Y344213D01*
X709077Y344226D01*
X708984Y344391D01*
X708894Y344555D01*
X708886Y344565D01*
X708879Y344577D01*
X708756Y344719D01*
X708635Y344863D01*
X708625Y344871D01*
X708616Y344882D01*
X708468Y344997D01*
X708320Y345114D01*
X708309Y345120D01*
X708298Y345128D01*
X708129Y345212D01*
X707962Y345298D01*
X707950Y345302D01*
X707937Y345308D01*
X707755Y345357D01*
X707575Y345408D01*
X707562Y345409D01*
X707549Y345412D01*
X707218Y345439D01*
X636763Y345439D01*
X636754Y345438D01*
X636745Y345439D01*
X636552Y345418D01*
X636362Y345399D01*
X636354Y345397D01*
X636345Y345396D01*
X636161Y345338D01*
X635977Y345281D01*
X635970Y345277D01*
X635961Y345274D01*
X635793Y345182D01*
X635623Y345089D01*
X635617Y345084D01*
X635609Y345079D01*
X635462Y344955D01*
X635314Y344832D01*
X635309Y344825D01*
X635302Y344819D01*
X635182Y344667D01*
X635062Y344518D01*
X635058Y344510D01*
X635052Y344503D01*
X634964Y344330D01*
X634876Y344161D01*
X634874Y344152D01*
X634870Y344144D01*
X634818Y343958D01*
X634765Y343774D01*
X634764Y343765D01*
X634762Y343756D01*
X634748Y343563D01*
X634732Y343372D01*
X634733Y343364D01*
X634732Y343355D01*
X634757Y343162D01*
X634779Y342973D01*
X634782Y342964D01*
X634783Y342955D01*
X634844Y342772D01*
X634904Y342590D01*
X634908Y342582D01*
X634911Y342574D01*
X635007Y342407D01*
X635102Y342239D01*
X635107Y342232D01*
X635112Y342225D01*
X635327Y341972D01*
X651146Y326152D01*
X651765Y324659D01*
X651765Y262875D01*
X651767Y262848D01*
X651765Y262822D01*
X651787Y262648D01*
X651805Y262474D01*
X651812Y262449D01*
X651816Y262422D01*
X651871Y262257D01*
X651923Y262090D01*
X651936Y262066D01*
X651944Y262041D01*
X652031Y261889D01*
X652115Y261735D01*
X652132Y261715D01*
X652145Y261692D01*
X652360Y261439D01*
X674189Y239610D01*
X674209Y239593D01*
X674227Y239572D01*
X674365Y239465D01*
X674500Y239355D01*
X674524Y239342D01*
X674545Y239326D01*
X674702Y239248D01*
X674856Y239166D01*
X674881Y239158D01*
X674906Y239146D01*
X675075Y239101D01*
X675242Y239051D01*
X675268Y239049D01*
X675294Y239042D01*
X675625Y239015D01*
X695754Y239015D01*
X695772Y239017D01*
X695790Y239015D01*
X695972Y239036D01*
X696155Y239055D01*
X696172Y239060D01*
X696189Y239062D01*
X696364Y239119D01*
X696540Y239173D01*
X696555Y239181D01*
X696572Y239187D01*
X696732Y239277D01*
X696894Y239365D01*
X696907Y239376D01*
X696923Y239385D01*
X697062Y239505D01*
X697203Y239622D01*
X697214Y239636D01*
X697228Y239648D01*
X697340Y239793D01*
X697455Y239936D01*
X697463Y239952D01*
X697474Y239966D01*
X697556Y240131D01*
X697641Y240293D01*
X697646Y240310D01*
X697654Y240326D01*
X697701Y240504D01*
X697752Y240680D01*
X697754Y240698D01*
X697758Y240715D01*
X697765Y240804D01*
X698392Y241431D01*
X698478Y241536D01*
X698570Y241634D01*
X698605Y241691D01*
X698647Y241743D01*
X698711Y241862D01*
X698782Y241977D01*
X698805Y242040D01*
X698836Y242098D01*
X698875Y242228D01*
X698922Y242355D01*
X698932Y242420D01*
X698951Y242484D01*
X698963Y242619D01*
X698984Y242752D01*
X698981Y242819D01*
X698987Y242885D01*
X698973Y243020D01*
X698967Y243155D01*
X698951Y243219D01*
X698944Y243285D01*
X698903Y243414D01*
X698871Y243546D01*
X698842Y243606D01*
X698822Y243669D01*
X698757Y243788D01*
X698699Y243910D01*
X698660Y243963D01*
X698628Y244022D01*
X698540Y244125D01*
X698460Y244233D01*
X698410Y244278D01*
X698367Y244329D01*
X698261Y244412D01*
X698161Y244503D01*
X698096Y244543D01*
X698051Y244578D01*
X697981Y244614D01*
X697878Y244677D01*
X697694Y244771D01*
X696320Y245769D01*
X695119Y246970D01*
X694121Y248344D01*
X693350Y249858D01*
X692897Y251251D01*
X702632Y251251D01*
X702650Y251252D01*
X702667Y251251D01*
X702850Y251272D01*
X703032Y251291D01*
X703049Y251296D01*
X703067Y251298D01*
X703242Y251355D01*
X703342Y251386D01*
X703349Y251382D01*
X703527Y251334D01*
X703702Y251284D01*
X703720Y251282D01*
X703737Y251278D01*
X704068Y251251D01*
X713803Y251251D01*
X713350Y249858D01*
X712579Y248344D01*
X711581Y246970D01*
X710380Y245769D01*
X710270Y245689D01*
X710144Y245577D01*
X710015Y245470D01*
X709994Y245444D01*
X709969Y245422D01*
X709868Y245287D01*
X709762Y245156D01*
X709747Y245126D01*
X709727Y245100D01*
X709654Y244948D01*
X709577Y244799D01*
X709568Y244767D01*
X709553Y244737D01*
X709512Y244573D01*
X709465Y244412D01*
X709463Y244379D01*
X709455Y244346D01*
X709446Y244178D01*
X709433Y244010D01*
X709436Y243977D01*
X709435Y243944D01*
X709460Y243778D01*
X709479Y243611D01*
X709490Y243579D01*
X709495Y243546D01*
X709552Y243388D01*
X709604Y243228D01*
X709621Y243199D01*
X709632Y243168D01*
X709720Y243024D01*
X709802Y242877D01*
X709824Y242852D01*
X709841Y242824D01*
X709955Y242700D01*
X710065Y242572D01*
X710092Y242552D01*
X710114Y242528D01*
X710251Y242429D01*
X710383Y242326D01*
X710413Y242311D01*
X710440Y242291D01*
X710453Y242285D01*
X711915Y240824D01*
X711915Y229076D01*
X710724Y227885D01*
X698976Y227885D01*
X697761Y229101D01*
X697745Y229255D01*
X697740Y229272D01*
X697738Y229289D01*
X697681Y229464D01*
X697627Y229640D01*
X697619Y229655D01*
X697613Y229672D01*
X697523Y229832D01*
X697435Y229994D01*
X697424Y230007D01*
X697415Y230023D01*
X697295Y230162D01*
X697178Y230303D01*
X697164Y230314D01*
X697152Y230328D01*
X697007Y230440D01*
X696864Y230555D01*
X696848Y230563D01*
X696834Y230574D01*
X696669Y230656D01*
X696507Y230741D01*
X696490Y230746D01*
X696474Y230754D01*
X696295Y230801D01*
X696120Y230852D01*
X696102Y230854D01*
X696085Y230858D01*
X695754Y230885D01*
X672291Y230885D01*
X670798Y231504D01*
X669369Y232933D01*
X669368Y232933D01*
X644254Y258048D01*
X643635Y259541D01*
X643635Y321325D01*
X643633Y321352D01*
X643635Y321378D01*
X643613Y321552D01*
X643595Y321726D01*
X643588Y321751D01*
X643584Y321778D01*
X643529Y321943D01*
X643477Y322110D01*
X643464Y322134D01*
X643456Y322159D01*
X643369Y322311D01*
X643285Y322465D01*
X643268Y322485D01*
X643255Y322508D01*
X643040Y322761D01*
X627561Y338240D01*
X627541Y338257D01*
X627523Y338278D01*
X627385Y338385D01*
X627250Y338495D01*
X627226Y338508D01*
X627205Y338524D01*
X627048Y338602D01*
X626894Y338684D01*
X626869Y338692D01*
X626844Y338704D01*
X626675Y338749D01*
X626508Y338799D01*
X626482Y338801D01*
X626456Y338808D01*
X626125Y338835D01*
X161275Y338835D01*
X161248Y338833D01*
X161222Y338835D01*
X161048Y338813D01*
X160874Y338795D01*
X160849Y338788D01*
X160822Y338784D01*
X160657Y338729D01*
X160490Y338677D01*
X160466Y338664D01*
X160441Y338656D01*
X160289Y338569D01*
X160135Y338485D01*
X160115Y338468D01*
X160092Y338455D01*
X159839Y338240D01*
X148352Y326754D01*
X146859Y326135D01*
X138684Y326135D01*
X138666Y326133D01*
X138648Y326135D01*
X138466Y326114D01*
X138283Y326095D01*
X138266Y326090D01*
X138249Y326088D01*
X138074Y326031D01*
X137898Y325977D01*
X137883Y325969D01*
X137866Y325963D01*
X137706Y325873D01*
X137544Y325785D01*
X137531Y325774D01*
X137515Y325765D01*
X137376Y325645D01*
X137235Y325528D01*
X137224Y325514D01*
X137210Y325502D01*
X137098Y325357D01*
X136983Y325214D01*
X136975Y325198D01*
X136964Y325184D01*
X136882Y325019D01*
X136797Y324857D01*
X136792Y324840D01*
X136784Y324824D01*
X136737Y324645D01*
X136686Y324470D01*
X136684Y324452D01*
X136680Y324435D01*
X136653Y324104D01*
X136653Y320660D01*
X135183Y317112D01*
X132468Y314397D01*
X128920Y312927D01*
X125080Y312927D01*
X121532Y314397D01*
X118817Y317112D01*
X117347Y320660D01*
X117347Y339740D01*
X118545Y342631D01*
X118549Y342644D01*
X118555Y342655D01*
X118606Y342835D01*
X118661Y343016D01*
X118662Y343029D01*
X118666Y343042D01*
X118681Y343230D01*
X118699Y343417D01*
X118698Y343430D01*
X118699Y343444D01*
X118677Y343630D01*
X118658Y343817D01*
X118654Y343830D01*
X118652Y343843D01*
X118594Y344022D01*
X118538Y344202D01*
X118531Y344213D01*
X118527Y344226D01*
X118434Y344391D01*
X118344Y344555D01*
X118336Y344565D01*
X118329Y344577D01*
X118206Y344719D01*
X118085Y344863D01*
X118075Y344871D01*
X118066Y344882D01*
X117918Y344997D01*
X117770Y345114D01*
X117759Y345120D01*
X117748Y345128D01*
X117579Y345212D01*
X117412Y345298D01*
X117400Y345302D01*
X117387Y345308D01*
X117205Y345357D01*
X117025Y345408D01*
X117012Y345409D01*
X116999Y345412D01*
X116668Y345439D01*
X111932Y345439D01*
X111919Y345438D01*
X111905Y345439D01*
X111719Y345418D01*
X111531Y345399D01*
X111519Y345395D01*
X111505Y345394D01*
X111326Y345336D01*
X111146Y345281D01*
X111135Y345275D01*
X111122Y345271D01*
X110957Y345179D01*
X110792Y345089D01*
X110782Y345081D01*
X110770Y345074D01*
X110628Y344952D01*
X110483Y344832D01*
X110475Y344821D01*
X110465Y344813D01*
X110349Y344665D01*
X110231Y344518D01*
X110225Y344506D01*
X110216Y344496D01*
X110132Y344327D01*
X110045Y344161D01*
X110042Y344148D01*
X110036Y344136D01*
X109986Y343955D01*
X109934Y343774D01*
X109933Y343760D01*
X109929Y343747D01*
X109916Y343559D01*
X109901Y343372D01*
X109903Y343359D01*
X109902Y343346D01*
X109926Y343158D01*
X109948Y342973D01*
X109952Y342960D01*
X109954Y342947D01*
X110055Y342631D01*
X111253Y339740D01*
X111253Y320660D01*
X109703Y316919D01*
X109697Y316897D01*
X109686Y316877D01*
X109638Y316705D01*
X109587Y316533D01*
X109584Y316511D01*
X109578Y316490D01*
X109565Y316310D01*
X109548Y316132D01*
X109551Y316110D01*
X109549Y316088D01*
X109572Y315909D01*
X109590Y315732D01*
X109597Y315711D01*
X109600Y315689D01*
X109657Y315518D01*
X109710Y315348D01*
X109721Y315328D01*
X109728Y315307D01*
X109817Y315151D01*
X109903Y314994D01*
X109917Y314977D01*
X109929Y314958D01*
X110143Y314705D01*
X115389Y309460D01*
X115409Y309443D01*
X115427Y309422D01*
X115565Y309315D01*
X115700Y309205D01*
X115724Y309192D01*
X115745Y309176D01*
X115902Y309098D01*
X116056Y309016D01*
X116081Y309008D01*
X116106Y308996D01*
X116275Y308951D01*
X116442Y308901D01*
X116468Y308899D01*
X116494Y308892D01*
X116825Y308865D01*
X172259Y308865D01*
X173752Y308246D01*
X188470Y293529D01*
X188477Y293523D01*
X188482Y293516D01*
X188632Y293396D01*
X188781Y293274D01*
X188789Y293269D01*
X188796Y293264D01*
X188966Y293175D01*
X189137Y293085D01*
X189146Y293082D01*
X189153Y293078D01*
X189338Y293025D01*
X189523Y292970D01*
X189532Y292969D01*
X189540Y292967D01*
X189732Y292951D01*
X189924Y292934D01*
X189933Y292935D01*
X189942Y292934D01*
X190131Y292956D01*
X190324Y292977D01*
X190333Y292980D01*
X190341Y292981D01*
X190523Y293040D01*
X190708Y293099D01*
X190716Y293103D01*
X190724Y293106D01*
X190893Y293201D01*
X191060Y293294D01*
X191067Y293299D01*
X191075Y293304D01*
X191221Y293430D01*
X191367Y293554D01*
X191373Y293561D01*
X191380Y293567D01*
X191496Y293717D01*
X191617Y293870D01*
X191621Y293878D01*
X191626Y293885D01*
X191712Y294057D01*
X191799Y294229D01*
X191802Y294237D01*
X191806Y294245D01*
X191856Y294432D01*
X191907Y294617D01*
X191908Y294626D01*
X191910Y294634D01*
X191937Y294965D01*
X191937Y328122D01*
X193128Y329313D01*
X225972Y329313D01*
X227163Y328122D01*
X227163Y295278D01*
X225972Y294087D01*
X192815Y294087D01*
X192806Y294086D01*
X192797Y294087D01*
X192605Y294066D01*
X192414Y294047D01*
X192406Y294045D01*
X192397Y294044D01*
X192212Y293985D01*
X192029Y293929D01*
X192022Y293925D01*
X192013Y293922D01*
X191845Y293829D01*
X191675Y293737D01*
X191668Y293732D01*
X191661Y293727D01*
X191513Y293602D01*
X191366Y293480D01*
X191361Y293473D01*
X191354Y293467D01*
X191233Y293315D01*
X191114Y293166D01*
X191110Y293158D01*
X191104Y293151D01*
X191016Y292977D01*
X190928Y292809D01*
X190926Y292800D01*
X190922Y292792D01*
X190870Y292605D01*
X190817Y292422D01*
X190816Y292413D01*
X190814Y292404D01*
X190800Y292212D01*
X190784Y292020D01*
X190785Y292011D01*
X190784Y292003D01*
X190809Y291812D01*
X190831Y291621D01*
X190834Y291612D01*
X190835Y291603D01*
X190896Y291421D01*
X190956Y291238D01*
X190960Y291230D01*
X190963Y291221D01*
X191059Y291055D01*
X191154Y290887D01*
X191160Y290880D01*
X191164Y290873D01*
X191379Y290620D01*
X191589Y290410D01*
X191610Y290393D01*
X191627Y290372D01*
X191765Y290266D01*
X191900Y290155D01*
X191924Y290142D01*
X191945Y290126D01*
X192102Y290048D01*
X192256Y289966D01*
X192282Y289958D01*
X192306Y289946D01*
X192475Y289901D01*
X192642Y289851D01*
X192669Y289849D01*
X192694Y289842D01*
X193025Y289815D01*
X295925Y289815D01*
X295952Y289817D01*
X295978Y289815D01*
X296152Y289837D01*
X296326Y289855D01*
X296351Y289862D01*
X296378Y289866D01*
X296543Y289921D01*
X296710Y289973D01*
X296734Y289986D01*
X296759Y289994D01*
X296911Y290081D01*
X297065Y290165D01*
X297085Y290182D01*
X297108Y290195D01*
X297361Y290410D01*
X308848Y301896D01*
X310341Y302515D01*
X426259Y302515D01*
X427752Y301896D01*
X470989Y258660D01*
X471009Y258643D01*
X471027Y258622D01*
X471165Y258515D01*
X471300Y258405D01*
X471324Y258392D01*
X471345Y258376D01*
X471502Y258298D01*
X471656Y258216D01*
X471681Y258208D01*
X471706Y258196D01*
X471875Y258151D01*
X472042Y258101D01*
X472068Y258099D01*
X472094Y258092D01*
X472425Y258065D01*
X496853Y258065D01*
X496862Y258066D01*
X496871Y258065D01*
X497062Y258086D01*
X497253Y258105D01*
X497262Y258107D01*
X497271Y258108D01*
X497453Y258166D01*
X497638Y258223D01*
X497646Y258227D01*
X497655Y258230D01*
X497823Y258323D01*
X497992Y258415D01*
X497999Y258420D01*
X498007Y258425D01*
X498155Y258550D01*
X498302Y258672D01*
X498307Y258679D01*
X498314Y258685D01*
X498434Y258837D01*
X498554Y258986D01*
X498558Y258994D01*
X498564Y259001D01*
X498651Y259173D01*
X498739Y259343D01*
X498742Y259352D01*
X498746Y259360D01*
X498798Y259546D01*
X498851Y259730D01*
X498852Y259739D01*
X498854Y259748D01*
X498868Y259940D01*
X498884Y260132D01*
X498883Y260140D01*
X498883Y260149D01*
X498859Y260342D01*
X498837Y260531D01*
X498834Y260540D01*
X498833Y260549D01*
X498772Y260730D01*
X498712Y260914D01*
X498708Y260922D01*
X498705Y260930D01*
X498609Y261096D01*
X498514Y261265D01*
X498508Y261272D01*
X498504Y261279D01*
X498289Y261532D01*
X497435Y262386D01*
X497435Y271014D01*
X503190Y276769D01*
X503207Y276790D01*
X503228Y276807D01*
X503335Y276945D01*
X503445Y277080D01*
X503458Y277104D01*
X503474Y277125D01*
X503552Y277282D01*
X503634Y277436D01*
X503642Y277462D01*
X503654Y277486D01*
X503699Y277655D01*
X503749Y277822D01*
X503751Y277849D01*
X503758Y277875D01*
X503785Y278205D01*
X503785Y279254D01*
X503783Y279272D01*
X503785Y279290D01*
X503764Y279472D01*
X503745Y279655D01*
X503740Y279672D01*
X503738Y279689D01*
X503681Y279864D01*
X503627Y280040D01*
X503619Y280055D01*
X503613Y280072D01*
X503523Y280232D01*
X503435Y280394D01*
X503424Y280407D01*
X503415Y280423D01*
X503295Y280562D01*
X503178Y280703D01*
X503164Y280714D01*
X503152Y280728D01*
X503007Y280840D01*
X502864Y280955D01*
X502848Y280963D01*
X502834Y280974D01*
X502669Y281056D01*
X502507Y281141D01*
X502490Y281146D01*
X502474Y281154D01*
X502295Y281201D01*
X502120Y281252D01*
X502102Y281254D01*
X502085Y281258D01*
X501754Y281285D01*
X498626Y281285D01*
X497435Y282476D01*
X497435Y300924D01*
X498626Y302115D01*
X517074Y302115D01*
X518265Y300924D01*
X518265Y285496D01*
X518267Y285478D01*
X518265Y285460D01*
X518286Y285278D01*
X518305Y285095D01*
X518310Y285078D01*
X518312Y285061D01*
X518369Y284886D01*
X518423Y284710D01*
X518431Y284695D01*
X518437Y284678D01*
X518527Y284518D01*
X518615Y284356D01*
X518626Y284343D01*
X518635Y284327D01*
X518755Y284188D01*
X518872Y284047D01*
X518886Y284036D01*
X518898Y284022D01*
X519043Y283910D01*
X519186Y283795D01*
X519202Y283787D01*
X519216Y283776D01*
X519381Y283694D01*
X519543Y283609D01*
X519560Y283604D01*
X519576Y283596D01*
X519755Y283549D01*
X519930Y283498D01*
X519948Y283496D01*
X519965Y283492D01*
X520296Y283465D01*
X594375Y283465D01*
X594402Y283467D01*
X594428Y283465D01*
X594602Y283487D01*
X594776Y283505D01*
X594801Y283512D01*
X594828Y283516D01*
X594993Y283571D01*
X595160Y283623D01*
X595184Y283636D01*
X595209Y283644D01*
X595361Y283731D01*
X595515Y283815D01*
X595535Y283832D01*
X595558Y283845D01*
X595811Y284060D01*
X611290Y299539D01*
X611307Y299559D01*
X611328Y299577D01*
X611435Y299715D01*
X611545Y299850D01*
X611558Y299874D01*
X611574Y299895D01*
X611652Y300051D01*
X611734Y300206D01*
X611742Y300231D01*
X611754Y300256D01*
X611799Y300425D01*
X611849Y300592D01*
X611851Y300618D01*
X611858Y300644D01*
X611885Y300975D01*
X611885Y314859D01*
X611884Y314872D01*
X611885Y314884D01*
X611883Y314897D01*
X611885Y314913D01*
X611863Y315086D01*
X611845Y315260D01*
X611838Y315285D01*
X611834Y315312D01*
X611778Y315478D01*
X611727Y315645D01*
X611714Y315668D01*
X611706Y315694D01*
X611619Y315845D01*
X611535Y315999D01*
X611518Y316019D01*
X611505Y316043D01*
X611290Y316296D01*
X607313Y320273D01*
X607313Y327427D01*
X612373Y332487D01*
X619527Y332487D01*
X624587Y327427D01*
X624587Y320273D01*
X620610Y316296D01*
X620593Y316275D01*
X620572Y316257D01*
X620465Y316119D01*
X620355Y315984D01*
X620342Y315960D01*
X620326Y315939D01*
X620248Y315783D01*
X620166Y315628D01*
X620158Y315603D01*
X620146Y315579D01*
X620101Y315409D01*
X620051Y315242D01*
X620049Y315217D01*
X620048Y315214D01*
X620048Y315212D01*
X620042Y315190D01*
X620015Y314859D01*
X620015Y297641D01*
X619396Y296148D01*
X599202Y275954D01*
X597709Y275335D01*
X518847Y275335D01*
X518838Y275334D01*
X518829Y275335D01*
X518638Y275314D01*
X518447Y275295D01*
X518438Y275293D01*
X518429Y275292D01*
X518247Y275234D01*
X518062Y275177D01*
X518054Y275173D01*
X518045Y275170D01*
X517877Y275077D01*
X517708Y274985D01*
X517701Y274980D01*
X517693Y274975D01*
X517545Y274850D01*
X517398Y274728D01*
X517393Y274721D01*
X517386Y274715D01*
X517266Y274563D01*
X517146Y274414D01*
X517142Y274406D01*
X517136Y274399D01*
X517049Y274227D01*
X516961Y274057D01*
X516958Y274048D01*
X516954Y274040D01*
X516902Y273853D01*
X516849Y273670D01*
X516848Y273661D01*
X516846Y273652D01*
X516832Y273460D01*
X516816Y273268D01*
X516817Y273260D01*
X516817Y273251D01*
X516841Y273054D01*
X516863Y272869D01*
X516866Y272860D01*
X516867Y272851D01*
X516928Y272668D01*
X516988Y272486D01*
X516992Y272478D01*
X516995Y272470D01*
X517091Y272304D01*
X517186Y272135D01*
X517192Y272128D01*
X517196Y272121D01*
X517411Y271868D01*
X518265Y271014D01*
X518265Y262386D01*
X517411Y261532D01*
X517405Y261525D01*
X517398Y261520D01*
X517277Y261369D01*
X517156Y261221D01*
X517152Y261213D01*
X517146Y261206D01*
X517057Y261034D01*
X516967Y260865D01*
X516965Y260856D01*
X516961Y260849D01*
X516908Y260664D01*
X516852Y260479D01*
X516852Y260470D01*
X516849Y260462D01*
X516833Y260270D01*
X516816Y260078D01*
X516817Y260069D01*
X516816Y260060D01*
X516839Y259871D01*
X516859Y259678D01*
X516862Y259669D01*
X516863Y259661D01*
X516923Y259477D01*
X516981Y259294D01*
X516985Y259286D01*
X516988Y259278D01*
X517082Y259111D01*
X517176Y258942D01*
X517182Y258935D01*
X517186Y258927D01*
X517311Y258782D01*
X517436Y258635D01*
X517443Y258629D01*
X517449Y258622D01*
X517600Y258506D01*
X517752Y258385D01*
X517760Y258381D01*
X517767Y258376D01*
X517938Y258291D01*
X518111Y258203D01*
X518120Y258200D01*
X518128Y258196D01*
X518313Y258147D01*
X518499Y258095D01*
X518508Y258094D01*
X518517Y258092D01*
X518847Y258065D01*
X623109Y258065D01*
X624602Y257446D01*
X655139Y226910D01*
X655159Y226893D01*
X655177Y226872D01*
X655315Y226765D01*
X655450Y226655D01*
X655474Y226642D01*
X655495Y226626D01*
X655652Y226548D01*
X655806Y226466D01*
X655831Y226458D01*
X655856Y226446D01*
X656025Y226401D01*
X656192Y226351D01*
X656218Y226349D01*
X656244Y226342D01*
X656575Y226315D01*
X692959Y226315D01*
X694452Y225696D01*
X724989Y195160D01*
X725009Y195143D01*
X725027Y195122D01*
X725165Y195015D01*
X725300Y194905D01*
X725324Y194892D01*
X725345Y194876D01*
X725502Y194798D01*
X725656Y194716D01*
X725681Y194708D01*
X725706Y194696D01*
X725875Y194651D01*
X726042Y194601D01*
X726068Y194599D01*
X726094Y194592D01*
X726425Y194565D01*
X870759Y194565D01*
X872252Y193946D01*
X909139Y157060D01*
X909159Y157043D01*
X909177Y157022D01*
X909315Y156915D01*
X909450Y156805D01*
X909474Y156792D01*
X909495Y156776D01*
X909652Y156698D01*
X909806Y156616D01*
X909831Y156608D01*
X909856Y156596D01*
X910025Y156551D01*
X910192Y156501D01*
X910218Y156499D01*
X910244Y156492D01*
X910575Y156465D01*
X957957Y156465D01*
X957984Y156467D01*
X958019Y156466D01*
X958799Y156489D01*
X959519Y156191D01*
X959546Y156183D01*
X959577Y156168D01*
X960307Y155892D01*
X960858Y155340D01*
X960880Y155323D01*
X960903Y155297D01*
X973522Y143425D01*
X973523Y143425D01*
X973683Y143302D01*
X973742Y143256D01*
X974358Y142640D01*
X974379Y142623D01*
X974403Y142597D01*
X974971Y142062D01*
X975270Y141342D01*
X975282Y141318D01*
X975294Y141285D01*
X975615Y140573D01*
X975615Y139793D01*
X975617Y139766D01*
X975616Y139731D01*
X975641Y138904D01*
X975615Y138584D01*
X975615Y112072D01*
X975617Y112050D01*
X975615Y112027D01*
X975637Y111850D01*
X975655Y111672D01*
X975661Y111650D01*
X975664Y111628D01*
X975720Y111458D01*
X975773Y111287D01*
X975784Y111267D01*
X975791Y111245D01*
X975879Y111090D01*
X975965Y110933D01*
X975979Y110915D01*
X975990Y110896D01*
X976108Y110761D01*
X976222Y110623D01*
X976240Y110609D01*
X976255Y110592D01*
X976397Y110483D01*
X976459Y110433D01*
X976834Y110058D01*
X976841Y110052D01*
X976846Y110046D01*
X976997Y109925D01*
X977146Y109803D01*
X977153Y109799D01*
X977160Y109793D01*
X977331Y109704D01*
X977502Y109614D01*
X977510Y109611D01*
X977517Y109608D01*
X977701Y109555D01*
X977887Y109499D01*
X977896Y109498D01*
X977904Y109496D01*
X978095Y109480D01*
X978288Y109463D01*
X978297Y109464D01*
G37*
G36*
X645322Y169166D02*
X645322Y169166D01*
X645331Y169165D01*
X645522Y169185D01*
X645714Y169205D01*
X645722Y169207D01*
X645731Y169208D01*
X645915Y169266D01*
X646099Y169323D01*
X646107Y169327D01*
X646115Y169330D01*
X646284Y169423D01*
X646453Y169515D01*
X646460Y169520D01*
X646468Y169525D01*
X646614Y169649D01*
X646762Y169772D01*
X646768Y169779D01*
X646774Y169785D01*
X646894Y169936D01*
X647014Y170086D01*
X647018Y170094D01*
X647024Y170101D01*
X647112Y170274D01*
X647200Y170443D01*
X647202Y170452D01*
X647206Y170460D01*
X647258Y170647D01*
X647311Y170830D01*
X647312Y170839D01*
X647314Y170848D01*
X647328Y171040D01*
X647344Y171232D01*
X647343Y171240D01*
X647344Y171249D01*
X647320Y171441D01*
X647297Y171631D01*
X647294Y171640D01*
X647293Y171649D01*
X647232Y171831D01*
X647172Y172014D01*
X647168Y172022D01*
X647165Y172030D01*
X647069Y172198D01*
X646975Y172365D01*
X646969Y172372D01*
X646964Y172379D01*
X646750Y172632D01*
X646474Y172908D01*
X645159Y176082D01*
X645159Y179518D01*
X646474Y182692D01*
X646750Y182968D01*
X646755Y182975D01*
X646762Y182980D01*
X646883Y183130D01*
X647005Y183279D01*
X647009Y183287D01*
X647014Y183294D01*
X647103Y183464D01*
X647193Y183635D01*
X647196Y183644D01*
X647200Y183651D01*
X647253Y183835D01*
X647308Y184021D01*
X647309Y184030D01*
X647311Y184038D01*
X647327Y184229D01*
X647344Y184422D01*
X647343Y184431D01*
X647344Y184440D01*
X647322Y184629D01*
X647301Y184822D01*
X647298Y184831D01*
X647297Y184839D01*
X647238Y185022D01*
X647180Y185206D01*
X647175Y185214D01*
X647172Y185222D01*
X647077Y185391D01*
X646985Y185558D01*
X646979Y185565D01*
X646975Y185573D01*
X646849Y185718D01*
X646724Y185865D01*
X646717Y185871D01*
X646711Y185878D01*
X646560Y185995D01*
X646408Y186115D01*
X646400Y186119D01*
X646393Y186124D01*
X646221Y186210D01*
X646049Y186297D01*
X646041Y186300D01*
X646033Y186304D01*
X645845Y186354D01*
X645662Y186405D01*
X645653Y186406D01*
X645644Y186408D01*
X645313Y186435D01*
X634191Y186435D01*
X632698Y187054D01*
X627561Y192190D01*
X627541Y192207D01*
X627523Y192228D01*
X627385Y192335D01*
X627250Y192445D01*
X627226Y192458D01*
X627205Y192474D01*
X627048Y192552D01*
X626894Y192634D01*
X626869Y192642D01*
X626844Y192654D01*
X626675Y192699D01*
X626508Y192749D01*
X626482Y192751D01*
X626456Y192758D01*
X626125Y192785D01*
X538941Y192785D01*
X537448Y193404D01*
X504554Y226298D01*
X503935Y227791D01*
X503935Y230045D01*
X503933Y230071D01*
X503935Y230098D01*
X503913Y230272D01*
X503895Y230445D01*
X503888Y230471D01*
X503884Y230497D01*
X503829Y230662D01*
X503777Y230830D01*
X503764Y230854D01*
X503756Y230879D01*
X503669Y231031D01*
X503585Y231184D01*
X503568Y231205D01*
X503555Y231228D01*
X503340Y231481D01*
X497435Y237386D01*
X497435Y246014D01*
X497889Y246468D01*
X497895Y246475D01*
X497902Y246480D01*
X498021Y246629D01*
X498144Y246779D01*
X498148Y246787D01*
X498154Y246794D01*
X498242Y246964D01*
X498333Y247135D01*
X498335Y247144D01*
X498339Y247151D01*
X498392Y247336D01*
X498448Y247521D01*
X498448Y247530D01*
X498451Y247538D01*
X498466Y247729D01*
X498484Y247922D01*
X498483Y247931D01*
X498484Y247940D01*
X498462Y248128D01*
X498441Y248322D01*
X498438Y248331D01*
X498437Y248339D01*
X498377Y248522D01*
X498319Y248706D01*
X498315Y248714D01*
X498312Y248722D01*
X498218Y248889D01*
X498124Y249058D01*
X498118Y249065D01*
X498114Y249073D01*
X497989Y249218D01*
X497864Y249365D01*
X497857Y249371D01*
X497851Y249378D01*
X497699Y249495D01*
X497548Y249615D01*
X497540Y249619D01*
X497533Y249624D01*
X497361Y249710D01*
X497189Y249797D01*
X497180Y249800D01*
X497172Y249804D01*
X496987Y249853D01*
X496801Y249905D01*
X496792Y249906D01*
X496783Y249908D01*
X496453Y249935D01*
X469091Y249935D01*
X467598Y250554D01*
X424361Y293790D01*
X424341Y293807D01*
X424323Y293828D01*
X424185Y293935D01*
X424050Y294045D01*
X424026Y294058D01*
X424005Y294074D01*
X423848Y294152D01*
X423694Y294234D01*
X423669Y294242D01*
X423644Y294254D01*
X423475Y294299D01*
X423308Y294349D01*
X423282Y294351D01*
X423256Y294358D01*
X422925Y294385D01*
X313675Y294385D01*
X313648Y294383D01*
X313622Y294385D01*
X313448Y294363D01*
X313274Y294345D01*
X313249Y294338D01*
X313222Y294334D01*
X313057Y294279D01*
X312890Y294227D01*
X312866Y294214D01*
X312841Y294206D01*
X312689Y294119D01*
X312535Y294035D01*
X312515Y294018D01*
X312492Y294005D01*
X312239Y293790D01*
X300752Y282304D01*
X299259Y281685D01*
X189691Y281685D01*
X188198Y282304D01*
X170361Y300140D01*
X170341Y300157D01*
X170323Y300178D01*
X170185Y300285D01*
X170050Y300395D01*
X170026Y300408D01*
X170005Y300424D01*
X169848Y300502D01*
X169694Y300584D01*
X169669Y300592D01*
X169644Y300604D01*
X169475Y300649D01*
X169308Y300699D01*
X169282Y300701D01*
X169256Y300708D01*
X168925Y300735D01*
X152504Y300735D01*
X152486Y300733D01*
X152468Y300735D01*
X152286Y300714D01*
X152103Y300695D01*
X152086Y300690D01*
X152069Y300688D01*
X151894Y300631D01*
X151718Y300577D01*
X151703Y300569D01*
X151686Y300563D01*
X151526Y300473D01*
X151364Y300385D01*
X151351Y300374D01*
X151335Y300365D01*
X151196Y300245D01*
X151055Y300128D01*
X151044Y300114D01*
X151030Y300102D01*
X150918Y299957D01*
X150803Y299814D01*
X150795Y299798D01*
X150784Y299784D01*
X150702Y299619D01*
X150617Y299457D01*
X150612Y299440D01*
X150604Y299424D01*
X150557Y299245D01*
X150506Y299070D01*
X150504Y299052D01*
X150500Y299035D01*
X150473Y298704D01*
X150473Y294449D01*
X140268Y294449D01*
X140250Y294447D01*
X140233Y294449D01*
X140050Y294428D01*
X139868Y294409D01*
X139851Y294404D01*
X139833Y294402D01*
X139658Y294345D01*
X139558Y294314D01*
X139551Y294318D01*
X139373Y294365D01*
X139198Y294416D01*
X139180Y294418D01*
X139163Y294422D01*
X138832Y294449D01*
X128627Y294449D01*
X128627Y298704D01*
X128625Y298722D01*
X128627Y298740D01*
X128606Y298922D01*
X128587Y299105D01*
X128582Y299122D01*
X128580Y299139D01*
X128523Y299314D01*
X128469Y299490D01*
X128461Y299505D01*
X128455Y299522D01*
X128365Y299682D01*
X128277Y299844D01*
X128266Y299857D01*
X128257Y299873D01*
X128137Y300012D01*
X128020Y300153D01*
X128006Y300164D01*
X127994Y300178D01*
X127849Y300290D01*
X127706Y300405D01*
X127690Y300413D01*
X127676Y300424D01*
X127511Y300506D01*
X127349Y300591D01*
X127332Y300596D01*
X127316Y300604D01*
X127137Y300651D01*
X126962Y300702D01*
X126944Y300704D01*
X126927Y300708D01*
X126596Y300735D01*
X113491Y300735D01*
X111998Y301354D01*
X110568Y302783D01*
X101019Y312332D01*
X100999Y312349D01*
X100981Y312370D01*
X100843Y312477D01*
X100708Y312587D01*
X100684Y312600D01*
X100663Y312616D01*
X100506Y312694D01*
X100352Y312776D01*
X100327Y312784D01*
X100302Y312796D01*
X100133Y312841D01*
X99966Y312891D01*
X99940Y312893D01*
X99914Y312900D01*
X99704Y312917D01*
X96132Y314397D01*
X93417Y317112D01*
X91947Y320660D01*
X91947Y339740D01*
X93145Y342631D01*
X93149Y342644D01*
X93155Y342655D01*
X93206Y342835D01*
X93261Y343016D01*
X93262Y343029D01*
X93266Y343042D01*
X93281Y343230D01*
X93299Y343417D01*
X93298Y343430D01*
X93299Y343444D01*
X93277Y343630D01*
X93258Y343817D01*
X93254Y343830D01*
X93252Y343843D01*
X93194Y344022D01*
X93138Y344202D01*
X93131Y344213D01*
X93127Y344226D01*
X93034Y344391D01*
X92944Y344555D01*
X92936Y344565D01*
X92929Y344577D01*
X92806Y344719D01*
X92685Y344863D01*
X92675Y344871D01*
X92666Y344882D01*
X92518Y344997D01*
X92370Y345114D01*
X92359Y345120D01*
X92348Y345128D01*
X92179Y345212D01*
X92012Y345298D01*
X92000Y345302D01*
X91987Y345308D01*
X91805Y345357D01*
X91625Y345408D01*
X91612Y345409D01*
X91599Y345412D01*
X91268Y345439D01*
X86532Y345439D01*
X86519Y345438D01*
X86505Y345439D01*
X86319Y345418D01*
X86131Y345399D01*
X86119Y345395D01*
X86105Y345394D01*
X85926Y345336D01*
X85746Y345281D01*
X85735Y345275D01*
X85722Y345271D01*
X85557Y345179D01*
X85392Y345089D01*
X85382Y345081D01*
X85370Y345074D01*
X85228Y344952D01*
X85083Y344832D01*
X85075Y344821D01*
X85065Y344813D01*
X84949Y344665D01*
X84831Y344518D01*
X84825Y344506D01*
X84816Y344496D01*
X84732Y344327D01*
X84645Y344161D01*
X84642Y344148D01*
X84636Y344136D01*
X84586Y343955D01*
X84534Y343774D01*
X84533Y343760D01*
X84529Y343747D01*
X84516Y343559D01*
X84501Y343372D01*
X84503Y343359D01*
X84502Y343346D01*
X84526Y343158D01*
X84548Y342973D01*
X84552Y342960D01*
X84554Y342947D01*
X84655Y342631D01*
X85853Y339740D01*
X85853Y320660D01*
X84383Y317112D01*
X81668Y314397D01*
X81519Y314335D01*
X81499Y314325D01*
X81478Y314318D01*
X81322Y314229D01*
X81164Y314145D01*
X81147Y314131D01*
X81127Y314120D01*
X80992Y314003D01*
X80853Y313888D01*
X80839Y313871D01*
X80822Y313857D01*
X80713Y313715D01*
X80600Y313576D01*
X80589Y313556D01*
X80576Y313538D01*
X80496Y313378D01*
X80413Y313219D01*
X80406Y313198D01*
X80396Y313178D01*
X80350Y313005D01*
X80300Y312833D01*
X80298Y312811D01*
X80292Y312789D01*
X80265Y312458D01*
X80265Y281925D01*
X80267Y281898D01*
X80265Y281872D01*
X80287Y281698D01*
X80305Y281524D01*
X80312Y281499D01*
X80316Y281472D01*
X80371Y281307D01*
X80423Y281140D01*
X80436Y281116D01*
X80444Y281091D01*
X80531Y280939D01*
X80615Y280785D01*
X80632Y280765D01*
X80645Y280742D01*
X80860Y280489D01*
X125668Y235681D01*
X125675Y235675D01*
X125680Y235668D01*
X125830Y235548D01*
X125979Y235426D01*
X125987Y235421D01*
X125994Y235416D01*
X126165Y235327D01*
X126335Y235237D01*
X126343Y235234D01*
X126351Y235230D01*
X126537Y235177D01*
X126721Y235122D01*
X126730Y235121D01*
X126738Y235119D01*
X126930Y235103D01*
X127122Y235086D01*
X127131Y235087D01*
X127140Y235086D01*
X127329Y235108D01*
X127522Y235129D01*
X127531Y235132D01*
X127539Y235133D01*
X127721Y235192D01*
X127906Y235251D01*
X127914Y235255D01*
X127922Y235258D01*
X128091Y235353D01*
X128258Y235446D01*
X128265Y235451D01*
X128273Y235456D01*
X128419Y235582D01*
X128565Y235706D01*
X128571Y235713D01*
X128578Y235719D01*
X128695Y235870D01*
X128815Y236022D01*
X128819Y236030D01*
X128824Y236037D01*
X128910Y236209D01*
X128997Y236381D01*
X129000Y236389D01*
X129004Y236397D01*
X129054Y236584D01*
X129105Y236769D01*
X129106Y236778D01*
X129108Y236786D01*
X129135Y237117D01*
X129135Y246014D01*
X135236Y252115D01*
X143864Y252115D01*
X149965Y246014D01*
X149965Y237386D01*
X143864Y231285D01*
X134967Y231285D01*
X134958Y231284D01*
X134949Y231285D01*
X134756Y231264D01*
X134566Y231245D01*
X134558Y231243D01*
X134549Y231242D01*
X134364Y231183D01*
X134181Y231127D01*
X134174Y231123D01*
X134165Y231120D01*
X133997Y231027D01*
X133827Y230935D01*
X133821Y230930D01*
X133813Y230925D01*
X133666Y230801D01*
X133518Y230678D01*
X133513Y230671D01*
X133506Y230665D01*
X133386Y230513D01*
X133266Y230364D01*
X133262Y230356D01*
X133256Y230349D01*
X133168Y230176D01*
X133080Y230007D01*
X133078Y229998D01*
X133074Y229990D01*
X133022Y229804D01*
X132969Y229620D01*
X132968Y229611D01*
X132966Y229602D01*
X132952Y229409D01*
X132936Y229218D01*
X132937Y229210D01*
X132936Y229201D01*
X132961Y229008D01*
X132983Y228819D01*
X132986Y228810D01*
X132987Y228801D01*
X133048Y228619D01*
X133108Y228436D01*
X133112Y228428D01*
X133115Y228420D01*
X133211Y228252D01*
X133306Y228085D01*
X133311Y228078D01*
X133316Y228071D01*
X133531Y227818D01*
X159839Y201510D01*
X159859Y201493D01*
X159877Y201472D01*
X160015Y201365D01*
X160150Y201255D01*
X160174Y201242D01*
X160195Y201226D01*
X160352Y201148D01*
X160506Y201066D01*
X160531Y201058D01*
X160556Y201046D01*
X160725Y201001D01*
X160892Y200951D01*
X160918Y200949D01*
X160944Y200942D01*
X161275Y200915D01*
X191397Y200915D01*
X191406Y200916D01*
X191414Y200915D01*
X191606Y200936D01*
X191797Y200955D01*
X191806Y200957D01*
X191815Y200958D01*
X191997Y201016D01*
X192182Y201073D01*
X192190Y201077D01*
X192199Y201080D01*
X192367Y201173D01*
X192536Y201265D01*
X192543Y201270D01*
X192551Y201275D01*
X192699Y201400D01*
X192846Y201522D01*
X192851Y201529D01*
X192858Y201535D01*
X192978Y201687D01*
X193098Y201836D01*
X193102Y201844D01*
X193108Y201851D01*
X193195Y202023D01*
X193283Y202193D01*
X193286Y202202D01*
X193290Y202210D01*
X193342Y202396D01*
X193395Y202580D01*
X193395Y202589D01*
X193398Y202598D01*
X193412Y202790D01*
X193428Y202982D01*
X193427Y202990D01*
X193427Y202999D01*
X193403Y203192D01*
X193381Y203381D01*
X193378Y203390D01*
X193377Y203399D01*
X193315Y203582D01*
X193256Y203764D01*
X193251Y203772D01*
X193249Y203780D01*
X193153Y203946D01*
X193058Y204115D01*
X193052Y204122D01*
X193048Y204129D01*
X192833Y204382D01*
X191937Y205278D01*
X191937Y238122D01*
X193128Y239313D01*
X225972Y239313D01*
X227163Y238122D01*
X227163Y205278D01*
X226267Y204382D01*
X226261Y204375D01*
X226254Y204370D01*
X226133Y204219D01*
X226012Y204071D01*
X226008Y204063D01*
X226002Y204056D01*
X225913Y203884D01*
X225823Y203715D01*
X225821Y203706D01*
X225817Y203699D01*
X225764Y203514D01*
X225709Y203329D01*
X225708Y203320D01*
X225705Y203312D01*
X225690Y203121D01*
X225672Y202928D01*
X225673Y202919D01*
X225672Y202910D01*
X225695Y202721D01*
X225716Y202528D01*
X225718Y202519D01*
X225719Y202511D01*
X225779Y202329D01*
X225837Y202144D01*
X225841Y202136D01*
X225844Y202128D01*
X225938Y201961D01*
X226032Y201792D01*
X226038Y201785D01*
X226042Y201777D01*
X226167Y201632D01*
X226292Y201485D01*
X226299Y201479D01*
X226305Y201472D01*
X226456Y201356D01*
X226608Y201235D01*
X226616Y201231D01*
X226623Y201226D01*
X226794Y201141D01*
X226967Y201053D01*
X226976Y201050D01*
X226984Y201046D01*
X227169Y200997D01*
X227355Y200945D01*
X227364Y200944D01*
X227373Y200942D01*
X227703Y200915D01*
X308625Y200915D01*
X308652Y200917D01*
X308678Y200915D01*
X308852Y200937D01*
X309026Y200955D01*
X309051Y200962D01*
X309078Y200966D01*
X309243Y201021D01*
X309410Y201073D01*
X309434Y201086D01*
X309459Y201094D01*
X309611Y201181D01*
X309765Y201265D01*
X309785Y201282D01*
X309808Y201295D01*
X310061Y201510D01*
X312840Y204289D01*
X312857Y204309D01*
X312878Y204327D01*
X312985Y204465D01*
X313095Y204600D01*
X313108Y204624D01*
X313124Y204645D01*
X313202Y204802D01*
X313284Y204956D01*
X313292Y204981D01*
X313304Y205006D01*
X313349Y205175D01*
X313399Y205342D01*
X313401Y205368D01*
X313408Y205394D01*
X313435Y205725D01*
X313435Y259742D01*
X313432Y259778D01*
X313434Y259813D01*
X313396Y260139D01*
X313395Y260142D01*
X313395Y260143D01*
X313356Y260339D01*
X313397Y260551D01*
X313400Y260582D01*
X313408Y260612D01*
X313435Y260942D01*
X313435Y261159D01*
X313512Y261343D01*
X313522Y261378D01*
X313538Y261410D01*
X313627Y261724D01*
X313628Y261729D01*
X313628Y261730D01*
X313667Y261926D01*
X313787Y262106D01*
X313801Y262133D01*
X313820Y262158D01*
X313971Y262453D01*
X314054Y262652D01*
X314196Y262794D01*
X314218Y262822D01*
X314246Y262846D01*
X314448Y263102D01*
X314451Y263105D01*
X314451Y263106D01*
X314562Y263273D01*
X314741Y263393D01*
X314765Y263413D01*
X314792Y263428D01*
X315045Y263643D01*
X315198Y263796D01*
X315382Y263872D01*
X315414Y263890D01*
X315449Y263901D01*
X315732Y264060D01*
X315737Y264063D01*
X315738Y264063D01*
X315769Y264084D01*
X315786Y264098D01*
X315805Y264109D01*
X315941Y264226D01*
X316080Y264341D01*
X316093Y264358D01*
X316110Y264372D01*
X316219Y264513D01*
X316333Y264654D01*
X316343Y264673D01*
X316356Y264690D01*
X316436Y264851D01*
X316520Y265010D01*
X316526Y265031D01*
X316536Y265050D01*
X316583Y265225D01*
X316633Y265397D01*
X316635Y265418D01*
X316640Y265439D01*
X316667Y265770D01*
X316667Y268745D01*
X318233Y272525D01*
X321125Y275417D01*
X323528Y276412D01*
X323528Y276413D01*
X324905Y276983D01*
X328995Y276983D01*
X332775Y275417D01*
X335667Y272525D01*
X337233Y268745D01*
X337233Y264655D01*
X335667Y260875D01*
X332775Y257983D01*
X328995Y256417D01*
X324905Y256417D01*
X324373Y256637D01*
X324360Y256641D01*
X324349Y256647D01*
X324168Y256699D01*
X323988Y256754D01*
X323975Y256755D01*
X323962Y256759D01*
X323773Y256774D01*
X323587Y256792D01*
X323574Y256791D01*
X323560Y256792D01*
X323374Y256770D01*
X323187Y256750D01*
X323174Y256746D01*
X323161Y256745D01*
X322983Y256687D01*
X322802Y256631D01*
X322791Y256624D01*
X322778Y256620D01*
X322614Y256528D01*
X322449Y256437D01*
X322439Y256429D01*
X322427Y256422D01*
X322285Y256299D01*
X322141Y256178D01*
X322133Y256168D01*
X322122Y256159D01*
X322007Y256010D01*
X321890Y255863D01*
X321884Y255851D01*
X321876Y255841D01*
X321792Y255672D01*
X321706Y255505D01*
X321702Y255492D01*
X321696Y255480D01*
X321647Y255298D01*
X321596Y255118D01*
X321595Y255104D01*
X321592Y255091D01*
X321565Y254761D01*
X321565Y209296D01*
X321567Y209278D01*
X321565Y209260D01*
X321586Y209078D01*
X321605Y208895D01*
X321610Y208878D01*
X321612Y208861D01*
X321669Y208686D01*
X321723Y208510D01*
X321731Y208495D01*
X321737Y208478D01*
X321827Y208318D01*
X321915Y208156D01*
X321926Y208143D01*
X321935Y208127D01*
X322055Y207988D01*
X322172Y207847D01*
X322186Y207836D01*
X322198Y207822D01*
X322343Y207710D01*
X322486Y207595D01*
X322502Y207587D01*
X322516Y207576D01*
X322681Y207494D01*
X322843Y207409D01*
X322860Y207404D01*
X322876Y207396D01*
X323055Y207349D01*
X323230Y207298D01*
X323248Y207296D01*
X323265Y207292D01*
X323596Y207265D01*
X515159Y207265D01*
X516652Y206646D01*
X534489Y188810D01*
X534509Y188793D01*
X534527Y188772D01*
X534665Y188665D01*
X534800Y188555D01*
X534824Y188542D01*
X534845Y188526D01*
X535002Y188448D01*
X535156Y188366D01*
X535181Y188358D01*
X535206Y188346D01*
X535375Y188301D01*
X535542Y188251D01*
X535568Y188249D01*
X535594Y188242D01*
X535925Y188215D01*
X623109Y188215D01*
X624602Y187596D01*
X642439Y169760D01*
X642459Y169743D01*
X642477Y169722D01*
X642615Y169615D01*
X642750Y169505D01*
X642774Y169492D01*
X642795Y169476D01*
X642952Y169398D01*
X643106Y169316D01*
X643131Y169308D01*
X643156Y169296D01*
X643325Y169251D01*
X643492Y169201D01*
X643518Y169199D01*
X643544Y169192D01*
X643875Y169165D01*
X645313Y169165D01*
X645322Y169166D01*
G37*
G36*
X645322Y143766D02*
X645322Y143766D01*
X645331Y143765D01*
X645524Y143786D01*
X645714Y143805D01*
X645722Y143807D01*
X645731Y143808D01*
X645916Y143867D01*
X646099Y143923D01*
X646107Y143927D01*
X646115Y143930D01*
X646283Y144023D01*
X646453Y144115D01*
X646460Y144120D01*
X646467Y144125D01*
X646615Y144249D01*
X646762Y144372D01*
X646768Y144379D01*
X646774Y144385D01*
X646894Y144537D01*
X647014Y144686D01*
X647019Y144694D01*
X647024Y144701D01*
X647112Y144874D01*
X647200Y145043D01*
X647202Y145052D01*
X647206Y145060D01*
X647258Y145246D01*
X647311Y145430D01*
X647312Y145439D01*
X647314Y145448D01*
X647329Y145641D01*
X647344Y145832D01*
X647343Y145840D01*
X647344Y145849D01*
X647320Y146042D01*
X647297Y146231D01*
X647295Y146240D01*
X647293Y146249D01*
X647232Y146431D01*
X647172Y146614D01*
X647168Y146622D01*
X647165Y146630D01*
X647069Y146797D01*
X646975Y146965D01*
X646969Y146972D01*
X646964Y146979D01*
X646750Y147232D01*
X646242Y147740D01*
X646221Y147757D01*
X646203Y147778D01*
X646065Y147885D01*
X645930Y147995D01*
X645906Y148008D01*
X645885Y148024D01*
X645728Y148102D01*
X645574Y148184D01*
X645549Y148192D01*
X645525Y148204D01*
X645355Y148249D01*
X645188Y148299D01*
X645162Y148301D01*
X645136Y148308D01*
X644805Y148335D01*
X621491Y148335D01*
X619998Y148954D01*
X613083Y155868D01*
X613063Y155885D01*
X613045Y155906D01*
X612907Y156013D01*
X612772Y156123D01*
X612748Y156136D01*
X612727Y156152D01*
X612570Y156230D01*
X612416Y156312D01*
X612391Y156320D01*
X612366Y156332D01*
X612197Y156377D01*
X612030Y156427D01*
X612004Y156429D01*
X611978Y156436D01*
X611647Y156463D01*
X606023Y156463D01*
X600963Y161523D01*
X600963Y168677D01*
X606023Y173737D01*
X613177Y173737D01*
X618237Y168677D01*
X618237Y163053D01*
X618239Y163026D01*
X618237Y163000D01*
X618259Y162826D01*
X618277Y162652D01*
X618284Y162627D01*
X618288Y162600D01*
X618343Y162435D01*
X618395Y162268D01*
X618408Y162244D01*
X618416Y162219D01*
X618503Y162067D01*
X618587Y161913D01*
X618604Y161893D01*
X618617Y161870D01*
X618832Y161617D01*
X623389Y157060D01*
X623409Y157043D01*
X623427Y157022D01*
X623565Y156915D01*
X623700Y156805D01*
X623724Y156792D01*
X623745Y156776D01*
X623902Y156698D01*
X624056Y156616D01*
X624081Y156608D01*
X624106Y156596D01*
X624275Y156551D01*
X624442Y156501D01*
X624468Y156499D01*
X624494Y156492D01*
X624825Y156465D01*
X644805Y156465D01*
X644832Y156467D01*
X644859Y156465D01*
X645032Y156487D01*
X645206Y156505D01*
X645231Y156512D01*
X645258Y156516D01*
X645424Y156571D01*
X645591Y156623D01*
X645614Y156636D01*
X645640Y156644D01*
X645791Y156731D01*
X645945Y156815D01*
X645965Y156832D01*
X645989Y156845D01*
X646242Y157060D01*
X646750Y157568D01*
X646755Y157575D01*
X646762Y157580D01*
X646882Y157730D01*
X647005Y157879D01*
X647009Y157887D01*
X647014Y157894D01*
X647103Y158065D01*
X647193Y158235D01*
X647196Y158243D01*
X647200Y158251D01*
X647253Y158437D01*
X647308Y158621D01*
X647309Y158630D01*
X647311Y158638D01*
X647327Y158830D01*
X647344Y159022D01*
X647343Y159031D01*
X647344Y159040D01*
X647322Y159229D01*
X647301Y159422D01*
X647298Y159431D01*
X647297Y159439D01*
X647238Y159621D01*
X647180Y159806D01*
X647175Y159814D01*
X647172Y159822D01*
X647077Y159991D01*
X646985Y160158D01*
X646979Y160165D01*
X646975Y160173D01*
X646849Y160319D01*
X646724Y160465D01*
X646717Y160471D01*
X646711Y160478D01*
X646560Y160595D01*
X646408Y160715D01*
X646400Y160719D01*
X646393Y160724D01*
X646221Y160810D01*
X646049Y160897D01*
X646041Y160900D01*
X646033Y160904D01*
X645846Y160954D01*
X645661Y161005D01*
X645653Y161006D01*
X645644Y161008D01*
X645313Y161035D01*
X640541Y161035D01*
X639048Y161654D01*
X621211Y179490D01*
X621191Y179507D01*
X621173Y179528D01*
X621035Y179635D01*
X620900Y179745D01*
X620876Y179758D01*
X620855Y179774D01*
X620698Y179852D01*
X620544Y179934D01*
X620519Y179942D01*
X620494Y179954D01*
X620325Y179999D01*
X620158Y180049D01*
X620132Y180051D01*
X620106Y180058D01*
X619775Y180085D01*
X532591Y180085D01*
X531098Y180704D01*
X513261Y198540D01*
X513241Y198557D01*
X513223Y198578D01*
X513085Y198685D01*
X512950Y198795D01*
X512926Y198808D01*
X512905Y198824D01*
X512748Y198902D01*
X512594Y198984D01*
X512569Y198992D01*
X512544Y199004D01*
X512375Y199049D01*
X512208Y199099D01*
X512182Y199101D01*
X512156Y199108D01*
X511825Y199135D01*
X320025Y199135D01*
X319998Y199133D01*
X319972Y199135D01*
X319798Y199113D01*
X319624Y199095D01*
X319599Y199088D01*
X319572Y199084D01*
X319406Y199028D01*
X319239Y198977D01*
X319216Y198964D01*
X319191Y198956D01*
X319039Y198869D01*
X318885Y198785D01*
X318865Y198768D01*
X318842Y198755D01*
X318589Y198540D01*
X313452Y193404D01*
X311959Y192785D01*
X157941Y192785D01*
X156448Y193404D01*
X72754Y277098D01*
X72135Y278591D01*
X72135Y312458D01*
X72133Y312481D01*
X72135Y312503D01*
X72113Y312680D01*
X72095Y312859D01*
X72089Y312880D01*
X72086Y312903D01*
X72030Y313072D01*
X71977Y313244D01*
X71967Y313264D01*
X71960Y313285D01*
X71871Y313440D01*
X71785Y313598D01*
X71771Y313615D01*
X71760Y313634D01*
X71643Y313769D01*
X71528Y313907D01*
X71510Y313921D01*
X71496Y313938D01*
X71354Y314047D01*
X71214Y314160D01*
X71194Y314170D01*
X71176Y314183D01*
X70881Y314335D01*
X70732Y314397D01*
X68017Y317112D01*
X66547Y320660D01*
X66547Y339740D01*
X67745Y342631D01*
X67749Y342644D01*
X67755Y342655D01*
X67806Y342835D01*
X67861Y343016D01*
X67862Y343029D01*
X67866Y343042D01*
X67881Y343230D01*
X67899Y343417D01*
X67898Y343430D01*
X67899Y343444D01*
X67877Y343630D01*
X67858Y343817D01*
X67854Y343830D01*
X67852Y343843D01*
X67794Y344022D01*
X67738Y344202D01*
X67731Y344213D01*
X67727Y344226D01*
X67634Y344391D01*
X67544Y344555D01*
X67536Y344565D01*
X67529Y344577D01*
X67406Y344719D01*
X67285Y344863D01*
X67275Y344871D01*
X67266Y344882D01*
X67118Y344997D01*
X66970Y345114D01*
X66959Y345120D01*
X66948Y345128D01*
X66779Y345212D01*
X66612Y345298D01*
X66600Y345302D01*
X66587Y345308D01*
X66405Y345357D01*
X66225Y345408D01*
X66212Y345409D01*
X66199Y345412D01*
X65868Y345439D01*
X61132Y345439D01*
X61119Y345438D01*
X61105Y345439D01*
X60919Y345418D01*
X60731Y345399D01*
X60719Y345395D01*
X60705Y345394D01*
X60526Y345336D01*
X60346Y345281D01*
X60335Y345275D01*
X60322Y345271D01*
X60157Y345179D01*
X59992Y345089D01*
X59982Y345081D01*
X59970Y345074D01*
X59828Y344952D01*
X59683Y344832D01*
X59675Y344821D01*
X59665Y344813D01*
X59549Y344665D01*
X59431Y344518D01*
X59425Y344506D01*
X59416Y344496D01*
X59332Y344327D01*
X59245Y344161D01*
X59242Y344148D01*
X59236Y344136D01*
X59186Y343955D01*
X59134Y343774D01*
X59133Y343760D01*
X59129Y343747D01*
X59116Y343559D01*
X59101Y343372D01*
X59103Y343359D01*
X59102Y343346D01*
X59126Y343158D01*
X59148Y342973D01*
X59152Y342960D01*
X59154Y342947D01*
X59255Y342631D01*
X60453Y339740D01*
X60453Y320660D01*
X58983Y317112D01*
X56268Y314397D01*
X56119Y314335D01*
X56099Y314325D01*
X56078Y314318D01*
X55922Y314229D01*
X55764Y314145D01*
X55747Y314131D01*
X55727Y314120D01*
X55592Y314003D01*
X55453Y313888D01*
X55439Y313871D01*
X55422Y313857D01*
X55313Y313715D01*
X55200Y313576D01*
X55189Y313556D01*
X55176Y313538D01*
X55096Y313378D01*
X55013Y313219D01*
X55006Y313198D01*
X54996Y313178D01*
X54950Y313005D01*
X54900Y312833D01*
X54898Y312811D01*
X54892Y312789D01*
X54865Y312458D01*
X54865Y288275D01*
X54867Y288248D01*
X54865Y288222D01*
X54887Y288048D01*
X54905Y287874D01*
X54912Y287849D01*
X54916Y287822D01*
X54971Y287657D01*
X55023Y287490D01*
X55036Y287466D01*
X55044Y287441D01*
X55131Y287289D01*
X55215Y287135D01*
X55232Y287115D01*
X55245Y287092D01*
X55460Y286839D01*
X153489Y188810D01*
X153509Y188793D01*
X153527Y188772D01*
X153665Y188665D01*
X153800Y188555D01*
X153824Y188542D01*
X153845Y188526D01*
X154002Y188448D01*
X154156Y188366D01*
X154181Y188358D01*
X154206Y188346D01*
X154375Y188301D01*
X154542Y188251D01*
X154568Y188249D01*
X154594Y188242D01*
X154925Y188215D01*
X400859Y188215D01*
X402352Y187596D01*
X445589Y144360D01*
X445609Y144343D01*
X445627Y144322D01*
X445765Y144215D01*
X445900Y144105D01*
X445924Y144092D01*
X445945Y144076D01*
X446102Y143998D01*
X446256Y143916D01*
X446281Y143908D01*
X446306Y143896D01*
X446475Y143851D01*
X446642Y143801D01*
X446668Y143799D01*
X446694Y143792D01*
X447025Y143765D01*
X645313Y143765D01*
X645322Y143766D01*
G37*
G36*
X829122Y181867D02*
X829122Y181867D01*
X829140Y181865D01*
X829322Y181886D01*
X829505Y181905D01*
X829522Y181910D01*
X829539Y181912D01*
X829714Y181969D01*
X829890Y182023D01*
X829905Y182031D01*
X829922Y182037D01*
X830082Y182127D01*
X830244Y182215D01*
X830257Y182226D01*
X830273Y182235D01*
X830412Y182355D01*
X830553Y182472D01*
X830564Y182486D01*
X830578Y182498D01*
X830690Y182643D01*
X830805Y182786D01*
X830813Y182802D01*
X830824Y182816D01*
X830906Y182980D01*
X830991Y183143D01*
X830996Y183160D01*
X831004Y183176D01*
X831051Y183355D01*
X831102Y183530D01*
X831104Y183548D01*
X831108Y183565D01*
X831135Y183896D01*
X831135Y184404D01*
X831133Y184422D01*
X831135Y184440D01*
X831114Y184622D01*
X831095Y184805D01*
X831090Y184822D01*
X831088Y184839D01*
X831031Y185014D01*
X830977Y185190D01*
X830969Y185205D01*
X830963Y185222D01*
X830873Y185382D01*
X830785Y185544D01*
X830774Y185557D01*
X830765Y185573D01*
X830645Y185712D01*
X830528Y185853D01*
X830514Y185864D01*
X830502Y185878D01*
X830357Y185990D01*
X830214Y186105D01*
X830198Y186113D01*
X830184Y186124D01*
X830019Y186206D01*
X829857Y186291D01*
X829840Y186296D01*
X829824Y186304D01*
X829645Y186351D01*
X829470Y186402D01*
X829452Y186404D01*
X829435Y186408D01*
X829104Y186435D01*
X723091Y186435D01*
X721598Y187054D01*
X691061Y217590D01*
X691041Y217607D01*
X691023Y217628D01*
X690885Y217735D01*
X690750Y217845D01*
X690726Y217858D01*
X690705Y217874D01*
X690548Y217952D01*
X690394Y218034D01*
X690369Y218042D01*
X690344Y218054D01*
X690175Y218099D01*
X690008Y218149D01*
X689982Y218151D01*
X689956Y218158D01*
X689625Y218185D01*
X653241Y218185D01*
X651748Y218804D01*
X621211Y249340D01*
X621191Y249357D01*
X621173Y249378D01*
X621035Y249485D01*
X620900Y249595D01*
X620876Y249608D01*
X620855Y249624D01*
X620698Y249702D01*
X620544Y249784D01*
X620519Y249792D01*
X620494Y249804D01*
X620325Y249849D01*
X620158Y249899D01*
X620132Y249901D01*
X620106Y249908D01*
X619775Y249935D01*
X519247Y249935D01*
X519238Y249934D01*
X519229Y249935D01*
X519037Y249914D01*
X518847Y249895D01*
X518838Y249893D01*
X518829Y249892D01*
X518647Y249834D01*
X518462Y249777D01*
X518454Y249773D01*
X518445Y249770D01*
X518277Y249677D01*
X518108Y249585D01*
X518101Y249580D01*
X518093Y249575D01*
X517945Y249450D01*
X517798Y249328D01*
X517793Y249321D01*
X517786Y249315D01*
X517667Y249164D01*
X517546Y249014D01*
X517542Y249006D01*
X517536Y248999D01*
X517449Y248828D01*
X517361Y248657D01*
X517358Y248648D01*
X517354Y248640D01*
X517302Y248455D01*
X517249Y248270D01*
X517248Y248261D01*
X517246Y248252D01*
X517232Y248060D01*
X517216Y247868D01*
X517217Y247860D01*
X517217Y247851D01*
X517241Y247659D01*
X517263Y247469D01*
X517266Y247460D01*
X517267Y247451D01*
X517328Y247270D01*
X517388Y247086D01*
X517392Y247078D01*
X517395Y247070D01*
X517491Y246904D01*
X517586Y246735D01*
X517592Y246728D01*
X517596Y246721D01*
X517811Y246468D01*
X518265Y246014D01*
X518265Y237386D01*
X513050Y232171D01*
X513039Y232157D01*
X513025Y232146D01*
X512911Y232002D01*
X512795Y231860D01*
X512786Y231844D01*
X512775Y231830D01*
X512692Y231665D01*
X512606Y231504D01*
X512601Y231487D01*
X512593Y231471D01*
X512544Y231293D01*
X512491Y231118D01*
X512490Y231100D01*
X512485Y231083D01*
X512472Y230900D01*
X512455Y230717D01*
X512457Y230699D01*
X512456Y230682D01*
X512479Y230500D01*
X512498Y230317D01*
X512504Y230300D01*
X512506Y230282D01*
X512564Y230109D01*
X512620Y229933D01*
X512629Y229917D01*
X512634Y229900D01*
X512726Y229741D01*
X512815Y229581D01*
X512826Y229567D01*
X512835Y229552D01*
X513050Y229299D01*
X540839Y201510D01*
X540859Y201493D01*
X540877Y201472D01*
X541015Y201365D01*
X541150Y201255D01*
X541174Y201242D01*
X541195Y201226D01*
X541352Y201148D01*
X541506Y201066D01*
X541531Y201058D01*
X541556Y201046D01*
X541725Y201001D01*
X541892Y200951D01*
X541918Y200949D01*
X541944Y200942D01*
X542275Y200915D01*
X559697Y200915D01*
X559706Y200916D01*
X559714Y200915D01*
X559906Y200936D01*
X560097Y200955D01*
X560106Y200957D01*
X560115Y200958D01*
X560297Y201016D01*
X560482Y201073D01*
X560490Y201077D01*
X560499Y201080D01*
X560667Y201173D01*
X560836Y201265D01*
X560843Y201270D01*
X560851Y201275D01*
X560999Y201400D01*
X561146Y201522D01*
X561151Y201529D01*
X561158Y201535D01*
X561278Y201687D01*
X561398Y201836D01*
X561402Y201844D01*
X561408Y201851D01*
X561495Y202023D01*
X561583Y202193D01*
X561586Y202202D01*
X561590Y202210D01*
X561642Y202396D01*
X561695Y202580D01*
X561695Y202589D01*
X561698Y202598D01*
X561712Y202790D01*
X561728Y202982D01*
X561727Y202990D01*
X561727Y202999D01*
X561703Y203192D01*
X561681Y203381D01*
X561678Y203390D01*
X561677Y203399D01*
X561615Y203582D01*
X561556Y203764D01*
X561551Y203772D01*
X561549Y203780D01*
X561453Y203946D01*
X561358Y204115D01*
X561352Y204122D01*
X561348Y204129D01*
X561133Y204382D01*
X560237Y205278D01*
X560237Y238122D01*
X561428Y239313D01*
X594272Y239313D01*
X595463Y238122D01*
X595463Y205278D01*
X594567Y204382D01*
X594561Y204375D01*
X594554Y204370D01*
X594433Y204219D01*
X594312Y204071D01*
X594308Y204063D01*
X594302Y204056D01*
X594213Y203884D01*
X594123Y203715D01*
X594121Y203706D01*
X594117Y203699D01*
X594064Y203514D01*
X594009Y203329D01*
X594008Y203320D01*
X594005Y203312D01*
X593990Y203121D01*
X593972Y202928D01*
X593973Y202919D01*
X593972Y202910D01*
X593995Y202721D01*
X594016Y202528D01*
X594018Y202519D01*
X594019Y202511D01*
X594079Y202329D01*
X594137Y202144D01*
X594141Y202136D01*
X594144Y202128D01*
X594238Y201961D01*
X594332Y201792D01*
X594338Y201785D01*
X594342Y201777D01*
X594467Y201632D01*
X594592Y201485D01*
X594599Y201479D01*
X594605Y201472D01*
X594756Y201356D01*
X594908Y201235D01*
X594916Y201231D01*
X594923Y201226D01*
X595094Y201141D01*
X595267Y201053D01*
X595276Y201050D01*
X595284Y201046D01*
X595469Y200997D01*
X595655Y200945D01*
X595664Y200944D01*
X595673Y200942D01*
X596003Y200915D01*
X629459Y200915D01*
X630952Y200296D01*
X636089Y195160D01*
X636109Y195143D01*
X636127Y195122D01*
X636265Y195015D01*
X636400Y194905D01*
X636424Y194892D01*
X636445Y194876D01*
X636602Y194798D01*
X636756Y194716D01*
X636781Y194708D01*
X636806Y194696D01*
X636975Y194651D01*
X637142Y194601D01*
X637168Y194599D01*
X637194Y194592D01*
X637525Y194565D01*
X645313Y194565D01*
X645322Y194566D01*
X645331Y194565D01*
X645522Y194585D01*
X645714Y194605D01*
X645722Y194607D01*
X645731Y194608D01*
X645915Y194666D01*
X646099Y194723D01*
X646107Y194727D01*
X646115Y194730D01*
X646284Y194823D01*
X646453Y194915D01*
X646460Y194920D01*
X646468Y194925D01*
X646614Y195049D01*
X646762Y195172D01*
X646768Y195179D01*
X646774Y195185D01*
X646894Y195336D01*
X647014Y195486D01*
X647018Y195494D01*
X647024Y195501D01*
X647112Y195674D01*
X647200Y195843D01*
X647202Y195852D01*
X647206Y195860D01*
X647258Y196047D01*
X647311Y196230D01*
X647312Y196239D01*
X647314Y196248D01*
X647328Y196440D01*
X647344Y196632D01*
X647343Y196640D01*
X647344Y196649D01*
X647320Y196841D01*
X647297Y197031D01*
X647294Y197040D01*
X647293Y197049D01*
X647232Y197231D01*
X647172Y197414D01*
X647168Y197422D01*
X647165Y197430D01*
X647069Y197598D01*
X646975Y197765D01*
X646969Y197772D01*
X646964Y197779D01*
X646750Y198032D01*
X646474Y198308D01*
X645159Y201482D01*
X645159Y204918D01*
X646474Y208092D01*
X648904Y210522D01*
X652078Y211837D01*
X668722Y211837D01*
X671896Y210522D01*
X674326Y208092D01*
X675641Y204918D01*
X675641Y201482D01*
X674326Y198308D01*
X674050Y198032D01*
X674045Y198025D01*
X674038Y198020D01*
X673917Y197870D01*
X673795Y197721D01*
X673791Y197713D01*
X673786Y197706D01*
X673697Y197536D01*
X673607Y197365D01*
X673604Y197356D01*
X673600Y197349D01*
X673547Y197165D01*
X673492Y196979D01*
X673491Y196970D01*
X673489Y196962D01*
X673473Y196771D01*
X673456Y196578D01*
X673457Y196569D01*
X673456Y196560D01*
X673478Y196371D01*
X673499Y196178D01*
X673502Y196169D01*
X673503Y196161D01*
X673562Y195978D01*
X673620Y195794D01*
X673625Y195786D01*
X673628Y195778D01*
X673723Y195609D01*
X673815Y195442D01*
X673821Y195435D01*
X673825Y195427D01*
X673951Y195282D01*
X674076Y195135D01*
X674083Y195129D01*
X674089Y195122D01*
X674240Y195005D01*
X674392Y194885D01*
X674400Y194881D01*
X674407Y194876D01*
X674579Y194790D01*
X674751Y194703D01*
X674759Y194700D01*
X674767Y194696D01*
X674955Y194646D01*
X675138Y194595D01*
X675147Y194594D01*
X675156Y194592D01*
X675487Y194565D01*
X686609Y194565D01*
X688102Y193946D01*
X699589Y182460D01*
X699609Y182443D01*
X699627Y182422D01*
X699765Y182315D01*
X699900Y182205D01*
X699924Y182192D01*
X699945Y182176D01*
X700102Y182098D01*
X700256Y182016D01*
X700281Y182008D01*
X700306Y181996D01*
X700475Y181951D01*
X700642Y181901D01*
X700668Y181899D01*
X700694Y181892D01*
X701025Y181865D01*
X829104Y181865D01*
X829122Y181867D01*
G37*
%LPC*%
G36*
X248126Y81835D02*
X248126Y81835D01*
X246935Y83026D01*
X246935Y94774D01*
X248126Y95965D01*
X254475Y95965D01*
X254502Y95967D01*
X254528Y95965D01*
X254702Y95987D01*
X254876Y96005D01*
X254901Y96012D01*
X254928Y96016D01*
X255093Y96071D01*
X255261Y96123D01*
X255284Y96136D01*
X255309Y96144D01*
X255461Y96231D01*
X255615Y96315D01*
X255635Y96332D01*
X255658Y96345D01*
X255911Y96560D01*
X283448Y124096D01*
X284941Y124715D01*
X695754Y124715D01*
X695772Y124717D01*
X695790Y124715D01*
X695972Y124736D01*
X696155Y124755D01*
X696172Y124760D01*
X696189Y124762D01*
X696364Y124819D01*
X696540Y124873D01*
X696555Y124881D01*
X696572Y124887D01*
X696732Y124977D01*
X696894Y125065D01*
X696907Y125076D01*
X696923Y125085D01*
X697062Y125205D01*
X697203Y125322D01*
X697214Y125336D01*
X697228Y125348D01*
X697340Y125493D01*
X697455Y125636D01*
X697463Y125652D01*
X697474Y125666D01*
X697556Y125831D01*
X697641Y125993D01*
X697646Y126010D01*
X697654Y126026D01*
X697701Y126205D01*
X697752Y126380D01*
X697754Y126398D01*
X697758Y126415D01*
X697765Y126504D01*
X698976Y127715D01*
X710724Y127715D01*
X711915Y126524D01*
X711915Y114776D01*
X710442Y113303D01*
X710379Y113272D01*
X710353Y113251D01*
X710324Y113235D01*
X710195Y113128D01*
X710062Y113024D01*
X710040Y112999D01*
X710015Y112978D01*
X709909Y112847D01*
X709799Y112719D01*
X709783Y112690D01*
X709762Y112664D01*
X709685Y112515D01*
X709602Y112368D01*
X709592Y112336D01*
X709577Y112307D01*
X709530Y112145D01*
X709478Y111985D01*
X709475Y111952D01*
X709465Y111920D01*
X709452Y111752D01*
X709432Y111585D01*
X709435Y111552D01*
X709433Y111518D01*
X709452Y111352D01*
X709466Y111184D01*
X709476Y111152D01*
X709479Y111119D01*
X709532Y110958D01*
X709579Y110797D01*
X709594Y110768D01*
X709604Y110736D01*
X709687Y110589D01*
X709765Y110440D01*
X709786Y110414D01*
X709802Y110385D01*
X709912Y110258D01*
X710018Y110127D01*
X710046Y110103D01*
X710065Y110081D01*
X710134Y110028D01*
X710270Y109911D01*
X710380Y109831D01*
X711581Y108630D01*
X712579Y107256D01*
X713350Y105742D01*
X713803Y104349D01*
X704068Y104349D01*
X704050Y104347D01*
X704033Y104349D01*
X703850Y104328D01*
X703668Y104309D01*
X703651Y104304D01*
X703633Y104302D01*
X703458Y104245D01*
X703358Y104214D01*
X703351Y104218D01*
X703173Y104265D01*
X702998Y104316D01*
X702980Y104318D01*
X702963Y104322D01*
X702632Y104349D01*
X692897Y104349D01*
X693350Y105742D01*
X694121Y107256D01*
X695119Y108630D01*
X696320Y109831D01*
X697694Y110829D01*
X697878Y110923D01*
X697992Y110996D01*
X698110Y111061D01*
X698161Y111104D01*
X698217Y111140D01*
X698314Y111234D01*
X698417Y111322D01*
X698459Y111374D01*
X698506Y111420D01*
X698583Y111532D01*
X698667Y111638D01*
X698697Y111697D01*
X698735Y111752D01*
X698788Y111876D01*
X698849Y111997D01*
X698867Y112061D01*
X698893Y112122D01*
X698921Y112254D01*
X698957Y112384D01*
X698962Y112451D01*
X698976Y112516D01*
X698977Y112651D01*
X698987Y112786D01*
X698978Y112852D01*
X698979Y112919D01*
X698953Y113051D01*
X698936Y113185D01*
X698915Y113249D01*
X698902Y113314D01*
X698851Y113439D01*
X698808Y113567D01*
X698775Y113625D01*
X698750Y113686D01*
X698674Y113799D01*
X698607Y113916D01*
X698557Y113974D01*
X698526Y114021D01*
X698471Y114077D01*
X698392Y114169D01*
X697761Y114801D01*
X697745Y114955D01*
X697740Y114972D01*
X697738Y114989D01*
X697681Y115164D01*
X697627Y115340D01*
X697619Y115355D01*
X697613Y115372D01*
X697523Y115532D01*
X697435Y115694D01*
X697424Y115707D01*
X697415Y115723D01*
X697295Y115862D01*
X697178Y116003D01*
X697164Y116014D01*
X697152Y116028D01*
X697007Y116140D01*
X696864Y116255D01*
X696848Y116263D01*
X696834Y116274D01*
X696669Y116356D01*
X696507Y116441D01*
X696490Y116446D01*
X696474Y116454D01*
X696295Y116501D01*
X696120Y116552D01*
X696102Y116554D01*
X696085Y116558D01*
X695754Y116585D01*
X288275Y116585D01*
X288248Y116583D01*
X288222Y116585D01*
X288048Y116563D01*
X287874Y116545D01*
X287849Y116538D01*
X287822Y116534D01*
X287657Y116479D01*
X287490Y116427D01*
X287466Y116414D01*
X287441Y116406D01*
X287289Y116319D01*
X287135Y116235D01*
X287115Y116218D01*
X287092Y116205D01*
X286839Y115990D01*
X261660Y90811D01*
X261656Y90807D01*
X261652Y90803D01*
X261639Y90787D01*
X261622Y90773D01*
X261515Y90635D01*
X261405Y90500D01*
X261392Y90476D01*
X261376Y90455D01*
X261298Y90298D01*
X261216Y90144D01*
X261208Y90119D01*
X261196Y90094D01*
X261151Y89925D01*
X261101Y89758D01*
X261099Y89732D01*
X261092Y89706D01*
X261065Y89375D01*
X261065Y83026D01*
X259874Y81835D01*
X248126Y81835D01*
G37*
%LPD*%
%LPC*%
G36*
X193128Y26287D02*
X193128Y26287D01*
X191937Y27478D01*
X191937Y60322D01*
X193128Y61513D01*
X225972Y61513D01*
X227163Y60322D01*
X227163Y27478D01*
X225972Y26287D01*
X193128Y26287D01*
G37*
%LPD*%
%LPC*%
G36*
X561428Y294087D02*
X561428Y294087D01*
X560237Y295278D01*
X560237Y328122D01*
X561428Y329313D01*
X594272Y329313D01*
X595463Y328122D01*
X595463Y295278D01*
X594272Y294087D01*
X561428Y294087D01*
G37*
%LPD*%
%LPC*%
G36*
X529823Y156463D02*
X529823Y156463D01*
X525846Y160440D01*
X525825Y160457D01*
X525807Y160478D01*
X525669Y160585D01*
X525534Y160695D01*
X525510Y160708D01*
X525489Y160724D01*
X525333Y160802D01*
X525178Y160884D01*
X525153Y160892D01*
X525129Y160904D01*
X524959Y160949D01*
X524792Y160999D01*
X524766Y161001D01*
X524740Y161008D01*
X524409Y161035D01*
X513541Y161035D01*
X512048Y161654D01*
X505133Y168568D01*
X505113Y168585D01*
X505095Y168606D01*
X504957Y168713D01*
X504822Y168823D01*
X504798Y168836D01*
X504777Y168852D01*
X504620Y168930D01*
X504466Y169012D01*
X504441Y169020D01*
X504416Y169032D01*
X504247Y169077D01*
X504080Y169127D01*
X504054Y169129D01*
X504028Y169136D01*
X503697Y169163D01*
X498073Y169163D01*
X493013Y174223D01*
X493013Y181377D01*
X498073Y186437D01*
X505227Y186437D01*
X510287Y181377D01*
X510287Y175753D01*
X510289Y175726D01*
X510287Y175700D01*
X510309Y175526D01*
X510327Y175352D01*
X510334Y175327D01*
X510338Y175300D01*
X510393Y175135D01*
X510445Y174968D01*
X510458Y174944D01*
X510466Y174919D01*
X510553Y174767D01*
X510637Y174613D01*
X510654Y174593D01*
X510667Y174570D01*
X510882Y174317D01*
X515439Y169760D01*
X515459Y169743D01*
X515477Y169722D01*
X515615Y169615D01*
X515750Y169505D01*
X515774Y169492D01*
X515795Y169476D01*
X515952Y169398D01*
X516106Y169316D01*
X516131Y169308D01*
X516156Y169296D01*
X516325Y169251D01*
X516492Y169201D01*
X516518Y169199D01*
X516544Y169192D01*
X516875Y169165D01*
X524409Y169165D01*
X524436Y169167D01*
X524463Y169165D01*
X524636Y169187D01*
X524810Y169205D01*
X524835Y169212D01*
X524862Y169216D01*
X525028Y169272D01*
X525195Y169323D01*
X525218Y169336D01*
X525244Y169344D01*
X525395Y169431D01*
X525549Y169515D01*
X525569Y169532D01*
X525593Y169545D01*
X525846Y169760D01*
X529823Y173737D01*
X536977Y173737D01*
X542037Y168677D01*
X542037Y161523D01*
X536977Y156463D01*
X529823Y156463D01*
G37*
%LPD*%
%LPC*%
G36*
X686276Y285035D02*
X686276Y285035D01*
X685085Y286226D01*
X685085Y297974D01*
X686301Y299189D01*
X686455Y299205D01*
X686472Y299210D01*
X686489Y299212D01*
X686664Y299269D01*
X686840Y299323D01*
X686855Y299331D01*
X686872Y299337D01*
X687032Y299427D01*
X687194Y299515D01*
X687207Y299526D01*
X687223Y299535D01*
X687362Y299655D01*
X687503Y299772D01*
X687514Y299786D01*
X687528Y299798D01*
X687640Y299943D01*
X687755Y300086D01*
X687763Y300102D01*
X687774Y300116D01*
X687856Y300281D01*
X687941Y300443D01*
X687946Y300460D01*
X687954Y300476D01*
X688001Y300655D01*
X688052Y300830D01*
X688054Y300848D01*
X688058Y300865D01*
X688085Y301196D01*
X688085Y314859D01*
X688084Y314872D01*
X688085Y314884D01*
X688083Y314897D01*
X688085Y314913D01*
X688063Y315086D01*
X688045Y315260D01*
X688038Y315285D01*
X688034Y315312D01*
X687978Y315478D01*
X687927Y315645D01*
X687914Y315668D01*
X687906Y315694D01*
X687819Y315845D01*
X687735Y315999D01*
X687718Y316019D01*
X687705Y316043D01*
X687490Y316296D01*
X683513Y320273D01*
X683513Y327427D01*
X688573Y332487D01*
X695727Y332487D01*
X700787Y327427D01*
X700787Y320273D01*
X696810Y316296D01*
X696793Y316275D01*
X696772Y316257D01*
X696665Y316119D01*
X696555Y315984D01*
X696542Y315960D01*
X696526Y315939D01*
X696448Y315783D01*
X696366Y315628D01*
X696358Y315603D01*
X696346Y315579D01*
X696301Y315409D01*
X696251Y315242D01*
X696249Y315217D01*
X696248Y315214D01*
X696248Y315212D01*
X696242Y315190D01*
X696215Y314859D01*
X696215Y301196D01*
X696217Y301178D01*
X696215Y301160D01*
X696236Y300978D01*
X696255Y300795D01*
X696260Y300778D01*
X696262Y300761D01*
X696319Y300586D01*
X696373Y300410D01*
X696381Y300395D01*
X696387Y300378D01*
X696477Y300218D01*
X696565Y300056D01*
X696576Y300043D01*
X696585Y300027D01*
X696705Y299888D01*
X696822Y299747D01*
X696836Y299736D01*
X696848Y299722D01*
X696993Y299610D01*
X697136Y299495D01*
X697152Y299487D01*
X697166Y299476D01*
X697331Y299394D01*
X697493Y299309D01*
X697510Y299304D01*
X697526Y299296D01*
X697705Y299249D01*
X697880Y299198D01*
X697898Y299196D01*
X697915Y299192D01*
X698004Y299185D01*
X699215Y297974D01*
X699215Y286226D01*
X698024Y285035D01*
X686276Y285035D01*
G37*
%LPD*%
%LPC*%
G36*
X135236Y256285D02*
X135236Y256285D01*
X129135Y262386D01*
X129135Y271014D01*
X135431Y277310D01*
X135437Y277317D01*
X135444Y277322D01*
X135564Y277472D01*
X135686Y277621D01*
X135690Y277629D01*
X135696Y277636D01*
X135784Y277806D01*
X135875Y277977D01*
X135877Y277986D01*
X135881Y277993D01*
X135935Y278178D01*
X135990Y278363D01*
X135990Y278372D01*
X135993Y278380D01*
X136008Y278570D01*
X136026Y278764D01*
X136025Y278773D01*
X136026Y278782D01*
X136004Y278970D01*
X135983Y279164D01*
X135980Y279173D01*
X135979Y279181D01*
X135919Y279363D01*
X135861Y279548D01*
X135857Y279556D01*
X135854Y279564D01*
X135759Y279733D01*
X135666Y279900D01*
X135660Y279907D01*
X135656Y279915D01*
X135530Y280061D01*
X135406Y280207D01*
X135399Y280213D01*
X135393Y280220D01*
X135241Y280337D01*
X135090Y280457D01*
X135082Y280461D01*
X135075Y280466D01*
X134903Y280552D01*
X134731Y280639D01*
X134722Y280642D01*
X134714Y280646D01*
X134528Y280696D01*
X134343Y280747D01*
X134334Y280748D01*
X134325Y280750D01*
X133995Y280777D01*
X130833Y280777D01*
X130187Y280950D01*
X129608Y281285D01*
X129135Y281758D01*
X128800Y282337D01*
X128627Y282983D01*
X128627Y288951D01*
X138832Y288951D01*
X138850Y288952D01*
X138867Y288951D01*
X139050Y288972D01*
X139232Y288991D01*
X139249Y288996D01*
X139267Y288998D01*
X139442Y289055D01*
X139542Y289086D01*
X139549Y289082D01*
X139727Y289034D01*
X139902Y288984D01*
X139920Y288982D01*
X139937Y288978D01*
X140268Y288951D01*
X150473Y288951D01*
X150473Y282983D01*
X150300Y282337D01*
X149965Y281758D01*
X149492Y281285D01*
X148913Y280950D01*
X148267Y280777D01*
X145105Y280777D01*
X145096Y280776D01*
X145087Y280777D01*
X144894Y280756D01*
X144705Y280737D01*
X144696Y280735D01*
X144687Y280734D01*
X144503Y280676D01*
X144320Y280619D01*
X144312Y280615D01*
X144303Y280612D01*
X144134Y280518D01*
X143966Y280427D01*
X143959Y280422D01*
X143951Y280417D01*
X143804Y280293D01*
X143656Y280170D01*
X143651Y280163D01*
X143644Y280157D01*
X143525Y280006D01*
X143404Y279856D01*
X143400Y279848D01*
X143394Y279841D01*
X143306Y279667D01*
X143219Y279499D01*
X143216Y279490D01*
X143212Y279482D01*
X143160Y279296D01*
X143107Y279112D01*
X143106Y279103D01*
X143104Y279094D01*
X143090Y278901D01*
X143074Y278710D01*
X143075Y278702D01*
X143075Y278693D01*
X143099Y278500D01*
X143121Y278311D01*
X143124Y278302D01*
X143125Y278293D01*
X143186Y278110D01*
X143246Y277928D01*
X143250Y277920D01*
X143253Y277912D01*
X143349Y277745D01*
X143444Y277577D01*
X143450Y277570D01*
X143454Y277563D01*
X143669Y277310D01*
X149965Y271014D01*
X149965Y262386D01*
X143864Y256285D01*
X135236Y256285D01*
G37*
%LPD*%
%LPC*%
G36*
X625805Y78617D02*
X625805Y78617D01*
X622025Y80183D01*
X619133Y83075D01*
X617567Y86855D01*
X617567Y90945D01*
X619133Y94725D01*
X622025Y97617D01*
X625805Y99183D01*
X629895Y99183D01*
X633675Y97617D01*
X636567Y94725D01*
X638133Y90945D01*
X638133Y86855D01*
X636567Y83075D01*
X633675Y80183D01*
X629895Y78617D01*
X625805Y78617D01*
G37*
%LPD*%
%LPC*%
G36*
X883705Y91317D02*
X883705Y91317D01*
X879925Y92883D01*
X877033Y95775D01*
X875467Y99555D01*
X875467Y103645D01*
X877033Y107425D01*
X879925Y110317D01*
X883705Y111883D01*
X887795Y111883D01*
X891575Y110317D01*
X894467Y107425D01*
X896033Y103645D01*
X896033Y99555D01*
X894467Y95775D01*
X891575Y92883D01*
X887795Y91317D01*
X883705Y91317D01*
G37*
%LPD*%
%LPC*%
G36*
X731305Y91317D02*
X731305Y91317D01*
X727525Y92883D01*
X724633Y95775D01*
X723067Y99555D01*
X723067Y103645D01*
X724633Y107425D01*
X727525Y110317D01*
X731305Y111883D01*
X735395Y111883D01*
X739175Y110317D01*
X742067Y107425D01*
X743633Y103645D01*
X743633Y99555D01*
X742067Y95775D01*
X739175Y92883D01*
X735395Y91317D01*
X731305Y91317D01*
G37*
%LPD*%
%LPC*%
G36*
X816305Y91317D02*
X816305Y91317D01*
X812525Y92883D01*
X809633Y95775D01*
X808067Y99555D01*
X808067Y103645D01*
X809633Y107425D01*
X812525Y110317D01*
X816305Y111883D01*
X820395Y111883D01*
X824175Y110317D01*
X827067Y107425D01*
X828633Y103645D01*
X828633Y99555D01*
X827067Y95775D01*
X824175Y92883D01*
X820395Y91317D01*
X816305Y91317D01*
G37*
%LPD*%
%LPC*%
G36*
X102805Y167517D02*
X102805Y167517D01*
X99025Y169083D01*
X96133Y171975D01*
X94567Y175755D01*
X94567Y179845D01*
X96133Y183625D01*
X99025Y186517D01*
X102805Y188083D01*
X106895Y188083D01*
X110675Y186517D01*
X113567Y183625D01*
X115133Y179845D01*
X115133Y175755D01*
X113567Y171975D01*
X110675Y169083D01*
X106895Y167517D01*
X102805Y167517D01*
G37*
%LPD*%
%LPC*%
G36*
X324905Y78617D02*
X324905Y78617D01*
X321125Y80183D01*
X318233Y83075D01*
X316667Y86855D01*
X316667Y90945D01*
X318233Y94725D01*
X321125Y97617D01*
X324905Y99183D01*
X328995Y99183D01*
X332775Y97617D01*
X335667Y94725D01*
X337233Y90945D01*
X337233Y86855D01*
X335667Y83075D01*
X332775Y80183D01*
X328995Y78617D01*
X324905Y78617D01*
G37*
%LPD*%
%LPC*%
G36*
X540805Y78617D02*
X540805Y78617D01*
X537025Y80183D01*
X534133Y83075D01*
X532567Y86855D01*
X532567Y90945D01*
X534133Y94725D01*
X537025Y97617D01*
X540805Y99183D01*
X544895Y99183D01*
X548675Y97617D01*
X551567Y94725D01*
X553133Y90945D01*
X553133Y86855D01*
X551567Y83075D01*
X548675Y80183D01*
X544895Y78617D01*
X540805Y78617D01*
G37*
%LPD*%
%LPC*%
G36*
X409905Y256417D02*
X409905Y256417D01*
X406125Y257983D01*
X403233Y260875D01*
X401667Y264655D01*
X401667Y268745D01*
X403233Y272525D01*
X406125Y275417D01*
X408528Y276412D01*
X408528Y276413D01*
X409905Y276983D01*
X413995Y276983D01*
X417775Y275417D01*
X420667Y272525D01*
X422233Y268745D01*
X422233Y264655D01*
X420667Y260875D01*
X417775Y257983D01*
X413995Y256417D01*
X409905Y256417D01*
G37*
%LPD*%
%LPC*%
G36*
X731305Y243717D02*
X731305Y243717D01*
X727525Y245283D01*
X724633Y248175D01*
X723067Y251955D01*
X723067Y256045D01*
X724633Y259825D01*
X727525Y262717D01*
X731165Y264225D01*
X731305Y264283D01*
X735395Y264283D01*
X739175Y262717D01*
X742067Y259825D01*
X743633Y256045D01*
X743633Y251955D01*
X742067Y248175D01*
X739175Y245283D01*
X735395Y243717D01*
X731305Y243717D01*
G37*
%LPD*%
%LPC*%
G36*
X816305Y243717D02*
X816305Y243717D01*
X812525Y245283D01*
X809633Y248175D01*
X808067Y251955D01*
X808067Y256045D01*
X809633Y259825D01*
X812525Y262717D01*
X816165Y264225D01*
X816305Y264283D01*
X820395Y264283D01*
X824175Y262717D01*
X827067Y259825D01*
X828633Y256045D01*
X828633Y251955D01*
X827067Y248175D01*
X824175Y245283D01*
X820395Y243717D01*
X816305Y243717D01*
G37*
%LPD*%
%LPC*%
G36*
X883705Y243717D02*
X883705Y243717D01*
X879925Y245283D01*
X877033Y248175D01*
X875467Y251955D01*
X875467Y256045D01*
X877033Y259825D01*
X879925Y262717D01*
X883565Y264225D01*
X883705Y264283D01*
X887795Y264283D01*
X891575Y262717D01*
X894467Y259825D01*
X896033Y256045D01*
X896033Y251955D01*
X894467Y248175D01*
X891575Y245283D01*
X887795Y243717D01*
X883705Y243717D01*
G37*
%LPD*%
%LPC*%
G36*
X27939Y327661D02*
X27939Y327661D01*
X35561Y327661D01*
X35561Y321780D01*
X35311Y320201D01*
X34816Y318680D01*
X34090Y317255D01*
X33150Y315961D01*
X32019Y314830D01*
X30725Y313890D01*
X29300Y313164D01*
X27939Y312721D01*
X27939Y327661D01*
G37*
%LPD*%
%LPC*%
G36*
X21500Y313164D02*
X21500Y313164D01*
X20075Y313890D01*
X18781Y314830D01*
X17650Y315961D01*
X16710Y317255D01*
X15984Y318680D01*
X15489Y320201D01*
X15239Y321780D01*
X15239Y327661D01*
X22861Y327661D01*
X22861Y312721D01*
X21500Y313164D01*
G37*
%LPD*%
%LPC*%
G36*
X858499Y256749D02*
X858499Y256749D01*
X858499Y264453D01*
X859892Y264000D01*
X861406Y263229D01*
X862780Y262231D01*
X863981Y261030D01*
X864979Y259656D01*
X865750Y258142D01*
X866203Y256749D01*
X858499Y256749D01*
G37*
%LPD*%
%LPC*%
G36*
X299699Y91649D02*
X299699Y91649D01*
X299699Y99353D01*
X301092Y98900D01*
X302606Y98129D01*
X303980Y97131D01*
X305181Y95930D01*
X306179Y94556D01*
X306950Y93042D01*
X307403Y91649D01*
X299699Y91649D01*
G37*
%LPD*%
%LPC*%
G36*
X515599Y91649D02*
X515599Y91649D01*
X515599Y99353D01*
X516992Y98900D01*
X518506Y98129D01*
X519880Y97131D01*
X521081Y95930D01*
X522079Y94556D01*
X522850Y93042D01*
X523303Y91649D01*
X515599Y91649D01*
G37*
%LPD*%
%LPC*%
G36*
X706099Y256749D02*
X706099Y256749D01*
X706099Y264453D01*
X707492Y264000D01*
X709006Y263229D01*
X710380Y262231D01*
X711581Y261030D01*
X712579Y259656D01*
X713350Y258142D01*
X713803Y256749D01*
X706099Y256749D01*
G37*
%LPD*%
%LPC*%
G36*
X858499Y104349D02*
X858499Y104349D01*
X858499Y112053D01*
X859892Y111600D01*
X861406Y110829D01*
X862780Y109831D01*
X863981Y108630D01*
X864979Y107256D01*
X865750Y105742D01*
X866203Y104349D01*
X858499Y104349D01*
G37*
%LPD*%
%LPC*%
G36*
X299699Y269449D02*
X299699Y269449D01*
X299699Y277153D01*
X301092Y276700D01*
X302606Y275929D01*
X303980Y274931D01*
X305181Y273730D01*
X306179Y272355D01*
X306950Y270842D01*
X307403Y269449D01*
X299699Y269449D01*
G37*
%LPD*%
%LPC*%
G36*
X858499Y251251D02*
X858499Y251251D01*
X866203Y251251D01*
X865750Y249858D01*
X864979Y248344D01*
X863981Y246970D01*
X862780Y245769D01*
X861406Y244771D01*
X859892Y244000D01*
X858499Y243547D01*
X858499Y251251D01*
G37*
%LPD*%
%LPC*%
G36*
X299699Y86151D02*
X299699Y86151D01*
X307403Y86151D01*
X306950Y84758D01*
X306179Y83244D01*
X305181Y81870D01*
X303980Y80669D01*
X302606Y79671D01*
X301092Y78900D01*
X299699Y78447D01*
X299699Y86151D01*
G37*
%LPD*%
%LPC*%
G36*
X137599Y175051D02*
X137599Y175051D01*
X145303Y175051D01*
X144850Y173658D01*
X144079Y172144D01*
X143081Y170770D01*
X141880Y169569D01*
X140506Y168571D01*
X138992Y167800D01*
X137599Y167347D01*
X137599Y175051D01*
G37*
%LPD*%
%LPC*%
G36*
X286497Y91649D02*
X286497Y91649D01*
X286950Y93042D01*
X287721Y94556D01*
X288719Y95930D01*
X289920Y97131D01*
X291294Y98129D01*
X292808Y98900D01*
X294201Y99353D01*
X294201Y91649D01*
X286497Y91649D01*
G37*
%LPD*%
%LPC*%
G36*
X845297Y104349D02*
X845297Y104349D01*
X845750Y105742D01*
X846521Y107256D01*
X847519Y108630D01*
X848720Y109831D01*
X850094Y110829D01*
X851608Y111600D01*
X853001Y112053D01*
X853001Y104349D01*
X845297Y104349D01*
G37*
%LPD*%
%LPC*%
G36*
X515599Y86151D02*
X515599Y86151D01*
X523303Y86151D01*
X522850Y84758D01*
X522079Y83244D01*
X521081Y81870D01*
X519880Y80669D01*
X518506Y79671D01*
X516992Y78900D01*
X515599Y78447D01*
X515599Y86151D01*
G37*
%LPD*%
%LPC*%
G36*
X692897Y256749D02*
X692897Y256749D01*
X693350Y258142D01*
X694121Y259656D01*
X695119Y261030D01*
X696320Y262231D01*
X697694Y263229D01*
X699208Y264000D01*
X700601Y264453D01*
X700601Y256749D01*
X692897Y256749D01*
G37*
%LPD*%
%LPC*%
G36*
X502397Y91649D02*
X502397Y91649D01*
X502850Y93042D01*
X503621Y94556D01*
X504619Y95930D01*
X505820Y97131D01*
X507194Y98129D01*
X508708Y98900D01*
X510101Y99353D01*
X510101Y91649D01*
X502397Y91649D01*
G37*
%LPD*%
%LPC*%
G36*
X845297Y256749D02*
X845297Y256749D01*
X845750Y258142D01*
X846521Y259656D01*
X847519Y261030D01*
X848720Y262231D01*
X850094Y263229D01*
X851608Y264000D01*
X853001Y264453D01*
X853001Y256749D01*
X845297Y256749D01*
G37*
%LPD*%
%LPC*%
G36*
X706099Y98851D02*
X706099Y98851D01*
X713803Y98851D01*
X713350Y97458D01*
X712579Y95944D01*
X711581Y94570D01*
X710380Y93369D01*
X709006Y92371D01*
X707492Y91600D01*
X706099Y91147D01*
X706099Y98851D01*
G37*
%LPD*%
%LPC*%
G36*
X858499Y98851D02*
X858499Y98851D01*
X866203Y98851D01*
X865750Y97458D01*
X864979Y95944D01*
X863981Y94570D01*
X862780Y93369D01*
X861406Y92371D01*
X859892Y91600D01*
X858499Y91147D01*
X858499Y98851D01*
G37*
%LPD*%
%LPC*%
G36*
X299699Y263951D02*
X299699Y263951D01*
X307403Y263951D01*
X306950Y262558D01*
X306179Y261044D01*
X305181Y259670D01*
X303980Y258469D01*
X302606Y257471D01*
X301092Y256700D01*
X299699Y256247D01*
X299699Y263951D01*
G37*
%LPD*%
%LPC*%
G36*
X124397Y180549D02*
X124397Y180549D01*
X124850Y181942D01*
X125621Y183455D01*
X126619Y184830D01*
X127820Y186031D01*
X129194Y187029D01*
X130708Y187800D01*
X132101Y188253D01*
X132101Y180549D01*
X124397Y180549D01*
G37*
%LPD*%
%LPC*%
G36*
X286497Y269449D02*
X286497Y269449D01*
X286950Y270842D01*
X287721Y272355D01*
X288719Y273730D01*
X289920Y274931D01*
X291294Y275929D01*
X292808Y276700D01*
X294201Y277153D01*
X294201Y269449D01*
X286497Y269449D01*
G37*
%LPD*%
%LPC*%
G36*
X130708Y167800D02*
X130708Y167800D01*
X129194Y168571D01*
X127820Y169569D01*
X126619Y170770D01*
X125621Y172144D01*
X124850Y173658D01*
X124397Y175051D01*
X132101Y175051D01*
X132101Y167347D01*
X130708Y167800D01*
G37*
%LPD*%
%LPC*%
G36*
X851608Y244000D02*
X851608Y244000D01*
X850094Y244771D01*
X848720Y245769D01*
X847519Y246970D01*
X846521Y248344D01*
X845750Y249858D01*
X845297Y251251D01*
X853001Y251251D01*
X853001Y243547D01*
X851608Y244000D01*
G37*
%LPD*%
%LPC*%
G36*
X508708Y78900D02*
X508708Y78900D01*
X507194Y79671D01*
X505820Y80669D01*
X504619Y81870D01*
X503621Y83244D01*
X502850Y84758D01*
X502397Y86151D01*
X510101Y86151D01*
X510101Y78447D01*
X508708Y78900D01*
G37*
%LPD*%
%LPC*%
G36*
X292808Y78900D02*
X292808Y78900D01*
X291294Y79671D01*
X289920Y80669D01*
X288719Y81870D01*
X287721Y83244D01*
X286950Y84758D01*
X286497Y86151D01*
X294201Y86151D01*
X294201Y78447D01*
X292808Y78900D01*
G37*
%LPD*%
%LPC*%
G36*
X699208Y91600D02*
X699208Y91600D01*
X697694Y92371D01*
X696320Y93369D01*
X695119Y94570D01*
X694121Y95944D01*
X693350Y97458D01*
X692897Y98851D01*
X700601Y98851D01*
X700601Y91147D01*
X699208Y91600D01*
G37*
%LPD*%
%LPC*%
G36*
X292808Y256700D02*
X292808Y256700D01*
X291294Y257471D01*
X289920Y258469D01*
X288719Y259670D01*
X287721Y261044D01*
X286950Y262558D01*
X286497Y263951D01*
X294201Y263951D01*
X294201Y256247D01*
X292808Y256700D01*
G37*
%LPD*%
%LPC*%
G36*
X851608Y91600D02*
X851608Y91600D01*
X850094Y92371D01*
X848720Y93369D01*
X847519Y94570D01*
X846521Y95944D01*
X845750Y97458D01*
X845297Y98851D01*
X853001Y98851D01*
X853001Y91147D01*
X851608Y91600D01*
G37*
%LPD*%
%LPC*%
G36*
X478281Y179831D02*
X478281Y179831D01*
X478281Y186945D01*
X480038Y186945D01*
X485395Y181588D01*
X485395Y179831D01*
X478281Y179831D01*
G37*
%LPD*%
%LPC*%
G36*
X467105Y179831D02*
X467105Y179831D01*
X467105Y181588D01*
X472462Y186945D01*
X474219Y186945D01*
X474219Y179831D01*
X467105Y179831D01*
G37*
%LPD*%
%LPC*%
G36*
X478281Y168655D02*
X478281Y168655D01*
X478281Y175769D01*
X485395Y175769D01*
X485395Y174012D01*
X480038Y168655D01*
X478281Y168655D01*
G37*
%LPD*%
%LPC*%
G36*
X472462Y168655D02*
X472462Y168655D01*
X467105Y174012D01*
X467105Y175769D01*
X474219Y175769D01*
X474219Y168655D01*
X472462Y168655D01*
G37*
%LPD*%
D10*
X970750Y254000D03*
X885750Y254000D03*
X855750Y254000D03*
X970750Y101600D03*
X885750Y101600D03*
X855750Y101600D03*
X818350Y101600D03*
X733350Y101600D03*
X703350Y101600D03*
X818350Y254000D03*
X733350Y254000D03*
X703350Y254000D03*
X411950Y266700D03*
X326950Y266700D03*
X296950Y266700D03*
X411950Y88900D03*
X326950Y88900D03*
X296950Y88900D03*
X19850Y177800D03*
X104850Y177800D03*
X134850Y177800D03*
D11*
X139550Y291700D03*
D12*
X139550Y266700D03*
X139550Y241700D03*
D13*
X209550Y221700D03*
X209550Y311700D03*
D11*
X507850Y291700D03*
D12*
X507850Y266700D03*
X507850Y241700D03*
D13*
X577850Y221700D03*
X577850Y311700D03*
D14*
X127000Y322580D02*
X127000Y337820D01*
X101600Y337820D02*
X101600Y322580D01*
X76200Y322580D02*
X76200Y337820D01*
X50800Y337820D02*
X50800Y322580D01*
X25400Y322580D02*
X25400Y337820D01*
D15*
X653796Y203200D02*
X667004Y203200D01*
X667004Y152400D02*
X653796Y152400D01*
X653796Y177800D02*
X667004Y177800D01*
D16*
X533400Y165100D03*
X609600Y165100D03*
D17*
X501650Y177800D03*
X476250Y177800D03*
D11*
X139550Y113900D03*
D12*
X139550Y88900D03*
X139550Y63900D03*
D13*
X209550Y43900D03*
X209550Y133900D03*
D10*
X627850Y88900D03*
X542850Y88900D03*
X512850Y88900D03*
D14*
X971550Y33020D02*
X971550Y17780D01*
X946150Y17780D02*
X946150Y33020D01*
X920750Y33020D02*
X920750Y17780D01*
X895350Y17780D02*
X895350Y33020D01*
X717550Y322580D02*
X717550Y337820D01*
X742950Y337820D02*
X742950Y322580D01*
X768350Y322580D02*
X768350Y337820D01*
X793750Y337820D02*
X793750Y322580D01*
X819150Y322580D02*
X819150Y337820D01*
D17*
X692150Y323850D03*
X615950Y323850D03*
D18*
X50800Y50800D03*
X50800Y247650D03*
X450850Y38100D03*
X952500Y330200D03*
X469900Y292100D03*
X101600Y285750D03*
X622300Y215900D03*
D19*
X76200Y279400D02*
X76200Y330200D01*
X76200Y279400D02*
X158750Y196850D01*
X311150Y196850D01*
X317500Y203200D01*
X317500Y260350D02*
X326950Y266700D01*
X317500Y260350D02*
X317500Y203200D01*
X514350Y203200D01*
X533400Y184150D01*
X622300Y184150D01*
X641350Y165100D01*
X869950Y165100D01*
D18*
X869950Y165100D03*
D19*
X101600Y317500D02*
X101600Y330200D01*
X101600Y317500D02*
X114300Y304800D01*
X171450Y304800D01*
X190500Y285750D01*
X298450Y285750D01*
X311150Y298450D01*
X425450Y298450D01*
X469900Y254000D01*
X622300Y254000D01*
X654050Y222250D01*
X692150Y222250D01*
X723900Y190500D01*
X869950Y190500D01*
X908050Y152400D01*
X958050Y152400D01*
X971550Y139700D01*
X971550Y101600D01*
X970750Y101600D01*
X146050Y330200D02*
X127000Y330200D01*
X146050Y330200D02*
X158750Y342900D01*
X628650Y342900D01*
X647700Y323850D01*
X647700Y260350D01*
X673100Y234950D01*
X704850Y234950D01*
D18*
X704850Y234950D03*
D19*
X50800Y285750D02*
X50800Y330200D01*
X50800Y285750D02*
X152400Y184150D01*
X400050Y184150D01*
X444500Y139700D01*
X819150Y139700D01*
D18*
X819150Y139700D03*
D19*
X19850Y177800D02*
X19050Y177800D01*
X38100Y158750D01*
X279400Y158750D01*
X279400Y50800D02*
X908050Y50800D01*
X920750Y38100D01*
X920750Y25400D01*
D18*
X279400Y158750D03*
X279400Y50800D03*
D19*
X508000Y228600D02*
X508000Y241300D01*
X508000Y228600D02*
X539750Y196850D01*
X628650Y196850D01*
X635000Y190500D01*
X685800Y190500D01*
X698500Y177800D01*
X838200Y177800D01*
D18*
X508000Y241300D03*
X838200Y177800D03*
D19*
X692150Y292100D02*
X692150Y323850D01*
D18*
X692150Y292100D03*
D19*
X533400Y165100D02*
X514350Y165100D01*
X501650Y177800D01*
X609600Y165100D02*
X622300Y152400D01*
X660400Y152400D01*
X742950Y304800D02*
X742950Y330200D01*
X742950Y304800D02*
X711200Y273050D01*
X679450Y273050D01*
X704850Y120650D02*
X285750Y120650D01*
X254000Y88900D01*
D18*
X704850Y120650D03*
X254000Y88900D03*
X679450Y273050D03*
D19*
X895350Y25400D02*
X279400Y25400D01*
X203200Y101600D01*
X139700Y101600D01*
X139700Y88900D01*
X139550Y88900D01*
X139550Y113900D01*
X971550Y50800D02*
X971550Y25400D01*
X971550Y50800D02*
X952500Y69850D01*
X450850Y69850D01*
X431800Y88900D01*
X411950Y88900D01*
X507850Y266700D02*
X507850Y291700D01*
X508000Y279000D01*
X514350Y279400D01*
X596900Y279400D01*
X615950Y298450D01*
X615950Y323850D01*
M02*
