G04 EAGLE Gerber RS-274X export*
G75*
%MOMM*%
%FSLAX34Y34*%
%LPD*%
%INBoard Outline*%
%IPPOS*%
%AMOC8*
5,1,8,0,0,1.08239X$1,22.5*%
G01*
%ADD10C,0.000000*%
%ADD11C,0.254000*%


D10*
X0Y0D02*
X990400Y0D01*
X990600Y355600D01*
X0Y355600D01*
X0Y0D01*
X123700Y25400D02*
X123705Y25793D01*
X123719Y26185D01*
X123743Y26577D01*
X123777Y26968D01*
X123820Y27359D01*
X123873Y27748D01*
X123936Y28135D01*
X124007Y28521D01*
X124089Y28906D01*
X124179Y29288D01*
X124280Y29667D01*
X124389Y30045D01*
X124508Y30419D01*
X124635Y30790D01*
X124772Y31158D01*
X124918Y31523D01*
X125073Y31884D01*
X125236Y32241D01*
X125408Y32594D01*
X125589Y32942D01*
X125779Y33286D01*
X125976Y33626D01*
X126182Y33960D01*
X126396Y34289D01*
X126619Y34613D01*
X126849Y34931D01*
X127086Y35244D01*
X127332Y35550D01*
X127585Y35851D01*
X127845Y36145D01*
X128112Y36433D01*
X128386Y36714D01*
X128667Y36988D01*
X128955Y37255D01*
X129249Y37515D01*
X129550Y37768D01*
X129856Y38014D01*
X130169Y38251D01*
X130487Y38481D01*
X130811Y38704D01*
X131140Y38918D01*
X131474Y39124D01*
X131814Y39321D01*
X132158Y39511D01*
X132506Y39692D01*
X132859Y39864D01*
X133216Y40027D01*
X133577Y40182D01*
X133942Y40328D01*
X134310Y40465D01*
X134681Y40592D01*
X135055Y40711D01*
X135433Y40820D01*
X135812Y40921D01*
X136194Y41011D01*
X136579Y41093D01*
X136965Y41164D01*
X137352Y41227D01*
X137741Y41280D01*
X138132Y41323D01*
X138523Y41357D01*
X138915Y41381D01*
X139307Y41395D01*
X139700Y41400D01*
X140093Y41395D01*
X140485Y41381D01*
X140877Y41357D01*
X141268Y41323D01*
X141659Y41280D01*
X142048Y41227D01*
X142435Y41164D01*
X142821Y41093D01*
X143206Y41011D01*
X143588Y40921D01*
X143967Y40820D01*
X144345Y40711D01*
X144719Y40592D01*
X145090Y40465D01*
X145458Y40328D01*
X145823Y40182D01*
X146184Y40027D01*
X146541Y39864D01*
X146894Y39692D01*
X147242Y39511D01*
X147586Y39321D01*
X147926Y39124D01*
X148260Y38918D01*
X148589Y38704D01*
X148913Y38481D01*
X149231Y38251D01*
X149544Y38014D01*
X149850Y37768D01*
X150151Y37515D01*
X150445Y37255D01*
X150733Y36988D01*
X151014Y36714D01*
X151288Y36433D01*
X151555Y36145D01*
X151815Y35851D01*
X152068Y35550D01*
X152314Y35244D01*
X152551Y34931D01*
X152781Y34613D01*
X153004Y34289D01*
X153218Y33960D01*
X153424Y33626D01*
X153621Y33286D01*
X153811Y32942D01*
X153992Y32594D01*
X154164Y32241D01*
X154327Y31884D01*
X154482Y31523D01*
X154628Y31158D01*
X154765Y30790D01*
X154892Y30419D01*
X155011Y30045D01*
X155120Y29667D01*
X155221Y29288D01*
X155311Y28906D01*
X155393Y28521D01*
X155464Y28135D01*
X155527Y27748D01*
X155580Y27359D01*
X155623Y26968D01*
X155657Y26577D01*
X155681Y26185D01*
X155695Y25793D01*
X155700Y25400D01*
X155695Y25007D01*
X155681Y24615D01*
X155657Y24223D01*
X155623Y23832D01*
X155580Y23441D01*
X155527Y23052D01*
X155464Y22665D01*
X155393Y22279D01*
X155311Y21894D01*
X155221Y21512D01*
X155120Y21133D01*
X155011Y20755D01*
X154892Y20381D01*
X154765Y20010D01*
X154628Y19642D01*
X154482Y19277D01*
X154327Y18916D01*
X154164Y18559D01*
X153992Y18206D01*
X153811Y17858D01*
X153621Y17514D01*
X153424Y17174D01*
X153218Y16840D01*
X153004Y16511D01*
X152781Y16187D01*
X152551Y15869D01*
X152314Y15556D01*
X152068Y15250D01*
X151815Y14949D01*
X151555Y14655D01*
X151288Y14367D01*
X151014Y14086D01*
X150733Y13812D01*
X150445Y13545D01*
X150151Y13285D01*
X149850Y13032D01*
X149544Y12786D01*
X149231Y12549D01*
X148913Y12319D01*
X148589Y12096D01*
X148260Y11882D01*
X147926Y11676D01*
X147586Y11479D01*
X147242Y11289D01*
X146894Y11108D01*
X146541Y10936D01*
X146184Y10773D01*
X145823Y10618D01*
X145458Y10472D01*
X145090Y10335D01*
X144719Y10208D01*
X144345Y10089D01*
X143967Y9980D01*
X143588Y9879D01*
X143206Y9789D01*
X142821Y9707D01*
X142435Y9636D01*
X142048Y9573D01*
X141659Y9520D01*
X141268Y9477D01*
X140877Y9443D01*
X140485Y9419D01*
X140093Y9405D01*
X139700Y9400D01*
X139307Y9405D01*
X138915Y9419D01*
X138523Y9443D01*
X138132Y9477D01*
X137741Y9520D01*
X137352Y9573D01*
X136965Y9636D01*
X136579Y9707D01*
X136194Y9789D01*
X135812Y9879D01*
X135433Y9980D01*
X135055Y10089D01*
X134681Y10208D01*
X134310Y10335D01*
X133942Y10472D01*
X133577Y10618D01*
X133216Y10773D01*
X132859Y10936D01*
X132506Y11108D01*
X132158Y11289D01*
X131814Y11479D01*
X131474Y11676D01*
X131140Y11882D01*
X130811Y12096D01*
X130487Y12319D01*
X130169Y12549D01*
X129856Y12786D01*
X129550Y13032D01*
X129249Y13285D01*
X128955Y13545D01*
X128667Y13812D01*
X128386Y14086D01*
X128112Y14367D01*
X127845Y14655D01*
X127585Y14949D01*
X127332Y15250D01*
X127086Y15556D01*
X126849Y15869D01*
X126619Y16187D01*
X126396Y16511D01*
X126182Y16840D01*
X125976Y17174D01*
X125779Y17514D01*
X125589Y17858D01*
X125408Y18206D01*
X125236Y18559D01*
X125073Y18916D01*
X124918Y19277D01*
X124772Y19642D01*
X124635Y20010D01*
X124508Y20381D01*
X124389Y20755D01*
X124280Y21133D01*
X124179Y21512D01*
X124089Y21894D01*
X124007Y22279D01*
X123936Y22665D01*
X123873Y23052D01*
X123820Y23441D01*
X123777Y23832D01*
X123743Y24223D01*
X123719Y24615D01*
X123705Y25007D01*
X123700Y25400D01*
D11*
X0Y0D02*
X990400Y0D01*
X990600Y355600D01*
X0Y355600D01*
X0Y0D01*
X155700Y24876D02*
X155632Y23831D01*
X155495Y22792D01*
X155290Y21765D01*
X155019Y20753D01*
X154683Y19761D01*
X154282Y18793D01*
X153818Y17854D01*
X153295Y16946D01*
X152713Y16075D01*
X152075Y15244D01*
X151384Y14457D01*
X150643Y13716D01*
X149856Y13025D01*
X149025Y12388D01*
X148154Y11806D01*
X147246Y11282D01*
X146307Y10818D01*
X145339Y10417D01*
X144347Y10081D01*
X143335Y9810D01*
X142308Y9605D01*
X141269Y9469D01*
X140224Y9400D01*
X139176Y9400D01*
X138131Y9469D01*
X137092Y9605D01*
X136065Y9810D01*
X135053Y10081D01*
X134061Y10417D01*
X133093Y10818D01*
X132154Y11282D01*
X131246Y11806D01*
X130375Y12388D01*
X129544Y13025D01*
X128757Y13716D01*
X128016Y14457D01*
X127325Y15244D01*
X126688Y16075D01*
X126106Y16946D01*
X125582Y17854D01*
X125118Y18793D01*
X124717Y19761D01*
X124381Y20753D01*
X124110Y21765D01*
X123905Y22792D01*
X123769Y23831D01*
X123700Y24876D01*
X123700Y25924D01*
X123769Y26969D01*
X123905Y28008D01*
X124110Y29035D01*
X124381Y30047D01*
X124717Y31039D01*
X125118Y32007D01*
X125582Y32946D01*
X126106Y33854D01*
X126688Y34725D01*
X127325Y35556D01*
X128016Y36343D01*
X128757Y37084D01*
X129544Y37775D01*
X130375Y38413D01*
X131246Y38995D01*
X132154Y39518D01*
X133093Y39982D01*
X134061Y40383D01*
X135053Y40719D01*
X136065Y40990D01*
X137092Y41195D01*
X138131Y41332D01*
X139176Y41400D01*
X140224Y41400D01*
X141269Y41332D01*
X142308Y41195D01*
X143335Y40990D01*
X144347Y40719D01*
X145339Y40383D01*
X146307Y39982D01*
X147246Y39518D01*
X148154Y38995D01*
X149025Y38413D01*
X149856Y37775D01*
X150643Y37084D01*
X151384Y36343D01*
X152075Y35556D01*
X152713Y34725D01*
X153295Y33854D01*
X153818Y32946D01*
X154282Y32007D01*
X154683Y31039D01*
X155019Y30047D01*
X155290Y29035D01*
X155495Y28008D01*
X155632Y26969D01*
X155700Y25924D01*
X155700Y24876D01*
M02*
