M48
;GenerationSoftware,Autodesk,EAGLE,9.6.2*%
;CreationDate,2022-05-17T14:17:15Z*%
FMAT,2
ICI,OFF
METRIC,TZ,000.000
T6C0.600
T5C0.813
T4C1.016
T3C1.100
T2C2.100
T1C3.200
%
G90
M71
T1
X13970Y2540
T2
X57785Y31170
X57785Y22170
X20955Y31170
X20955Y22170
X20955Y4390
X20955Y13390
T3
X70335Y10160
X41195Y26670
X13955Y29170
X51285Y8890
X54285Y8890
X62785Y8890
X50785Y24170
X50785Y26670
X13955Y6390
X13955Y8890
X13955Y11390
X50785Y29170
X97075Y25400
X88575Y25400
X85575Y25400
X97075Y10160
X88575Y10160
X85575Y10160
X81835Y10160
X73335Y10160
X13955Y24170
X81835Y25400
X73335Y25400
X70335Y25400
X13955Y26670
X32695Y26670
X29695Y26670
X41195Y8890
X32695Y8890
X29695Y8890
X1985Y17780
X10485Y17780
X13485Y17780
T4
X2540Y33020
X94615Y2540
X92075Y2540
X76835Y33020
X79375Y33020
X74295Y33020
X71755Y33020
X89535Y2540
X81915Y33020
X97155Y2540
X12700Y33020
X10160Y33020
X7620Y33020
X5080Y33020
T5
X61595Y32385
X66040Y20320
X66040Y15240
X66040Y17780
X53340Y16510
X60960Y16510
X50165Y17780
X47625Y17780
X69215Y32385
T6
X67945Y27305
X25400Y8890
X70485Y12065
X69215Y29210
X83820Y17780
X50800Y24130
X27940Y5080
X27940Y15875
X81915Y13970
X70485Y23495
X86995Y16510
X62230Y21590
X10160Y28575
X46990Y29210
X95250Y33020
X45085Y3810
X5080Y24765
X5080Y5080
M30