G04 EAGLE Gerber RS-274X export*
G75*
%MOMM*%
%FSLAX34Y34*%
%LPD*%
%INSoldermask Top*%
%IPPOS*%
%AMOC8*
5,1,8,0,0,1.08239X$1,22.5*%
G01*
%ADD10C,3.403200*%
%ADD11C,1.853200*%
%ADD12R,1.879600X1.879600*%
%ADD13P,2.034460X8X202.500000*%
%ADD14R,3.319200X3.319200*%
%ADD15C,1.727200*%
%ADD16C,1.524000*%
%ADD17P,1.649562X8X22.500000*%
%ADD18P,1.649562X8X202.500000*%
%ADD19R,1.209600X1.209600*%


D10*
X139700Y25400D03*
D11*
X970750Y254000D03*
X885750Y254000D03*
X855750Y254000D03*
X970750Y101600D03*
X885750Y101600D03*
X855750Y101600D03*
X818350Y101600D03*
X733350Y101600D03*
X703350Y101600D03*
X818350Y254000D03*
X733350Y254000D03*
X703350Y254000D03*
X411950Y266700D03*
X326950Y266700D03*
X296950Y266700D03*
X411950Y88900D03*
X326950Y88900D03*
X296950Y88900D03*
X19850Y177800D03*
X104850Y177800D03*
X134850Y177800D03*
D12*
X139550Y291700D03*
D13*
X139550Y266700D03*
X139550Y241700D03*
D14*
X209550Y221700D03*
X209550Y311700D03*
D12*
X507850Y291700D03*
D13*
X507850Y266700D03*
X507850Y241700D03*
D14*
X577850Y221700D03*
X577850Y311700D03*
D15*
X127000Y322580D02*
X127000Y337820D01*
X101600Y337820D02*
X101600Y322580D01*
X76200Y322580D02*
X76200Y337820D01*
X50800Y337820D02*
X50800Y322580D01*
X25400Y322580D02*
X25400Y337820D01*
D16*
X653796Y203200D02*
X667004Y203200D01*
X667004Y152400D02*
X653796Y152400D01*
X653796Y177800D02*
X667004Y177800D01*
D17*
X533400Y165100D03*
X609600Y165100D03*
D18*
X501650Y177800D03*
X476250Y177800D03*
D12*
X139550Y113900D03*
D13*
X139550Y88900D03*
X139550Y63900D03*
D14*
X209550Y43900D03*
X209550Y133900D03*
D11*
X627850Y88900D03*
X542850Y88900D03*
X512850Y88900D03*
D15*
X971550Y33020D02*
X971550Y17780D01*
X946150Y17780D02*
X946150Y33020D01*
X920750Y33020D02*
X920750Y17780D01*
X895350Y17780D02*
X895350Y33020D01*
X717550Y322580D02*
X717550Y337820D01*
X742950Y337820D02*
X742950Y322580D01*
X768350Y322580D02*
X768350Y337820D01*
X793750Y337820D02*
X793750Y322580D01*
X819150Y322580D02*
X819150Y337820D01*
D18*
X692150Y323850D03*
X615950Y323850D03*
D19*
X50800Y50800D03*
X50800Y247650D03*
X450850Y38100D03*
X952500Y330200D03*
X469900Y292100D03*
X101600Y285750D03*
X622300Y215900D03*
X869950Y165100D03*
X704850Y234950D03*
X819150Y139700D03*
X279400Y158750D03*
X279400Y50800D03*
X508000Y241300D03*
X838200Y177800D03*
X692150Y292100D03*
X704850Y120650D03*
X254000Y88900D03*
X679450Y273050D03*
M02*
